<svg width="632" height="470" viewBox="0 0 632 470" fill="none" xmlns="http://www.w3.org/2000/svg">
<g id="Group 2560">
<g id="Background_Complete">
<g id="Group">
<path id="Vector" d="M631.344 413.032H0.65625V413.348H631.344V413.032Z" fill="#EBEBEB"/>
<path id="Vector_2" d="M568.151 433.336H526.372V433.651H568.151V433.336Z" fill="#EBEBEB"/>
<path id="Vector_3" d="M418.449 436.759H407.483V437.074H418.449V436.759Z" fill="#EBEBEB"/>
<path id="Vector_4" d="M525.108 421.622H500.899V421.938H525.108V421.622Z" fill="#EBEBEB"/>
<path id="Vector_5" d="M121.309 423.743H66.8262V424.058H121.309V423.743Z" fill="#EBEBEB"/>
<path id="Vector_6" d="M140.528 423.743H132.54V424.058H140.528V423.743Z" fill="#EBEBEB"/>
<path id="Vector_7" d="M284.652 429.067H166.491V429.382H284.652V429.067Z" fill="#EBEBEB"/>
<path id="Vector_8" d="M299.62 356.778H56.0495C52.08 356.778 48.8496 353.547 48.8496 349.578V7.19993C48.8496 3.23038 52.08 0 56.0495 0H299.62C303.588 0 306.819 3.23038 306.819 7.19993V349.578C306.819 353.547 303.588 356.778 299.62 356.778ZM56.0495 0.316605C52.2528 0.316605 49.165 3.40445 49.165 7.20119V349.579C49.165 353.376 52.2528 356.464 56.0495 356.464H299.62C303.415 356.464 306.503 353.376 306.503 349.579V7.19993C306.503 3.40445 303.415 0.315344 299.62 0.315344H56.0495V0.316605Z" fill="#EBEBEB"/>
<path id="Vector_9" d="M572.453 356.778H328.882C324.914 356.778 321.684 353.547 321.684 349.578V7.19993C321.684 3.23038 324.914 0 328.882 0H572.453C576.422 0 579.653 3.23038 579.653 7.19993V349.578C579.653 353.547 576.422 356.778 572.453 356.778ZM328.882 0.316605C325.087 0.316605 321.999 3.40445 321.999 7.20119V349.579C321.999 353.376 325.087 356.464 328.882 356.464H572.453C576.249 356.464 579.337 353.376 579.337 349.579V7.19993C579.337 3.40445 576.249 0.315344 572.453 0.315344H328.882V0.316605Z" fill="#EBEBEB"/>
</g>
<g id="Group_2">
<g id="Group_3">
<path id="Vector_10" d="M562.496 78.4878H256.89V373.068H562.496V78.4878Z" fill="#E0E0E0"/>
<path id="Vector_11" d="M562.496 83.8374H261.793V367.931H562.496V83.8374Z" fill="#F5F5F5"/>
<g id="Group_4">
<g id="Group_5">
<path id="Vector_12" d="M539.389 212.717H536.244V215.862H539.389V212.717Z" fill="#F0F0F0"/>
<path id="Vector_13" d="M539.389 217.988H536.244V221.133H539.389V217.988Z" fill="#F0F0F0"/>
<path id="Vector_14" d="M539.389 239.073H536.244V242.217H539.389V239.073Z" fill="#F0F0F0"/>
<path id="Vector_15" d="M539.389 244.345H536.244V247.488H539.389V244.345Z" fill="#F0F0F0"/>
<path id="Vector_16" d="M539.389 249.616H536.244V252.761H539.389V249.616Z" fill="#F0F0F0"/>
<path id="Vector_17" d="M539.389 265.43H536.244V268.575H539.389V265.43Z" fill="#F0F0F0"/>
<path id="Vector_18" d="M539.389 270.701H536.244V273.846H539.389V270.701Z" fill="#F0F0F0"/>
<path id="Vector_19" d="M534.395 233.802H531.25V236.947H534.395V233.802Z" fill="#F0F0F0"/>
<path id="Vector_20" d="M534.395 239.073H531.25V242.217H534.395V239.073Z" fill="#F0F0F0"/>
<path id="Vector_21" d="M534.395 244.345H531.25V247.488H534.395V244.345Z" fill="#F0F0F0"/>
<path id="Vector_22" d="M534.395 249.616H531.25V252.761H534.395V249.616Z" fill="#F0F0F0"/>
<path id="Vector_23" d="M534.395 254.886H531.25V258.031H534.395V254.886Z" fill="#F0F0F0"/>
<path id="Vector_24" d="M534.395 265.43H531.25V268.575H534.395V265.43Z" fill="#F0F0F0"/>
<path id="Vector_25" d="M534.395 270.701H531.25V273.846H534.395V270.701Z" fill="#F0F0F0"/>
<path id="Vector_26" d="M529.4 212.717H526.256V215.862H529.4V212.717Z" fill="#F0F0F0"/>
<path id="Vector_27" d="M529.4 217.988H526.256V221.133H529.4V217.988Z" fill="#F0F0F0"/>
<path id="Vector_28" d="M529.4 223.26H526.256V226.403H529.4V223.26Z" fill="#F0F0F0"/>
<path id="Vector_29" d="M529.4 228.531H526.256V231.676H529.4V228.531Z" fill="#F0F0F0"/>
<path id="Vector_30" d="M529.4 233.802H526.256V236.947H529.4V233.802Z" fill="#F0F0F0"/>
<path id="Vector_31" d="M529.4 239.073H526.256V242.217H529.4V239.073Z" fill="#F0F0F0"/>
<path id="Vector_32" d="M529.4 244.345H526.256V247.488H529.4V244.345Z" fill="#F0F0F0"/>
<path id="Vector_33" d="M529.4 249.616H526.256V252.761H529.4V249.616Z" fill="#F0F0F0"/>
<path id="Vector_34" d="M529.4 254.886H526.256V258.031H529.4V254.886Z" fill="#F0F0F0"/>
<path id="Vector_35" d="M529.4 260.159H526.256V263.302H529.4V260.159Z" fill="#F0F0F0"/>
<path id="Vector_36" d="M529.4 270.701H526.256V273.846H529.4V270.701Z" fill="#F0F0F0"/>
<path id="Vector_37" d="M524.408 212.717H521.264V215.862H524.408V212.717Z" fill="#F0F0F0"/>
<path id="Vector_38" d="M524.408 217.988H521.264V221.133H524.408V217.988Z" fill="#F0F0F0"/>
<path id="Vector_39" d="M524.408 223.26H521.264V226.403H524.408V223.26Z" fill="#F0F0F0"/>
<path id="Vector_40" d="M524.408 228.531H521.264V231.676H524.408V228.531Z" fill="#F0F0F0"/>
<path id="Vector_41" d="M524.408 233.802H521.264V236.947H524.408V233.802Z" fill="#F0F0F0"/>
<path id="Vector_42" d="M524.408 239.073H521.264V242.217H524.408V239.073Z" fill="#F0F0F0"/>
<path id="Vector_43" d="M524.408 244.345H521.264V247.488H524.408V244.345Z" fill="#F0F0F0"/>
<path id="Vector_44" d="M524.408 291.785H521.264V294.93H524.408V291.785Z" fill="#F0F0F0"/>
<path id="Vector_45" d="M519.414 212.717H516.27V215.862H519.414V212.717Z" fill="#F0F0F0"/>
<path id="Vector_46" d="M519.414 217.988H516.27V221.133H519.414V217.988Z" fill="#F0F0F0"/>
<path id="Vector_47" d="M519.414 223.26H516.27V226.403H519.414V223.26Z" fill="#F0F0F0"/>
<path id="Vector_48" d="M519.414 228.531H516.27V231.676H519.414V228.531Z" fill="#F0F0F0"/>
<path id="Vector_49" d="M519.414 233.802H516.27V236.947H519.414V233.802Z" fill="#F0F0F0"/>
<path id="Vector_50" d="M519.414 239.073H516.27V242.217H519.414V239.073Z" fill="#F0F0F0"/>
<path id="Vector_51" d="M519.414 244.345H516.27V247.488H519.414V244.345Z" fill="#F0F0F0"/>
<path id="Vector_52" d="M519.414 249.616H516.27V252.761H519.414V249.616Z" fill="#F0F0F0"/>
<path id="Vector_53" d="M519.414 281.244H516.27V284.387H519.414V281.244Z" fill="#F0F0F0"/>
<path id="Vector_54" d="M519.414 286.515H516.27V289.66H519.414V286.515Z" fill="#F0F0F0"/>
<path id="Vector_55" d="M519.414 291.785H516.27V294.93H519.414V291.785Z" fill="#F0F0F0"/>
<path id="Vector_56" d="M519.414 297.058H516.27V300.201H519.414V297.058Z" fill="#F0F0F0"/>
<path id="Vector_57" d="M519.414 318.143H516.27V321.286H519.414V318.143Z" fill="#F0F0F0"/>
<path id="Vector_58" d="M514.42 212.717H511.275V215.862H514.42V212.717Z" fill="#F0F0F0"/>
<path id="Vector_59" d="M514.42 217.988H511.275V221.133H514.42V217.988Z" fill="#F0F0F0"/>
<path id="Vector_60" d="M514.42 223.26H511.275V226.403H514.42V223.26Z" fill="#F0F0F0"/>
<path id="Vector_61" d="M514.42 228.531H511.275V231.676H514.42V228.531Z" fill="#F0F0F0"/>
<path id="Vector_62" d="M514.42 233.802H511.275V236.947H514.42V233.802Z" fill="#F0F0F0"/>
<path id="Vector_63" d="M514.42 239.073H511.275V242.217H514.42V239.073Z" fill="#F0F0F0"/>
<path id="Vector_64" d="M514.42 244.345H511.275V247.488H514.42V244.345Z" fill="#F0F0F0"/>
<path id="Vector_65" d="M514.42 249.616H511.275V252.761H514.42V249.616Z" fill="#F0F0F0"/>
<path id="Vector_66" d="M514.42 254.886H511.275V258.031H514.42V254.886Z" fill="#F0F0F0"/>
<path id="Vector_67" d="M514.42 260.159H511.275V263.302H514.42V260.159Z" fill="#F0F0F0"/>
<path id="Vector_68" d="M514.42 275.973H511.275V279.116H514.42V275.973Z" fill="#F0F0F0"/>
<path id="Vector_69" d="M514.42 281.244H511.275V284.387H514.42V281.244Z" fill="#F0F0F0"/>
<path id="Vector_70" d="M514.42 286.515H511.275V289.66H514.42V286.515Z" fill="#F0F0F0"/>
<path id="Vector_71" d="M514.42 291.785H511.275V294.93H514.42V291.785Z" fill="#F0F0F0"/>
<path id="Vector_72" d="M514.42 297.058H511.275V300.201H514.42V297.058Z" fill="#F0F0F0"/>
<path id="Vector_73" d="M514.42 318.143H511.275V321.286H514.42V318.143Z" fill="#F0F0F0"/>
<path id="Vector_74" d="M509.426 212.717H506.281V215.862H509.426V212.717Z" fill="#F0F0F0"/>
<path id="Vector_75" d="M509.426 217.988H506.281V221.133H509.426V217.988Z" fill="#F0F0F0"/>
<path id="Vector_76" d="M509.426 223.26H506.281V226.403H509.426V223.26Z" fill="#F0F0F0"/>
<path id="Vector_77" d="M509.426 228.531H506.281V231.676H509.426V228.531Z" fill="#F0F0F0"/>
<path id="Vector_78" d="M509.426 233.802H506.281V236.947H509.426V233.802Z" fill="#F0F0F0"/>
<path id="Vector_79" d="M509.426 239.073H506.281V242.217H509.426V239.073Z" fill="#F0F0F0"/>
<path id="Vector_80" d="M509.426 244.345H506.281V247.488H509.426V244.345Z" fill="#F0F0F0"/>
<path id="Vector_81" d="M509.426 249.616H506.281V252.761H509.426V249.616Z" fill="#F0F0F0"/>
<path id="Vector_82" d="M509.426 254.886H506.281V258.031H509.426V254.886Z" fill="#F0F0F0"/>
<path id="Vector_83" d="M509.426 260.159H506.281V263.302H509.426V260.159Z" fill="#F0F0F0"/>
<path id="Vector_84" d="M509.426 265.43H506.281V268.575H509.426V265.43Z" fill="#F0F0F0"/>
<path id="Vector_85" d="M509.426 270.701H506.281V273.846H509.426V270.701Z" fill="#F0F0F0"/>
<path id="Vector_86" d="M509.426 275.973H506.281V279.116H509.426V275.973Z" fill="#F0F0F0"/>
<path id="Vector_87" d="M509.426 281.244H506.281V284.387H509.426V281.244Z" fill="#F0F0F0"/>
<path id="Vector_88" d="M509.426 286.515H506.281V289.66H509.426V286.515Z" fill="#F0F0F0"/>
<path id="Vector_89" d="M509.426 291.785H506.281V294.93H509.426V291.785Z" fill="#F0F0F0"/>
<path id="Vector_90" d="M509.426 297.058H506.281V300.201H509.426V297.058Z" fill="#F0F0F0"/>
<path id="Vector_91" d="M509.426 302.329H506.281V305.472H509.426V302.329Z" fill="#F0F0F0"/>
<path id="Vector_92" d="M504.432 212.717H501.287V215.862H504.432V212.717Z" fill="#F0F0F0"/>
<path id="Vector_93" d="M504.432 217.988H501.287V221.133H504.432V217.988Z" fill="#F0F0F0"/>
<path id="Vector_94" d="M504.432 223.26H501.287V226.403H504.432V223.26Z" fill="#F0F0F0"/>
<path id="Vector_95" d="M504.432 228.531H501.287V231.676H504.432V228.531Z" fill="#F0F0F0"/>
<path id="Vector_96" d="M504.432 233.802H501.287V236.947H504.432V233.802Z" fill="#F0F0F0"/>
<path id="Vector_97" d="M504.432 239.073H501.287V242.217H504.432V239.073Z" fill="#F0F0F0"/>
<path id="Vector_98" d="M504.432 244.345H501.287V247.488H504.432V244.345Z" fill="#F0F0F0"/>
<path id="Vector_99" d="M504.432 249.616H501.287V252.761H504.432V249.616Z" fill="#F0F0F0"/>
<path id="Vector_100" d="M504.432 254.886H501.287V258.031H504.432V254.886Z" fill="#F0F0F0"/>
<path id="Vector_101" d="M504.432 260.159H501.287V263.302H504.432V260.159Z" fill="#F0F0F0"/>
<path id="Vector_102" d="M504.432 275.973H501.287V279.116H504.432V275.973Z" fill="#F0F0F0"/>
<path id="Vector_103" d="M504.432 281.244H501.287V284.387H504.432V281.244Z" fill="#F0F0F0"/>
<path id="Vector_104" d="M504.432 286.515H501.287V289.66H504.432V286.515Z" fill="#F0F0F0"/>
<path id="Vector_105" d="M504.432 291.785H501.287V294.93H504.432V291.785Z" fill="#F0F0F0"/>
<path id="Vector_106" d="M499.438 212.717H496.295V215.862H499.438V212.717Z" fill="#F0F0F0"/>
<path id="Vector_107" d="M499.438 217.988H496.295V221.133H499.438V217.988Z" fill="#F0F0F0"/>
<path id="Vector_108" d="M499.438 223.26H496.295V226.403H499.438V223.26Z" fill="#F0F0F0"/>
<path id="Vector_109" d="M499.438 228.531H496.295V231.676H499.438V228.531Z" fill="#F0F0F0"/>
<path id="Vector_110" d="M499.438 233.802H496.295V236.947H499.438V233.802Z" fill="#F0F0F0"/>
<path id="Vector_111" d="M499.438 239.073H496.295V242.217H499.438V239.073Z" fill="#F0F0F0"/>
<path id="Vector_112" d="M499.438 244.345H496.295V247.488H499.438V244.345Z" fill="#F0F0F0"/>
<path id="Vector_113" d="M499.438 249.616H496.295V252.761H499.438V249.616Z" fill="#F0F0F0"/>
<path id="Vector_114" d="M499.438 254.886H496.295V258.031H499.438V254.886Z" fill="#F0F0F0"/>
<path id="Vector_115" d="M499.438 260.159H496.295V263.302H499.438V260.159Z" fill="#F0F0F0"/>
<path id="Vector_116" d="M499.438 275.973H496.295V279.116H499.438V275.973Z" fill="#F0F0F0"/>
<path id="Vector_117" d="M499.438 281.244H496.295V284.387H499.438V281.244Z" fill="#F0F0F0"/>
<path id="Vector_118" d="M499.438 286.515H496.295V289.66H499.438V286.515Z" fill="#F0F0F0"/>
<path id="Vector_119" d="M443.21 199.03H440.065V202.175H443.21V199.03Z" fill="#F0F0F0"/>
<path id="Vector_120" d="M443.21 204.301H440.065V207.446H443.21V204.301Z" fill="#F0F0F0"/>
<path id="Vector_121" d="M443.21 209.573H440.065V212.717H443.21V209.573Z" fill="#F0F0F0"/>
<path id="Vector_122" d="M443.21 214.844H440.065V217.988H443.21V214.844Z" fill="#F0F0F0"/>
<path id="Vector_123" d="M443.21 220.115H440.065V223.26H443.21V220.115Z" fill="#F0F0F0"/>
<path id="Vector_124" d="M443.21 225.388H440.065V228.531H443.21V225.388Z" fill="#F0F0F0"/>
<path id="Vector_125" d="M443.21 230.658H440.065V233.801H443.21V230.658Z" fill="#F0F0F0"/>
<path id="Vector_126" d="M443.21 235.929H440.065V239.074H443.21V235.929Z" fill="#F0F0F0"/>
<path id="Vector_127" d="M443.21 251.743H440.065V254.886H443.21V251.743Z" fill="#F0F0F0"/>
<path id="Vector_128" d="M443.21 257.014H440.065V260.159H443.21V257.014Z" fill="#F0F0F0"/>
<path id="Vector_129" d="M438.218 199.03H435.073V202.175H438.218V199.03Z" fill="#F0F0F0"/>
<path id="Vector_130" d="M438.218 204.301H435.073V207.446H438.218V204.301Z" fill="#F0F0F0"/>
<path id="Vector_131" d="M438.218 209.573H435.073V212.717H438.218V209.573Z" fill="#F0F0F0"/>
<path id="Vector_132" d="M438.218 214.844H435.073V217.988H438.218V214.844Z" fill="#F0F0F0"/>
<path id="Vector_133" d="M438.218 220.115H435.073V223.26H438.218V220.115Z" fill="#F0F0F0"/>
<path id="Vector_134" d="M438.218 225.388H435.073V228.531H438.218V225.388Z" fill="#F0F0F0"/>
<path id="Vector_135" d="M438.218 230.658H435.073V233.801H438.218V230.658Z" fill="#F0F0F0"/>
<path id="Vector_136" d="M438.218 235.929H435.073V239.074H438.218V235.929Z" fill="#F0F0F0"/>
<path id="Vector_137" d="M438.218 257.014H435.073V260.159H438.218V257.014Z" fill="#F0F0F0"/>
<path id="Vector_138" d="M433.224 199.03H430.079V202.175H433.224V199.03Z" fill="#F0F0F0"/>
<path id="Vector_139" d="M433.224 204.301H430.079V207.446H433.224V204.301Z" fill="#F0F0F0"/>
<path id="Vector_140" d="M433.224 209.573H430.079V212.717H433.224V209.573Z" fill="#F0F0F0"/>
<path id="Vector_141" d="M433.224 214.844H430.079V217.988H433.224V214.844Z" fill="#F0F0F0"/>
<path id="Vector_142" d="M433.224 220.115H430.079V223.26H433.224V220.115Z" fill="#F0F0F0"/>
<path id="Vector_143" d="M433.224 225.388H430.079V228.531H433.224V225.388Z" fill="#F0F0F0"/>
<path id="Vector_144" d="M433.224 230.658H430.079V233.801H433.224V230.658Z" fill="#F0F0F0"/>
<path id="Vector_145" d="M433.224 235.929H430.079V239.074H433.224V235.929Z" fill="#F0F0F0"/>
<path id="Vector_146" d="M428.23 199.03H425.085V202.175H428.23V199.03Z" fill="#F0F0F0"/>
<path id="Vector_147" d="M428.23 204.301H425.085V207.446H428.23V204.301Z" fill="#F0F0F0"/>
<path id="Vector_148" d="M428.23 209.573H425.085V212.717H428.23V209.573Z" fill="#F0F0F0"/>
<path id="Vector_149" d="M428.23 214.844H425.085V217.988H428.23V214.844Z" fill="#F0F0F0"/>
<path id="Vector_150" d="M428.23 220.115H425.085V223.26H428.23V220.115Z" fill="#F0F0F0"/>
<path id="Vector_151" d="M428.23 225.388H425.085V228.531H428.23V225.388Z" fill="#F0F0F0"/>
<path id="Vector_152" d="M428.23 235.929H425.085V239.074H428.23V235.929Z" fill="#F0F0F0"/>
<path id="Vector_153" d="M428.23 241.2H425.085V244.345H428.23V241.2Z" fill="#F0F0F0"/>
<path id="Vector_154" d="M428.23 257.014H425.085V260.159H428.23V257.014Z" fill="#F0F0F0"/>
<path id="Vector_155" d="M428.23 262.285H425.085V265.43H428.23V262.285Z" fill="#F0F0F0"/>
<path id="Vector_156" d="M428.23 267.557H425.085V270.7H428.23V267.557Z" fill="#F0F0F0"/>
<path id="Vector_157" d="M428.23 272.828H425.085V275.973H428.23V272.828Z" fill="#F0F0F0"/>
<path id="Vector_158" d="M428.23 278.099H425.085V281.244H428.23V278.099Z" fill="#F0F0F0"/>
<path id="Vector_159" d="M428.23 283.37H425.085V286.514H428.23V283.37Z" fill="#F0F0F0"/>
<path id="Vector_160" d="M428.23 288.642H425.085V291.785H428.23V288.642Z" fill="#F0F0F0"/>
<path id="Vector_161" d="M423.235 199.03H420.091V202.175H423.235V199.03Z" fill="#F0F0F0"/>
<path id="Vector_162" d="M423.235 204.301H420.091V207.446H423.235V204.301Z" fill="#F0F0F0"/>
<path id="Vector_163" d="M423.235 209.573H420.091V212.717H423.235V209.573Z" fill="#F0F0F0"/>
<path id="Vector_164" d="M423.235 214.844H420.091V217.988H423.235V214.844Z" fill="#F0F0F0"/>
<path id="Vector_165" d="M423.235 220.115H420.091V223.26H423.235V220.115Z" fill="#F0F0F0"/>
<path id="Vector_166" d="M423.235 225.388H420.091V228.531H423.235V225.388Z" fill="#F0F0F0"/>
<path id="Vector_167" d="M423.235 241.2H420.091V244.345H423.235V241.2Z" fill="#F0F0F0"/>
<path id="Vector_168" d="M423.235 246.473H420.091V249.616H423.235V246.473Z" fill="#F0F0F0"/>
<path id="Vector_169" d="M423.235 251.743H420.091V254.886H423.235V251.743Z" fill="#F0F0F0"/>
<path id="Vector_170" d="M423.235 257.014H420.091V260.159H423.235V257.014Z" fill="#F0F0F0"/>
<path id="Vector_171" d="M423.235 262.285H420.091V265.43H423.235V262.285Z" fill="#F0F0F0"/>
<path id="Vector_172" d="M423.235 267.557H420.091V270.7H423.235V267.557Z" fill="#F0F0F0"/>
<path id="Vector_173" d="M423.235 272.828H420.091V275.973H423.235V272.828Z" fill="#F0F0F0"/>
<path id="Vector_174" d="M423.235 278.099H420.091V281.244H423.235V278.099Z" fill="#F0F0F0"/>
<path id="Vector_175" d="M423.235 283.37H420.091V286.514H423.235V283.37Z" fill="#F0F0F0"/>
<path id="Vector_176" d="M423.235 288.642H420.091V291.785H423.235V288.642Z" fill="#F0F0F0"/>
<path id="Vector_177" d="M423.235 293.913H420.091V297.058H423.235V293.913Z" fill="#F0F0F0"/>
<path id="Vector_178" d="M423.235 304.456H420.091V307.599H423.235V304.456Z" fill="#F0F0F0"/>
<path id="Vector_179" d="M418.241 199.03H415.097V202.175H418.241V199.03Z" fill="#F0F0F0"/>
<path id="Vector_180" d="M418.241 204.301H415.097V207.446H418.241V204.301Z" fill="#F0F0F0"/>
<path id="Vector_181" d="M418.241 209.573H415.097V212.717H418.241V209.573Z" fill="#F0F0F0"/>
<path id="Vector_182" d="M418.241 214.844H415.097V217.988H418.241V214.844Z" fill="#F0F0F0"/>
<path id="Vector_183" d="M418.241 220.115H415.097V223.26H418.241V220.115Z" fill="#F0F0F0"/>
<path id="Vector_184" d="M418.241 225.388H415.097V228.531H418.241V225.388Z" fill="#F0F0F0"/>
<path id="Vector_185" d="M418.241 241.2H415.097V244.345H418.241V241.2Z" fill="#F0F0F0"/>
<path id="Vector_186" d="M418.241 246.473H415.097V249.616H418.241V246.473Z" fill="#F0F0F0"/>
<path id="Vector_187" d="M418.241 251.743H415.097V254.886H418.241V251.743Z" fill="#F0F0F0"/>
<path id="Vector_188" d="M418.241 257.014H415.097V260.159H418.241V257.014Z" fill="#F0F0F0"/>
<path id="Vector_189" d="M418.241 272.828H415.097V275.973H418.241V272.828Z" fill="#F0F0F0"/>
<path id="Vector_190" d="M418.241 278.099H415.097V281.244H418.241V278.099Z" fill="#F0F0F0"/>
<path id="Vector_191" d="M418.241 283.37H415.097V286.514H418.241V283.37Z" fill="#F0F0F0"/>
<path id="Vector_192" d="M418.241 288.642H415.097V291.785H418.241V288.642Z" fill="#F0F0F0"/>
<path id="Vector_193" d="M418.241 293.913H415.097V297.058H418.241V293.913Z" fill="#F0F0F0"/>
<path id="Vector_194" d="M418.241 304.456H415.097V307.599H418.241V304.456Z" fill="#F0F0F0"/>
<path id="Vector_195" d="M418.241 309.727H415.097V312.87H418.241V309.727Z" fill="#F0F0F0"/>
<path id="Vector_196" d="M372.929 248.044H369.784V251.188H372.929V248.044Z" fill="#F0F0F0"/>
<path id="Vector_197" d="M372.929 253.314H369.784V256.459H372.929V253.314Z" fill="#F0F0F0"/>
<path id="Vector_198" d="M372.929 258.586H369.784V261.73H372.929V258.586Z" fill="#F0F0F0"/>
<path id="Vector_199" d="M372.929 263.858H369.784V267.002H372.929V263.858Z" fill="#F0F0F0"/>
<path id="Vector_200" d="M372.929 269.128H369.784V272.273H372.929V269.128Z" fill="#F0F0F0"/>
<path id="Vector_201" d="M372.929 274.4H369.784V277.544H372.929V274.4Z" fill="#F0F0F0"/>
<path id="Vector_202" d="M372.929 279.672H369.784V282.815H372.929V279.672Z" fill="#F0F0F0"/>
<path id="Vector_203" d="M372.929 295.485H369.784V298.629H372.929V295.485Z" fill="#F0F0F0"/>
<path id="Vector_204" d="M372.929 300.757H369.784V303.901H372.929V300.757Z" fill="#F0F0F0"/>
<path id="Vector_205" d="M372.929 306.027H369.784V309.171H372.929V306.027Z" fill="#F0F0F0"/>
<path id="Vector_206" d="M367.935 248.044H364.79V251.188H367.935V248.044Z" fill="#F0F0F0"/>
<path id="Vector_207" d="M367.935 253.314H364.79V256.459H367.935V253.314Z" fill="#F0F0F0"/>
<path id="Vector_208" d="M367.935 258.586H364.79V261.73H367.935V258.586Z" fill="#F0F0F0"/>
<path id="Vector_209" d="M367.935 263.858H364.79V267.002H367.935V263.858Z" fill="#F0F0F0"/>
<path id="Vector_210" d="M367.935 269.128H364.79V272.273H367.935V269.128Z" fill="#F0F0F0"/>
<path id="Vector_211" d="M367.935 274.4H364.79V277.544H367.935V274.4Z" fill="#F0F0F0"/>
<path id="Vector_212" d="M367.935 279.672H364.79V282.815H367.935V279.672Z" fill="#F0F0F0"/>
<path id="Vector_213" d="M362.941 248.044H359.796V251.188H362.941V248.044Z" fill="#F0F0F0"/>
<path id="Vector_214" d="M362.941 253.314H359.796V256.459H362.941V253.314Z" fill="#F0F0F0"/>
<path id="Vector_215" d="M362.941 258.586H359.796V261.73H362.941V258.586Z" fill="#F0F0F0"/>
<path id="Vector_216" d="M362.941 263.858H359.796V267.002H362.941V263.858Z" fill="#F0F0F0"/>
<path id="Vector_217" d="M362.941 269.128H359.796V272.273H362.941V269.128Z" fill="#F0F0F0"/>
<path id="Vector_218" d="M362.941 274.4H359.796V277.544H362.941V274.4Z" fill="#F0F0F0"/>
<path id="Vector_219" d="M362.941 279.672H359.796V282.815H362.941V279.672Z" fill="#F0F0F0"/>
<path id="Vector_220" d="M357.948 248.044H354.804V251.188H357.948V248.044Z" fill="#F0F0F0"/>
<path id="Vector_221" d="M357.948 253.314H354.804V256.459H357.948V253.314Z" fill="#F0F0F0"/>
<path id="Vector_222" d="M357.948 258.586H354.804V261.73H357.948V258.586Z" fill="#F0F0F0"/>
<path id="Vector_223" d="M357.948 263.858H354.804V267.002H357.948V263.858Z" fill="#F0F0F0"/>
<path id="Vector_224" d="M357.948 269.128H354.804V272.273H357.948V269.128Z" fill="#F0F0F0"/>
<path id="Vector_225" d="M357.948 274.4H354.804V277.544H357.948V274.4Z" fill="#F0F0F0"/>
<path id="Vector_226" d="M357.948 279.672H354.804V282.815H357.948V279.672Z" fill="#F0F0F0"/>
<path id="Vector_227" d="M357.948 284.943H354.804V288.087H357.948V284.943Z" fill="#F0F0F0"/>
<path id="Vector_228" d="M357.948 290.214H354.804V293.358H357.948V290.214Z" fill="#F0F0F0"/>
<path id="Vector_229" d="M357.948 295.485H354.804V298.629H357.948V295.485Z" fill="#F0F0F0"/>
<path id="Vector_230" d="M357.948 300.757H354.804V303.901H357.948V300.757Z" fill="#F0F0F0"/>
<path id="Vector_231" d="M352.954 248.044H349.81V251.188H352.954V248.044Z" fill="#F0F0F0"/>
<path id="Vector_232" d="M352.954 253.314H349.81V256.459H352.954V253.314Z" fill="#F0F0F0"/>
<path id="Vector_233" d="M352.954 258.586H349.81V261.73H352.954V258.586Z" fill="#F0F0F0"/>
<path id="Vector_234" d="M352.954 263.858H349.81V267.002H352.954V263.858Z" fill="#F0F0F0"/>
<path id="Vector_235" d="M352.954 269.128H349.81V272.273H352.954V269.128Z" fill="#F0F0F0"/>
<path id="Vector_236" d="M352.954 274.4H349.81V277.544H352.954V274.4Z" fill="#F0F0F0"/>
<path id="Vector_237" d="M352.954 279.672H349.81V282.815H352.954V279.672Z" fill="#F0F0F0"/>
<path id="Vector_238" d="M352.954 284.943H349.81V288.087H352.954V284.943Z" fill="#F0F0F0"/>
<path id="Vector_239" d="M352.954 290.214H349.81V293.358H352.954V290.214Z" fill="#F0F0F0"/>
<path id="Vector_240" d="M352.954 295.485H349.81V298.629H352.954V295.485Z" fill="#F0F0F0"/>
<path id="Vector_241" d="M352.954 300.757H349.81V303.901H352.954V300.757Z" fill="#F0F0F0"/>
<path id="Vector_242" d="M352.954 306.027H349.81V309.171H352.954V306.027Z" fill="#F0F0F0"/>
<path id="Vector_243" d="M352.954 321.843H349.81V324.986H352.954V321.843Z" fill="#F0F0F0"/>
<path id="Vector_244" d="M352.954 327.113H349.81V330.257H352.954V327.113Z" fill="#F0F0F0"/>
<path id="Vector_245" d="M347.96 248.044H344.815V251.188H347.96V248.044Z" fill="#F0F0F0"/>
<path id="Vector_246" d="M347.96 253.314H344.815V256.459H347.96V253.314Z" fill="#F0F0F0"/>
<path id="Vector_247" d="M347.96 258.586H344.815V261.73H347.96V258.586Z" fill="#F0F0F0"/>
<path id="Vector_248" d="M347.96 274.4H344.815V277.544H347.96V274.4Z" fill="#F0F0F0"/>
<path id="Vector_249" d="M347.96 279.672H344.815V282.815H347.96V279.672Z" fill="#F0F0F0"/>
<path id="Vector_250" d="M347.96 284.943H344.815V288.087H347.96V284.943Z" fill="#F0F0F0"/>
<path id="Vector_251" d="M347.96 290.214H344.815V293.358H347.96V290.214Z" fill="#F0F0F0"/>
<path id="Vector_252" d="M347.96 295.485H344.815V298.629H347.96V295.485Z" fill="#F0F0F0"/>
<path id="Vector_253" d="M347.96 300.757H344.815V303.901H347.96V300.757Z" fill="#F0F0F0"/>
<path id="Vector_254" d="M347.96 306.027H344.815V309.171H347.96V306.027Z" fill="#F0F0F0"/>
<path id="Vector_255" d="M347.96 321.843H344.815V324.986H347.96V321.843Z" fill="#F0F0F0"/>
<path id="Vector_256" d="M347.96 327.113H344.815V330.257H347.96V327.113Z" fill="#F0F0F0"/>
<path id="Vector_257" d="M347.96 332.384H344.815V335.528H347.96V332.384Z" fill="#F0F0F0"/>
<path id="Vector_258" d="M295.615 216.415H292.471V219.56H295.615V216.415Z" fill="#F0F0F0"/>
<path id="Vector_259" d="M295.615 221.688H292.471V224.833H295.615V221.688Z" fill="#F0F0F0"/>
<path id="Vector_260" d="M295.615 226.959H292.471V230.103H295.615V226.959Z" fill="#F0F0F0"/>
<path id="Vector_261" d="M295.615 232.231H292.471V235.375H295.615V232.231Z" fill="#F0F0F0"/>
<path id="Vector_262" d="M295.615 237.501H292.471V240.645H295.615V237.501Z" fill="#F0F0F0"/>
<path id="Vector_263" d="M295.615 242.773H292.471V245.917H295.615V242.773Z" fill="#F0F0F0"/>
<path id="Vector_264" d="M295.615 248.044H292.471V251.188H295.615V248.044Z" fill="#F0F0F0"/>
<path id="Vector_265" d="M295.615 253.314H292.471V256.459H295.615V253.314Z" fill="#F0F0F0"/>
<path id="Vector_266" d="M295.615 258.586H292.471V261.73H295.615V258.586Z" fill="#F0F0F0"/>
<path id="Vector_267" d="M295.615 263.858H292.471V267.002H295.615V263.858Z" fill="#F0F0F0"/>
<path id="Vector_268" d="M295.615 269.128H292.471V272.273H295.615V269.128Z" fill="#F0F0F0"/>
<path id="Vector_269" d="M295.615 274.4H292.471V277.544H295.615V274.4Z" fill="#F0F0F0"/>
<path id="Vector_270" d="M295.615 279.672H292.471V282.815H295.615V279.672Z" fill="#F0F0F0"/>
<path id="Vector_271" d="M295.615 284.943H292.471V288.087H295.615V284.943Z" fill="#F0F0F0"/>
<path id="Vector_272" d="M295.615 290.214H292.471V293.358H295.615V290.214Z" fill="#F0F0F0"/>
<path id="Vector_273" d="M295.615 295.485H292.471V298.629H295.615V295.485Z" fill="#F0F0F0"/>
<path id="Vector_274" d="M295.615 300.757H292.471V303.901H295.615V300.757Z" fill="#F0F0F0"/>
<path id="Vector_275" d="M295.615 306.027H292.471V309.171H295.615V306.027Z" fill="#F0F0F0"/>
<path id="Vector_276" d="M295.615 311.299H292.471V314.443H295.615V311.299Z" fill="#F0F0F0"/>
<path id="Vector_277" d="M295.615 316.57H292.471V319.715H295.615V316.57Z" fill="#F0F0F0"/>
<path id="Vector_278" d="M295.615 321.843H292.471V324.986H295.615V321.843Z" fill="#F0F0F0"/>
<path id="Vector_279" d="M295.615 327.113H292.471V330.257H295.615V327.113Z" fill="#F0F0F0"/>
<path id="Vector_280" d="M295.615 332.384H292.471V335.528H295.615V332.384Z" fill="#F0F0F0"/>
<path id="Vector_281" d="M290.621 216.415H287.477V219.56H290.621V216.415Z" fill="#F0F0F0"/>
<path id="Vector_282" d="M290.621 221.688H287.477V224.833H290.621V221.688Z" fill="#F0F0F0"/>
<path id="Vector_283" d="M290.621 226.959H287.477V230.103H290.621V226.959Z" fill="#F0F0F0"/>
<path id="Vector_284" d="M290.621 232.231H287.477V235.375H290.621V232.231Z" fill="#F0F0F0"/>
<path id="Vector_285" d="M290.621 237.501H287.477V240.645H290.621V237.501Z" fill="#F0F0F0"/>
<path id="Vector_286" d="M290.621 242.773H287.477V245.917H290.621V242.773Z" fill="#F0F0F0"/>
<path id="Vector_287" d="M290.621 248.044H287.477V251.188H290.621V248.044Z" fill="#F0F0F0"/>
<path id="Vector_288" d="M290.621 253.314H287.477V256.459H290.621V253.314Z" fill="#F0F0F0"/>
<path id="Vector_289" d="M290.621 258.586H287.477V261.73H290.621V258.586Z" fill="#F0F0F0"/>
<path id="Vector_290" d="M290.621 263.858H287.477V267.002H290.621V263.858Z" fill="#F0F0F0"/>
<path id="Vector_291" d="M290.621 269.128H287.477V272.273H290.621V269.128Z" fill="#F0F0F0"/>
<path id="Vector_292" d="M290.621 274.4H287.477V277.544H290.621V274.4Z" fill="#F0F0F0"/>
<path id="Vector_293" d="M290.621 279.672H287.477V282.815H290.621V279.672Z" fill="#F0F0F0"/>
<path id="Vector_294" d="M290.621 284.943H287.477V288.087H290.621V284.943Z" fill="#F0F0F0"/>
<path id="Vector_295" d="M290.621 290.214H287.477V293.358H290.621V290.214Z" fill="#F0F0F0"/>
<path id="Vector_296" d="M290.621 295.485H287.477V298.629H290.621V295.485Z" fill="#F0F0F0"/>
<path id="Vector_297" d="M290.621 300.757H287.477V303.901H290.621V300.757Z" fill="#F0F0F0"/>
<path id="Vector_298" d="M290.621 306.027H287.477V309.171H290.621V306.027Z" fill="#F0F0F0"/>
<path id="Vector_299" d="M290.621 311.299H287.477V314.443H290.621V311.299Z" fill="#F0F0F0"/>
<path id="Vector_300" d="M285.627 216.415H282.482V219.56H285.627V216.415Z" fill="#F0F0F0"/>
<path id="Vector_301" d="M285.627 221.688H282.482V224.833H285.627V221.688Z" fill="#F0F0F0"/>
<path id="Vector_302" d="M285.627 226.959H282.482V230.103H285.627V226.959Z" fill="#F0F0F0"/>
<path id="Vector_303" d="M285.627 232.231H282.482V235.375H285.627V232.231Z" fill="#F0F0F0"/>
<path id="Vector_304" d="M285.627 237.501H282.482V240.645H285.627V237.501Z" fill="#F0F0F0"/>
<path id="Vector_305" d="M285.627 242.773H282.482V245.917H285.627V242.773Z" fill="#F0F0F0"/>
<path id="Vector_306" d="M285.627 248.044H282.482V251.188H285.627V248.044Z" fill="#F0F0F0"/>
<path id="Vector_307" d="M285.627 253.314H282.482V256.459H285.627V253.314Z" fill="#F0F0F0"/>
<path id="Vector_308" d="M285.627 258.586H282.482V261.73H285.627V258.586Z" fill="#F0F0F0"/>
<path id="Vector_309" d="M285.627 263.858H282.482V267.002H285.627V263.858Z" fill="#F0F0F0"/>
<path id="Vector_310" d="M285.627 269.128H282.482V272.273H285.627V269.128Z" fill="#F0F0F0"/>
<path id="Vector_311" d="M285.627 274.4H282.482V277.544H285.627V274.4Z" fill="#F0F0F0"/>
<path id="Vector_312" d="M285.627 279.672H282.482V282.815H285.627V279.672Z" fill="#F0F0F0"/>
<path id="Vector_313" d="M285.627 284.943H282.482V288.087H285.627V284.943Z" fill="#F0F0F0"/>
<path id="Vector_314" d="M285.627 290.214H282.482V293.358H285.627V290.214Z" fill="#F0F0F0"/>
<path id="Vector_315" d="M285.627 295.485H282.482V298.629H285.627V295.485Z" fill="#F0F0F0"/>
<path id="Vector_316" d="M285.627 300.757H282.482V303.901H285.627V300.757Z" fill="#F0F0F0"/>
<path id="Vector_317" d="M285.627 306.027H282.482V309.171H285.627V306.027Z" fill="#F0F0F0"/>
<path id="Vector_318" d="M285.627 311.299H282.482V314.443H285.627V311.299Z" fill="#F0F0F0"/>
<path id="Vector_319" d="M280.635 216.415H277.49V219.56H280.635V216.415Z" fill="#F0F0F0"/>
<path id="Vector_320" d="M280.635 221.688H277.49V224.833H280.635V221.688Z" fill="#F0F0F0"/>
<path id="Vector_321" d="M280.635 226.959H277.49V230.103H280.635V226.959Z" fill="#F0F0F0"/>
<path id="Vector_322" d="M280.635 232.231H277.49V235.375H280.635V232.231Z" fill="#F0F0F0"/>
<path id="Vector_323" d="M280.635 237.501H277.49V240.645H280.635V237.501Z" fill="#F0F0F0"/>
<path id="Vector_324" d="M280.635 242.773H277.49V245.917H280.635V242.773Z" fill="#F0F0F0"/>
<path id="Vector_325" d="M280.635 248.044H277.49V251.188H280.635V248.044Z" fill="#F0F0F0"/>
<path id="Vector_326" d="M280.635 253.314H277.49V256.459H280.635V253.314Z" fill="#F0F0F0"/>
<path id="Vector_327" d="M280.635 258.586H277.49V261.73H280.635V258.586Z" fill="#F0F0F0"/>
<path id="Vector_328" d="M280.635 263.858H277.49V267.002H280.635V263.858Z" fill="#F0F0F0"/>
<path id="Vector_329" d="M280.635 269.128H277.49V272.273H280.635V269.128Z" fill="#F0F0F0"/>
<path id="Vector_330" d="M280.635 274.4H277.49V277.544H280.635V274.4Z" fill="#F0F0F0"/>
<path id="Vector_331" d="M280.635 279.672H277.49V282.815H280.635V279.672Z" fill="#F0F0F0"/>
<path id="Vector_332" d="M280.635 284.943H277.49V288.087H280.635V284.943Z" fill="#F0F0F0"/>
<path id="Vector_333" d="M280.635 290.214H277.49V293.358H280.635V290.214Z" fill="#F0F0F0"/>
<path id="Vector_334" d="M275.641 216.415H272.496V219.56H275.641V216.415Z" fill="#F0F0F0"/>
<path id="Vector_335" d="M275.641 221.688H272.496V224.833H275.641V221.688Z" fill="#F0F0F0"/>
<path id="Vector_336" d="M275.641 226.959H272.496V230.103H275.641V226.959Z" fill="#F0F0F0"/>
<path id="Vector_337" d="M275.641 232.231H272.496V235.375H275.641V232.231Z" fill="#F0F0F0"/>
<path id="Vector_338" d="M275.641 237.501H272.496V240.645H275.641V237.501Z" fill="#F0F0F0"/>
<path id="Vector_339" d="M275.641 242.773H272.496V245.917H275.641V242.773Z" fill="#F0F0F0"/>
<path id="Vector_340" d="M275.641 248.044H272.496V251.188H275.641V248.044Z" fill="#F0F0F0"/>
<path id="Vector_341" d="M275.641 253.314H272.496V256.459H275.641V253.314Z" fill="#F0F0F0"/>
<path id="Vector_342" d="M275.641 258.586H272.496V261.73H275.641V258.586Z" fill="#F0F0F0"/>
<path id="Vector_343" d="M275.641 263.858H272.496V267.002H275.641V263.858Z" fill="#F0F0F0"/>
<path id="Vector_344" d="M275.641 269.128H272.496V272.273H275.641V269.128Z" fill="#F0F0F0"/>
<path id="Vector_345" d="M275.641 274.4H272.496V277.544H275.641V274.4Z" fill="#F0F0F0"/>
<path id="Vector_346" d="M275.641 279.672H272.496V282.815H275.641V279.672Z" fill="#F0F0F0"/>
<path id="Vector_347" d="M270.647 216.415H267.502V219.56H270.647V216.415Z" fill="#F0F0F0"/>
<path id="Vector_348" d="M270.647 221.688H267.502V224.833H270.647V221.688Z" fill="#F0F0F0"/>
<path id="Vector_349" d="M270.647 226.959H267.502V230.103H270.647V226.959Z" fill="#F0F0F0"/>
<path id="Vector_350" d="M270.647 232.231H267.502V235.375H270.647V232.231Z" fill="#F0F0F0"/>
<path id="Vector_351" d="M270.647 237.501H267.502V240.645H270.647V237.501Z" fill="#F0F0F0"/>
<path id="Vector_352" d="M270.647 242.773H267.502V245.917H270.647V242.773Z" fill="#F0F0F0"/>
<path id="Vector_353" d="M270.647 248.044H267.502V251.188H270.647V248.044Z" fill="#F0F0F0"/>
<path id="Vector_354" d="M270.647 253.314H267.502V256.459H270.647V253.314Z" fill="#F0F0F0"/>
<path id="Vector_355" d="M270.647 258.586H267.502V261.73H270.647V258.586Z" fill="#F0F0F0"/>
<path id="Vector_356" d="M270.647 263.858H267.502V267.002H270.647V263.858Z" fill="#F0F0F0"/>
<path id="Vector_357" d="M270.647 269.128H267.502V272.273H270.647V269.128Z" fill="#F0F0F0"/>
<path id="Vector_358" d="M270.647 274.4H267.502V277.544H270.647V274.4Z" fill="#F0F0F0"/>
<path id="Vector_359" d="M562.138 214.844H558.995V217.988H562.138V214.844Z" fill="#F0F0F0"/>
<path id="Vector_360" d="M562.138 220.115H558.995V223.26H562.138V220.115Z" fill="#F0F0F0"/>
<path id="Vector_361" d="M562.138 225.388H558.995V228.531H562.138V225.388Z" fill="#F0F0F0"/>
<path id="Vector_362" d="M562.138 230.658H558.995V233.801H562.138V230.658Z" fill="#F0F0F0"/>
<path id="Vector_363" d="M562.138 235.929H558.995V239.074H562.138V235.929Z" fill="#F0F0F0"/>
<path id="Vector_364" d="M562.138 241.2H558.995V244.345H562.138V241.2Z" fill="#F0F0F0"/>
<path id="Vector_365" d="M562.138 246.473H558.995V249.616H562.138V246.473Z" fill="#F0F0F0"/>
<path id="Vector_366" d="M562.138 251.743H558.995V254.886H562.138V251.743Z" fill="#F0F0F0"/>
<path id="Vector_367" d="M562.138 257.014H558.995V260.159H562.138V257.014Z" fill="#F0F0F0"/>
<path id="Vector_368" d="M562.138 262.285H558.995V265.43H562.138V262.285Z" fill="#F0F0F0"/>
<path id="Vector_369" d="M562.138 267.557H558.995V270.7H562.138V267.557Z" fill="#F0F0F0"/>
<path id="Vector_370" d="M562.138 272.828H558.995V275.973H562.138V272.828Z" fill="#F0F0F0"/>
<path id="Vector_371" d="M562.138 278.099H558.995V281.244H562.138V278.099Z" fill="#F0F0F0"/>
<path id="Vector_372" d="M562.138 283.37H558.995V286.514H562.138V283.37Z" fill="#F0F0F0"/>
<path id="Vector_373" d="M562.138 288.642H558.995V291.785H562.138V288.642Z" fill="#F0F0F0"/>
<path id="Vector_374" d="M562.138 293.913H558.995V297.058H562.138V293.913Z" fill="#F0F0F0"/>
<path id="Vector_375" d="M562.138 299.184H558.995V302.329H562.138V299.184Z" fill="#F0F0F0"/>
<path id="Vector_376" d="M562.138 309.727H558.995V312.87H562.138V309.727Z" fill="#F0F0F0"/>
<path id="Vector_377" d="M562.138 314.998H558.995V318.143H562.138V314.998Z" fill="#F0F0F0"/>
<path id="Vector_378" d="M562.138 320.268H558.995V323.413H562.138V320.268Z" fill="#F0F0F0"/>
<path id="Vector_379" d="M562.138 325.541H558.995V328.684H562.138V325.541Z" fill="#F0F0F0"/>
<path id="Vector_380" d="M562.138 330.812H558.995V333.955H562.138V330.812Z" fill="#F0F0F0"/>
<path id="Vector_381" d="M557.144 214.844H553.999V217.988H557.144V214.844Z" fill="#F0F0F0"/>
<path id="Vector_382" d="M557.144 220.115H553.999V223.26H557.144V220.115Z" fill="#F0F0F0"/>
<path id="Vector_383" d="M557.144 225.388H553.999V228.531H557.144V225.388Z" fill="#F0F0F0"/>
<path id="Vector_384" d="M557.144 230.658H553.999V233.801H557.144V230.658Z" fill="#F0F0F0"/>
<path id="Vector_385" d="M557.144 235.929H553.999V239.074H557.144V235.929Z" fill="#F0F0F0"/>
<path id="Vector_386" d="M557.144 241.2H553.999V244.345H557.144V241.2Z" fill="#F0F0F0"/>
<path id="Vector_387" d="M557.144 246.473H553.999V249.616H557.144V246.473Z" fill="#F0F0F0"/>
<path id="Vector_388" d="M557.144 251.743H553.999V254.886H557.144V251.743Z" fill="#F0F0F0"/>
<path id="Vector_389" d="M557.144 257.014H553.999V260.159H557.144V257.014Z" fill="#F0F0F0"/>
<path id="Vector_390" d="M557.144 262.285H553.999V265.43H557.144V262.285Z" fill="#F0F0F0"/>
<path id="Vector_391" d="M557.144 267.557H553.999V270.7H557.144V267.557Z" fill="#F0F0F0"/>
<path id="Vector_392" d="M557.144 272.828H553.999V275.973H557.144V272.828Z" fill="#F0F0F0"/>
<path id="Vector_393" d="M557.144 278.099H553.999V281.244H557.144V278.099Z" fill="#F0F0F0"/>
<path id="Vector_394" d="M557.144 283.37H553.999V286.514H557.144V283.37Z" fill="#F0F0F0"/>
<path id="Vector_395" d="M557.144 288.642H553.999V291.785H557.144V288.642Z" fill="#F0F0F0"/>
<path id="Vector_396" d="M557.144 293.913H553.999V297.058H557.144V293.913Z" fill="#F0F0F0"/>
<path id="Vector_397" d="M557.144 325.541H553.999V328.684H557.144V325.541Z" fill="#F0F0F0"/>
<path id="Vector_398" d="M557.144 330.812H553.999V333.955H557.144V330.812Z" fill="#F0F0F0"/>
<path id="Vector_399" d="M552.149 214.844H549.005V217.988H552.149V214.844Z" fill="#F0F0F0"/>
<path id="Vector_400" d="M552.149 220.115H549.005V223.26H552.149V220.115Z" fill="#F0F0F0"/>
<path id="Vector_401" d="M552.149 225.388H549.005V228.531H552.149V225.388Z" fill="#F0F0F0"/>
<path id="Vector_402" d="M552.149 230.658H549.005V233.801H552.149V230.658Z" fill="#F0F0F0"/>
<path id="Vector_403" d="M552.149 235.929H549.005V239.074H552.149V235.929Z" fill="#F0F0F0"/>
<path id="Vector_404" d="M552.149 241.2H549.005V244.345H552.149V241.2Z" fill="#F0F0F0"/>
<path id="Vector_405" d="M552.149 246.473H549.005V249.616H552.149V246.473Z" fill="#F0F0F0"/>
<path id="Vector_406" d="M552.149 251.743H549.005V254.886H552.149V251.743Z" fill="#F0F0F0"/>
<path id="Vector_407" d="M552.149 257.014H549.005V260.159H552.149V257.014Z" fill="#F0F0F0"/>
<path id="Vector_408" d="M552.149 262.285H549.005V265.43H552.149V262.285Z" fill="#F0F0F0"/>
<path id="Vector_409" d="M552.149 267.557H549.005V270.7H552.149V267.557Z" fill="#F0F0F0"/>
<path id="Vector_410" d="M552.149 272.828H549.005V275.973H552.149V272.828Z" fill="#F0F0F0"/>
<path id="Vector_411" d="M552.149 278.099H549.005V281.244H552.149V278.099Z" fill="#F0F0F0"/>
<path id="Vector_412" d="M552.149 283.37H549.005V286.514H552.149V283.37Z" fill="#F0F0F0"/>
<path id="Vector_413" d="M552.149 288.642H549.005V291.785H552.149V288.642Z" fill="#F0F0F0"/>
<path id="Vector_414" d="M552.149 293.913H549.005V297.058H552.149V293.913Z" fill="#F0F0F0"/>
<path id="Vector_415" d="M552.149 304.456H549.005V307.599H552.149V304.456Z" fill="#F0F0F0"/>
<path id="Vector_416" d="M552.149 309.727H549.005V312.87H552.149V309.727Z" fill="#F0F0F0"/>
<path id="Vector_417" d="M552.149 314.998H549.005V318.143H552.149V314.998Z" fill="#F0F0F0"/>
<path id="Vector_418" d="M552.149 320.268H549.005V323.413H552.149V320.268Z" fill="#F0F0F0"/>
<path id="Vector_419" d="M552.149 330.812H549.005V333.955H552.149V330.812Z" fill="#F0F0F0"/>
<path id="Vector_420" d="M465.037 251.743H461.893V254.886H465.037V251.743Z" fill="#F0F0F0"/>
<path id="Vector_421" d="M465.037 257.014H461.893V260.159H465.037V257.014Z" fill="#F0F0F0"/>
<path id="Vector_422" d="M465.037 262.285H461.893V265.43H465.037V262.285Z" fill="#F0F0F0"/>
<path id="Vector_423" d="M465.037 267.557H461.893V270.7H465.037V267.557Z" fill="#F0F0F0"/>
<path id="Vector_424" d="M465.037 272.828H461.893V275.973H465.037V272.828Z" fill="#F0F0F0"/>
<path id="Vector_425" d="M465.037 278.099H461.893V281.244H465.037V278.099Z" fill="#F0F0F0"/>
<path id="Vector_426" d="M465.037 283.37H461.893V286.514H465.037V283.37Z" fill="#F0F0F0"/>
<path id="Vector_427" d="M465.037 288.642H461.893V291.785H465.037V288.642Z" fill="#F0F0F0"/>
<path id="Vector_428" d="M465.037 293.913H461.893V297.058H465.037V293.913Z" fill="#F0F0F0"/>
<path id="Vector_429" d="M465.037 299.184H461.893V302.329H465.037V299.184Z" fill="#F0F0F0"/>
<path id="Vector_430" d="M465.037 304.456H461.893V307.599H465.037V304.456Z" fill="#F0F0F0"/>
<path id="Vector_431" d="M465.037 309.727H461.893V312.87H465.037V309.727Z" fill="#F0F0F0"/>
<path id="Vector_432" d="M465.037 314.998H461.893V318.143H465.037V314.998Z" fill="#F0F0F0"/>
<path id="Vector_433" d="M465.037 325.541H461.893V328.684H465.037V325.541Z" fill="#F0F0F0"/>
<path id="Vector_434" d="M465.037 330.812H461.893V333.955H465.037V330.812Z" fill="#F0F0F0"/>
<path id="Vector_435" d="M465.037 336.083H461.893V339.228H465.037V336.083Z" fill="#F0F0F0"/>
<path id="Vector_436" d="M465.037 341.355H461.893V344.498H465.037V341.355Z" fill="#F0F0F0"/>
<path id="Vector_437" d="M465.037 351.897H461.893V355.042H465.037V351.897Z" fill="#F0F0F0"/>
<path id="Vector_438" d="M465.037 357.167H461.893V360.312H465.037V357.167Z" fill="#F0F0F0"/>
<path id="Vector_439" d="M465.037 362.44H461.893V365.583H465.037V362.44Z" fill="#F0F0F0"/>
<path id="Vector_440" d="M460.043 251.743H456.898V254.886H460.043V251.743Z" fill="#F0F0F0"/>
<path id="Vector_441" d="M460.043 257.014H456.898V260.159H460.043V257.014Z" fill="#F0F0F0"/>
<path id="Vector_442" d="M460.043 262.285H456.898V265.43H460.043V262.285Z" fill="#F0F0F0"/>
<path id="Vector_443" d="M460.043 267.557H456.898V270.7H460.043V267.557Z" fill="#F0F0F0"/>
<path id="Vector_444" d="M460.043 272.828H456.898V275.973H460.043V272.828Z" fill="#F0F0F0"/>
<path id="Vector_445" d="M460.043 278.099H456.898V281.244H460.043V278.099Z" fill="#F0F0F0"/>
<path id="Vector_446" d="M460.043 283.37H456.898V286.514H460.043V283.37Z" fill="#F0F0F0"/>
<path id="Vector_447" d="M460.043 288.642H456.898V291.785H460.043V288.642Z" fill="#F0F0F0"/>
<path id="Vector_448" d="M460.043 293.913H456.898V297.058H460.043V293.913Z" fill="#F0F0F0"/>
<path id="Vector_449" d="M460.043 299.184H456.898V302.329H460.043V299.184Z" fill="#F0F0F0"/>
<path id="Vector_450" d="M460.043 304.456H456.898V307.599H460.043V304.456Z" fill="#F0F0F0"/>
<path id="Vector_451" d="M460.043 309.727H456.898V312.87H460.043V309.727Z" fill="#F0F0F0"/>
<path id="Vector_452" d="M460.043 314.998H456.898V318.143H460.043V314.998Z" fill="#F0F0F0"/>
<path id="Vector_453" d="M460.043 330.812H456.898V333.955H460.043V330.812Z" fill="#F0F0F0"/>
<path id="Vector_454" d="M460.043 336.083H456.898V339.228H460.043V336.083Z" fill="#F0F0F0"/>
<path id="Vector_455" d="M460.043 346.626H456.898V349.769H460.043V346.626Z" fill="#F0F0F0"/>
<path id="Vector_456" d="M460.043 351.897H456.898V355.042H460.043V351.897Z" fill="#F0F0F0"/>
<path id="Vector_457" d="M460.043 357.167H456.898V360.312H460.043V357.167Z" fill="#F0F0F0"/>
<path id="Vector_458" d="M460.043 362.44H456.898V365.583H460.043V362.44Z" fill="#F0F0F0"/>
<path id="Vector_459" d="M455.049 251.743H451.904V254.886H455.049V251.743Z" fill="#F0F0F0"/>
<path id="Vector_460" d="M455.049 257.014H451.904V260.159H455.049V257.014Z" fill="#F0F0F0"/>
<path id="Vector_461" d="M455.049 262.285H451.904V265.43H455.049V262.285Z" fill="#F0F0F0"/>
<path id="Vector_462" d="M455.049 267.557H451.904V270.7H455.049V267.557Z" fill="#F0F0F0"/>
<path id="Vector_463" d="M455.049 272.828H451.904V275.973H455.049V272.828Z" fill="#F0F0F0"/>
<path id="Vector_464" d="M455.049 278.099H451.904V281.244H455.049V278.099Z" fill="#F0F0F0"/>
<path id="Vector_465" d="M455.049 283.37H451.904V286.514H455.049V283.37Z" fill="#F0F0F0"/>
<path id="Vector_466" d="M455.049 288.642H451.904V291.785H455.049V288.642Z" fill="#F0F0F0"/>
<path id="Vector_467" d="M455.049 293.913H451.904V297.058H455.049V293.913Z" fill="#F0F0F0"/>
<path id="Vector_468" d="M455.049 299.184H451.904V302.329H455.049V299.184Z" fill="#F0F0F0"/>
<path id="Vector_469" d="M455.049 304.456H451.904V307.599H455.049V304.456Z" fill="#F0F0F0"/>
<path id="Vector_470" d="M455.049 309.727H451.904V312.87H455.049V309.727Z" fill="#F0F0F0"/>
<path id="Vector_471" d="M455.049 314.998H451.904V318.143H455.049V314.998Z" fill="#F0F0F0"/>
<path id="Vector_472" d="M455.049 320.268H451.904V323.413H455.049V320.268Z" fill="#F0F0F0"/>
<path id="Vector_473" d="M455.049 330.812H451.904V333.955H455.049V330.812Z" fill="#F0F0F0"/>
<path id="Vector_474" d="M455.049 341.355H451.904V344.498H455.049V341.355Z" fill="#F0F0F0"/>
<path id="Vector_475" d="M455.049 346.626H451.904V349.769H455.049V346.626Z" fill="#F0F0F0"/>
<path id="Vector_476" d="M455.049 351.897H451.904V355.042H455.049V351.897Z" fill="#F0F0F0"/>
<path id="Vector_477" d="M455.049 357.167H451.904V360.312H455.049V357.167Z" fill="#F0F0F0"/>
<path id="Vector_478" d="M455.049 362.44H451.904V365.583H455.049V362.44Z" fill="#F0F0F0"/>
<path id="Vector_479" d="M485.381 281.798H482.236V284.942H485.381V281.798Z" fill="#F0F0F0"/>
<path id="Vector_480" d="M485.381 287.07H482.236V290.213H485.381V287.07Z" fill="#F0F0F0"/>
<path id="Vector_481" d="M485.381 292.341H482.236V295.485H485.381V292.341Z" fill="#F0F0F0"/>
<path id="Vector_482" d="M485.381 297.613H482.236V300.757H485.381V297.613Z" fill="#F0F0F0"/>
<path id="Vector_483" d="M485.381 302.883H482.236V306.027H485.381V302.883Z" fill="#F0F0F0"/>
<path id="Vector_484" d="M485.381 308.155H482.236V311.299H485.381V308.155Z" fill="#F0F0F0"/>
<path id="Vector_485" d="M485.381 323.969H482.236V327.113H485.381V323.969Z" fill="#F0F0F0"/>
<path id="Vector_486" d="M485.381 329.24H482.236V332.384H485.381V329.24Z" fill="#F0F0F0"/>
<path id="Vector_487" d="M485.381 334.51H482.236V337.655H485.381V334.51Z" fill="#F0F0F0"/>
<path id="Vector_488" d="M485.381 339.782H482.236V342.926H485.381V339.782Z" fill="#F0F0F0"/>
<path id="Vector_489" d="M485.381 345.054H482.236V348.198H485.381V345.054Z" fill="#F0F0F0"/>
<path id="Vector_490" d="M485.381 350.326H482.236V353.469H485.381V350.326Z" fill="#F0F0F0"/>
<path id="Vector_491" d="M485.381 355.596H482.236V358.74H485.381V355.596Z" fill="#F0F0F0"/>
<path id="Vector_492" d="M480.387 281.798H477.242V284.942H480.387V281.798Z" fill="#F0F0F0"/>
<path id="Vector_493" d="M480.387 287.07H477.242V290.213H480.387V287.07Z" fill="#F0F0F0"/>
<path id="Vector_494" d="M480.387 292.341H477.242V295.485H480.387V292.341Z" fill="#F0F0F0"/>
<path id="Vector_495" d="M480.387 297.613H477.242V300.757H480.387V297.613Z" fill="#F0F0F0"/>
<path id="Vector_496" d="M480.387 302.883H477.242V306.027H480.387V302.883Z" fill="#F0F0F0"/>
<path id="Vector_497" d="M480.387 308.155H477.242V311.299H480.387V308.155Z" fill="#F0F0F0"/>
<path id="Vector_498" d="M480.387 323.969H477.242V327.113H480.387V323.969Z" fill="#F0F0F0"/>
<path id="Vector_499" d="M480.387 329.24H477.242V332.384H480.387V329.24Z" fill="#F0F0F0"/>
<path id="Vector_500" d="M480.387 334.51H477.242V337.655H480.387V334.51Z" fill="#F0F0F0"/>
<path id="Vector_501" d="M480.387 339.782H477.242V342.926H480.387V339.782Z" fill="#F0F0F0"/>
<path id="Vector_502" d="M480.387 345.054H477.242V348.198H480.387V345.054Z" fill="#F0F0F0"/>
<path id="Vector_503" d="M480.387 350.326H477.242V353.469H480.387V350.326Z" fill="#F0F0F0"/>
<path id="Vector_504" d="M480.387 360.867H477.242V364.012H480.387V360.867Z" fill="#F0F0F0"/>
<path id="Vector_505" d="M314.483 258.586H311.338V261.73H314.483V258.586Z" fill="#F0F0F0"/>
<path id="Vector_506" d="M314.483 263.858H311.338V267.002H314.483V263.858Z" fill="#F0F0F0"/>
<path id="Vector_507" d="M314.483 269.128H311.338V272.273H314.483V269.128Z" fill="#F0F0F0"/>
<path id="Vector_508" d="M314.483 274.4H311.338V277.544H314.483V274.4Z" fill="#F0F0F0"/>
<path id="Vector_509" d="M314.483 279.672H311.338V282.815H314.483V279.672Z" fill="#F0F0F0"/>
<path id="Vector_510" d="M314.483 284.943H311.338V288.087H314.483V284.943Z" fill="#F0F0F0"/>
<path id="Vector_511" d="M314.483 290.214H311.338V293.358H314.483V290.214Z" fill="#F0F0F0"/>
<path id="Vector_512" d="M314.483 295.485H311.338V298.629H314.483V295.485Z" fill="#F0F0F0"/>
<path id="Vector_513" d="M314.483 300.757H311.338V303.901H314.483V300.757Z" fill="#F0F0F0"/>
<path id="Vector_514" d="M314.483 306.027H311.338V309.171H314.483V306.027Z" fill="#F0F0F0"/>
<path id="Vector_515" d="M314.483 311.299H311.338V314.443H314.483V311.299Z" fill="#F0F0F0"/>
<path id="Vector_516" d="M314.483 321.843H311.338V324.986H314.483V321.843Z" fill="#F0F0F0"/>
<path id="Vector_517" d="M314.483 327.113H311.338V330.257H314.483V327.113Z" fill="#F0F0F0"/>
<path id="Vector_518" d="M314.483 332.384H311.338V335.528H314.483V332.384Z" fill="#F0F0F0"/>
<path id="Vector_519" d="M314.483 337.656H311.338V340.8H314.483V337.656Z" fill="#F0F0F0"/>
<path id="Vector_520" d="M314.483 342.926H311.338V346.07H314.483V342.926Z" fill="#F0F0F0"/>
<path id="Vector_521" d="M314.483 348.198H311.338V351.342H314.483V348.198Z" fill="#F0F0F0"/>
<path id="Vector_522" d="M314.483 353.469H311.338V356.614H314.483V353.469Z" fill="#F0F0F0"/>
<path id="Vector_523" d="M314.483 358.74H311.338V361.884H314.483V358.74Z" fill="#F0F0F0"/>
<path id="Vector_524" d="M309.488 258.586H306.344V261.73H309.488V258.586Z" fill="#F0F0F0"/>
<path id="Vector_525" d="M309.488 263.858H306.344V267.002H309.488V263.858Z" fill="#F0F0F0"/>
<path id="Vector_526" d="M309.488 269.128H306.344V272.273H309.488V269.128Z" fill="#F0F0F0"/>
<path id="Vector_527" d="M309.488 274.4H306.344V277.544H309.488V274.4Z" fill="#F0F0F0"/>
<path id="Vector_528" d="M309.488 279.672H306.344V282.815H309.488V279.672Z" fill="#F0F0F0"/>
<path id="Vector_529" d="M309.488 284.943H306.344V288.087H309.488V284.943Z" fill="#F0F0F0"/>
<path id="Vector_530" d="M309.488 290.214H306.344V293.358H309.488V290.214Z" fill="#F0F0F0"/>
<path id="Vector_531" d="M309.488 295.485H306.344V298.629H309.488V295.485Z" fill="#F0F0F0"/>
<path id="Vector_532" d="M309.488 300.757H306.344V303.901H309.488V300.757Z" fill="#F0F0F0"/>
<path id="Vector_533" d="M309.488 306.027H306.344V309.171H309.488V306.027Z" fill="#F0F0F0"/>
<path id="Vector_534" d="M309.488 311.299H306.344V314.443H309.488V311.299Z" fill="#F0F0F0"/>
<path id="Vector_535" d="M309.488 316.57H306.344V319.715H309.488V316.57Z" fill="#F0F0F0"/>
<path id="Vector_536" d="M309.488 321.843H306.344V324.986H309.488V321.843Z" fill="#F0F0F0"/>
<path id="Vector_537" d="M309.488 327.113H306.344V330.257H309.488V327.113Z" fill="#F0F0F0"/>
<path id="Vector_538" d="M309.488 332.384H306.344V335.528H309.488V332.384Z" fill="#F0F0F0"/>
<path id="Vector_539" d="M309.488 337.656H306.344V340.8H309.488V337.656Z" fill="#F0F0F0"/>
<path id="Vector_540" d="M309.488 342.926H306.344V346.07H309.488V342.926Z" fill="#F0F0F0"/>
<path id="Vector_541" d="M309.488 348.198H306.344V351.342H309.488V348.198Z" fill="#F0F0F0"/>
<path id="Vector_542" d="M309.488 353.469H306.344V356.614H309.488V353.469Z" fill="#F0F0F0"/>
<path id="Vector_543" d="M309.488 358.74H306.344V361.884H309.488V358.74Z" fill="#F0F0F0"/>
<path id="Vector_544" d="M339.082 279.116H335.938V282.261H339.082V279.116Z" fill="#F0F0F0"/>
<path id="Vector_545" d="M339.082 284.387H335.938V287.532H339.082V284.387Z" fill="#F0F0F0"/>
<path id="Vector_546" d="M339.082 289.66H335.938V292.803H339.082V289.66Z" fill="#F0F0F0"/>
<path id="Vector_547" d="M339.082 294.931H335.938V298.074H339.082V294.931Z" fill="#F0F0F0"/>
<path id="Vector_548" d="M339.082 300.201H335.938V303.346H339.082V300.201Z" fill="#F0F0F0"/>
<path id="Vector_549" d="M339.082 305.472H335.938V308.617H339.082V305.472Z" fill="#F0F0F0"/>
<path id="Vector_550" d="M339.082 310.745H335.938V313.888H339.082V310.745Z" fill="#F0F0F0"/>
<path id="Vector_551" d="M339.082 316.015H335.938V319.16H339.082V316.015Z" fill="#F0F0F0"/>
<path id="Vector_552" d="M339.082 321.286H335.938V324.431H339.082V321.286Z" fill="#F0F0F0"/>
<path id="Vector_553" d="M339.082 326.559H335.938V329.702H339.082V326.559Z" fill="#F0F0F0"/>
<path id="Vector_554" d="M334.087 279.116H330.943V282.261H334.087V279.116Z" fill="#F0F0F0"/>
<path id="Vector_555" d="M334.087 284.387H330.943V287.532H334.087V284.387Z" fill="#F0F0F0"/>
<path id="Vector_556" d="M334.087 289.66H330.943V292.803H334.087V289.66Z" fill="#F0F0F0"/>
<path id="Vector_557" d="M334.087 294.931H330.943V298.074H334.087V294.931Z" fill="#F0F0F0"/>
<path id="Vector_558" d="M334.087 300.201H330.943V303.346H334.087V300.201Z" fill="#F0F0F0"/>
<path id="Vector_559" d="M334.087 305.472H330.943V308.617H334.087V305.472Z" fill="#F0F0F0"/>
<path id="Vector_560" d="M334.087 310.745H330.943V313.888H334.087V310.745Z" fill="#F0F0F0"/>
<path id="Vector_561" d="M334.087 316.015H330.943V319.16H334.087V316.015Z" fill="#F0F0F0"/>
<path id="Vector_562" d="M334.087 321.286H330.943V324.431H334.087V321.286Z" fill="#F0F0F0"/>
</g>
</g>
<g id="Group_6">
<path id="Vector_563" d="M363.803 79.073H358.524V373.068H363.803V79.073Z" fill="#E0E0E0"/>
<path id="Vector_564" d="M463.076 79.073H457.799V373.068H463.076V79.073Z" fill="#E0E0E0"/>
<path id="Vector_565" d="M562.352 79.073H557.074V373.068H562.352V79.073Z" fill="#E0E0E0"/>
</g>
</g>
<g id="Group_7">
<path id="Vector_566" d="M225.188 412.885H181.559V350.03C181.559 346.962 184.047 344.474 187.116 344.474H219.632C222.702 344.474 225.188 346.963 225.188 350.03V412.885Z" fill="#F0F0F0"/>
<path id="Vector_567" d="M225.186 353.721H181.557V358.622H225.186V353.721Z" fill="#E6E6E6"/>
<path id="Vector_568" d="M217.235 404.599H206.366C204.712 404.599 203.371 405.94 203.371 407.592V412.885H220.229V407.592C220.229 405.938 218.889 404.599 217.235 404.599Z" fill="#E0E0E0"/>
<path id="Vector_569" d="M220.286 412.885H208.196C207.125 412.885 206.257 412.017 206.257 410.946C206.257 409.875 207.125 409.007 208.196 409.007H220.286C221.357 409.007 222.225 409.875 222.225 410.946C222.225 412.017 221.357 412.885 220.286 412.885Z" fill="#E6E6E6"/>
</g>
<g id="Group_8">
<path id="Vector_570" d="M407.195 66.0557C423.603 66.0557 436.905 52.7538 436.905 36.3452C436.905 19.9366 423.603 6.63477 407.195 6.63477C390.786 6.63477 377.484 19.9366 377.484 36.3452C377.484 52.7538 390.786 66.0557 407.195 66.0557Z" fill="#E0E0E0"/>
<path id="Vector_571" d="M407.195 61.6069C421.147 61.6069 432.457 50.2969 432.457 36.3453C432.457 22.3937 421.147 11.0837 407.195 11.0837C393.244 11.0837 381.934 22.3937 381.934 36.3453C381.934 50.2969 393.244 61.6069 407.195 61.6069Z" fill="#F0F0F0"/>
<g id="Vector_572">
<path d="M408.386 19.0164V36.6756L420.088 30.0534" fill="#F0F0F0"/>
<path d="M408.386 19.0164V36.6756L420.088 30.0534" stroke="#E0E0E0" stroke-width="2" stroke-miterlimit="10" stroke-linecap="round" stroke-linejoin="round"/>
</g>
</g>
<g id="Group_9">
<g id="Group_10">
<path id="Vector_573" d="M122.922 326.304C120.652 322.565 116.913 325.816 116.913 325.816C117.447 318.651 110.856 313.752 110.856 313.752C110.856 313.752 118.515 313.752 119.583 306.444C120.652 299.135 116.913 302.535 113.404 302.485C109.897 302.435 106.229 312.684 110.855 318.447C115.481 324.21 114.242 334.048 103.559 343.51C100.953 345.819 99.1807 348.893 97.9837 352.216C98.7897 343.523 99.245 331.275 96.687 323.098C92.3428 309.21 100.621 305.471 103.024 298.527C105.428 291.583 96.687 285.708 96.687 285.708C96.687 285.708 104.895 281.969 100.889 277.696C96.8825 273.422 88.6028 274.004 88.6028 279.589C88.6028 285.173 94.2109 287.31 94.2109 287.31C94.2109 287.31 100.621 293.986 100.621 297.458C100.621 300.93 94.2109 308.409 94.2109 308.409C94.2109 308.409 97.1486 302.009 91.2731 301.736C85.3977 301.465 83.527 309.21 85.9312 312.682C88.3354 316.154 92.3415 313.216 92.3415 313.216C92.3415 313.216 92.8082 320.695 94.1768 325.234C94.7798 327.231 94.496 335.064 93.9914 343.214C92.8082 340.271 91.1331 337.574 88.7882 335.498C78.1056 326.035 76.8657 316.197 81.4924 310.435C86.1179 304.67 82.4511 294.423 78.9432 294.472C75.4353 294.522 71.6953 291.123 72.765 298.431C73.8346 305.74 81.4924 305.74 81.4924 305.74C81.4924 305.74 74.9005 310.64 75.4353 317.804C75.4353 317.804 71.6953 314.552 69.4261 318.292C65.3733 324.967 74.768 329.107 76.346 325.822C76.346 325.822 96.2669 339.924 91.4586 360.221L92.5761 361.87C92.4324 363.508 92.3415 364.495 92.3415 364.495L93.8993 363.824L95.6716 366.441C95.5795 371.514 96.1244 375.263 96.1244 375.263L100.887 368.233C96.079 347.935 116 333.834 116 333.834C117.579 337.12 126.975 332.979 122.922 326.304Z" fill="#E0E0E0"/>
<path id="Vector_574" opacity="0.2" d="M122.922 326.304C120.652 322.565 116.913 325.816 116.913 325.816C117.447 318.651 110.856 313.752 110.856 313.752C110.856 313.752 118.515 313.752 119.583 306.444C120.652 299.135 116.913 302.535 113.404 302.485C109.897 302.435 106.229 312.684 110.855 318.447C115.481 324.21 114.242 334.048 103.559 343.51C100.953 345.819 99.1807 348.893 97.9837 352.216C98.7897 343.523 99.245 331.275 96.687 323.098C92.3428 309.21 100.621 305.471 103.024 298.527C105.428 291.583 96.687 285.708 96.687 285.708C96.687 285.708 104.895 281.969 100.889 277.696C96.8825 273.422 88.6028 274.004 88.6028 279.589C88.6028 285.173 94.2109 287.31 94.2109 287.31C94.2109 287.31 100.621 293.986 100.621 297.458C100.621 300.93 94.2109 308.409 94.2109 308.409C94.2109 308.409 97.1486 302.009 91.2731 301.736C85.3977 301.465 83.527 309.21 85.9312 312.682C88.3354 316.154 92.3415 313.216 92.3415 313.216C92.3415 313.216 92.8082 320.695 94.1768 325.234C94.7798 327.231 94.496 335.064 93.9914 343.214C92.8082 340.271 91.1331 337.574 88.7882 335.498C78.1056 326.035 76.8657 316.197 81.4924 310.435C86.1179 304.67 82.4511 294.423 78.9432 294.472C75.4353 294.522 71.6953 291.123 72.765 298.431C73.8346 305.74 81.4924 305.74 81.4924 305.74C81.4924 305.74 74.9005 310.64 75.4353 317.804C75.4353 317.804 71.6953 314.552 69.4261 318.292C65.3733 324.967 74.768 329.107 76.346 325.822C76.346 325.822 96.2669 339.924 91.4586 360.221L92.5761 361.87C92.4324 363.508 92.3415 364.495 92.3415 364.495L93.8993 363.824L95.6716 366.441C95.5795 371.514 96.1244 375.263 96.1244 375.263L100.887 368.233C96.079 347.935 116 333.834 116 333.834C117.579 337.12 126.975 332.979 122.922 326.304Z" fill="#E0E0E0"/>
</g>
<path id="Vector_575" d="M119.024 412.885H73.3936L68.4717 362.927H123.947L119.024 412.885Z" fill="#E6E6E6"/>
<path id="Vector_576" d="M126.382 357.416H66.0352V368.439H126.382V357.416Z" fill="#F0F0F0"/>
</g>
</g>
</g>
<g id="Shadow_1_">
<path id="_x3C_Path_x3E__359_" d="M316 470C451.071 470 560.567 463.606 560.567 455.717C560.567 447.829 451.071 441.435 316 441.435C180.93 441.435 71.4336 447.829 71.4336 455.717C71.4336 463.606 180.93 470 316 470Z" fill="#F5F5F5"/>
</g>
<g id="Plant">
<g id="Group_11">
<g id="Group_12">
<path id="Vector_577" d="M518.379 415.958C518.571 414.666 522.986 384.206 514.143 373.69C512.185 371.362 509.715 370.145 506.8 370.074C488.949 369.656 486.507 383.994 486.484 384.141L488.59 384.465C488.672 383.952 490.788 371.817 506.748 372.203C509.058 372.26 510.944 373.195 512.513 375.061C520.745 384.851 516.318 415.337 516.273 415.644L518.379 415.958Z" fill="#F15959"/>
</g>
<g id="Group_13">
<path id="Vector_578" d="M519.46 414.569L521.589 414.502C521.58 414.222 520.881 386.436 534.572 380.695C547.989 375.075 554.025 386.631 554.275 387.128L556.178 386.17C556.109 386.033 549.026 372.324 533.748 378.732C518.709 385.038 519.422 413.367 519.46 414.569Z" fill="#F15959"/>
</g>
<g id="Group_14">
<path id="Vector_579" d="M519.4 416.752C519.4 416.31 519.529 372.365 528.096 359.511C536.323 347.172 549.594 352.981 550.154 353.234L551.034 351.296C550.88 351.225 535.566 344.465 526.324 358.329C517.399 371.715 517.271 414.917 517.27 416.75L519.4 416.752Z" fill="#F15959"/>
</g>
<path id="Vector_580" d="M504.247 371.13C504.247 371.13 512.041 374.003 509.724 380.787C507.407 387.572 482.759 398.736 482.759 398.736C482.759 398.736 472.436 389.274 481.917 373.886C491.396 358.499 504.036 366.275 504.247 371.13Z" fill="#F15959"/>
<path id="Vector_581" d="M528.482 357.198C528.482 357.198 522.947 356.602 523.394 353.232C523.839 349.862 544.905 341.186 557.335 355.214C557.335 355.214 549.376 368.886 537.871 369.063C526.367 369.244 528.482 357.198 528.482 357.198Z" fill="#F15959"/>
<path id="Vector_582" d="M534.162 379.715C534.162 379.715 530.343 376.631 534.465 375.124C538.587 373.618 558.811 374.047 559.021 394.08C559.021 394.08 535.468 397.996 532.551 390.364C529.635 382.734 534.162 379.715 534.162 379.715Z" fill="#F15959"/>
<path id="Vector_583" opacity="0.2" d="M504.247 371.13C504.247 371.13 512.041 374.003 509.724 380.787C507.407 387.572 482.759 398.736 482.759 398.736C482.759 398.736 472.436 389.274 481.917 373.886C491.396 358.499 504.036 366.275 504.247 371.13Z" fill="black"/>
<path id="Vector_584" opacity="0.2" d="M528.482 357.198C528.482 357.198 522.947 356.602 523.394 353.232C523.839 349.862 544.905 341.186 557.335 355.214C557.335 355.214 549.376 368.886 537.871 369.063C526.367 369.244 528.482 357.198 528.482 357.198Z" fill="black"/>
<path id="Vector_585" opacity="0.2" d="M534.162 379.715C534.162 379.715 530.343 376.631 534.465 375.124C538.587 373.618 558.811 374.047 559.021 394.08C559.021 394.08 535.468 397.996 532.551 390.364C529.635 382.734 534.162 379.715 534.162 379.715Z" fill="black"/>
<path id="Vector_586" d="M500.059 456.769H536.61L540.554 416.751H496.116L500.059 456.769Z" fill="#F15959"/>
<path id="Vector_587" opacity="0.5" d="M500.059 456.769H536.61L540.554 416.751H496.116L500.059 456.769Z" fill="white"/>
<path id="Vector_588" d="M542.505 412.336H494.164V421.166H542.505V412.336Z" fill="#F15959"/>
<path id="Vector_589" opacity="0.2" d="M542.505 412.336H494.164V421.166H542.505V412.336Z" fill="white"/>
</g>
</g>
<g id="Chair">
<g id="Group_15">
<path id="Vector_590" d="M458.69 428.083L422.346 424.511V373.435H407.943V424.496L371.452 428.083C367.83 428.439 365.067 431.485 365.067 435.125V440.582H413.735H416.405H465.073V435.125C465.074 431.485 462.312 428.439 458.69 428.083Z" fill="#263238"/>
<path id="Vector_591" opacity="0.2" d="M458.69 428.083L422.346 424.511V373.435H407.943V424.496L371.452 428.083C367.83 428.439 365.067 431.485 365.067 435.125V440.582H413.735H416.405H465.073V435.125C465.074 431.485 462.312 428.439 458.69 428.083Z" fill="white"/>
<path id="Vector_592" d="M368.915 456.769C374.117 456.769 378.333 452.553 378.333 447.352C378.333 442.151 374.117 437.935 368.915 437.935C363.714 437.935 359.498 442.151 359.498 447.352C359.498 452.553 363.714 456.769 368.915 456.769Z" fill="#263238"/>
<path id="Vector_593" d="M461.23 456.769C466.431 456.769 470.647 452.553 470.647 447.352C470.647 442.151 466.431 437.935 461.23 437.935C456.029 437.935 451.812 442.151 451.812 447.352C451.812 452.553 456.029 456.769 461.23 456.769Z" fill="#263238"/>
<path id="Vector_594" d="M419.615 384.413H410.678C407.798 384.413 405.465 382.078 405.465 379.2V338.92H424.83V379.2C424.828 382.078 422.495 384.413 419.615 384.413Z" fill="#263238"/>
<path id="Vector_595" opacity="0.3" d="M419.615 384.413H410.678C407.798 384.413 405.465 382.078 405.465 379.2V338.92H424.83V379.2C424.828 382.078 422.495 384.413 419.615 384.413Z" fill="white"/>
<path id="Vector_596" d="M449.58 259.084C449.58 259.084 452.325 327.195 433.362 338.922H455.011C455.011 338.922 471.786 315.717 467.045 259.084H449.58Z" fill="#263238"/>
<path id="Vector_597" opacity="0.3" d="M449.58 259.084C449.58 259.084 452.325 327.195 433.362 338.922H455.011C455.011 338.922 471.786 315.717 467.045 259.084H449.58Z" fill="white"/>
<path id="Vector_598" d="M371.665 329.396H456.078C459.562 329.396 462.385 332.219 462.385 335.703V344.14H365.358V335.703C365.358 332.219 368.183 329.396 371.665 329.396Z" fill="#263238"/>
<g id="Group_16">
<path id="Vector_599" d="M363.852 336.768H463.894C465.294 336.768 466.431 337.904 466.431 339.306V341.603C466.431 343.005 465.296 344.141 463.894 344.141H363.852C362.452 344.141 361.315 343.006 361.315 341.603V339.306C361.315 337.904 362.451 336.768 363.852 336.768Z" fill="#263238"/>
<path id="Vector_600" opacity="0.6" d="M363.852 336.768H463.894C465.294 336.768 466.431 337.904 466.431 339.306V341.603C466.431 343.005 465.296 344.141 463.894 344.141H363.852C362.452 344.141 361.315 343.006 361.315 341.603V339.306C361.315 337.904 362.451 336.768 363.852 336.768Z" fill="white"/>
</g>
<path id="Vector_601" d="M472.353 272.923H437.671C427.511 272.923 419.275 264.687 419.275 254.527V240.964C419.275 230.804 427.511 222.568 437.671 222.568H472.353C482.512 222.568 490.749 230.804 490.749 240.964V254.527C490.749 264.687 482.512 272.923 472.353 272.923Z" fill="#263238"/>
</g>
</g>
<g id="Character">
<g id="Group_17">
<path id="Vector_602" d="M332.465 166.914L325.545 148.662C325.545 148.662 328.513 145.915 326.476 143.127C324.441 140.341 311.667 132.499 309.339 133.877C307.01 135.255 301.842 140.453 304.635 143.336C307.43 146.22 319.803 151.035 319.803 151.035L325.925 174.982L332.465 166.914Z" fill="#FF928E"/>
<g id="Group_18">
<path id="Vector_603" d="M380.815 201.617C380.815 201.617 349.318 195.142 345.903 193.597C342.487 192.051 329.807 154.918 329.807 154.918L320.09 159.459C320.09 159.459 327.913 196.722 335.911 205.582C343.911 214.443 378.029 221.937 378.029 221.937L380.815 201.617Z" fill="#F15959"/>
<path id="Vector_604" opacity="0.2" d="M378.027 221.933C378.027 221.933 377.83 221.891 377.449 221.799C375.726 221.412 370.347 220.143 363.947 218.272C353.561 215.256 340.479 210.646 335.908 205.588C327.921 196.722 320.088 159.457 320.088 159.457L329.803 154.921C329.803 154.921 342.484 192.055 345.911 193.598C349.325 195.14 380.819 201.615 380.819 201.615L378.027 221.933Z" fill="black"/>
<path id="Vector_605" d="M329.961 154.189L331.969 158.06L319.481 162.361L319.965 157.629L329.961 154.189Z" fill="#F15959"/>
</g>
<path id="Vector_606" opacity="0.2" d="M378.267 221.424C376.519 221.172 371.059 220.323 364.532 218.955C368.253 212.53 379.15 209.227 379.15 209.227L378.267 221.424Z" fill="black"/>
<path id="Vector_607" d="M425.216 175.914C425.216 175.914 427.069 193.359 420.605 197.642C414.14 201.926 382.352 196.907 378.744 189.891C375.138 182.874 388.707 163.816 388.707 163.816L425.216 175.914Z" fill="#263238"/>
<path id="Vector_608" d="M296.569 405.462L304.863 407.458L309.062 396.008L312.874 385.594L303.426 381.562L299.793 394.203L296.569 405.462Z" fill="#FF928E"/>
<path id="Vector_609" opacity="0.2" d="M299.794 394.203L309.063 396.008L312.874 385.594L303.427 381.562L299.794 394.203Z" fill="black"/>
<g id="Group_19">
<path id="Vector_610" d="M300.628 388.158L312.133 392.434C312.133 392.434 342.822 315.706 349.129 315.44C355.436 315.175 419.653 344.691 435.748 328.32C451.843 311.958 428.571 272.516 428.571 272.516C428.571 272.516 389.859 266.992 386.945 275.733C386.378 277.423 385.759 280.741 385.305 283.579C384.863 286.253 384.56 288.498 384.56 288.498C384.56 288.498 384.547 288.498 384.535 288.485C383.336 288.183 344.473 278.155 329.16 288.498C313.607 299.017 300.628 388.158 300.628 388.158Z" fill="#F15959"/>
<path id="Vector_611" opacity="0.6" d="M300.628 388.158L312.133 392.434C312.133 392.434 342.822 315.706 349.129 315.44C355.436 315.175 419.653 344.691 435.748 328.32C451.843 311.958 428.571 272.516 428.571 272.516C428.571 272.516 389.859 266.992 386.945 275.733C386.378 277.423 385.759 280.741 385.305 283.579C384.863 286.253 384.56 288.498 384.56 288.498C384.56 288.498 384.547 288.498 384.535 288.485C383.336 288.183 344.473 278.155 329.16 288.498C313.607 299.017 300.628 388.158 300.628 388.158Z" fill="white"/>
</g>
<path id="Vector_612" d="M366.792 438.192L375.057 436.074L373.468 424.218L371.99 413.344L361.77 414.26L364.423 426.932L366.792 438.192Z" fill="#FF928E"/>
<path id="Vector_613" opacity="0.2" d="M364.491 427.186L373.526 424.444L372.021 413.456L361.786 414.317L364.491 427.186Z" fill="black"/>
<path id="Vector_614" d="M316.882 388.178L300.127 382.483L299.412 389.348L312.119 393.841L316.882 388.178Z" fill="#F15959"/>
<g id="Group_20">
<path id="Vector_615" d="M407.942 332.254C407.942 332.254 405.32 332.317 364.716 330.425C364.716 330.425 370.785 381.189 374.094 419.19L361.954 421.26C361.954 421.26 332.942 339.885 333.257 326.956C333.573 314.027 348.394 310.243 348.394 310.243C348.394 310.243 377.321 326.956 407.942 332.254Z" fill="#F15959"/>
<path id="Vector_616" opacity="0.6" d="M407.942 332.254C407.942 332.254 405.32 332.317 364.716 330.425C364.716 330.425 370.785 381.189 374.094 419.19L361.954 421.26C361.954 421.26 332.942 339.885 333.257 326.956C333.573 314.027 348.394 310.243 348.394 310.243C348.394 310.243 377.321 326.956 407.942 332.254Z" fill="white"/>
<path id="Vector_617" opacity="0.1" d="M407.942 332.254C407.942 332.254 405.32 332.317 364.716 330.425C364.716 330.425 370.785 381.189 374.094 419.19L361.954 421.26C361.954 421.26 332.942 339.885 333.257 326.956C333.573 314.027 348.394 310.243 348.394 310.243C348.394 310.243 377.321 326.956 407.942 332.254Z" fill="black"/>
</g>
<path id="Vector_618" d="M375.872 415.509L359.184 417.407L362.403 423.95L375.912 422.217L375.872 415.509Z" fill="#F15959"/>
<path id="Vector_619" opacity="0.1" d="M384.559 288.497L407.2 293.214C407.2 293.214 394.687 286.302 385.304 283.576C384.861 286.252 384.559 288.497 384.559 288.497Z" fill="black"/>
<g id="Group_21">
<g id="Group_22">
<path id="Vector_620" d="M427.633 266.497L428.564 272.519L386.94 275.729L385.839 268.606L427.633 266.497Z" fill="#263238"/>
<path id="Vector_621" opacity="0.2" d="M427.633 266.497L428.564 272.519L386.94 275.729L385.839 268.606L427.633 266.497Z" fill="black"/>
</g>
<path id="Vector_622" d="M414.528 276.582L416.584 276.37L415.505 265.896L413.448 266.108L414.528 276.582Z" fill="#F15959"/>
<path id="Vector_623" d="M396.024 275.547L405.143 274.961L404.698 268.045L395.579 268.632L396.024 275.547Z" fill="white"/>
<path id="Vector_624" d="M388.958 277.723L391.015 277.511L389.935 267.037L387.879 267.249L388.958 277.723Z" fill="#F15959"/>
<path id="Vector_625" opacity="0.6" d="M414.528 276.582L416.584 276.37L415.505 265.896L413.448 266.108L414.528 276.582Z" fill="white"/>
<path id="Vector_626" opacity="0.6" d="M388.958 277.723L391.015 277.511L389.935 267.037L387.879 267.249L388.958 277.723Z" fill="white"/>
</g>
<path id="Vector_627" d="M380.059 201.042C380.059 201.042 390.686 204.376 404.042 203.689C417.397 203.003 433.365 209.491 433.365 209.491L427.632 266.496L385.837 268.606C385.837 268.606 371.794 221.003 380.059 201.042Z" fill="#F15959"/>
<path id="Vector_628" d="M386.773 168.85C386.773 168.85 389.123 141.166 412.263 151.225C441.309 163.851 418.213 197.571 404.024 190.647C389.835 183.723 386.773 168.85 386.773 168.85Z" fill="#263238"/>
<path id="Vector_629" opacity="0.2" d="M393.262 205.236L393.926 220.878L399.117 213.519C399.117 213.519 397.265 230.82 398.35 240.242C398.35 240.242 399.342 223.349 401.692 213.519L407.2 220.878L415.115 205.332C415.115 205.332 402.308 200.732 393.262 205.236Z" fill="black"/>
<path id="Vector_630" d="M400.429 208.146L412.393 204.765C405.02 199.691 408.738 188.345 408.738 188.345L396.885 192.512C397.517 194.479 397.917 196.15 398.157 197.577C399.395 204.971 396.057 205.561 396.057 205.561L400.429 208.146Z" fill="#FF928E"/>
<path id="Vector_631" opacity="0.2" d="M396.888 192.512C397.52 194.479 397.919 196.15 398.159 197.577C403.833 195.303 408.741 188.345 408.741 188.345L396.888 192.512Z" fill="black"/>
<g id="Group_23">
<path id="Vector_632" d="M404.622 157.037C394.123 154.714 389.502 159.587 386.338 170.235C382.384 183.543 383.257 193.812 397.022 193.829C415.717 193.853 422.057 160.896 404.622 157.037Z" fill="#FF928E"/>
<path id="Vector_633" d="M412.179 177.271C412.179 177.271 409.18 167.56 411.396 161.065C411.396 161.065 392.473 147.962 386.772 168.851C386.772 168.851 388.89 149.651 407.029 153.227C425.14 156.798 419.248 183.188 408.187 188.992C408.188 188.992 414.022 183.337 412.179 177.271Z" fill="#263238"/>
<path id="Vector_634" d="M409.973 179.108C410.417 177.433 412.795 174.958 415.862 175.997C419.037 177.072 419.109 184.094 410.662 183.909C409.45 183.881 409.046 182.602 409.973 179.108Z" fill="#FF928E"/>
<path id="Vector_635" d="M404.663 157.878C404.663 157.878 405.069 176.088 415.995 178.274C426.921 180.46 414.976 154.873 414.976 154.873C414.976 154.873 398.708 144.247 387.864 151.736C377.02 159.225 386.773 168.851 386.773 168.851C386.773 168.851 389.065 155.324 404.663 157.878Z" fill="#263238"/>
<path id="Vector_636" d="M405.041 156.674C405.041 156.674 401.148 168.184 408.838 174.229" stroke="#263238" stroke-width="0.5" stroke-miterlimit="10" stroke-linecap="round" stroke-linejoin="round"/>
</g>
<g id="Group_24">
<path id="Vector_637" d="M411.225 186.655C414.237 187.786 417.806 185.701 419.196 181.999C420.585 178.296 419.27 174.378 416.257 173.248C413.245 172.117 409.676 174.202 408.286 177.904C406.897 181.607 408.212 185.525 411.225 186.655Z" fill="#F15959"/>
<path id="Vector_638" opacity="0.4" d="M411.225 186.655C414.237 187.786 417.806 185.701 419.196 181.999C420.585 178.296 419.27 174.378 416.257 173.248C413.245 172.117 409.676 174.202 408.286 177.904C406.897 181.607 408.212 185.525 411.225 186.655Z" fill="black"/>
<path id="Vector_639" d="M415.706 175.948C415.706 175.948 420.23 155.678 410.078 150.365C410.078 150.365 412.193 150.65 413.505 151.032C414.817 151.414 422.928 159.635 418.83 177.853L415.706 175.948Z" fill="#F15959"/>
<path id="Vector_640" opacity="0.2" d="M415.706 175.948C415.706 175.948 420.23 155.678 410.078 150.365C410.078 150.365 412.193 150.65 413.505 151.032C414.817 151.414 422.928 159.635 418.83 177.853L415.706 175.948Z" fill="black"/>
<g id="Group_25">
<g id="Group_26">
<path id="Vector_641" d="M396.667 187.549C396.416 187.516 396.165 187.478 395.909 187.437L396.114 186.193C405.255 187.681 412.056 182.844 412.124 182.795L412.868 183.813C412.586 184.018 405.971 188.772 396.667 187.549Z" fill="#F15959"/>
</g>
<g id="Group_27" opacity="0.2">
<path id="Vector_642" d="M396.667 187.549C396.416 187.516 396.165 187.478 395.909 187.437L396.114 186.193C405.255 187.681 412.056 182.844 412.124 182.795L412.868 183.813C412.586 184.018 405.971 188.772 396.667 187.549Z" fill="black"/>
</g>
</g>
<path id="Vector_643" d="M413.475 184.61C415.467 185.358 417.827 183.979 418.746 181.531C419.665 179.082 418.796 176.491 416.804 175.744C414.812 174.996 412.452 176.374 411.533 178.823C410.614 181.271 411.483 183.862 413.475 184.61Z" fill="#F15959"/>
<g id="Group_28">
<path id="Vector_644" d="M395.541 187.963L394.528 187.829C393.776 187.73 393.246 187.041 393.346 186.29C393.446 185.538 394.134 185.01 394.886 185.108L395.899 185.242C396.65 185.34 397.179 186.03 397.081 186.781C396.98 187.532 396.291 188.061 395.541 187.963Z" fill="#F15959"/>
<path id="Vector_645" opacity="0.4" d="M395.541 187.963L394.528 187.829C393.776 187.73 393.246 187.041 393.346 186.29C393.446 185.538 394.134 185.01 394.886 185.108L395.899 185.242C396.65 185.34 397.179 186.03 397.081 186.781C396.98 187.532 396.291 188.061 395.541 187.963Z" fill="black"/>
</g>
</g>
<path id="Vector_646" d="M409.186 200.427L401.69 207.789L404.687 216.809L415.114 205.332L409.186 200.427Z" fill="#F15959"/>
<path id="Vector_647" d="M398.349 201.966L399.561 207.633L395.68 215.645L393.262 205.236L398.349 201.966Z" fill="#F15959"/>
<path id="Vector_648" d="M407.584 206.819L411.937 190.888C411.937 190.888 409.828 186.919 410.283 186.088C410.739 185.258 413.004 174.562 414.62 173.396C416.235 172.232 422.874 174.22 423.547 175.305C424.219 176.389 417.184 190.886 417.184 190.886L414.62 208.146L407.584 206.819Z" fill="#FF928E"/>
<g id="Group_29">
<path id="Vector_649" d="M433.367 209.491C445.344 221.749 421.339 249.522 407.585 248.34C393.829 247.156 407.927 196.796 407.927 196.796L416.735 198.244C416.735 198.244 413.644 220.038 414.619 221.749C415.594 223.459 429.342 205.371 433.367 209.491Z" fill="#F15959"/>
<path id="Vector_650" opacity="0.2" d="M433.367 209.491C445.344 221.749 421.339 249.522 407.585 248.34C393.829 247.156 407.927 196.796 407.927 196.796L416.735 198.244C416.735 198.244 413.644 220.038 414.619 221.749C415.594 223.459 429.342 205.371 433.367 209.491Z" fill="black"/>
<path id="Vector_651" d="M407.201 195.185L405.896 199.344L418.17 200.428V196.796L407.201 195.185Z" fill="#F15959"/>
</g>
<g id="Group_30">
<path id="Vector_652" opacity="0.6" d="M388.603 239.5H383.631C383.079 239.5 382.633 239.053 382.633 238.501V229.119C382.633 228.566 383.079 228.12 383.631 228.12H388.603C389.155 228.12 389.601 228.566 389.601 229.119V238.501C389.601 239.053 389.154 239.5 388.603 239.5Z" fill="white"/>
<path id="Vector_653" opacity="0.2" d="M388.704 228.869H383.048V236.604H388.704V228.869Z" fill="black"/>
<path id="Vector_654" d="M386.623 225.375H385.376V229.934H386.623V225.375Z" fill="#263238"/>
</g>
<path id="Vector_655" d="M282.834 421.572C284.096 420.992 285.452 420.647 286.838 420.554C286.838 420.554 291.629 417.735 296.377 406.78L301.716 406.75C303.565 406.771 305.204 407.944 305.818 409.687C305.905 409.924 305.957 410.174 305.969 410.426C305.915 411.716 305.779 413.002 305.559 414.275C305.079 418.268 302.437 426.837 302.437 426.837L301.533 426.605L303.178 418.639C303.725 415.932 300.881 418.547 299.562 421.277C298.243 424.006 296.219 426.754 290.322 425.404C283.45 423.798 280.681 422.807 282.834 421.572Z" fill="#F15959"/>
<path id="Vector_656" d="M297.343 403.91C297.343 403.91 290.675 417.862 286.837 420.554C286.837 420.554 291.983 423.624 297.343 416.793C304.273 407.959 305.968 410.426 305.968 410.426C305.968 410.426 305.674 407.404 305.133 405.925C304.093 403.074 297.343 403.91 297.343 403.91Z" fill="#FF928E"/>
<path id="Vector_657" d="M356.273 454.813C357.36 453.95 358.598 453.293 359.921 452.876C359.921 452.876 363.907 449.001 365.921 437.232L371.1 435.937C372.9 435.519 374.771 436.271 375.781 437.819C375.923 438.028 376.031 438.259 376.104 438.501C376.358 439.766 376.529 441.048 376.618 442.335C377.098 446.329 376.565 455.28 376.565 455.28L375.631 455.27L375.34 447.14C375.229 444.38 373.086 447.595 372.451 450.56C371.818 453.525 370.502 456.674 364.454 456.762C357.398 456.829 354.474 456.523 356.273 454.813Z" fill="#F15959"/>
<path id="Vector_658" d="M366.179 434.213C366.179 434.213 363.012 449.349 359.92 452.874C359.92 452.874 365.648 454.635 369.234 446.729C373.871 436.504 376.103 438.5 376.103 438.5C376.103 438.5 375.101 435.632 374.225 434.322C372.537 431.8 366.179 434.213 366.179 434.213Z" fill="#FF928E"/>
</g>
</g>
<g id="Speech_bubble">
<g id="Group_31">
<path id="Vector_659" d="M483.46 160.532H439.419C435.89 160.532 433.03 157.671 433.03 154.143V135.296C433.03 131.768 435.891 128.908 439.419 128.908H483.46C486.989 128.908 489.849 131.768 489.849 135.296V154.143C489.849 157.671 486.989 160.532 483.46 160.532Z" fill="#F15959"/>
<path id="Vector_660" d="M448.257 156.927L434.988 174.962L456.395 158.135L448.257 156.927Z" fill="#F15959"/>
<g id="Group_32">
<path id="Vector_661" d="M446.894 146.581C447.922 146.581 448.756 145.747 448.756 144.719C448.756 143.691 447.922 142.857 446.894 142.857C445.866 142.857 445.032 143.691 445.032 144.719C445.032 145.747 445.866 146.581 446.894 146.581Z" fill="white"/>
<path id="Vector_662" d="M456.592 146.579C457.62 146.579 458.453 145.746 458.453 144.719C458.453 143.691 457.62 142.858 456.592 142.858C455.564 142.858 454.731 143.691 454.731 144.719C454.731 145.746 455.564 146.579 456.592 146.579Z" fill="white"/>
<path id="Vector_663" d="M466.292 146.579C467.32 146.579 468.153 145.746 468.153 144.719C468.153 143.691 467.32 142.858 466.292 142.858C465.265 142.858 464.432 143.691 464.432 144.719C464.432 145.746 465.265 146.579 466.292 146.579Z" fill="white"/>
<path id="Vector_664" d="M475.989 146.581C477.017 146.581 477.851 145.747 477.851 144.719C477.851 143.691 477.017 142.857 475.989 142.857C474.961 142.857 474.127 143.691 474.127 144.719C474.127 145.747 474.961 146.581 475.989 146.581Z" fill="white"/>
</g>
</g>
</g>
<g id="Bird">
<g id="Group_33">
<g id="Group_34">
<path id="Vector_665" d="M306.453 135.663L275.045 118.747C274.196 118.289 273.878 117.23 274.335 116.381L284.351 97.7818C284.809 96.9329 285.869 96.615 286.718 97.0717L318.126 113.988C318.975 114.446 319.293 115.505 318.836 116.353L308.819 134.952C308.361 135.803 307.302 136.121 306.453 135.663Z" fill="#F15959"/>
<path id="Vector_666" opacity="0.7" d="M306.453 135.663L275.045 118.747C274.196 118.289 273.878 117.23 274.335 116.381L284.351 97.7818C284.809 96.9329 285.869 96.615 286.718 97.0717L318.126 113.988C318.975 114.446 319.293 115.505 318.836 116.353L308.819 134.952C308.361 135.803 307.302 136.121 306.453 135.663Z" fill="white"/>
<path id="Vector_667" opacity="0.2" d="M283.524 99.3207L293.351 117.67C294.115 119.098 295.665 119.927 297.278 119.766L317.73 117.743L296.911 120.809C295.045 121.084 293.218 120.101 292.421 118.391L283.524 99.3207Z" fill="black"/>
</g>
<g id="Group_35">
<g id="Group_36">
<path id="Vector_668" d="M208.992 72.5379C207.807 72.1153 206.607 71.7218 205.397 71.3547" stroke="#F15959" stroke-width="0.75" stroke-linecap="round" stroke-linejoin="round"/>
<path id="Vector_669" d="M198.022 69.474C193.601 68.5469 189.107 67.9477 184.644 67.6362C172.379 66.7822 153.154 65.5675 145.641 77.7877C138.795 88.9244 150.573 107.926 154.754 118.265C159.874 130.928 165.962 146.587 159.912 159.993C147.48 187.54 94.2624 173.236 76.3105 147.865" stroke="#F15959" stroke-width="0.75" stroke-linecap="round" stroke-linejoin="round" stroke-dasharray="6.03 6.03"/>
<path id="Vector_670" d="M74.2669 144.663C73.635 143.551 73.0724 142.421 72.583 141.275" stroke="#F15959" stroke-width="0.75" stroke-linecap="round" stroke-linejoin="round"/>
</g>
</g>
<g id="Group_37">
<path id="Vector_671" d="M216.969 64.115L210.03 73.8473L219.605 74.3624L216.969 64.115Z" fill="#F15959"/>
<path id="Vector_672" d="M264.715 89.7299L221.996 94.046C221.178 94.1284 220.362 93.875 219.735 93.3432C219.108 92.8113 218.725 92.0473 218.673 91.2267L215.956 48.1731C215.924 47.68 216.196 47.2174 216.641 47.0037C217.086 46.79 217.616 46.8673 217.982 47.2002L264.715 89.7299Z" fill="#FBCDCD"/>
<path id="Vector_673" d="M216.969 64.1189L264.714 89.73L217.386 71.0681L215.347 73.6855L216.969 64.1189Z" fill="#F15959"/>
<path id="Vector_674" d="M217.667 75.1866L210.031 73.8473L217.388 71.0679L217.667 75.1866Z" fill="#F15959"/>
</g>
</g>
</g>
<g id="Desk">
<g id="Group_38">
<g id="Group_39">
<path id="Vector_675" d="M227.463 244.82H179.582V254.639H227.463V244.82Z" fill="white"/>
<path id="Vector_676" opacity="0.1" d="M227.463 244.82H179.582V254.639H227.463V244.82Z" fill="black"/>
<path id="Vector_677" opacity="0.1" d="M199.748 244.82H179.582V254.639H199.748V244.82Z" fill="black"/>
<path id="Vector_678" opacity="0.1" d="M179.582 246.234H222.203L179.582 247.44V246.234Z" fill="black"/>
<path id="Vector_679" opacity="0.1" d="M227.463 247.94L190.516 248.854H227.463V247.94Z" fill="black"/>
<path id="Vector_680" opacity="0.1" d="M181.533 250.683L199.749 249.935L226.528 250.683L199.749 251.101L181.533 250.683Z" fill="black"/>
<path id="Vector_681" opacity="0.1" d="M179.582 252.763H211.14L179.582 253.513V252.763Z" fill="black"/>
<path id="Vector_682" opacity="0.1" d="M227.393 253.513L206.316 253.902H227.462L227.393 253.513Z" fill="black"/>
</g>
<g id="Group_40">
<path id="Vector_683" d="M220.797 235.001H172.918V244.82H220.797V235.001Z" fill="white"/>
<path id="Vector_684" opacity="0.1" d="M220.797 235.001H172.918V244.82H220.797V235.001Z" fill="black"/>
<path id="Vector_685" opacity="0.1" d="M193.082 235.001H172.918V244.82H193.082V235.001Z" fill="black"/>
<path id="Vector_686" opacity="0.1" d="M172.918 236.415H215.539L172.918 237.621V236.415Z" fill="black"/>
<path id="Vector_687" opacity="0.1" d="M220.799 238.119L183.852 239.035H220.799V238.119Z" fill="black"/>
<path id="Vector_688" opacity="0.1" d="M174.869 240.863L193.083 240.117L219.864 240.863L193.083 241.28L174.869 240.863Z" fill="black"/>
<path id="Vector_689" opacity="0.1" d="M172.918 242.943H204.478L172.918 243.691V242.943Z" fill="black"/>
<path id="Vector_690" opacity="0.1" d="M220.727 243.692L199.652 244.083H220.797L220.727 243.692Z" fill="black"/>
</g>
<g id="Group_41">
<path id="Vector_691" d="M226.265 225.181H178.386V235.001H226.265V225.181Z" fill="white"/>
<path id="Vector_692" opacity="0.1" d="M226.265 225.181H178.386V235.001H226.265V225.181Z" fill="black"/>
<path id="Vector_693" opacity="0.1" d="M198.55 225.181H178.386V235.001H198.55V225.181Z" fill="black"/>
<path id="Vector_694" opacity="0.1" d="M178.386 226.595H221.006L178.386 227.801V226.595Z" fill="black"/>
<path id="Vector_695" opacity="0.1" d="M226.266 228.299L189.319 229.215H226.266V228.299Z" fill="black"/>
<path id="Vector_696" opacity="0.1" d="M180.337 231.044L198.551 230.296L225.331 231.044L198.551 231.46L180.337 231.044Z" fill="black"/>
<path id="Vector_697" opacity="0.1" d="M178.386 233.124H209.945L178.386 233.872V233.124Z" fill="black"/>
<path id="Vector_698" opacity="0.1" d="M226.195 233.872L205.12 234.263H226.265L226.195 233.872Z" fill="black"/>
</g>
<g id="Group_42">
<path id="Vector_699" d="M258.16 254.433L259.405 249.73H310.556L334.11 252.082L335.007 254.433H258.16Z" fill="#263238"/>
<path id="Vector_700" opacity="0.4" d="M310.556 249.73V254.433H258.16L259.405 249.73H310.556Z" fill="black"/>
</g>
<g id="Group_43">
<path id="Vector_701" d="M300.283 227.208C300.51 229.693 298.693 231.711 296.221 231.711H217.864C215.379 231.711 213.185 229.691 212.958 227.208L208.303 177.043C208.253 176.526 208.291 176.034 208.404 175.58C208.846 173.814 210.397 172.54 212.365 172.54H290.721C293.206 172.54 295.401 174.558 295.628 177.043L300.283 227.208Z" fill="#263238"/>
<path id="Vector_702" opacity="0.4" d="M295.944 231.711H217.864C215.379 231.711 213.185 229.691 212.958 227.208L208.303 177.043C208.253 176.526 208.291 176.034 208.404 175.58H286.483C288.956 175.58 291.15 177.598 291.39 180.083L296.044 230.248C296.095 230.765 296.056 231.257 295.944 231.711Z" fill="black"/>
<path id="Vector_703" d="M242.109 200.943H258.319L253.999 247.353L279.631 251.203V254.433H225.645V251.203L236.704 247.353L242.109 200.943Z" fill="#263238"/>
<path id="Vector_704" opacity="0.1" d="M258.322 200.943L246.312 253.697L236.707 253.412L242.112 200.943H258.322Z" fill="white"/>
</g>
<g id="Group_44">
<g id="Group_45">
<path id="Vector_705" d="M258.246 456.769H250.519L236.635 263.467H246.887L258.246 456.769Z" fill="#263238"/>
<path id="Vector_706" opacity="0.4" d="M258.251 456.769H250.519L237.312 273.069L236.631 263.779H246.887L247.441 273.069L258.251 456.769Z" fill="white"/>
<path id="Vector_707" opacity="0.2" d="M247.441 272.609H237.312L236.631 263.779H246.887L247.441 272.609Z" fill="black"/>
</g>
<g id="Group_46">
<path id="Vector_708" d="M314.956 456.769H307.229L305.968 263.467H316.219L314.956 456.769Z" fill="#263238"/>
<path id="Vector_709" opacity="0.5" d="M316.226 263.779L316.023 294.966L314.965 456.769H307.231L306.173 294.966L305.97 263.779H316.226Z" fill="white"/>
<path id="Vector_710" opacity="0.2" d="M316.226 263.779L316.023 295.313H306.173L305.97 263.779H316.226Z" fill="black"/>
</g>
<g id="Group_47">
<path id="Vector_711" d="M396.999 456.769H389.272L375.388 263.467H385.64L396.999 456.769Z" fill="#263238"/>
<path id="Vector_712" opacity="0.5" d="M397.004 456.769H389.272L376.065 273.069L375.384 263.779H385.64L386.194 273.069L397.004 456.769Z" fill="white"/>
<path id="Vector_713" opacity="0.2" d="M386.194 272.609H376.065L375.384 263.779H385.64L386.194 272.609Z" fill="black"/>
</g>
<g id="Group_48">
<path id="Vector_714" d="M169.847 456.769H162.12L173.479 263.467H183.731L169.847 456.769Z" fill="#263238"/>
<path id="Vector_715" opacity="0.5" d="M183.729 263.779L183.05 273.069L169.842 456.769H162.122L172.919 273.069L173.474 263.779H183.729Z" fill="white"/>
<path id="Vector_716" opacity="0.2" d="M173.474 263.779H183.729L183.049 272.609H172.919L173.474 263.779Z" fill="black"/>
</g>
<g id="Group_49">
<path id="Vector_717" d="M391.039 268.309H168.082C166.576 268.309 165.354 267.088 165.354 265.581V258.626H393.766V265.581C393.766 267.088 392.545 268.309 391.039 268.309Z" fill="#F15959"/>
<path id="Vector_718" opacity="0.6" d="M391.039 268.309H168.082C166.576 268.309 165.354 267.088 165.354 265.581V258.626H393.766V265.581C393.766 267.088 392.545 268.309 391.039 268.309Z" fill="white"/>
</g>
<path id="Vector_719" opacity="0.2" d="M393.766 258.626H165.354V263.467H393.766V258.626Z" fill="black"/>
<g id="Group_50">
<path id="Vector_720" d="M398.552 259.889H160.561C159.055 259.889 157.834 258.667 157.834 257.162C157.834 255.656 159.055 254.433 160.561 254.433H398.552C400.059 254.433 401.28 255.656 401.28 257.162C401.28 258.668 400.06 259.889 398.552 259.889Z" fill="#F15959"/>
<path id="Vector_721" opacity="0.6" d="M398.552 259.889H160.561C159.055 259.889 157.834 258.667 157.834 257.162C157.834 255.656 159.055 254.433 160.561 254.433H398.552C400.059 254.433 401.28 255.656 401.28 257.162C401.28 258.668 400.06 259.889 398.552 259.889Z" fill="white"/>
</g>
</g>
<g id="Group_51">
<path id="Vector_722" d="M342.245 246.034L345.177 241.645C345.762 240.771 346.744 240.245 347.796 240.245H351.509C351.819 240.245 352.127 240.291 352.423 240.38L365.652 244.39C366.406 244.62 367.045 245.119 367.446 245.795L369.345 248.985L342.245 246.034Z" fill="#F15959"/>
<path id="Vector_723" opacity="0.2" d="M369.341 248.985L350.08 246.892L342.247 246.034L345.173 241.644C345.754 240.775 346.738 240.244 347.797 240.244H351.506C351.821 240.244 352.124 240.295 352.426 240.383L352.715 240.471L365.644 244.393C366.401 244.621 367.044 245.112 367.448 245.793L369.341 248.985Z" fill="black"/>
<path id="Vector_724" opacity="0.2" d="M369.343 248.985L350.082 246.892L352.718 240.471L365.647 244.393C366.404 244.621 367.048 245.112 367.451 245.793L369.343 248.985Z" fill="black"/>
<path id="Vector_725" d="M378.499 254.018V254.433H361.709H337.605L339.119 248.519C339.712 246.299 341.73 244.747 344.026 244.747H362.164C362.77 244.747 363.363 244.848 363.93 245.063L366.201 245.908L375.207 249.263C377.187 250.006 378.499 251.898 378.499 254.018Z" fill="#F15959"/>
<path id="Vector_726" opacity="0.2" d="M378.5 254.018V254.433H361.71L362.606 248.039C362.845 246.349 364.599 245.315 366.2 245.908L375.207 249.263C377.188 250.006 378.5 251.898 378.5 254.018Z" fill="black"/>
<path id="Vector_727" d="M364.325 250.087L369.666 234.058C369.897 233.366 370.69 233.043 371.338 233.377C371.833 233.633 372.084 234.197 371.943 234.736L367.445 251.848C367.443 251.848 364.449 253.058 364.325 250.087Z" fill="#263238"/>
<path id="Vector_728" opacity="0.2" d="M342.245 253.101H339.875L340.332 250.774H342.702L342.245 253.101Z" fill="black"/>
<path id="Vector_729" opacity="0.2" d="M345.778 253.012H343.408L343.866 250.683H346.236L345.778 253.012Z" fill="black"/>
</g>
</g>
</g>
</g>
</svg>
