<svg width="23" height="25" viewBox="0 0 23 25" fill="none" xmlns="http://www.w3.org/2000/svg">
<path d="M19.3535 12.4952H15.5955V10.6161C15.5955 10.0965 15.1756 9.67664 14.656 9.67664H9.01891C8.49924 9.67664 8.07939 10.0965 8.07939 10.6161V12.4952H4.32135C3.80168 12.4952 3.38184 12.915 3.38184 13.4347V24.2391C3.38184 24.4974 3.59323 24.7088 3.85159 24.7088H19.8233C20.0817 24.7088 20.293 24.4974 20.293 24.2391V13.4347C20.293 12.915 19.8732 12.4952 19.3535 12.4952ZM8.07939 22.4775C8.07939 22.6713 7.92085 22.8298 7.72708 22.8298H6.55269C6.35891 22.8298 6.20037 22.6713 6.20037 22.4775V21.3031C6.20037 21.1093 6.35891 20.9508 6.55269 20.9508H7.72708C7.92085 20.9508 8.07939 21.1093 8.07939 21.3031V22.4775ZM8.07939 18.7194C8.07939 18.9132 7.92085 19.0718 7.72708 19.0718H6.55269C6.35891 19.0718 6.20037 18.9132 6.20037 18.7194V17.545C6.20037 17.3513 6.35891 17.1927 6.55269 17.1927H7.72708C7.92085 17.1927 8.07939 17.3513 8.07939 17.545V18.7194ZM12.777 22.4775C12.777 22.6713 12.6184 22.8298 12.4246 22.8298H11.2502C11.0565 22.8298 10.8979 22.6713 10.8979 22.4775V21.3031C10.8979 21.1093 11.0565 20.9508 11.2502 20.9508H12.4246C12.6184 20.9508 12.777 21.1093 12.777 21.3031V22.4775ZM12.777 18.7194C12.777 18.9132 12.6184 19.0718 12.4246 19.0718H11.2502C11.0565 19.0718 10.8979 18.9132 10.8979 18.7194V17.545C10.8979 17.3513 11.0565 17.1927 11.2502 17.1927H12.4246C12.6184 17.1927 12.777 17.3513 12.777 17.545V18.7194ZM13.2467 13.7283C13.2467 13.8252 13.1674 13.9044 13.0705 13.9044H12.3072V14.6678C12.3072 14.7647 12.2279 14.8439 12.131 14.8439H11.5438C11.447 14.8439 11.3677 14.7647 11.3677 14.6678V13.9044H10.6043C10.5074 13.9044 10.4282 13.8252 10.4282 13.7283V13.1411C10.4282 13.0442 10.5074 12.9649 10.6043 12.9649H11.3677V12.2016C11.3677 12.1047 11.447 12.0254 11.5438 12.0254H12.131C12.2279 12.0254 12.3072 12.1047 12.3072 12.2016V12.9649H13.0705C13.1674 12.9649 13.2467 13.0442 13.2467 13.1411V13.7283ZM17.4745 22.4775C17.4745 22.6713 17.316 22.8298 17.1222 22.8298H15.9478C15.754 22.8298 15.5955 22.6713 15.5955 22.4775V21.3031C15.5955 21.1093 15.754 20.9508 15.9478 20.9508H17.1222C17.316 20.9508 17.4745 21.1093 17.4745 21.3031V22.4775ZM17.4745 18.7194C17.4745 18.9132 17.316 19.0718 17.1222 19.0718H15.9478C15.754 19.0718 15.5955 18.9132 15.5955 18.7194V17.545C15.5955 17.3513 15.754 17.1927 15.9478 17.1927H17.1222C17.316 17.1927 17.4745 17.3513 17.4745 17.545V18.7194Z" fill="#F15959"/>
<path d="M19.6176 5.61804L20.377 7.95511L22.8343 7.95511L20.8463 9.3995L21.6056 11.7366L19.6176 10.2922L17.6296 11.7366L18.3889 9.3995L16.4009 7.95511L18.8582 7.95511L19.6176 5.61804Z" fill="#FF928E"/>
<path d="M11.8373 0.206299L12.3688 1.84225H14.089L12.6974 2.85332L13.2289 4.48927L11.8373 3.4782L10.4457 4.48927L10.9772 2.85332L9.5856 1.84225H11.3057L11.8373 0.206299Z" fill="#FF928E"/>
<path d="M3.38224 4.94141L4.1416 7.27848L6.59895 7.27848L4.61091 8.72287L5.37027 11.0599L3.38224 9.61555L1.39421 11.0599L2.15357 8.72287L0.165539 7.27848L2.62288 7.27848L3.38224 4.94141Z" fill="#FF928E"/>
</svg>
