<svg width="20" height="15" viewBox="0 0 20 15" fill="none" xmlns="http://www.w3.org/2000/svg">
<path d="M15.1771 5.44889L15.914 5.76699L16.4442 5.16447L16.3694 5.96359L17.1063 6.28168L16.3231 6.45747L16.2483 7.25659L15.8391 6.56611L15.056 6.7419L15.5863 6.13937L15.1771 5.44889Z" fill="#FF928E"/>
<path d="M12.1616 6.13955L12.6976 6.37089L13.0832 5.93269L13.0288 6.51387L13.5647 6.74521L12.9951 6.87305L12.9407 7.45423L12.6431 6.95207L12.0736 7.07991L12.4592 6.64171L12.1616 6.13955Z" fill="#FF928E"/>
<path d="M11.5755 9.23674L12.2603 9.50899L12.7905 8.90646L12.6835 9.67725L13.3683 9.9495L12.6174 10.1536L12.5104 10.9244L12.1533 10.2798L11.4024 10.4839L11.9326 9.88137L11.5755 9.23674Z" fill="#FF928E"/>
<path d="M8.53516 8.53649L10.9454 6.12622L13.3557 8.53649H8.53516Z" fill="#F15959"/>
<path d="M0.0996094 9.03845L5.5227 3.61536L13.8582 11.9509H0.0996094V9.03845Z" fill="#FF928E"/>
<circle cx="8.93737" cy="3.91674" r="0.702994" fill="#F7BB4D"/>
<rect x="0.5" y="0.5" width="13.2607" height="11.0513" stroke="#F15959"/>
<path d="M18.3987 9.63154C18.3654 9.52391 18.3058 9.43034 18.2249 9.35901C18.1441 9.28767 18.0445 9.24072 17.9348 9.22225L14.8343 8.7002L14.6754 8.89314L16.3581 10.2989C16.4264 10.2535 16.5023 10.2201 16.5838 10.2062C16.8758 10.1562 17.1166 10.3574 17.1219 10.6557C17.1271 10.9539 16.8946 11.2362 16.6026 11.2861C16.3107 11.3361 16.0698 11.1348 16.0646 10.8366C16.0631 10.7534 16.0817 10.6721 16.1134 10.596L14.4308 9.19024L14.2719 9.38319L15.3542 12.3557C15.3925 12.4609 15.4567 12.5508 15.5413 12.6177C15.6258 12.6845 15.7282 12.7263 15.8393 12.7393L17.5151 12.9353L18.8997 11.2541L18.3987 9.63154ZM19.1813 13.5747L19.8315 12.7852C20.0343 12.539 20.0283 12.1969 19.8182 12.0213L19.1843 11.4917L17.7995 13.1731L18.4334 13.7027C18.6436 13.8783 18.9784 13.821 19.1813 13.5747V13.5747Z" fill="#FF928E"/>
</svg>
