<svg width="15" height="15" viewBox="0 0 15 15" fill="none" xmlns="http://www.w3.org/2000/svg">
<path d="M14.9299 2.06187C14.8747 1.98823 14.7827 1.95142 14.6906 1.95142H2.92707C2.74298 1.95142 2.5957 2.09869 2.5957 2.28278C2.5957 2.30119 2.5957 2.3196 2.5957 2.33801L3.90277 8.87332C3.93958 9.0206 4.06845 9.13105 4.21572 9.13105H4.25254L14.0463 7.82399C14.1936 7.80558 14.304 7.69513 14.3224 7.54785L14.9852 2.3196C15.022 2.22756 14.9852 2.13551 14.9299 2.06187Z" fill="#F15959"/>
<path d="M12.0759 14.3593C12.9808 14.3593 13.7144 13.6257 13.7144 12.7208C13.7144 11.8159 12.9808 11.0824 12.0759 11.0824C11.1711 11.0824 10.4375 11.8159 10.4375 12.7208C10.4375 13.6257 11.1711 14.3593 12.0759 14.3593Z" fill="#FF928E"/>
<path d="M5.54077 14.3593C6.44565 14.3593 7.1792 13.6257 7.1792 12.7208C7.1792 11.8159 6.44565 11.0824 5.54077 11.0824C4.63589 11.0824 3.90234 11.8159 3.90234 12.7208C3.90234 13.6257 4.63589 14.3593 5.54077 14.3593Z" fill="#FF928E"/>
<path d="M13.3836 10.4381H5.85416C4.76801 10.4381 3.82914 9.6649 3.60823 8.59715L2.00662 0.644326H0.331368C0.147275 0.644326 0 0.497052 0 0.312958C0 0.128865 0.147275 0 0.331368 0H2.28276C2.43003 0 2.57731 0.110456 2.59571 0.25773L4.23414 8.46829C4.38142 9.22307 5.06256 9.77535 5.83576 9.77535H13.3652C13.5493 9.77535 13.6965 9.92263 13.6965 10.1067C13.6965 10.2908 13.5677 10.4381 13.3836 10.4381Z" fill="#FF928E"/>
<path d="M10.3274 7.29005L5.54102 7.93438L7.45559 4.30774L10.3274 7.29005Z" fill="white"/>
<path d="M12.3901 7.03238L8.85547 7.49262L10.273 4.84167L12.3901 7.03238Z" fill="white"/>
<path d="M11.7076 3.29527C11.7628 3.68187 11.4867 4.03164 11.1185 4.06846C10.7319 4.12369 10.3821 3.84755 10.3453 3.47936C10.3085 3.11118 10.5662 2.74299 10.9344 2.70617C10.9344 2.70617 10.9344 2.70617 10.9528 2.70617C11.321 2.65094 11.6708 2.90867 11.7076 3.29527C11.7076 3.27686 11.7076 3.27686 11.7076 3.29527Z" fill="white"/>
</svg>
