<svg width="19" height="14" viewBox="0 0 19 14" fill="none" xmlns="http://www.w3.org/2000/svg">
<path d="M7.2969 1.07763C6.26832 1.64907 4.97851 2.36744 4.43973 2.66132C1.61521 4.19603 0.341725 4.93074 0.129478 5.12666C-0.197056 5.43686 0.0641714 5.71442 1.25602 6.33483C1.7948 6.59606 3.81931 7.7226 5.77852 8.81649C7.73772 9.91038 9.40305 10.8083 9.50101 10.8083C9.58264 10.8083 11.6072 9.73079 13.9745 8.42465C16.3419 7.10219 18.3174 6.02462 18.3991 6.02462C18.6113 6.02462 19.0848 5.38788 18.9868 5.24094C18.7746 4.89808 9.79489 -0.0162573 9.41937 6.96182e-05C9.28876 0.0163965 8.32549 0.489871 7.2969 1.07763Z" fill="#F15959"/>
<path d="M0.277344 7.95113C0.277344 7.46139 0.810642 7.15804 1.23159 7.40833L9.33867 12.2288L17.6089 7.39837C18.0318 7.15134 18.5633 7.4564 18.5633 7.94619C18.5633 8.1717 18.4435 8.38027 18.2488 8.49401L9.33867 13.6982L0.586101 8.49393C0.394665 8.3801 0.277344 8.17385 0.277344 7.95113Z" fill="#FF928E"/>
</svg>
