<svg width="21" height="21" viewBox="0 0 21 21" fill="none" xmlns="http://www.w3.org/2000/svg">
<g id="clipping path">
<path id="Vector" d="M13.8408 10.3676C13.7992 10.2329 13.7245 10.1158 13.6233 10.0264C13.5221 9.93714 13.3974 9.87837 13.2601 9.85525L9.37882 9.20173L9.17991 9.44327L11.2863 11.2031C11.3719 11.1462 11.4668 11.1044 11.5689 11.0869C11.9344 11.0244 12.2359 11.2763 12.2424 11.6497C12.2489 12.023 11.958 12.3763 11.5925 12.4389C11.227 12.5014 10.9254 12.2495 10.9189 11.8762C10.9171 11.7719 10.9403 11.6702 10.98 11.575L8.87362 9.81519L8.6747 10.0567L10.0297 13.7778C10.0776 13.9095 10.158 14.0221 10.2638 14.1058C10.3697 14.1894 10.4978 14.2417 10.6369 14.258L12.7347 14.5034L14.468 12.3988L13.8408 10.3676ZM14.8205 15.3039L15.6345 14.3155C15.8884 14.0072 15.8809 13.579 15.6178 13.3592L14.8242 12.6962L13.0907 14.8011L13.8843 15.4641C14.1474 15.6839 14.5665 15.6122 14.8205 15.3039V15.3039Z" fill="white"/>
<path id="Vector_2" d="M7.99942 13.7689L6.46289 15.7117L8.13039 17.0305L9.66692 15.0878L7.99942 13.7689Z" fill="white"/>
<path id="Vector_3" d="M14.4154 5.65637L12.8789 7.59912L14.5464 8.91795L16.0829 6.9752L14.4154 5.65637Z" fill="white"/>
<path id="Vector_4" d="M15.4352 7.51853L15.0601 7.94545C15.0276 7.91979 11.9559 5.20093 9.13441 5.68331C8.01916 5.87572 7.08167 6.55763 6.33085 7.69843C5.48232 9.00578 5.18714 10.2869 5.45035 11.516C6.00695 13.9942 8.68482 15.4619 8.7089 15.4809L8.42953 15.9697C8.31135 15.904 5.52657 14.3735 4.93211 11.6592C4.63433 10.2759 4.9512 8.85334 5.88667 7.41453C6.72765 6.12103 7.79977 5.35925 9.07609 5.1396C12.1474 4.61684 15.296 7.40842 15.4352 7.51853Z" fill="white"/>
<path id="Vector_5" d="M6.21239 5.35757L4.44727 7.58936L6.36284 9.1044L8.12797 6.87261L6.21239 5.35757Z" fill="white"/>
<path id="Vector_6" d="M10.2494 1.89595L1.88477 12.4719L2.26265 12.7708L10.6272 2.19482L10.2494 1.89595Z" fill="white"/>
<path id="Vector_7" d="M3.33217 10.9303C3.4816 11.0485 3.58686 11.2157 3.63464 11.4106C3.68243 11.6056 3.67059 11.8197 3.60063 12.0258C3.53066 12.2319 3.40572 12.4207 3.24158 12.5685C3.07744 12.7163 2.88147 12.8163 2.67845 12.856C2.47543 12.8957 2.27446 12.8732 2.10094 12.7914C1.92743 12.7096 1.78916 12.5722 1.7036 12.3965C1.61805 12.2208 1.58905 12.0147 1.62028 11.8043C1.6515 11.5939 1.74155 11.3886 1.87904 11.2143C1.97033 11.0983 2.0804 10.9989 2.20293 10.9218C2.32547 10.8448 2.45804 10.7915 2.59306 10.7651C2.72807 10.7387 2.86287 10.7397 2.98971 10.7681C3.11654 10.7964 3.23292 10.8516 3.33217 10.9303V10.9303Z" fill="white"/>
<path id="Vector_8" d="M3.33217 10.9303C3.4816 11.0485 3.58686 11.2157 3.63464 11.4106C3.68243 11.6056 3.67059 11.8197 3.60063 12.0258C3.53066 12.2319 3.40572 12.4207 3.24158 12.5685C3.07744 12.7163 2.88147 12.8163 2.67845 12.856C2.47543 12.8957 2.27446 12.8732 2.10094 12.7914C1.92743 12.7096 1.78916 12.5722 1.7036 12.3965C1.61805 12.2208 1.58905 12.0147 1.62028 11.8043C1.6515 11.5939 1.74155 11.3886 1.87904 11.2143C1.97033 11.0983 2.0804 10.9989 2.20293 10.9218C2.32547 10.8448 2.45804 10.7915 2.59306 10.7651C2.72807 10.7387 2.86287 10.7397 2.98971 10.7681C3.11654 10.7964 3.23292 10.8516 3.33217 10.9303V10.9303Z" stroke="#FFF0F0" stroke-width="2" stroke-miterlimit="10"/>
<path id="Vector_9" d="M10.5978 1.74344C10.7473 1.86166 10.8525 2.02887 10.9003 2.22392C10.9481 2.41897 10.9362 2.6331 10.8661 2.83923C10.7961 3.04537 10.671 3.23425 10.5068 3.38199C10.3425 3.52973 10.1465 3.62969 9.94336 3.66924C9.74027 3.70879 9.53928 3.68614 9.36581 3.60417C9.19233 3.52219 9.05416 3.38457 8.96878 3.2087C8.88339 3.03284 8.85461 2.82663 8.88609 2.61615C8.91757 2.40567 9.00789 2.20037 9.14563 2.02622C9.33032 1.79269 9.58708 1.6317 9.85942 1.57867C10.1318 1.52564 10.3974 1.58491 10.5978 1.74344Z" fill="white"/>
<path id="Vector_10" d="M10.4826 1.88992C10.632 2.00814 10.7373 2.17535 10.7851 2.3704C10.8328 2.56545 10.8209 2.77958 10.7509 2.98572C10.6808 3.19185 10.5558 3.38073 10.3915 3.52847C10.2273 3.67621 10.0312 3.77618 9.82813 3.81573C9.62504 3.85527 9.42405 3.83263 9.25057 3.75065C9.0771 3.66868 8.93893 3.53106 8.85354 3.35519C8.76815 3.17932 8.73938 2.97311 8.77086 2.76263C8.80234 2.55215 8.89265 2.34685 9.03039 2.1727C9.21509 1.93918 9.47185 1.77819 9.74418 1.72516C10.0165 1.67212 10.2821 1.73139 10.4826 1.88992V1.88992Z" stroke="#FFF0F0" stroke-width="2" stroke-miterlimit="10"/>
</g>
</svg>
