<svg width="23" height="25" viewBox="0 0 23 25" fill="none" xmlns="http://www.w3.org/2000/svg">
<path d="M19.3535 12.2889H15.5955V10.4098C15.5955 9.89018 15.1756 9.47034 14.656 9.47034H9.01891C8.49924 9.47034 8.07939 9.89018 8.07939 10.4098V12.2889H4.32135C3.80168 12.2889 3.38184 12.7087 3.38184 13.2284V24.0328C3.38184 24.2911 3.59323 24.5025 3.85159 24.5025H19.8233C20.0817 24.5025 20.293 24.2911 20.293 24.0328V13.2284C20.293 12.7087 19.8732 12.2889 19.3535 12.2889ZM8.07939 22.2712C8.07939 22.465 7.92085 22.6235 7.72708 22.6235H6.55269C6.35891 22.6235 6.20037 22.465 6.20037 22.2712V21.0968C6.20037 20.903 6.35891 20.7445 6.55269 20.7445H7.72708C7.92085 20.7445 8.07939 20.903 8.07939 21.0968V22.2712ZM8.07939 18.5131C8.07939 18.7069 7.92085 18.8655 7.72708 18.8655H6.55269C6.35891 18.8655 6.20037 18.7069 6.20037 18.5131V17.3387C6.20037 17.145 6.35891 16.9864 6.55269 16.9864H7.72708C7.92085 16.9864 8.07939 17.145 8.07939 17.3387V18.5131ZM12.777 22.2712C12.777 22.465 12.6184 22.6235 12.4246 22.6235H11.2502C11.0565 22.6235 10.8979 22.465 10.8979 22.2712V21.0968C10.8979 20.903 11.0565 20.7445 11.2502 20.7445H12.4246C12.6184 20.7445 12.777 20.903 12.777 21.0968V22.2712ZM12.777 18.5131C12.777 18.7069 12.6184 18.8655 12.4246 18.8655H11.2502C11.0565 18.8655 10.8979 18.7069 10.8979 18.5131V17.3387C10.8979 17.145 11.0565 16.9864 11.2502 16.9864H12.4246C12.6184 16.9864 12.777 17.145 12.777 17.3387V18.5131ZM13.2467 13.522C13.2467 13.6189 13.1674 13.6981 13.0705 13.6981H12.3072V14.4615C12.3072 14.5584 12.2279 14.6377 12.131 14.6377H11.5438C11.447 14.6377 11.3677 14.5584 11.3677 14.4615V13.6981H10.6043C10.5074 13.6981 10.4282 13.6189 10.4282 13.522V12.9348C10.4282 12.8379 10.5074 12.7586 10.6043 12.7586H11.3677V11.9953C11.3677 11.8984 11.447 11.8191 11.5438 11.8191H12.131C12.2279 11.8191 12.3072 11.8984 12.3072 11.9953V12.7586H13.0705C13.1674 12.7586 13.2467 12.8379 13.2467 12.9348V13.522ZM17.4745 22.2712C17.4745 22.465 17.316 22.6235 17.1222 22.6235H15.9478C15.754 22.6235 15.5955 22.465 15.5955 22.2712V21.0968C15.5955 20.903 15.754 20.7445 15.9478 20.7445H17.1222C17.316 20.7445 17.4745 20.903 17.4745 21.0968V22.2712ZM17.4745 18.5131C17.4745 18.7069 17.316 18.8655 17.1222 18.8655H15.9478C15.754 18.8655 15.5955 18.7069 15.5955 18.5131V17.3387C15.5955 17.145 15.754 16.9864 15.9478 16.9864H17.1222C17.316 16.9864 17.4745 17.145 17.4745 17.3387V18.5131Z" fill="white"/>
<path d="M19.6176 5.41174L20.377 7.74881L22.8343 7.74882L20.8463 9.1932L21.6056 11.5303L19.6176 10.0859L17.6296 11.5303L18.3889 9.1932L16.4009 7.74882L18.8582 7.74881L19.6176 5.41174Z" fill="#FEF0F0"/>
<path d="M11.8373 0L12.3688 1.63595H14.089L12.6974 2.64702L13.2289 4.28297L11.8373 3.2719L10.4457 4.28297L10.9772 2.64702L9.5856 1.63595H11.3057L11.8373 0Z" fill="#FEF0F0"/>
<path d="M3.38224 4.73511L4.1416 7.07218L6.59895 7.07218L4.61091 8.51657L5.37027 10.8536L3.38224 9.40925L1.39421 10.8536L2.15357 8.51657L0.165539 7.07218L2.62288 7.07218L3.38224 4.73511Z" fill="#FEF0F0"/>
</svg>
