<svg width="16" height="16" viewBox="0 0 16 16" fill="none" xmlns="http://www.w3.org/2000/svg">
<path d="M14.2581 9.37174C14.4947 9.13146 14.6273 8.80779 14.6273 8.47059C14.6273 8.1334 14.4947 7.80972 14.2581 7.56944L11.5503 4.86159C11.31 4.62503 10.9863 4.49243 10.6491 4.49243C10.312 4.49243 9.98828 4.62503 9.748 4.86159L6.67969 7.9299L11.1898 12.4401L14.2581 9.37174Z" fill="white"/>
<path d="M9.07085 14.5587L10.6358 12.985L6.13441 8.47485L3.0749 11.5344C2.95587 11.6523 2.86138 11.7927 2.7969 11.9474C2.73242 12.102 2.69922 12.2679 2.69922 12.4355C2.69922 12.6031 2.73242 12.769 2.7969 12.9237C2.86138 13.0784 2.95587 13.2187 3.0749 13.3367L5.07062 15.3324H9.07085V14.5587Z" fill="#FFF1F1"/>
<path d="M7.92792 5.03736C7.89285 4.96654 7.88352 4.88573 7.90154 4.80878C7.92179 4.73633 7.95633 4.66867 8.00314 4.60978C8.04995 4.55089 8.10807 4.50197 8.17409 4.4659C8.41146 4.32524 8.6928 4.34282 8.78951 4.50986C8.82402 4.5777 8.83336 4.65558 8.81588 4.72965C8.79564 4.8021 8.76109 4.86977 8.71428 4.92865C8.66748 4.98754 8.60935 5.03646 8.54334 5.07253C8.31475 5.22199 8.02463 5.20441 7.92792 5.03736Z" fill="#F15959"/>
<path d="M7.96046 7.25297C7.9406 7.17803 7.94322 7.09729 7.96791 7.02438C8.04234 6.85734 8.28796 6.82217 8.48893 6.94526C8.60354 7.01605 8.69127 7.13538 8.73455 7.27934C8.74501 7.31671 8.74908 7.35616 8.74652 7.3954C8.74397 7.43464 8.73484 7.47289 8.71967 7.50793C8.64524 7.68376 8.39961 7.71893 8.19864 7.58705C8.08761 7.51345 8.00297 7.39474 7.96046 7.25297V7.25297Z" fill="#F15959"/>
<path d="M5.2445 5.24724L8.72242 5.25496C8.82043 5.25518 8.90002 5.17595 8.90013 5.07804C8.90167 4.3926 8.34714 3.83557 7.66169 3.83403L5.24768 3.8287L5.24885 3.30918C5.40814 3.24047 5.55737 3.14133 5.68775 3.01154C6.24299 2.45878 6.24501 1.5606 5.69225 1.00535C5.13949 0.450104 4.2413 0.448083 3.68606 1.00084C3.13082 1.55359 3.1288 2.45178 3.68156 3.00703C3.72889 3.05457 3.77864 3.09784 3.83058 3.13724L3.82904 3.82541L3.14087 3.82386C3.1017 3.77173 3.05856 3.72169 3.01133 3.67425C2.45857 3.119 1.56039 3.11698 1.00514 3.66974C0.449898 4.22249 0.447882 5.12068 1.00064 5.67593C1.5534 6.23117 2.45158 6.23319 3.00683 5.68044C3.13721 5.55064 3.23702 5.40186 3.30644 5.24288L3.82596 5.24405L3.82044 7.65806C3.8189 8.34351 4.37343 8.90053 5.05888 8.90208C5.15678 8.9024 5.23637 8.82317 5.23659 8.72516L5.2445 5.24724ZM4.35179 2.3398C4.16788 2.15507 4.16856 1.85497 4.35329 1.67107C4.53802 1.48717 4.83811 1.48784 5.02202 1.67258C5.20592 1.85731 5.20525 2.1574 5.02052 2.3413C4.83579 2.52521 4.53569 2.52453 4.35179 2.3398ZM1.67087 5.0087C1.48696 4.82397 1.48764 4.52387 1.67237 4.33997C1.8571 4.15607 2.15719 4.15674 2.3411 4.34148C2.525 4.52621 2.52433 4.8263 2.3396 5.0102C2.15487 5.19411 1.85477 5.19343 1.67087 5.0087Z" fill="#FFF1F1"/>
</svg>
