<svg width="12" height="14" viewBox="0 0 12 14" fill="none" xmlns="http://www.w3.org/2000/svg">
<path d="M11.245 1.34352C11.2449 1.07784 11.1661 0.81815 11.0185 0.597257C10.8708 0.376364 10.6611 0.204175 10.4156 0.102442C10.1702 0.000708739 9.90012 -0.0260057 9.63952 0.0256732C9.37891 0.0773521 9.13947 0.205106 8.95143 0.392797L7.24013 2.09221L6.33695 1.18903C6.13009 0.983361 5.85024 0.867919 5.55854 0.867919C5.26684 0.867919 4.987 0.983361 4.78014 1.18903V1.18903L3.02131 2.93598C2.95841 3.00386 2.92347 3.093 2.92347 3.18554C2.92347 3.27809 2.95841 3.36722 3.02131 3.43511L0.0978366 6.35857C0.0349424 6.42646 0 6.51559 0 6.60814C0 6.70068 0.0349424 6.78981 0.0978366 6.8577L1.7616 8.52146V9.12755C1.7616 9.59103 1.84479 9.92378 2.02305 10.1852C2.11374 10.3181 2.23161 10.4303 2.36887 10.5143C2.50612 10.5983 2.65964 10.6522 2.81928 10.6725C2.78093 10.9373 2.72536 11.1993 2.6529 11.4568C2.48652 12.1461 2.30826 12.8472 2.74797 13.4296C3.03319 13.7861 3.4729 13.9762 4.0671 13.9762C4.26431 13.9857 4.46109 13.95 4.64235 13.8717C4.82362 13.7934 4.98457 13.6747 5.11289 13.5246C5.50506 13.0255 5.37434 12.4075 5.26738 11.9084C5.25676 11.882 5.25268 11.8535 5.2555 11.8252C5.33403 11.839 5.41347 11.847 5.49318 11.849C5.74079 11.847 5.98166 11.7681 6.18245 11.6232C6.33463 11.5227 6.46047 11.3871 6.54939 11.2279C6.63831 11.0687 6.68772 10.8904 6.69347 10.7081C6.70322 10.4925 6.68322 10.2766 6.63405 10.0664C6.58486 9.85219 6.56487 9.63232 6.57463 9.41277L7.7868 8.2006C7.85435 8.26083 7.94228 8.29312 8.03277 8.29092C8.12325 8.28871 8.2095 8.25217 8.27404 8.18871L10.0329 6.44176C10.2385 6.2349 10.354 5.95506 10.354 5.66336C10.354 5.37166 10.2385 5.09181 10.0329 4.88496L9.12969 3.98177L10.8291 2.28236C10.9596 2.16315 11.064 2.01817 11.1356 1.85657C11.2071 1.69497 11.2444 1.52027 11.245 1.34352V1.34352Z" fill="white"/>
<path d="M5.73027 8.87799C5.67998 8.93023 5.64682 8.99656 5.6352 9.06814C5.57565 9.4632 5.58772 9.86576 5.67085 10.2565C5.74216 10.6368 5.73027 10.7438 5.6352 10.8032C5.59701 10.8311 5.55168 10.8476 5.50448 10.8507C5.38564 10.8507 5.27868 10.6487 5.25491 10.5774C5.23782 10.5352 5.21256 10.4968 5.18059 10.4644C5.14861 10.432 5.11056 10.4062 5.0686 10.3886C5.02665 10.3709 4.98161 10.3617 4.93609 10.3615C4.89057 10.3612 4.84545 10.37 4.80332 10.3873C4.00709 10.6962 4.18535 11.5162 4.31608 12.1104C4.38738 12.4194 4.45868 12.7641 4.36361 12.8948C4.28514 12.9538 4.18834 12.9833 4.09028 12.978C3.81695 12.978 3.63869 12.9186 3.5555 12.8235C3.40101 12.6215 3.50796 12.1818 3.63869 11.7064C3.76941 11.231 3.88825 10.72 3.84072 10.209C3.80506 9.8406 3.63869 9.65046 3.34159 9.65046C3.28217 9.65046 3.21086 9.66234 3.15144 9.66234C3.10063 9.67267 3.04874 9.67666 2.99695 9.67422C2.97177 9.67771 2.94612 9.67397 2.92298 9.66345C2.89984 9.65294 2.88016 9.63606 2.86623 9.6148C2.83057 9.55538 2.78304 9.42466 2.78304 9.11567V8.23626C2.78488 8.14389 2.75079 8.05442 2.68797 7.98669L1.25 6.60815L3.53173 4.32642L4.47057 5.26525L3.34159 6.5725C3.33013 6.58568 3.32383 6.60256 3.32383 6.62003C3.32383 6.6375 3.33013 6.65438 3.34159 6.66757C3.34712 6.67495 3.3543 6.68094 3.36255 6.68506C3.3708 6.68919 3.3799 6.69134 3.38912 6.69134C3.39835 6.69134 3.40745 6.68919 3.4157 6.68506C3.42395 6.68094 3.43112 6.67495 3.43666 6.66757L4.7439 5.53859L5.9323 6.72699L5.17173 7.60641C5.16559 7.61313 5.16098 7.62111 5.15822 7.62979C5.15546 7.63847 5.15462 7.64764 5.15575 7.65668C5.15687 7.66572 5.15995 7.6744 5.16476 7.68214C5.16957 7.68987 5.176 7.69647 5.18361 7.70148C5.19549 7.71336 5.21926 7.72524 5.23115 7.71336C5.24303 7.70148 5.2668 7.70148 5.27868 7.70148L6.1581 6.9409L6.91868 7.70148L5.73027 8.87799Z" fill="#F15959"/>
</svg>
