<svg width="13" height="15" viewBox="0 0 13 15" fill="none" xmlns="http://www.w3.org/2000/svg">
<path d="M2.51544 5.83147C2.63424 6.14116 2.78563 6.43734 2.96704 6.71503C3.36264 7.40794 3.67253 8.14639 3.88987 8.91411C3.97999 9.23091 4.00032 9.56349 3.94948 9.8889C3.89863 10.2143 3.77781 10.5248 3.59535 10.799C3.19894 11.3757 2.83196 11.9721 2.49581 12.5858C2.246 13.0991 2.03594 13.6308 1.8675 14.1762H2.79033C2.86887 13.9013 2.94741 13.6264 3.04558 13.3712C3.41864 12.5465 4.10585 12.0557 4.93051 11.7415C5.8735 11.3704 6.90558 11.2884 7.89534 11.5059C8.55597 11.6584 9.14067 12.0413 9.54466 12.5858C9.93199 13.0797 10.2553 13.6207 10.5068 14.1958H11.7045C11.4679 13.3683 11.0964 12.5855 10.6049 11.879C10.3104 11.447 10.0159 11.015 9.76064 10.5831C9.63944 10.3925 9.56242 10.1772 9.53524 9.95292C9.50806 9.72869 9.53141 9.50121 9.60356 9.28717C9.89267 8.41391 10.2403 7.56114 10.6442 6.73467C10.6738 6.67062 10.7 6.60508 10.7227 6.53832C10.5853 6.55795 10.5264 6.6954 10.4086 6.7543C9.95216 7.01109 9.45341 7.18399 8.93598 7.2648C8.39146 7.36008 7.83945 7.40608 7.28667 7.40224C6.69763 7.42188 6.08895 7.44151 5.49991 7.42188C4.88906 7.41942 4.2837 7.30634 3.71316 7.08809C3.51124 7.01303 3.33622 6.8796 3.21035 6.70478C3.08448 6.52996 3.01345 6.32165 3.00631 6.10636V5.92964C3.01908 5.84583 3.04894 5.76554 3.09404 5.69375C3.13915 5.62197 3.19852 5.56022 3.26849 5.51235C3.33846 5.46447 3.41753 5.4315 3.50078 5.41546C3.58402 5.39943 3.66968 5.40068 3.75243 5.41914C4.08622 5.47805 4.42001 5.57622 4.73416 5.65476C5.57845 5.87074 6.40311 5.81184 7.2474 5.67439C7.95425 5.55658 8.64146 5.39951 9.36794 5.32097C9.61626 5.30132 9.86574 5.30132 10.1141 5.32097C10.3282 5.349 10.5232 5.45855 10.6585 5.6268C10.7939 5.79505 10.8591 6.00903 10.8405 6.22416C11.2136 5.7333 11.2921 5.18353 11.2136 4.55522C11.0958 3.59312 10.978 2.61138 10.9387 1.62965L10.1533 1.41367C10.1434 1.407 10.132 1.4027 10.1201 1.4011C10.1083 1.39949 10.0962 1.40063 10.0848 1.40442C10.0734 1.40821 10.0631 1.41455 10.0545 1.42296C10.046 1.43137 10.0395 1.44163 10.0355 1.45294C10.1582 1.86756 10.2243 2.29687 10.2319 2.72919C10.2184 2.96631 10.1513 3.19728 10.0357 3.40474C9.92004 3.61219 9.75887 3.79073 9.56429 3.92691C8.80323 4.51864 7.89194 4.88588 6.93324 4.98718C6.81544 5.00681 6.69763 5.00681 6.56018 5.02645C5.41561 5.04533 4.30912 4.61542 3.47754 3.82873C3.33569 3.69791 3.22105 3.54039 3.14019 3.36519C3.05933 3.18998 3.01383 3.00055 3.00631 2.80773C2.9602 2.3629 2.97341 1.91392 3.04558 1.47257C2.61362 1.45294 2.22092 1.61001 1.80859 1.70819C2.10559 2.49246 2.25857 3.3239 2.26019 4.16252C2.24271 4.72975 2.32922 5.29539 2.51544 5.83147V5.83147ZM10.173 4.3196C10.1337 4.29997 10.1337 4.28033 10.1337 4.2607C10.1926 4.18216 10.2122 4.10362 10.3104 4.10362C10.3497 4.10362 10.3497 4.12325 10.3497 4.16252C10.3104 4.22143 10.2711 4.29997 10.173 4.3196ZM10.4086 2.74883C10.33 2.74883 10.33 2.65065 10.33 2.61138C10.3246 2.60121 10.3219 2.58981 10.3222 2.57828C10.3225 2.56676 10.3258 2.55551 10.3317 2.54562C10.3376 2.53574 10.346 2.52755 10.3561 2.52188C10.3661 2.5162 10.3774 2.51321 10.3889 2.51321C10.4675 2.53284 10.4675 2.61138 10.4675 2.65065C10.4675 2.68992 10.4478 2.74883 10.4086 2.74883V2.74883ZM10.4871 3.00408C10.4871 3.04335 10.4871 3.10225 10.4282 3.10225C10.33 3.10225 10.3693 3.02371 10.3497 2.96481V2.94517C10.3497 2.9059 10.3693 2.86663 10.4086 2.86663C10.5068 2.9059 10.4871 2.96481 10.4871 3.00408V3.00408ZM10.33 3.37714C10.3497 3.31823 10.33 3.25933 10.4086 3.23969H10.4282C10.4478 3.23969 10.4675 3.27896 10.4675 3.2986C10.4479 3.3575 10.4675 3.43604 10.3889 3.45567C10.3104 3.47531 10.3104 3.43604 10.33 3.37714V3.37714ZM10.5657 3.82873C10.5264 3.88764 10.5264 3.96618 10.4282 3.98581C10.3889 3.96618 10.3693 3.94654 10.3889 3.90727C10.4086 3.868 10.4282 3.75019 10.5264 3.75019C10.5853 3.75019 10.5853 3.78946 10.5657 3.82873V3.82873ZM10.6049 3.61275C10.5657 3.61275 10.546 3.57348 10.546 3.53421C10.546 3.49494 10.546 3.39677 10.6246 3.37714C10.7031 3.3575 10.7031 3.39677 10.7031 3.43604C10.7031 3.51458 10.7031 3.59312 10.6049 3.61275V3.61275ZM10.7424 3.14152C10.7424 3.20042 10.7424 3.25933 10.6638 3.23969C10.5853 3.22006 10.6049 3.14152 10.6049 3.10225C10.6049 3.06298 10.6049 2.98444 10.6638 3.00408C10.7227 3.02371 10.7227 3.10225 10.7424 3.14152V3.14152ZM10.6835 2.78809C10.6889 2.79827 10.6916 2.80967 10.6913 2.82119C10.691 2.83272 10.6877 2.84397 10.6818 2.85386C10.6759 2.86374 10.6675 2.87192 10.6575 2.8776C10.6474 2.88328 10.6361 2.88627 10.6246 2.88627C10.546 2.88627 10.546 2.7881 10.5264 2.74883C10.5068 2.70956 10.5068 2.65065 10.5657 2.65065C10.6835 2.65065 10.6638 2.74883 10.6835 2.78809V2.78809ZM10.6049 2.41504C10.6049 2.45431 10.6049 2.51321 10.546 2.49357C10.4871 2.47394 10.4871 2.3954 10.4675 2.3365V2.31686C10.4665 2.3089 10.4674 2.30082 10.47 2.29325C10.4727 2.28567 10.477 2.27879 10.4826 2.27312C10.4883 2.26744 10.4952 2.26313 10.5028 2.26051C10.5104 2.25788 10.5184 2.25701 10.5264 2.25796C10.6049 2.27759 10.5853 2.35613 10.6049 2.41504V2.41504ZM10.4675 1.8849C10.546 1.92417 10.5264 2.00271 10.5264 2.04198C10.5264 2.08125 10.5264 2.14015 10.4675 2.12052C10.4086 2.10088 10.4086 2.02234 10.4086 1.96344C10.4086 1.90454 10.4086 1.8849 10.4675 1.8849V1.8849ZM10.2711 2.14015C10.2972 2.14536 10.3201 2.1607 10.3348 2.18279C10.3495 2.20489 10.3549 2.23192 10.3497 2.25796C10.3497 2.29723 10.3889 2.35613 10.3104 2.37577C10.2319 2.3954 10.2319 2.31686 10.2319 2.25796C10.2319 2.19906 10.2122 2.15979 10.2711 2.14015V2.14015ZM10.3104 3.59312C10.33 3.59312 10.3497 3.61275 10.3497 3.65202C10.3104 3.71093 10.3104 3.78946 10.2122 3.8091C10.1926 3.8091 10.1533 3.78946 10.1533 3.76983C10.1926 3.71092 10.2122 3.61275 10.3104 3.59312V3.59312ZM9.93735 4.10362C9.94665 4.06557 9.96621 4.0308 9.99391 4.0031C10.0216 3.97541 10.0564 3.95584 10.0944 3.94654C10.1337 3.94654 10.1337 3.96618 10.1337 4.00545C10.0944 4.06435 10.0552 4.14289 9.97662 4.16252C9.93735 4.16252 9.91771 4.14289 9.93735 4.10362V4.10362ZM10.0355 4.41777C10.0096 4.47074 9.97089 4.51642 9.9229 4.5507C9.87491 4.58497 9.81915 4.60677 9.76064 4.61412C9.83918 4.45704 9.87844 4.43741 10.0355 4.41777V4.41777ZM9.60356 4.41777C9.62525 4.37689 9.65597 4.3415 9.6934 4.31428C9.73083 4.28706 9.77397 4.26873 9.81954 4.2607L9.83917 4.29997C9.7829 4.37981 9.6989 4.43581 9.60356 4.45704C9.58392 4.41777 9.60356 4.41777 9.60356 4.41777V4.41777ZM9.62319 4.71229C9.58317 4.76214 9.5323 4.8022 9.47446 4.82942C9.41662 4.85664 9.35333 4.87031 9.2894 4.86937C9.33077 4.82107 9.38191 4.7821 9.43945 4.75502C9.49699 4.72795 9.55961 4.71338 9.62319 4.71229V4.71229ZM9.44648 4.53558C9.41867 4.58376 9.37857 4.62368 9.33027 4.65128C9.28198 4.67888 9.22722 4.69316 9.1716 4.69266C9.19752 4.64286 9.23721 4.60158 9.28596 4.57372C9.3347 4.54587 9.39042 4.53263 9.44648 4.53558V4.53558ZM9.21087 4.92827C9.16735 4.97792 9.11251 5.01634 9.05098 5.04027C8.98945 5.0642 8.92306 5.07293 8.85744 5.06572C8.90095 5.01607 8.9558 4.97765 9.01733 4.95372C9.07885 4.9298 9.14524 4.92107 9.21087 4.92827V4.92827ZM9.03415 4.7712C9.0236 4.78926 9.01692 4.80932 9.01452 4.8301C8.93598 4.86937 8.85744 4.94791 8.75927 4.90864C8.73963 4.90864 8.73963 4.86937 8.73963 4.86937C8.82576 4.80788 8.92836 4.77368 9.03415 4.7712V4.7712ZM8.72 5.16389C8.66885 5.20747 8.60948 5.24034 8.5454 5.26058C8.48132 5.28081 8.41384 5.288 8.34694 5.2817C8.38994 5.22667 8.4486 5.18595 8.51519 5.16492C8.58179 5.14389 8.65319 5.14353 8.72 5.16389V5.16389ZM8.56292 4.98718C8.52219 5.03396 8.47003 5.06939 8.41154 5.09004C8.35305 5.11068 8.29021 5.11583 8.22913 5.10499C8.26884 5.05691 8.32089 5.02055 8.37969 4.99979C8.43849 4.97904 8.50183 4.97468 8.56292 4.98718V4.98718ZM7.8168 5.43878C7.86414 5.38997 7.92391 5.35503 7.98966 5.33773C8.05541 5.32043 8.12464 5.32142 8.18986 5.3406C8.08184 5.41815 7.949 5.4531 7.8168 5.43878ZM8.11132 5.16389C8.0109 5.24324 7.88585 5.28492 7.7579 5.2817C7.83644 5.16389 7.87571 5.16389 8.11132 5.16389V5.16389ZM7.22776 5.53695C7.27732 5.4989 7.33548 5.47362 7.39712 5.46335C7.45875 5.45308 7.52197 5.45812 7.58119 5.47805C7.53163 5.5161 7.47347 5.54137 7.41183 5.55165C7.3502 5.56192 7.28699 5.55687 7.22776 5.53695V5.53695ZM7.56155 5.2817C7.51327 5.32219 7.45595 5.35046 7.39443 5.36413C7.33292 5.3778 7.26902 5.37646 7.20813 5.36024C7.25803 5.3227 7.31539 5.29627 7.37634 5.28273C7.4373 5.26918 7.50045 5.26883 7.56155 5.2817V5.2817ZM7.05105 5.55658C6.99042 5.59507 6.92231 5.62022 6.85122 5.63037C6.78013 5.64053 6.7077 5.63546 6.63872 5.61549C6.6996 5.57758 6.76769 5.55276 6.83869 5.54262C6.90968 5.53248 6.982 5.53723 7.05105 5.55658V5.55658ZM6.04968 5.59585C6.10084 5.56517 6.16006 5.55062 6.21961 5.55413C6.27916 5.55763 6.33627 5.57902 6.38347 5.61549C6.32982 5.63698 6.27208 5.64637 6.21438 5.64297C6.15669 5.63958 6.10045 5.62349 6.04968 5.59585V5.59585ZM6.46201 5.39951C6.40193 5.44266 6.32982 5.46587 6.25585 5.46587C6.18187 5.46587 6.10977 5.44266 6.04968 5.39951V5.39951C6.18642 5.37985 6.32527 5.37985 6.46201 5.39951V5.39951ZM3.43827 4.73193C3.49793 4.72039 3.55974 4.72969 3.61336 4.75829C3.66698 4.78688 3.70914 4.83303 3.73279 4.88901C3.57571 4.90864 3.51681 4.81047 3.43827 4.73193ZM5.85334 5.39951C5.79899 5.42209 5.73976 5.43034 5.68131 5.42347C5.62287 5.41659 5.56716 5.39482 5.51955 5.36024C5.57262 5.33223 5.63295 5.321 5.69254 5.32801C5.75214 5.33502 5.80821 5.35995 5.85334 5.39951V5.39951ZM5.79443 5.57622C5.73441 5.60361 5.66815 5.61441 5.60254 5.6075C5.53693 5.6006 5.47437 5.57623 5.42137 5.53695C5.48217 5.51321 5.54777 5.50439 5.61268 5.51122C5.67759 5.51805 5.73991 5.54034 5.79443 5.57622V5.57622ZM5.34283 5.30133C5.28343 5.31421 5.22174 5.31196 5.16342 5.29481C5.1051 5.27766 5.05202 5.24615 5.00905 5.20316C5.06849 5.19278 5.12952 5.19624 5.18741 5.21326C5.24529 5.23029 5.29848 5.26043 5.34283 5.30133V5.30133ZM5.22503 5.45841C5.16742 5.4761 5.10615 5.47815 5.04749 5.46435C4.98884 5.45055 4.93491 5.42139 4.89124 5.37987C4.94919 5.36687 5.00934 5.36718 5.06716 5.38078C5.12497 5.39439 5.17895 5.42093 5.22503 5.45841V5.45841ZM4.85197 5.16389C4.71051 5.15711 4.57408 5.10936 4.45927 5.02645C4.53085 5.00488 4.60743 5.00657 4.67799 5.03126C4.74855 5.05596 4.80946 5.10239 4.85197 5.16389V5.16389ZM4.69489 5.32097C4.56948 5.32812 4.44522 5.29361 4.34147 5.22279C4.49854 5.16389 4.55745 5.18353 4.69489 5.32097ZM4.40037 4.92827C4.33157 4.94489 4.25938 4.94069 4.19296 4.91622C4.12655 4.89175 4.06889 4.84811 4.02731 4.79083C4.16475 4.7712 4.26293 4.84974 4.40037 4.92827ZM4.18439 5.10499C4.06658 5.14426 3.96841 5.06572 3.83096 4.96754C3.89669 4.95875 3.96357 4.96674 4.02537 4.99078C4.08717 5.01481 4.14187 5.0541 4.18439 5.10499ZM3.65425 4.55522C3.70436 4.5576 3.75331 4.57118 3.79748 4.59497C3.84165 4.61875 3.87993 4.65213 3.9095 4.69266L3.88987 4.73193C3.77206 4.73193 3.71316 4.65339 3.61498 4.59449C3.63462 4.55522 3.65425 4.55522 3.65425 4.55522V4.55522ZM3.32046 4.2607C3.36099 4.26936 3.39858 4.28838 3.42955 4.31591C3.46052 4.34345 3.48382 4.37854 3.49718 4.41777C3.49718 4.45704 3.47754 4.45704 3.43827 4.45704C3.36636 4.42147 3.30532 4.36721 3.26156 4.29997C3.26156 4.2607 3.30083 4.2607 3.32046 4.2607ZM3.32046 4.59449C3.18302 4.61412 3.12412 4.55522 3.04558 4.43741C3.20266 4.39814 3.24193 4.53558 3.32046 4.59449V4.59449ZM3.02594 3.94654C3.10448 3.96618 3.14375 4.04471 3.18302 4.10362C3.18397 4.11158 3.1831 4.11966 3.18047 4.12723C3.17785 4.13481 3.17354 4.1417 3.16786 4.14737C3.16219 4.15304 3.15531 4.15735 3.14773 4.15997C3.14015 4.1626 3.13208 4.16347 3.12412 4.16252C3.08659 4.14638 3.05306 4.12218 3.02592 4.09164C2.99878 4.0611 2.97868 4.02498 2.96704 3.98581C2.96704 3.96618 3.00631 3.94654 3.02594 3.94654ZM2.96704 4.2607C2.96704 4.29997 2.96704 4.3196 2.92777 4.3196C2.8296 4.29997 2.79033 4.22143 2.75106 4.16252C2.75106 4.14289 2.73142 4.14289 2.75106 4.12325C2.77069 4.10362 2.77069 4.08398 2.80996 4.10362C2.84923 4.12325 2.90814 4.20179 2.96704 4.2607ZM2.92777 3.75019C2.9474 3.8091 2.92777 3.82873 2.8885 3.84837C2.80996 3.82873 2.79033 3.75019 2.77069 3.69129C2.75106 3.63239 2.77069 3.61275 2.80996 3.61275C2.90814 3.61275 2.8885 3.71093 2.92777 3.75019ZM2.80996 3.3575C2.80996 3.39677 2.8296 3.45567 2.77069 3.47531C2.71179 3.49494 2.69215 3.39677 2.69215 3.3575C2.69215 3.31823 2.65288 3.25933 2.73142 3.23969C2.80996 3.22006 2.80996 3.31823 2.80996 3.3575ZM2.71179 3.10225C2.65288 3.08262 2.65288 3.02371 2.65288 2.96481C2.65288 2.9059 2.65288 2.86663 2.71179 2.86663C2.80996 2.86663 2.77069 2.96481 2.79033 3.00408C2.77069 3.06298 2.79033 3.12188 2.71179 3.10225ZM2.75106 2.65065C2.75106 2.70956 2.77069 2.76846 2.69215 2.74883C2.61362 2.72919 2.63325 2.67029 2.63325 2.63102C2.63325 2.59175 2.61362 2.51321 2.69215 2.53284C2.75106 2.51321 2.75106 2.59175 2.75106 2.65065ZM2.61362 2.25796C2.61362 2.21869 2.61362 2.15979 2.67252 2.15979C2.73142 2.15979 2.73142 2.23832 2.73142 2.29723C2.73142 2.35613 2.73142 2.3954 2.65288 2.3954C2.57435 2.3954 2.61362 2.29723 2.61362 2.25796V2.25796ZM2.57435 3.75019C2.65288 3.76983 2.67252 3.868 2.69215 3.90727V3.94654C2.69215 3.96618 2.67252 3.98581 2.63325 3.98581C2.55471 3.96618 2.53508 3.88764 2.51544 3.82873C2.49581 3.76983 2.53508 3.75019 2.57435 3.75019V3.75019ZM2.57435 3.51458C2.57435 3.55385 2.59398 3.61275 2.51544 3.61275C2.4369 3.61275 2.4369 3.51458 2.4369 3.47531C2.4369 3.43604 2.4369 3.37714 2.47617 3.37714C2.57435 3.37714 2.55471 3.45567 2.57435 3.51458ZM2.47617 3.23969C2.39763 3.23969 2.39763 3.18079 2.39763 3.12188C2.39763 3.06298 2.39763 3.00408 2.45654 3.00408C2.51544 3.00408 2.51544 3.08262 2.51544 3.12188C2.51544 3.18079 2.53508 3.23969 2.47617 3.23969ZM2.4369 2.86663C2.35836 2.86663 2.35836 2.7881 2.35836 2.74883C2.35836 2.70956 2.35836 2.63102 2.41727 2.63102C2.47617 2.63102 2.49581 2.70956 2.49581 2.76846C2.49581 2.82736 2.49581 2.86663 2.4369 2.86663ZM2.35836 2.00271C2.35836 1.9438 2.35836 1.90453 2.41727 1.8849C2.49581 1.90453 2.47617 1.96344 2.47617 2.02234C2.47617 2.08125 2.45654 2.14015 2.39763 2.12052C2.33873 2.10088 2.35836 2.06161 2.35836 2.00271ZM2.41727 2.25796C2.49581 2.25796 2.49581 2.31686 2.49581 2.37577C2.49581 2.43467 2.51544 2.47394 2.4369 2.49357C2.35836 2.51321 2.35836 2.43467 2.35836 2.37577C2.35836 2.31686 2.33873 2.25796 2.41727 2.25796V2.25796Z" fill="white"/>
<path d="M10.5055 14.1762C10.2538 13.6073 9.93048 13.0728 9.54339 12.5858C9.13941 12.0413 8.55471 11.6584 7.89408 11.5059C6.90432 11.2884 5.87223 11.3705 4.92924 11.7415C4.12422 12.0753 3.43701 12.5465 3.04431 13.3712C2.94614 13.6461 2.8676 13.9013 2.78906 14.1762H10.5055Z" fill="#F0F0F0"/>
<path d="M10.6054 11.8789C11.1005 12.5834 11.4723 13.3668 11.705 14.1958H13.0009C12.8343 13.3891 12.4998 12.6264 12.0191 11.9575C11.6854 11.4862 11.3712 10.9954 11.0178 10.5438C10.5662 9.97436 10.5073 9.34606 10.684 8.65884C10.9196 7.65747 11.4105 6.75428 11.9602 5.89035C11.9966 5.84367 12.0225 5.78967 12.036 5.73206C12.0496 5.67444 12.0505 5.61457 12.0388 5.55656C11.9526 5.22054 11.8871 4.87957 11.8424 4.53556C11.7443 3.90725 11.5283 3.31821 11.5675 2.6899C11.5872 2.47392 11.5872 2.25794 11.6068 2.04196C11.6068 1.94378 11.5872 1.90451 11.5086 1.88488C11.3123 1.84561 11.1159 1.80634 10.9196 1.74744C10.9785 2.72917 11.0767 3.69127 11.1945 4.673C11.273 5.28168 11.2141 5.83145 10.8214 6.34195L10.7233 6.49903L10.684 6.5383C10.6664 6.60686 10.64 6.67286 10.6054 6.73464C10.2065 7.56332 9.85897 8.41576 9.56481 9.28715C9.49745 9.50192 9.47662 9.72857 9.5037 9.95202C9.53079 10.1755 9.60517 10.3906 9.72189 10.583L10.6054 11.8789Z" fill="url(#paint0_linear_290_62)"/>
<path d="M6.5209 3.31826C6.50127 2.21872 6.50127 1.09954 6.50127 0H5.14648C5.08757 0.58904 4.71451 0.981734 4.16474 1.21735C3.79629 1.35445 3.41466 1.45315 3.02593 1.51187C2.94454 1.95229 2.9313 2.40259 2.98666 2.84703C3.00642 3.23534 3.17522 3.60106 3.4579 3.86803C4.29516 4.65825 5.40911 5.08832 6.56017 5.06575C6.56017 4.51598 6.56017 3.9662 6.54054 3.41643V3.31826H6.5209Z" fill="#C2C2C6"/>
<path d="M1.69041 3.35754C1.6315 4.1822 1.55297 5.00686 1.47443 5.81188C1.5137 5.94932 1.41552 6.08676 1.5726 6.20457C2.0256 6.60581 2.39299 7.09432 2.65277 7.64087C2.91254 8.18742 3.05938 8.78076 3.08447 9.38539C3.10897 10.124 2.8569 10.8452 2.37762 11.4078C1.69272 12.2433 1.14888 13.185 0.767578 14.1959H1.86712C2.04236 13.6529 2.25222 13.1216 2.49543 12.6055C2.83158 11.9917 3.19857 11.3954 3.59497 10.8187C3.77671 10.5442 3.8971 10.2337 3.94793 9.9084C3.99875 9.58311 3.97882 9.25068 3.88949 8.93379C3.67215 8.16607 3.36227 7.42762 2.96666 6.73471C2.78912 6.45479 2.63794 6.159 2.51506 5.85115C2.3365 5.32621 2.24369 4.77593 2.24018 4.22147C2.24149 3.38075 2.08152 2.54759 1.76895 1.76713C1.63498 1.76399 1.50375 1.80542 1.39589 1.88494C1.53333 2.35617 1.74931 2.82741 1.69041 3.35754Z" fill="url(#paint1_linear_290_62)"/>
<path d="M6.54102 5.08535V3.43604C7.81727 3.3575 8.81864 2.72919 9.68256 1.84563C9.80037 1.72782 9.89854 1.61001 9.99672 1.51184C10.1194 1.92646 10.1855 2.35577 10.1931 2.78809C10.1796 3.02521 10.1125 3.25619 9.99687 3.46364C9.88124 3.6711 9.72007 3.84963 9.52549 3.98581C8.76443 4.57754 7.85313 4.94478 6.89444 5.04608C6.77958 5.07847 6.66018 5.09174 6.54102 5.08535V5.08535Z" fill="white"/>
<path d="M1.41553 1.86536C1.55298 2.35622 1.74932 2.82746 1.71005 3.33796C1.65115 4.16261 1.57261 4.98727 1.49407 5.79229C1.03726 5.23312 0.629945 4.63528 0.276724 4.00554C0.16295 3.79507 0.0771416 3.57064 0.0214727 3.33796C-0.0183843 3.14803 -0.0025267 2.95063 0.0671385 2.7695C0.136804 2.58837 0.257311 2.43122 0.414166 2.31695C0.720187 2.11118 1.05873 1.95851 1.41553 1.86536V1.86536Z" fill="#C2C2C6"/>
<path d="M10.8206 6.2831L10.7224 6.49908L10.6832 6.53835C10.5457 6.55799 10.4868 6.69543 10.369 6.75433C9.91257 7.01112 9.41382 7.18402 8.8964 7.26483C8.35057 7.34959 7.79941 7.39552 7.24708 7.40228C6.65804 7.42191 6.04937 7.44155 5.46033 7.42191C4.84947 7.41946 4.24411 7.30637 3.67357 7.08812C3.47166 7.01306 3.29663 6.87963 3.17076 6.70481C3.04489 6.52999 2.97387 6.32169 2.96672 6.10639C2.95373 5.93715 3.00848 5.76968 3.11894 5.64081C3.2294 5.51194 3.38653 5.43221 3.55576 5.41918H3.73248C4.06627 5.47808 4.40006 5.57625 4.71421 5.65479C5.5585 5.87077 6.38316 5.81187 7.22745 5.67443C7.9343 5.55662 8.62151 5.39954 9.34799 5.321C9.5966 5.29787 9.84707 5.30447 10.0941 5.34064C10.3088 5.38303 10.5009 5.50196 10.6345 5.67532C10.7681 5.84867 10.8343 6.06465 10.8206 6.2831Z" fill="#F0F0F0"/>
<path d="M4.69522 5.32101C4.56981 5.32817 4.44555 5.29365 4.3418 5.22284C4.49887 5.16393 4.55778 5.18357 4.69522 5.32101Z" fill="#BCC9BE"/>
<path d="M10.6041 2.41503C10.6041 2.4543 10.6041 2.5132 10.5452 2.49357C10.4471 2.47393 10.4863 2.3954 10.4667 2.33649C10.4471 2.31686 10.4667 2.27759 10.506 2.27759H10.5256C10.6041 2.27759 10.5845 2.35613 10.6041 2.41503Z" fill="#BECED0"/>
<path d="M2.49647 2.76855C2.49647 2.82745 2.49647 2.88635 2.41793 2.86672C2.33939 2.84709 2.35903 2.78818 2.33939 2.74891C2.31976 2.70964 2.33939 2.6311 2.3983 2.6311C2.49647 2.6311 2.49647 2.70964 2.49647 2.76855Z" fill="#BCC9BE"/>
<path d="M7.051 5.55663C6.99037 5.59511 6.92226 5.62026 6.85117 5.63042C6.78008 5.64057 6.70765 5.6355 6.63867 5.61553C6.69954 5.57762 6.76764 5.55281 6.83863 5.54267C6.90962 5.53252 6.98195 5.53728 7.051 5.55663V5.55663Z" fill="#BECCC7"/>
<path d="M2.77113 3.47538C2.69259 3.47538 2.69259 3.41648 2.69259 3.35758C2.69259 3.29867 2.67296 3.2594 2.73186 3.23977C2.79077 3.22013 2.8104 3.29867 2.8104 3.35758C2.8104 3.41648 2.83004 3.45575 2.77113 3.47538Z" fill="#BFD0D6"/>
<path d="M2.67252 2.14014C2.75106 2.15977 2.73142 2.21868 2.73142 2.27758C2.73142 2.33648 2.73142 2.37575 2.65288 2.37575C2.57434 2.37575 2.59398 2.29721 2.59398 2.25795C2.59315 2.23257 2.60028 2.20757 2.61436 2.18645C2.62844 2.16532 2.64878 2.14913 2.67252 2.14014V2.14014Z" fill="#BCC9BE"/>
<path d="M2.75062 2.65069C2.75062 2.7096 2.75062 2.7685 2.69172 2.74887C2.63281 2.72923 2.63281 2.67033 2.63281 2.63106C2.63281 2.59179 2.63281 2.51325 2.69172 2.53288C2.75062 2.55252 2.75062 2.59179 2.75062 2.65069Z" fill="#BECCC7"/>
<path d="M7.22656 5.53691C7.27612 5.49886 7.33428 5.47358 7.39592 5.46331C7.45755 5.45304 7.52076 5.45809 7.57999 5.47801C7.53043 5.51606 7.47227 5.54134 7.41063 5.55161C7.349 5.56188 7.28579 5.55684 7.22656 5.53691V5.53691Z" fill="#BECCC7"/>
<path d="M7.79688 5.43877C7.84421 5.38997 7.90398 5.35503 7.96973 5.33772C8.03548 5.32042 8.10471 5.32141 8.16993 5.3406C8.11755 5.38121 8.05751 5.41083 7.99341 5.4277C7.92931 5.44457 7.86246 5.44834 7.79688 5.43877V5.43877Z" fill="#BECCC7"/>
<path d="M5.81447 5.57629C5.75445 5.60368 5.68819 5.61448 5.62258 5.60757C5.55697 5.60067 5.49441 5.5763 5.44141 5.53702C5.50241 5.51437 5.56782 5.50613 5.63254 5.51294C5.69725 5.51975 5.75952 5.54143 5.81447 5.57629V5.57629Z" fill="#BECCC7"/>
<path d="M2.96672 4.26077C2.96672 4.30004 2.96672 4.31968 2.92745 4.31968C2.82927 4.30004 2.79001 4.22151 2.75074 4.1626C2.74625 4.15911 2.74262 4.15465 2.74012 4.14954C2.73763 4.14444 2.73633 4.13883 2.73633 4.13315C2.73633 4.12747 2.73763 4.12186 2.74012 4.11676C2.74262 4.11165 2.74625 4.10718 2.75074 4.1037C2.77037 4.1037 2.77037 4.08406 2.79001 4.1037C2.86854 4.12333 2.90781 4.20187 2.96672 4.26077Z" fill="#C0D3DE"/>
<path d="M9.28906 4.8694C9.32909 4.81955 9.37995 4.77949 9.4378 4.75227C9.49564 4.72505 9.55893 4.71139 9.62285 4.71233C9.58283 4.76217 9.53196 4.80223 9.47412 4.82945C9.41627 4.85667 9.35298 4.87034 9.28906 4.8694V4.8694Z" fill="#BFD0D6"/>
<path d="M10.3489 4.16252C10.29 4.22142 10.2507 4.31959 10.1526 4.31959C10.1424 4.31871 10.133 4.31429 10.1258 4.3071C10.1186 4.29992 10.1142 4.29044 10.1133 4.28032V4.26069C10.1526 4.18215 10.1918 4.10361 10.29 4.10361C10.3489 4.08398 10.3489 4.12325 10.3489 4.16252Z" fill="#BECCC7"/>
<path d="M3.4375 4.732C3.49716 4.72046 3.55897 4.72976 3.61259 4.75836C3.66621 4.78695 3.70837 4.8331 3.73202 4.88908C3.57494 4.90871 3.51604 4.81054 3.4375 4.732Z" fill="#BECCC7"/>
<path d="M3.83008 4.96759C3.89597 4.95406 3.96436 4.95983 4.02705 4.98421C4.08974 5.00859 4.14407 5.05055 4.1835 5.10504C4.06569 5.1443 3.96752 5.06577 3.83008 4.96759Z" fill="#BECCC7"/>
<path d="M8.71876 5.16394C8.66761 5.20751 8.60824 5.24039 8.54416 5.26062C8.48009 5.28086 8.4126 5.28804 8.3457 5.28174C8.3887 5.22671 8.44736 5.186 8.51396 5.16497C8.58055 5.14394 8.65196 5.14358 8.71876 5.16394V5.16394Z" fill="#BECED0"/>
<path d="M5.53906 5.34064C5.59414 5.32207 5.65265 5.31597 5.71037 5.32276C5.76809 5.32955 5.82359 5.34907 5.87285 5.37991C5.81992 5.40846 5.75948 5.42001 5.69976 5.41299C5.64003 5.40596 5.58392 5.3807 5.53906 5.34064Z" fill="#BCC9BE"/>
<path d="M5.24395 5.45842C5.18634 5.47611 5.12507 5.47816 5.06641 5.46436C5.00776 5.45056 4.95383 5.4214 4.91016 5.37988C4.96817 5.36812 5.02803 5.36906 5.08565 5.38261C5.14326 5.39617 5.19726 5.42203 5.24395 5.45842Z" fill="#BECCC7"/>
<path d="M2.41666 1.88489C2.4952 1.90452 2.47556 1.96343 2.47556 2.02233C2.47556 2.08123 2.47556 2.14014 2.39702 2.1205C2.31848 2.10087 2.33812 2.0616 2.33812 2.0027C2.33483 1.97689 2.34096 1.95077 2.35539 1.92912C2.36982 1.90748 2.39157 1.89177 2.41666 1.88489V1.88489Z" fill="#BECED0"/>
<path d="M10.448 2.65063C10.448 2.70953 10.448 2.7488 10.3891 2.7488C10.3302 2.7488 10.3105 2.67026 10.3105 2.61136C10.3105 2.55245 10.3105 2.51318 10.3695 2.51318C10.4284 2.51318 10.4284 2.61136 10.448 2.65063Z" fill="#BECCC7"/>
<path d="M10.6825 2.78819C10.7021 2.84709 10.6825 2.88636 10.6236 2.88636C10.5647 2.88636 10.545 2.80782 10.5254 2.74892C10.5058 2.69002 10.5058 2.65075 10.5647 2.65075C10.6825 2.63111 10.6629 2.72929 10.6825 2.78819Z" fill="#BFD0D6"/>
<path d="M10.4278 3.98586C10.3886 3.96623 10.3689 3.94659 10.3886 3.90732C10.4082 3.86805 10.4278 3.75024 10.526 3.75024C10.5653 3.75024 10.5849 3.78951 10.5653 3.82878C10.5456 3.86805 10.526 3.96623 10.4278 3.98586Z" fill="#BFD0D6"/>
<path d="M9.21085 4.94791C9.1646 4.99396 9.10933 5.02993 9.0485 5.05359C8.98768 5.07724 8.92263 5.08806 8.85742 5.08536C8.89907 5.03342 8.95366 4.99338 9.01571 4.96925C9.07775 4.94512 9.14505 4.93776 9.21085 4.94791V4.94791Z" fill="#BFD0D6"/>
<path d="M8.56231 5.00679C8.46938 5.08588 8.3505 5.12783 8.22852 5.1246C8.26318 5.07069 8.31479 5.02985 8.37523 5.00852C8.43567 4.98719 8.50148 4.98658 8.56231 5.00679V5.00679Z" fill="#BFD0D6"/>
<path d="M4.85168 5.16389C4.71022 5.15712 4.57379 5.10936 4.45898 5.02645C4.53074 5.01028 4.6056 5.01459 4.67503 5.03889C4.74446 5.06319 4.80566 5.1065 4.85168 5.16389Z" fill="#BCC9BE"/>
<path d="M4.4004 4.94794C4.33162 4.9603 4.26077 4.95408 4.19519 4.92992C4.12961 4.90576 4.07167 4.86453 4.02734 4.8105C4.18442 4.77123 4.26296 4.84977 4.4004 4.94794Z" fill="#BECCC7"/>
<path d="M10.4671 1.90454C10.5456 1.92418 10.526 2.00271 10.526 2.06162C10.526 2.12052 10.526 2.15979 10.4671 2.14016C10.4082 2.12052 10.4082 2.04198 10.4082 1.98308C10.4082 1.92418 10.4278 1.90454 10.4671 1.90454Z" fill="#C0D3DE"/>
<path d="M10.2893 2.15979C10.3679 2.15979 10.3679 2.21869 10.3679 2.2776C10.3679 2.3365 10.3875 2.37577 10.3286 2.39541C10.2697 2.41504 10.2501 2.3365 10.2501 2.2776C10.2501 2.21869 10.2108 2.17942 10.2893 2.15979Z" fill="#BECED0"/>
<path d="M10.3486 3.65204C10.3093 3.71095 10.3093 3.78949 10.2308 3.82876C10.2111 3.82876 10.1719 3.80912 10.1719 3.78949C10.1915 3.71095 10.2111 3.63241 10.3093 3.61277C10.329 3.59314 10.3486 3.63241 10.3486 3.65204Z" fill="#BFD0D6"/>
<path d="M2.57295 3.75025C2.65149 3.76988 2.67112 3.84842 2.69075 3.90733C2.71039 3.92696 2.69076 3.9466 2.67112 3.96623H2.63185C2.55331 3.9466 2.53368 3.86806 2.51404 3.80915C2.5131 3.80119 2.51397 3.79311 2.51659 3.78554C2.51922 3.77796 2.52353 3.77108 2.5292 3.76541C2.53487 3.75973 2.54175 3.75542 2.54933 3.7528C2.55691 3.75017 2.56498 3.7493 2.57295 3.75025V3.75025Z" fill="#C0D3DE"/>
<path d="M10.0347 4.43738C10.0056 4.4879 9.966 4.53158 9.91857 4.56546C9.87114 4.59934 9.81698 4.62262 9.75977 4.63372C9.8383 4.45701 9.87757 4.43738 10.0347 4.43738Z" fill="#BECED0"/>
<path d="M7.20703 5.36034C7.25532 5.31985 7.31264 5.29158 7.37415 5.27791C7.43567 5.26424 7.49957 5.26557 7.56046 5.2818C7.51482 5.32668 7.45749 5.35784 7.395 5.37173C7.33251 5.38562 7.26738 5.38167 7.20703 5.36034V5.36034Z" fill="#BCC9BE"/>
<path d="M10.389 3.47536C10.3301 3.47536 10.3301 3.43609 10.3301 3.37719C10.3301 3.31828 10.3301 3.23975 10.4086 3.23975C10.4283 3.23975 10.4675 3.25938 10.4675 3.27901V3.29865C10.4479 3.37719 10.4675 3.45573 10.389 3.47536Z" fill="#BECCC7"/>
<path d="M2.57494 3.51452C2.57494 3.55379 2.59458 3.63233 2.51604 3.61269C2.4375 3.59306 2.4375 3.53415 2.4375 3.47525C2.4375 3.41634 2.4375 3.37708 2.47677 3.37708C2.57494 3.37708 2.55531 3.45561 2.57494 3.51452Z" fill="#BFD0D6"/>
<path d="M3.43843 4.45709C3.36651 4.42151 3.30548 4.36726 3.26172 4.30001C3.26172 4.28038 3.30099 4.26074 3.32062 4.26074C3.36115 4.2694 3.39874 4.28843 3.42971 4.31596C3.46068 4.34349 3.48398 4.37859 3.49733 4.41782C3.51697 4.45709 3.4777 4.45709 3.43843 4.45709Z" fill="#BECCC7"/>
<path d="M9.0329 4.77124C9.01327 4.81051 9.01327 4.83014 8.99364 4.83014C8.9151 4.86941 8.83656 4.94795 8.73838 4.90868L8.71875 4.86941C8.81201 4.8075 8.92099 4.77345 9.0329 4.77124Z" fill="#BECED0"/>
<path d="M10.1337 4.00547C10.0945 4.06437 10.0552 4.14291 9.97666 4.16255C9.93739 4.16255 9.91776 4.14291 9.93739 4.12328C9.94669 4.08523 9.96626 4.05046 9.99395 4.02276C10.0217 3.99506 10.0564 3.9755 10.0945 3.9662C10.1141 3.94656 10.1337 3.9662 10.1337 4.00547Z" fill="#BFD0D6"/>
<path d="M3.18214 4.10361C3.18309 4.11157 3.18222 4.11965 3.17959 4.12723C3.17697 4.1348 3.17266 4.14169 3.16699 4.14736C3.16131 4.15303 3.15443 4.15734 3.14685 4.15996C3.13928 4.16259 3.1312 4.16346 3.12324 4.16251C3.0867 4.15025 3.0535 4.12969 3.02624 4.10243C2.99899 4.07518 2.97842 4.04198 2.96616 4.00544C2.94653 3.9858 2.98579 3.94653 3.02506 3.96617C3.1036 3.96617 3.14287 4.04471 3.18214 4.10361Z" fill="#BFD0D6"/>
<path d="M3.30028 4.59456C3.16283 4.6142 3.10393 4.53566 3.02539 4.43749C3.2021 4.39822 3.24137 4.53566 3.30028 4.59456Z" fill="#BFD0D6"/>
<path d="M3.5957 4.57491C3.63497 4.53564 3.63497 4.53564 3.65461 4.53564C3.70472 4.53803 3.75366 4.55161 3.79783 4.5754C3.842 4.59918 3.88028 4.63256 3.90986 4.67309L3.89022 4.71236C3.7811 4.69507 3.67904 4.64744 3.5957 4.57491V4.57491Z" fill="#BECCC7"/>
<path d="M2.9265 3.75022C2.94613 3.80912 2.9265 3.84839 2.88723 3.82876C2.80869 3.80912 2.78906 3.73058 2.76942 3.67168C2.74979 3.61277 2.76942 3.59314 2.80869 3.59314C2.90686 3.61277 2.88723 3.71095 2.9265 3.75022Z" fill="#BFD0D6"/>
<path d="M2.77015 3.02367C2.77015 3.08258 2.77015 3.12185 2.71125 3.12185C2.65234 3.12185 2.65234 3.04331 2.65234 2.9844C2.65234 2.9255 2.65234 2.88623 2.71125 2.88623C2.77015 2.88623 2.75052 2.96477 2.77015 3.02367Z" fill="#BFD0D6"/>
<path d="M2.51462 3.14159C2.51462 3.18086 2.53426 3.23977 2.45572 3.23977C2.37718 3.23977 2.37718 3.18086 2.37718 3.12196C2.37718 3.06305 2.35755 3.00415 2.43609 3.00415C2.51462 3.00415 2.51462 3.08269 2.51462 3.14159Z" fill="#BECED0"/>
<path d="M5.3416 5.30137C5.28219 5.31424 5.22051 5.312 5.16219 5.29485C5.10387 5.27769 5.05079 5.24618 5.00781 5.2032C5.06725 5.19355 5.12809 5.19736 5.18586 5.21435C5.24363 5.23134 5.29685 5.26108 5.3416 5.30137Z" fill="#BECED0"/>
<path d="M8.11124 5.16398C8.00928 5.24045 7.88526 5.28179 7.75781 5.28179C7.83635 5.16398 7.87562 5.14435 8.11124 5.16398Z" fill="#BECED0"/>
<path d="M9.44676 4.53556C9.41895 4.58373 9.37885 4.62366 9.33055 4.65126C9.28226 4.67886 9.2275 4.69314 9.17188 4.69264C9.19779 4.64284 9.23749 4.60156 9.28623 4.5737C9.33498 4.54585 9.3907 4.53261 9.44676 4.53556V4.53556Z" fill="#BFD0D6"/>
<path d="M10.6235 3.39673C10.6824 3.39673 10.702 3.41636 10.702 3.45563C10.702 3.53417 10.702 3.61271 10.6038 3.63234C10.5646 3.63234 10.5449 3.59308 10.5449 3.55381C10.5449 3.51454 10.5646 3.41636 10.6235 3.39673Z" fill="#BFD0D6"/>
<path d="M10.7412 3.14159C10.7412 3.2005 10.7412 3.2594 10.6626 3.23977C10.5841 3.22013 10.6037 3.16123 10.6037 3.10232C10.6037 3.04342 10.6037 3.00415 10.6626 3.00415C10.7216 3.00415 10.7216 3.10232 10.7412 3.14159Z" fill="#C0D3DE"/>
<path d="M9.58398 4.47672V4.41782C9.60567 4.37694 9.6364 4.34154 9.67383 4.31433C9.71125 4.28711 9.75439 4.26878 9.79997 4.26074L9.8196 4.30001C9.76347 4.38402 9.68035 4.44636 9.58398 4.47672Z" fill="#BFD0D6"/>
<path d="M6.04883 5.59583C6.09998 5.56514 6.1592 5.5506 6.21875 5.5541C6.2783 5.5576 6.33541 5.57899 6.38262 5.61546C6.32896 5.63695 6.27123 5.64634 6.21353 5.64295C6.15583 5.63955 6.09959 5.62346 6.04883 5.59583Z" fill="#BECED0"/>
<path d="M6.0293 5.4191C6.16393 5.37983 6.30699 5.37983 6.44163 5.4191C6.37824 5.45313 6.30741 5.47094 6.23546 5.47094C6.16351 5.47094 6.09269 5.45313 6.0293 5.4191Z" fill="#BECED0"/>
<path d="M10.4271 2.88623C10.5056 2.90587 10.486 2.96477 10.486 3.02367C10.486 3.08258 10.486 3.12185 10.4271 3.12185C10.3289 3.12185 10.3682 3.04331 10.3485 2.9844C10.3444 2.97542 10.3421 2.96568 10.3418 2.95578C10.3416 2.94588 10.3433 2.93604 10.347 2.92684C10.3507 2.91765 10.3562 2.9093 10.3632 2.90232C10.3702 2.89534 10.3786 2.88986 10.3878 2.88623H10.4271Z" fill="#BECED0"/>
<path d="M2.47684 2.37574C2.47684 2.41501 2.47684 2.47392 2.41793 2.49355C2.35903 2.51318 2.35903 2.43465 2.33939 2.37574C2.31976 2.31684 2.33939 2.25793 2.3983 2.25793C2.4572 2.25793 2.47684 2.33647 2.47684 2.37574Z" fill="#C0D3DE"/>
<path d="M10.7031 6.53842L10.7424 6.49915L10.7031 6.53842Z" fill="#A78D08"/>
<defs>
<linearGradient id="paint0_linear_290_62" x1="9.52161" y1="7.97163" x2="13.3602" y2="7.97163" gradientUnits="userSpaceOnUse">
<stop stop-color="#FFF1F1"/>
<stop offset="1" stop-color="#FFF0F0"/>
</linearGradient>
<linearGradient id="paint1_linear_290_62" x1="0.109817" y1="7.98151" x2="3.97588" y2="7.98151" gradientUnits="userSpaceOnUse">
<stop stop-color="#FFF1F1"/>
<stop offset="1" stop-color="#FFF0F0"/>
</linearGradient>
</defs>
</svg>
