<svg width="56" height="49" viewBox="0 0 56 49" fill="none" xmlns="http://www.w3.org/2000/svg">
<path d="M50.75 0H36.75C33.8516 0 31.5 2.35156 31.5 5.25V19.25C31.5 22.1484 33.8516 24.5 36.75 24.5H40.5C43.2614 24.5 45.5 26.7386 45.5 29.5V31.5C45.5 35.3609 42.3609 38.5 38.5 38.5H37.625C36.1703 38.5 35 39.6703 35 41.125V46.375C35 47.8297 36.1703 49 37.625 49H38.5C48.1688 49 56 41.1688 56 31.5V5.25C56 2.35156 53.6484 0 50.75 0ZM19.25 0H5.25C2.35156 0 0 2.35156 0 5.25V19.25C0 22.1484 2.35156 24.5 5.25 24.5H9C11.7614 24.5 14 26.7386 14 29.5V31.5C14 35.3609 10.8609 38.5 7 38.5H6.125C4.67031 38.5 3.5 39.6703 3.5 41.125V46.375C3.5 47.8297 4.67031 49 6.125 49H7C16.6688 49 24.5 41.1688 24.5 31.5V5.25C24.5 2.35156 22.1484 0 19.25 0Z" fill="#B27AFA"/>
</svg>
