<svg width="81" height="80" viewBox="0 0 81 80" fill="none" xmlns="http://www.w3.org/2000/svg">
<g filter="url(#filter0_d_151_15747)">
<path d="M35.4648 18.3867L25.7434 2.18531C25.3437 1.51883 24.7782 0.967245 24.1019 0.584274C23.4257 0.201304 22.6618 9.54177e-06 21.8846 0H6.25412C4.43302 0 3.36708 2.04891 4.41052 3.54094L20.0579 25.8947C24.2373 21.9895 29.5529 19.3092 35.4648 18.3867ZM74 0.0110639L58.1154 0C58.0096 0 57.9043 0.00371834 57.7996 0.0110639C56.3415 0.113444 55.015 0.92044 54.2566 2.18531L44.5352 18.3867C50.4471 19.3092 55.7627 21.9895 59.9421 25.8933L75.5895 3.54094C76.6329 2.04891 75.8211 0.0110639 74 0.0110639ZM40 22.5C26.3312 22.5 15.2499 33.5812 15.2499 47.25C15.2499 60.9188 26.3312 72 40 72C53.6688 72 64.7501 60.9188 64.7501 47.25C64.7501 33.5812 53.6688 22.5 40 22.5ZM54 43.6253L47.6767 49.8122L49 60C49 60.5 49.6798 60.1216 48.5 59.5L40 55.3894L31.0633 59.1204C29.882 59.7462 30.8383 60.1706 31.0633 58.8558L32.3247 49.8122L26.0014 43.6253C25.0423 42.6916 24.7386 43.8744 26.0604 43.6831L35.2567 40.7855L39.9998 32.6548C40.2965 32.0529 39.422 32.6503 39.9972 32.6503C39.7005 32.0527 40.5752 32.6503 39.9972 32.6503L44.7447 40.7855L53.941 43.6831C55.2628 43.8744 54 43.6253 54 43.6253Z" fill="#FFCACA"/>
<path d="M25.3146 2.44248L25.3147 2.44257L34.6591 18.0157C29.1341 19.0186 24.1487 21.5376 20.1405 25.1408L4.82027 3.25439C4.00831 2.09336 4.83793 0.5 6.25412 0.5H21.8846C22.5754 0.500008 23.2544 0.678935 23.8555 1.01935C24.4566 1.35976 24.9593 1.85006 25.3146 2.44248ZM73.9996 0.511064H74C74.6996 0.511064 75.1841 0.89115 75.4098 1.4145C75.6404 1.94902 75.6036 2.64837 75.1797 3.25439L59.8594 25.1395C55.8512 21.5375 50.8659 19.0186 45.3409 18.0157L54.6853 2.44257L54.6854 2.44243C55.3595 1.31823 56.5386 0.600836 57.8347 0.509836C57.9276 0.503311 58.0212 0.500004 58.1152 0.5C58.1153 0.5 58.1153 0.5 58.1154 0.5L73.9996 0.511064ZM54.0842 43.1986C54.0842 43.1986 54.0842 43.1986 54.0842 43.1986L54.0967 43.1348L53.8385 43.0839L53.8055 43.1162L45.0792 40.3666L40.6537 32.7833C40.6779 32.7272 40.6925 32.6679 40.6975 32.608C40.7139 32.4129 40.6271 32.2672 40.5774 32.1988C40.5201 32.1199 40.4504 32.0582 40.3847 32.0134C40.3298 31.9758 40.2565 31.9356 40.1694 31.9103C40.1526 31.9052 40.1361 31.9012 40.1198 31.8979C40.0462 31.8826 39.8962 31.8665 39.7445 31.9411C39.6939 31.9628 39.65 31.9883 39.614 32.0126C39.5617 32.048 39.507 32.0938 39.4579 32.1503H39.1265L39.3058 32.4576C39.2976 32.5024 39.2941 32.5515 39.2981 32.6042C39.3028 32.6666 39.318 32.7285 39.3437 32.7871L34.9222 40.3666L26.186 43.1193C25.96 42.9328 25.7292 42.8114 25.5011 42.7739C25.3576 42.7504 25.1887 42.7567 25.0295 42.835C24.8618 42.9174 24.7257 43.0729 24.685 43.279C24.6051 43.6839 24.9086 43.9603 25.1397 44.0729C25.3424 44.1717 25.5916 44.2146 25.8762 44.2024L31.7946 49.9931L30.5692 58.7787C30.5655 58.7997 30.5616 58.8199 30.5576 58.8393C30.3647 58.968 30.2167 59.1043 30.1198 59.2467C30.0562 59.3404 29.9722 59.4989 29.9861 59.694C29.9937 59.8011 30.0328 59.9258 30.1287 60.0321C30.2247 60.1386 30.3455 60.1909 30.4535 60.209C30.6511 60.242 30.8172 60.168 30.9141 60.1087C31.0239 60.0414 31.1197 59.9484 31.2003 59.8423C31.2683 59.7529 31.33 59.6483 31.3837 59.5284L39.9849 55.9375L48.2743 59.9462C48.3676 59.9957 48.443 60.041 48.5035 60.0812C48.5209 60.2829 48.6067 60.5251 48.8453 60.6575C48.9837 60.7343 49.1745 60.7649 49.3599 60.6805C49.5482 60.5949 49.6502 60.4278 49.6823 60.2709C49.7413 59.9826 49.5877 59.7341 49.4497 59.5787C49.4496 59.5785 49.4495 59.5784 49.4494 59.5783L48.2047 49.9951L54.1148 44.2125C54.295 44.237 54.4136 44.2505 54.4816 44.2541L54.4832 44.2542C54.4961 44.255 54.5662 44.2593 54.6394 44.2446C54.66 44.2404 54.7249 44.2268 54.7967 44.1846C54.8667 44.1434 55.0482 44.0062 55.0441 43.7444C55.0408 43.5314 54.9092 43.4082 54.8834 43.3842C54.8403 43.3442 54.7998 43.3209 54.7835 43.3119C54.7288 43.2814 54.6734 43.2649 54.6614 43.2613L54.6599 43.2608C54.6366 43.2537 54.6119 43.2471 54.5897 43.2414C54.5024 43.2192 54.3758 43.192 54.2786 43.1718C54.2284 43.1613 54.1831 43.1521 54.1504 43.1455L54.1115 43.1377L54.1007 43.1356L54.0978 43.135L54.0971 43.1349L54.0968 43.1348L54.0968 43.1348L54.0842 43.1986ZM48.7249 60.2725C48.7245 60.2724 48.7223 60.2694 48.7191 60.2634C48.7237 60.2696 48.7253 60.2726 48.7249 60.2725ZM15.7499 47.25C15.7499 33.8574 26.6074 23 40 23C53.3926 23 64.2501 33.8574 64.2501 47.25C64.2501 60.6426 53.3926 71.5 40 71.5C26.6074 71.5 15.7499 60.6426 15.7499 47.25Z" stroke="#F15959"/>
</g>
<defs>
<filter id="filter0_d_151_15747" x="0" y="0" width="80.0505" height="80" filterUnits="userSpaceOnUse" color-interpolation-filters="sRGB">
<feFlood flood-opacity="0" result="BackgroundImageFix"/>
<feColorMatrix in="SourceAlpha" type="matrix" values="0 0 0 0 0 0 0 0 0 0 0 0 0 0 0 0 0 0 127 0" result="hardAlpha"/>
<feOffset dy="4"/>
<feGaussianBlur stdDeviation="2"/>
<feComposite in2="hardAlpha" operator="out"/>
<feColorMatrix type="matrix" values="0 0 0 0 0.141176 0 0 0 0 0.184314 0 0 0 0 0.27451 0 0 0 0.25 0"/>
<feBlend mode="normal" in2="BackgroundImageFix" result="effect1_dropShadow_151_15747"/>
<feBlend mode="normal" in="SourceGraphic" in2="effect1_dropShadow_151_15747" result="shape"/>
</filter>
</defs>
</svg>
