<svg width="119" height="77" viewBox="0 0 119 77" fill="none" xmlns="http://www.w3.org/2000/svg">
<g filter="url(#filter0_d_151_15757)">
<path d="M56.5055 44.5625H65.4945L62.3519 50.0483L62.2538 50.2196L62.2991 50.4117L65.8705 65.5523L66.8422 65.5589L72.0761 44.6538C79.5808 45.2179 85.5 51.4086 85.5 59.025V63.6562C85.5 66.3291 83.3255 68.5 80.6429 68.5H41.3571C38.6745 68.5 36.5 66.3291 36.5 63.6562V59.025C36.5 51.4086 42.4192 45.2179 49.9239 44.6538L55.1578 65.5589L56.1295 65.5523L59.7009 50.4117L59.7462 50.2196L59.6481 50.0483L56.5055 44.5625ZM74.7857 26.25C74.7857 33.8436 68.6157 40 61 40C53.3843 40 47.2143 33.8436 47.2143 26.25C47.2143 18.6564 53.3843 12.5 61 12.5C68.6157 12.5 74.7857 18.6564 74.7857 26.25Z" fill="#FFCACA" stroke="#F15959"/>
<path d="M96.4398 20.75H101.56L99.7104 23.9365L99.6101 24.1093L99.6566 24.3037L101.942 33.8662L102.913 33.873L106.225 20.8194C110.87 21.2381 114.5 25.0438 114.5 29.7V32.625C114.5 34.2047 113.196 35.5 111.571 35.5H86.4286C84.8044 35.5 83.5 34.2047 83.5 32.625V29.7C83.5 25.0438 87.1297 21.2381 91.7751 20.8194L95.0868 33.873L96.0577 33.8662L98.3434 24.3037L98.3899 24.1093L98.2896 23.9365L96.4398 20.75ZM107.643 9C107.643 13.6876 103.781 17.5 99 17.5C94.2187 17.5 90.3571 13.6876 90.3571 9C90.3571 4.31244 94.2187 0.5 99 0.5C103.781 0.5 107.643 4.31244 107.643 9Z" fill="#FFCACA" stroke="#F15959"/>
<path d="M17.4398 20.75H22.5602L20.7104 23.9365L20.6101 24.1093L20.6566 24.3037L22.9423 33.8662L23.9132 33.873L27.2249 20.8194C31.8703 21.2381 35.5 25.0438 35.5 29.7V32.625C35.5 34.2047 34.1956 35.5 32.5714 35.5H7.42857C5.8044 35.5 4.5 34.2047 4.5 32.625V29.7C4.5 25.0438 8.12966 21.2381 12.7751 20.8194L16.0868 33.873L17.0577 33.8662L19.3434 24.3037L19.3899 24.1093L19.2896 23.9365L17.4398 20.75ZM28.6429 9C28.6429 13.6876 24.7813 17.5 20 17.5C15.2187 17.5 11.3571 13.6876 11.3571 9C11.3571 4.31244 15.2187 0.5 20 0.5C24.7813 0.5 28.6429 4.31244 28.6429 9Z" fill="#FFCACA" stroke="#F15959"/>
</g>
<defs>
<filter id="filter0_d_151_15757" x="0" y="0" width="119" height="77" filterUnits="userSpaceOnUse" color-interpolation-filters="sRGB">
<feFlood flood-opacity="0" result="BackgroundImageFix"/>
<feColorMatrix in="SourceAlpha" type="matrix" values="0 0 0 0 0 0 0 0 0 0 0 0 0 0 0 0 0 0 127 0" result="hardAlpha"/>
<feOffset dy="4"/>
<feGaussianBlur stdDeviation="2"/>
<feComposite in2="hardAlpha" operator="out"/>
<feColorMatrix type="matrix" values="0 0 0 0 0.141176 0 0 0 0 0.184314 0 0 0 0 0.27451 0 0 0 0.25 0"/>
<feBlend mode="normal" in2="BackgroundImageFix" result="effect1_dropShadow_151_15757"/>
<feBlend mode="normal" in="SourceGraphic" in2="effect1_dropShadow_151_15757" result="shape"/>
</filter>
</defs>
</svg>
