<svg width="114" height="72" viewBox="0 0 114 72" fill="none" xmlns="http://www.w3.org/2000/svg">
<g filter="url(#filter0_d_151_15791)">
<path d="M75.9972 0H61.77C60.445 0 59.1697 0.499819 58.1925 1.39949L41.9116 16.3941C41.895 16.4107 41.8784 16.444 41.8619 16.4607C39.1125 19.0598 39.1622 23.2082 41.5141 25.7906C43.6175 28.1065 48.0397 28.7229 50.8056 26.2405C50.8222 26.2238 50.8553 26.2238 50.8719 26.2072L64.1053 14.0116C65.1819 13.0286 66.8713 13.0953 67.8484 14.1782C68.8422 15.2611 68.7594 16.9439 67.6828 17.9435L63.36 21.9254L87.475 41.6182C87.9553 42.0181 88.3859 42.4513 88.7834 42.9011V10.6628L79.7403 1.5661C78.7631 0.566461 77.405 0 75.9972 0ZM94.1 10.6961V47.9993C94.1 50.9482 96.4684 53.3307 99.4 53.3307H110V10.6961H94.1ZM102.05 47.9993C100.593 47.9993 99.4 46.7997 99.4 45.3336C99.4 43.8674 100.593 42.6679 102.05 42.6679C103.508 42.6679 104.7 43.8674 104.7 45.3336C104.7 46.7997 103.508 47.9993 102.05 47.9993ZM4 53.314H14.6C17.5316 53.314 19.9 50.9315 19.9 47.9826V10.6961H4V53.314ZM11.95 42.6679C13.4075 42.6679 14.6 43.8674 14.6 45.3336C14.6 46.7997 13.4075 47.9993 11.95 47.9993C10.4925 47.9993 9.3 46.7997 9.3 45.3336C9.3 43.8508 10.4925 42.6679 11.95 42.6679ZM84.1459 45.7667L59.4181 25.5741L54.4494 30.1557C49.5303 34.6708 41.9944 34.2376 37.6053 29.4227C33.15 24.5244 33.4978 16.9439 38.3341 12.4788L51.8822 0H38.0028C36.595 0 35.2534 0.566461 34.2597 1.5661L25.2 10.6628V47.9659H28.2309L43.22 61.611C47.7581 65.3263 54.4328 64.6266 58.1263 60.0615L58.1594 60.0282L61.1241 62.6106C63.7575 64.7765 67.6497 64.36 69.7863 61.7109L74.9869 55.2799L75.8813 56.013C78.1503 57.8623 81.4959 57.5291 83.3344 55.23L84.9078 53.2807C86.7628 50.9815 86.415 47.6327 84.1459 45.7667Z" fill="#FFCACA"/>
<path d="M42.2054 16.824L42.211 16.8187L42.2165 16.8132C42.2328 16.7968 42.2459 16.7816 42.2555 16.7698C42.2653 16.7578 42.2734 16.747 42.2795 16.7385C42.2821 16.735 42.2845 16.7315 42.2869 16.7281L58.5312 1.76733C58.5312 1.76731 58.5312 1.7673 58.5312 1.76728C59.4166 0.952141 60.5712 0.5 61.77 0.5H75.9972C77.2722 0.5 78.5009 1.01345 79.3828 1.91563L79.3857 1.91861L88.2834 10.869V41.6658C88.1264 41.5187 87.9637 41.3745 87.7949 41.234L87.7913 41.231L64.1227 21.9027L68.0216 18.3113L68.023 18.3099C69.2967 17.1272 69.4 15.1311 68.2182 13.8417C67.0517 12.5506 65.0452 12.4763 63.7682 13.6423L63.7665 13.6439L50.5903 25.7867C50.5574 25.8035 50.5127 25.8304 50.4675 25.8721C49.2029 27.0048 47.5495 27.4408 45.9502 27.3164C44.3434 27.1915 42.8378 26.5044 41.8842 25.4545L41.8837 25.454C39.7057 23.0624 39.6643 19.2262 42.2054 16.824ZM28.2309 47.4659H25.7V10.8693L34.614 1.91893L34.6143 1.91861C35.5157 1.01186 36.7302 0.5 38.0028 0.5H50.6013L37.9953 12.111L37.9949 12.1114C32.957 16.7626 32.5951 24.6575 37.2354 29.7591L37.2358 29.7595C41.8092 34.7767 49.6622 35.2284 54.7875 30.5241L54.7883 30.5233L59.438 26.2358L83.8284 46.1529C83.8286 46.1531 83.8289 46.1533 83.8291 46.1535C85.8856 47.8454 86.2012 50.8812 84.5187 52.9666C84.5187 52.9667 84.5187 52.9667 84.5187 52.9667L82.9453 54.9159L82.9439 54.9177C81.281 56.9973 78.2535 57.301 76.1975 55.6258C76.1974 55.6257 76.1973 55.6255 76.1971 55.6254L75.3038 54.8932L74.9146 54.5742L74.5981 54.9655L69.3975 61.3965L69.3971 61.3971C67.4349 63.8298 63.8637 64.2116 61.447 62.2288L58.4878 59.6512L58.1348 59.3437L57.8048 59.6757L57.7717 59.709L57.7536 59.7272L57.7375 59.7471C54.2203 64.0943 47.8689 64.7618 43.5467 61.2323L28.5675 47.5962L28.4244 47.4659H28.2309ZM94.6 47.9993V11.1961H109.5V52.8307H99.4C96.7474 52.8307 94.6 50.6748 94.6 47.9993ZM98.9 45.3336C98.9 47.073 100.314 48.4993 102.05 48.4993C103.786 48.4993 105.2 47.073 105.2 45.3336C105.2 43.5941 103.786 42.1679 102.05 42.1679C100.314 42.1679 98.9 43.5941 98.9 45.3336ZM14.6 52.814H4.5V11.1961H19.4V47.9826C19.4 50.6582 17.2526 52.814 14.6 52.814ZM15.1 45.3336C15.1 43.5941 13.6864 42.1679 11.95 42.1679C10.2156 42.1679 8.8 43.5754 8.8 45.3336C8.8 47.073 10.2136 48.4993 11.95 48.4993C13.6864 48.4993 15.1 47.073 15.1 45.3336Z" stroke="#F15959"/>
</g>
<defs>
<filter id="filter0_d_151_15791" x="0" y="0" width="114" height="72" filterUnits="userSpaceOnUse" color-interpolation-filters="sRGB">
<feFlood flood-opacity="0" result="BackgroundImageFix"/>
<feColorMatrix in="SourceAlpha" type="matrix" values="0 0 0 0 0 0 0 0 0 0 0 0 0 0 0 0 0 0 127 0" result="hardAlpha"/>
<feOffset dy="4"/>
<feGaussianBlur stdDeviation="2"/>
<feComposite in2="hardAlpha" operator="out"/>
<feColorMatrix type="matrix" values="0 0 0 0 0.141176 0 0 0 0 0.184314 0 0 0 0 0.27451 0 0 0 0.25 0"/>
<feBlend mode="normal" in2="BackgroundImageFix" result="effect1_dropShadow_151_15791"/>
<feBlend mode="normal" in="SourceGraphic" in2="effect1_dropShadow_151_15791" result="shape"/>
</filter>
</defs>
</svg>
