<svg width="183" height="299" viewBox="0 0 183 299" fill="none" xmlns="http://www.w3.org/2000/svg">
<path d="M-6.69839 285.454C-6.69839 285.454 -86.8161 211.5 -59.214 186.961C-59.214 186.961 -55.735 176.045 -25.7024 204.201C-25.7024 204.201 -10.7139 205.549 -13.7671 188.051C-16.8192 170.552 -45.4917 150.078 -34.2724 131.358C-23.0531 112.638 -9.54198 137.698 1.8548 140.199C13.2511 142.7 -6.93552 74.987 5.64337 63.9487C18.2223 52.9115 28.1412 79.1249 36.8086 80.2622C45.4761 81.3994 51.1393 -4.9716 92.5126 0.2255C133.887 5.42209 97.1018 46.6287 82.9822 69.9195C68.8622 93.2108 104.243 73.1741 113.471 95.9697C122.698 118.766 51.1744 116.808 62.4137 138.397C73.6529 159.987 89.9964 141.862 97.4322 158.233C109.453 184.702 36.8387 174.885 42.6207 193.748C47.2314 208.79 69.1529 192.509 74.3653 203.715C79.5777 214.922 47.1906 268.155 -6.69839 285.454Z" fill="#F15959" fill-opacity="0.1"/>
<path opacity="0.64" d="M-61.0361 188.837C-60.8061 188.562 -60.5634 188.292 -60.3114 188.026C-58.3506 191.407 -56.0481 195.058 -53.3886 198.788C-43.6206 212.493 -26.9181 230.095 -2.73132 236.445C-0.0723343 222.253 3.75345 207.129 8.7333 191.144C-4.75233 157.666 -20.5124 141.068 -31.3589 133.039C-32.2998 132.344 -33.2168 131.704 -34.1143 131.105C-33.9226 130.793 -33.7298 130.493 -33.5365 130.205C-32.6635 130.789 -31.771 131.412 -30.8561 132.087C-19.9994 140.101 -4.28927 156.573 9.2137 189.601C9.23512 189.534 9.255 189.468 9.27641 189.4C14.4511 173.002 20.8323 155.69 28.3533 137.625C28.2136 136.03 26.8102 120.828 22.7733 103.196C19.8741 90.5322 15.138 74.6696 7.86278 62.3641C8.17386 62.1907 8.48444 62.0412 8.79195 61.9097C16.1003 74.3295 20.8512 90.2328 23.7601 102.936C27.1391 117.698 28.6813 130.77 29.1831 135.643C34.9549 121.887 41.381 107.702 48.4385 93.1499C68.1187 52.5691 88.1534 18.6148 98.7118 1.41968C99.0641 1.51606 99.4069 1.61701 99.7424 1.72104C89.2493 18.7943 69.1162 52.8715 49.3381 93.6537C46.0131 100.512 42.6111 107.744 39.2096 115.266C42.7666 113.62 53.4245 108.901 67.6582 104.527C79.6512 100.843 96.0793 96.8548 113.402 95.8058C113.424 95.8609 113.448 95.9144 113.471 95.9695C113.594 96.2749 113.7 96.5753 113.796 96.8721C96.449 97.8824 79.9678 101.88 67.9555 105.57C51.6656 110.572 40.0882 116.027 38.5298 116.776C31.0195 133.471 23.5367 151.561 16.8974 170.178C39.6119 161.056 78.8163 160.171 98.2375 160.353C98.3507 160.725 98.4445 161.088 98.5221 161.445C79.0305 161.247 38.9454 162.109 16.4104 171.543C7.02644 198.058 -0.603218 225.588 -4.12965 251.629C16.2217 250.033 37.4007 234.753 51.6487 222.131C60.4631 214.324 67.7709 206.559 72.4907 201.243C72.7569 201.462 73.0083 201.706 73.2434 201.975C68.5037 207.315 61.1627 215.117 52.3087 222.96C37.8903 235.734 16.4124 251.211 -4.28059 252.735C-5.74982 263.935 -6.44951 274.852 -6.19248 285.285C-6.36179 285.341 -6.52855 285.4 -6.69786 285.454C-6.69786 285.454 -6.87686 285.289 -7.21395 284.972C-7.5388 270.636 -6.10374 254.773 -2.93173 237.518C-4.50907 237.104 -6.07416 236.643 -7.62599 236.127C-16.6683 233.121 -25.2694 228.372 -33.255 221.966C-40.8418 215.881 -47.8932 208.296 -54.2147 199.423C-56.8253 195.759 -59.0941 192.172 -61.0361 188.837Z" fill="white"/>
<path d="M-16.1154 275.389C-16.1154 275.389 -4.16685 206.029 67.4538 163.648L65.4735 189.48L75.7117 160.329C75.7117 160.329 118.272 137.588 151.878 130.249C151.878 130.249 111.476 202.372 98.1554 215.059L74.552 221.687L94.4428 230.68C94.4428 230.68 72.7916 271.386 36.9555 289.238C1.12 307.088 -16.1154 275.389 -16.1154 275.389Z" fill="#FFD3BA" fill-opacity="0.5"/>
<path d="M183 224.282C173.43 246.308 160.795 262.176 146.651 273.451C138.436 268.082 128.539 261.896 128.539 261.896L136.571 280.581C78.9137 316.617 3.74071 288.097 3.74071 288.097C24.0247 239.29 49.4849 215.039 74.7952 204.667C79.235 210.319 85.7519 218.809 85.7519 218.809L83.0756 201.746C95.7764 197.983 108.292 197.45 119.94 198.779C121.281 207.655 123.018 217.692 123.018 217.692L131.086 200.636C161.094 207.192 183 224.282 183 224.282Z" fill="#FFD3BA" fill-opacity="0.5"/>
<path d="M74.7952 204.667C79.235 210.319 85.7519 218.809 85.7519 218.809L83.0756 201.746C95.7764 197.983 108.292 197.45 119.94 198.779C121.281 207.655 123.018 217.692 123.018 217.692L131.086 200.636C161.094 207.192 183 224.282 183 224.282C118.978 272.994 3.74071 288.097 3.74071 288.097C24.0247 239.29 49.4849 215.039 74.7952 204.667Z" fill="#F15959" fill-opacity="0.1"/>
</svg>
