<svg width="169" height="298" viewBox="0 0 169 298" fill="none" xmlns="http://www.w3.org/2000/svg">
<path d="M188.007 291.094C188.007 291.094 226.377 208.463 180.352 104.812L163.395 133.545L173.887 94.5048C173.887 94.5048 144.73 35.4733 113.86 0C113.86 0 104.178 109.046 109.186 133.363L129.78 159.823L101.648 152.817C101.648 152.817 94.9403 213.411 120.449 261.755C145.957 310.098 188.007 291.094 188.007 291.094Z" fill="#242F46" fill-opacity="0.1"/>
<path d="M4.97752 100.259C2.76701 131.802 7.89198 158.433 17.5784 180.872C30.4592 180.362 45.8046 180.067 45.8046 180.067L25.0324 195.834C70.561 276.024 175.881 294.775 175.881 294.775C181.857 225.508 166.828 180.622 143.527 151.61C134.891 155.011 122.099 160.224 122.099 160.224L135.617 142.656C123.046 129.737 108.727 120.612 94.2882 114.196C87.3147 123.369 79.1739 133.592 79.1739 133.592L80.1158 108.72C41.0129 95.7482 4.97752 100.259 4.97752 100.259Z" fill="#242F46" fill-opacity="0.1"/>
<path d="M143.527 151.61C134.891 155.011 122.099 160.224 122.099 160.224L135.617 142.656C123.046 129.737 108.727 120.612 94.2883 114.196C87.3147 123.369 79.174 133.592 79.174 133.592L80.1159 108.72C41.013 95.7475 4.97797 100.259 4.97797 100.259C50.2372 199.184 175.882 294.775 175.882 294.775C181.857 225.508 166.828 180.623 143.527 151.61Z" fill="#B27AFA" fill-opacity="0.1"/>
<path d="M-4.57764e-05 210.675C18.6653 207.13 35.8192 208.102 51.344 211.964C53.605 219.304 56.4885 228.026 56.4885 228.026L61.8954 215.103C119.553 235.093 151.926 293.447 151.926 293.447C111.159 301.867 80.9728 296.606 58.7499 285.502C59.0866 280.358 59.6918 272.726 59.6918 272.726L51.7473 281.668C41.4136 275.478 33.029 268.022 26.2617 260.301C30.4272 255.681 34.9947 250.323 34.9947 250.323L20.1176 252.664C4.45769 231.435 -4.57764e-05 210.675 -4.57764e-05 210.675Z" fill="#B27AFA" fill-opacity="0.1"/>
<path d="M58.7503 285.502C59.0869 280.358 59.6922 272.726 59.6922 272.726L51.7477 281.668C41.4139 275.478 33.0295 268.022 26.2621 260.301C30.4276 255.681 34.9951 250.323 34.9951 250.323L20.118 252.664C4.45729 231.435 -4.57764e-05 210.675 -4.57764e-05 210.675C68.9532 229.151 151.926 293.447 151.926 293.447C111.159 301.866 80.9732 296.605 58.7503 285.502Z" fill="#242F46" fill-opacity="0.1"/>
</svg>
