<svg width="50" height="50" viewBox="0 0 50 50" fill="none" xmlns="http://www.w3.org/2000/svg">
<g id="retouching">
<rect id="Rectangle 50" width="50" height="50" rx="12" fill="#FDE9E9"/>
<path id="Vector" d="M10.162 42.2419C9.8504 42.0008 9.58944 41.7008 9.39408 41.3589C9.19871 41.017 9.07279 40.64 9.02352 40.2495C8.97424 39.8589 9.00258 39.4625 9.10691 39.083C9.21124 38.7034 9.38951 38.3481 9.63152 38.0373L28.877 13.3633L33.6137 17.0618L14.3778 41.698C13.8863 42.3228 13.1677 42.7286 12.3781 42.8269C11.5886 42.9252 10.7921 42.7082 10.162 42.223V42.2419Z" fill="#F98686"/>
<path id="Vector_2" d="M24.5191 18.8401L28.8769 13.2593L33.6847 16.9909L29.3174 22.5718L24.5191 18.8401Z" fill="#F15959"/>
<path id="Vector_3" d="M30.8333 11.4809C31.5864 11.1877 32.6238 11.1452 33.1591 10.535C33.6943 9.92493 33.6327 8.96483 33.8364 8.21283L34.0354 8C34.3243 8.75673 34.509 9.60805 34.8264 10.3269C34.8264 10.4877 34.9164 10.5729 35.1769 10.6533C35.9537 10.8756 36.8158 11.0127 37.6069 11.235C37.2721 11.4981 36.8699 11.662 36.4464 11.708C35.9479 11.7301 35.4784 11.9476 35.1396 12.3133C34.8008 12.679 34.6202 13.1634 34.6369 13.6613C34.6211 14.0283 34.5189 14.3864 34.3385 14.7065C34.1396 14.0302 33.8648 13.264 33.6517 12.5877C33.6099 12.4716 33.54 12.3677 33.4483 12.2852C33.3566 12.2027 33.2458 12.1441 33.1259 12.1147C32.3165 12.0158 31.5291 11.7841 30.7954 11.4289L30.8333 11.4809Z" fill="#F15959"/>
<path id="Vector_4" d="M28.0339 29.1269C29.1375 28.6539 30.6533 28.5121 31.4538 27.5614C32.2543 26.6108 32.0128 25.2345 32.2827 24.071L32.5148 23.8062C32.9885 24.8987 33.3533 26.1284 33.8317 27.2351C33.8317 27.4905 33.9927 27.604 34.3764 27.708C35.5416 27.9871 36.8348 28.129 38 28.408C37.554 28.805 37.0063 29.0702 36.4179 29.1742C35.6835 29.2415 35.0055 29.5959 34.5317 30.1603C34.0579 30.7246 33.8267 31.4531 33.8885 32.1869C33.8827 32.7266 33.7564 33.2581 33.519 33.7429C33.178 32.7545 32.6996 31.6477 32.3538 30.6735C32.2819 30.499 32.169 30.3444 32.0248 30.2226C31.8805 30.1008 31.7091 30.0153 31.5249 29.9735C30.3233 29.8795 29.1447 29.5937 28.0339 29.1269Z" fill="#F15959"/>
<path id="Vector_5" d="M10.0343 16.7354C11.3416 16.0733 13.17 15.7895 14.0748 14.5835C14.8563 13.5383 14.5863 11.7127 14.8469 10.2702L15.1026 9.92017C15.7658 11.2255 16.2631 12.7011 16.95 14.0018C16.95 14.3045 17.1726 14.4322 17.651 14.5267C19.072 14.7727 20.6541 14.8531 22.0988 15.1085C21.5767 15.6286 20.9211 15.9952 20.2041 16.1679C18.12 16.7827 17.2105 18.003 17.3621 20.0036C17.396 20.6669 17.2811 21.3294 17.0258 21.9427C16.5521 20.7792 15.8605 19.4691 15.3963 18.2915C15.296 18.0876 15.1482 17.9107 14.9652 17.7757C14.7822 17.6408 14.5694 17.5516 14.3448 17.5158C12.8725 17.5435 11.4088 17.2866 10.0343 16.7591V16.7354Z" fill="#F15959"/>
</g>
</svg>
