<svg width="50" height="50" viewBox="0 0 50 50" fill="none" xmlns="http://www.w3.org/2000/svg">
<g id="Group 20">
<rect id="Rectangle 23" width="50" height="50" rx="8" fill="#F6EFFF"/>
<g id="Group">
<path id="Vector" d="M20.9779 12.6034C18.8666 13.7764 16.219 15.251 15.1131 15.8542C9.31543 19.0044 6.70144 20.5124 6.26577 20.9146C5.59552 21.5513 6.13172 22.1211 8.57815 23.3945C9.68407 23.9307 13.8396 26.2431 17.8612 28.4885C21.8827 30.7338 25.301 32.577 25.5021 32.577C25.6696 32.577 29.8252 30.3652 34.6846 27.6842C39.5439 24.9696 43.5989 22.7578 43.7665 22.7578C44.2022 22.7578 45.174 21.4508 44.973 21.1492C44.5373 20.4454 26.1053 10.3581 25.3345 10.3916C25.0664 10.4251 23.0892 11.397 20.9779 12.6034Z" fill="#B27AFA"/>
</g>
<path id="Vector 1" d="M6.5675 26.1914C6.5675 25.4158 7.412 24.9355 8.07858 25.3318L25.1671 35.4925L42.5974 25.312C43.2641 24.9226 44.1017 25.4035 44.1017 26.1755V26.8755C44.1017 27.231 43.913 27.5597 43.6061 27.739L25.1671 38.5087L7.05643 27.7402C6.75329 27.56 6.5675 27.2334 6.5675 26.8807V26.1914Z" fill="#B27AFA" fill-opacity="0.7"/>
</g>
</svg>
