<svg width="50" height="50" viewBox="0 0 50 50" fill="none" xmlns="http://www.w3.org/2000/svg">
<g id="Group">
<rect id="Rectangle 23" width="50" height="50" rx="8" fill="#EFF3FA"/>
<path id="Vector" d="M41.8272 13.0859C41.691 12.9042 41.4639 12.8134 41.2369 12.8134H12.2201C11.766 12.8134 11.4028 13.1767 11.4028 13.6308C11.4028 13.6762 11.4028 13.7216 11.4028 13.767L14.6269 29.8874C14.7177 30.2507 15.0355 30.5232 15.3988 30.5232H15.4896L39.6476 27.2991C40.0108 27.2537 40.2833 26.9812 40.3287 26.6179L41.9635 13.7216C42.0543 13.4946 41.9635 13.2675 41.8272 13.0859Z" fill="#242F46"/>
<path id="Vector_2" d="M34.7887 43.4195C37.0207 43.4195 38.8302 41.6101 38.8302 39.3781C38.8302 37.146 37.0207 35.3366 34.7887 35.3366C32.5567 35.3366 30.7473 37.146 30.7473 39.3781C30.7473 41.6101 32.5567 43.4195 34.7887 43.4195Z" fill="#78797A"/>
<path id="Vector_3" d="M18.6683 43.4195C20.9003 43.4195 22.7097 41.6101 22.7097 39.3781C22.7097 37.146 20.9003 35.3366 18.6683 35.3366C16.4363 35.3366 14.6268 37.146 14.6268 39.3781C14.6268 41.6101 16.4363 43.4195 18.6683 43.4195Z" fill="#78797A"/>
<path id="Vector_4" d="M38.0128 33.7473H19.4403C16.7611 33.7473 14.4452 31.8401 13.9003 29.2063L9.94965 9.58934H5.81737C5.36328 9.58934 5 9.22606 5 8.77196C5 8.31787 5.36328 8 5.81737 8H10.6308C10.9941 8 11.3573 8.27246 11.4028 8.63573L15.4442 28.8884C15.8075 30.7502 17.4876 32.1125 19.3949 32.1125H37.9674C38.4215 32.1125 38.7848 32.4758 38.7848 32.9299C38.7848 33.384 38.4669 33.7473 38.0128 33.7473Z" fill="#78797A"/>
<path id="Vector_5" d="M30.4748 25.9822L18.6683 27.5716L23.3909 18.6259L30.4748 25.9822Z" fill="white"/>
<path id="Vector_6" d="M35.5607 25.3465L26.842 26.4817L30.3386 19.9427L35.5607 25.3465Z" fill="white"/>
<path id="Vector_7" d="M33.8805 16.1283C34.0168 17.0819 33.3356 17.9447 32.4274 18.0355C31.4738 18.1718 30.611 17.4906 30.5202 16.5824C30.4294 15.6742 31.0651 14.766 31.9733 14.6752C31.9733 14.6752 31.9733 14.6752 32.0187 14.6752C32.9269 14.539 33.7897 15.1747 33.8805 16.1283C33.8805 16.0829 33.8805 16.0829 33.8805 16.1283Z" fill="white"/>
</g>
</svg>
