<svg width="50" height="50" viewBox="0 0 50 50" fill="none" xmlns="http://www.w3.org/2000/svg">
<g id="Group 46">
<rect id="Rectangle 120" width="50" height="50" rx="8" fill="#EEF4FF"/>
<path id="Vector" d="M13.5779 19.2516C13.8886 20.0616 14.2846 20.8362 14.759 21.5625C15.7937 23.3747 16.6042 25.306 17.1726 27.3139C17.4083 28.1425 17.4615 29.0123 17.3285 29.8634C17.1955 30.7145 16.8795 31.5266 16.4023 32.2438C15.3656 33.752 14.4058 35.3116 13.5266 36.9168C12.8732 38.2593 12.3239 39.6499 11.8833 41.0764H14.2969C14.5023 40.3574 14.7077 39.6385 14.9644 38.9709C15.9401 36.8141 17.7375 35.5303 19.8943 34.7087C22.3606 33.7382 25.0599 33.5237 27.6485 34.0924C29.3763 34.4914 30.9055 35.4927 31.9621 36.9168C32.9751 38.2087 33.8206 39.6235 34.4783 41.1277H37.6108C36.9921 38.9634 36.0204 36.9161 34.7351 35.0681C33.9648 33.9384 33.1945 32.8086 32.527 31.6789C32.21 31.1804 32.0085 30.6173 31.9375 30.0308C31.8664 29.4443 31.9274 28.8494 32.1161 28.2896C32.8723 26.0057 33.7816 23.7754 34.8378 21.6138C34.9151 21.4463 34.9837 21.2749 35.0432 21.1003C34.6838 21.1516 34.5297 21.5111 34.2216 21.6652C33.0279 22.3368 31.7234 22.789 30.3702 23.0003C28.946 23.2495 27.5023 23.3698 26.0566 23.3598C24.516 23.4111 22.9241 23.4625 21.3835 23.4111C19.7859 23.4047 18.2026 23.109 16.7104 22.5382C16.1823 22.3418 15.7246 21.9929 15.3954 21.5357C15.0662 21.0784 14.8804 20.5336 14.8617 19.9705V19.5084C14.8951 19.2892 14.9732 19.0792 15.0912 18.8914C15.2092 18.7037 15.3645 18.5422 15.5475 18.417C15.7305 18.2918 15.9372 18.2055 16.155 18.1636C16.3727 18.1216 16.5967 18.1249 16.8131 18.1732C17.6861 18.3273 18.5591 18.584 19.3808 18.7894C21.5889 19.3543 23.7457 19.2003 25.9539 18.8408C27.8025 18.5327 29.5999 18.1219 31.4999 17.9164C32.1494 17.8651 32.8018 17.8651 33.4513 17.9164C34.0112 17.9897 34.5213 18.2763 34.8753 18.7163C35.2292 19.1564 35.3998 19.716 35.3513 20.2787C36.327 18.9948 36.5324 17.557 36.327 15.9137C36.0189 13.3974 35.7108 10.8298 35.6081 8.2622L33.554 7.69732C33.528 7.67988 33.4983 7.66863 33.4672 7.66444C33.4361 7.66025 33.4045 7.66323 33.3748 7.67314C33.345 7.68305 33.3179 7.69964 33.2956 7.72164C33.2733 7.74363 33.2563 7.77044 33.2459 7.80003C33.5668 8.88442 33.7395 10.0072 33.7594 11.1379C33.7241 11.7581 33.5487 12.3622 33.2463 12.9048C32.9439 13.4473 32.5223 13.9143 32.0134 14.2704C30.023 15.818 27.6396 16.7785 25.1322 17.0435C24.8241 17.0948 24.516 17.0948 24.1565 17.1462C21.163 17.1955 18.2691 16.0712 16.0942 14.0137C15.7232 13.6715 15.4234 13.2595 15.2119 12.8013C15.0004 12.3431 14.8814 11.8476 14.8617 11.3433C14.7411 10.1799 14.7757 9.00568 14.9644 7.85138C13.8347 7.80003 12.8076 8.21085 11.7292 8.46761C12.506 10.5188 12.9061 12.6933 12.9104 14.8867C12.8646 16.3702 13.0909 17.8496 13.5779 19.2516ZM33.6054 15.2975C33.5026 15.2461 33.5026 15.1948 33.5026 15.1434C33.6567 14.938 33.7081 14.7326 33.9648 14.7326C34.0675 14.7326 34.0675 14.7839 34.0675 14.8867C33.9648 15.0407 33.8621 15.2461 33.6054 15.2975ZM34.2216 11.1893C34.0162 11.1893 34.0162 10.9325 34.0162 10.8298C34.002 10.8032 33.9949 10.7734 33.9957 10.7432C33.9964 10.7131 34.005 10.6837 34.0205 10.6578C34.036 10.632 34.058 10.6106 34.0842 10.5957C34.1104 10.5809 34.1401 10.5731 34.1702 10.5731C34.3756 10.6244 34.3756 10.8298 34.3756 10.9325C34.3756 11.0352 34.3243 11.1893 34.2216 11.1893ZM34.427 11.8569C34.427 11.9596 34.427 12.1136 34.2729 12.1136C34.0162 12.1136 34.1189 11.9082 34.0675 11.7542V11.7028C34.0675 11.6001 34.1189 11.4974 34.2216 11.4974C34.4783 11.6001 34.427 11.7542 34.427 11.8569ZM34.0162 12.8326C34.0675 12.6785 34.0162 12.5244 34.2216 12.4731H34.2729C34.3243 12.4731 34.3756 12.5758 34.3756 12.6272C34.3243 12.7812 34.3756 12.9866 34.1702 13.038C33.9648 13.0893 33.9648 12.9866 34.0162 12.8326ZM34.6324 14.0137C34.5297 14.1677 34.5297 14.3731 34.2729 14.4245C34.1702 14.3731 34.1189 14.3218 34.1702 14.2191C34.2216 14.1164 34.2729 13.8083 34.5297 13.8083C34.6838 13.8083 34.6838 13.911 34.6324 14.0137ZM34.7351 13.4488C34.6324 13.4488 34.581 13.3461 34.581 13.2434C34.581 13.1407 34.581 12.8839 34.7865 12.8326C34.9919 12.7812 34.9919 12.8839 34.9919 12.9866C34.9919 13.192 34.9919 13.3974 34.7351 13.4488ZM35.0946 12.2163C35.0946 12.3704 35.0946 12.5244 34.8892 12.4731C34.6838 12.4217 34.7351 12.2163 34.7351 12.1136C34.7351 12.0109 34.7351 11.8055 34.8892 11.8569C35.0432 11.9082 35.0432 12.1136 35.0946 12.2163ZM34.9405 11.292C34.9547 11.3186 34.9618 11.3484 34.961 11.3786C34.9602 11.4087 34.9517 11.4381 34.9362 11.464C34.9207 11.4898 34.8987 11.5112 34.8725 11.5261C34.8462 11.5409 34.8166 11.5487 34.7865 11.5487C34.581 11.5487 34.581 11.292 34.5297 11.1893C34.4783 11.0866 34.4783 10.9325 34.6324 10.9325C34.9405 10.9325 34.8892 11.1893 34.9405 11.292ZM34.7351 10.3163C34.7351 10.419 34.7351 10.5731 34.581 10.5217C34.427 10.4703 34.427 10.2649 34.3756 10.1109V10.0595C34.3732 10.0387 34.3754 10.0176 34.3823 9.99777C34.3892 9.97795 34.4004 9.95995 34.4153 9.94511C34.4301 9.93028 34.4481 9.91901 34.4679 9.91214C34.4878 9.90528 34.5089 9.903 34.5297 9.90548C34.7351 9.95683 34.6838 10.1622 34.7351 10.3163ZM34.3756 8.92978C34.581 9.03248 34.5297 9.23789 34.5297 9.3406C34.5297 9.4433 34.5297 9.59736 34.3756 9.54601C34.2216 9.49466 34.2216 9.28925 34.2216 9.13519C34.2216 8.98113 34.2216 8.92978 34.3756 8.92978ZM33.8621 9.59736C33.9302 9.61099 33.9901 9.65111 34.0286 9.70889C34.0671 9.76667 34.0811 9.83738 34.0675 9.90548C34.0675 10.0082 34.1702 10.1622 33.9648 10.2136C33.7594 10.2649 33.7594 10.0595 33.7594 9.90548C33.7594 9.75142 33.7081 9.64871 33.8621 9.59736ZM33.9648 13.3974C34.0162 13.3974 34.0675 13.4488 34.0675 13.5515C33.9648 13.7055 33.9648 13.911 33.7081 13.9623C33.6567 13.9623 33.554 13.911 33.554 13.8596C33.6567 13.7055 33.7081 13.4488 33.9648 13.3974ZM32.9891 14.7326C33.0134 14.6331 33.0646 14.5422 33.1371 14.4697C33.2095 14.3973 33.3004 14.3461 33.3999 14.3218C33.5026 14.3218 33.5026 14.3731 33.5026 14.4758C33.3999 14.6299 33.2972 14.8353 33.0918 14.8867C32.9891 14.8867 32.9378 14.8353 32.9891 14.7326ZM33.2459 15.5542C33.1781 15.6928 33.0768 15.8122 32.9513 15.9019C32.8258 15.9915 32.68 16.0485 32.527 16.0678C32.7324 15.6569 32.8351 15.6056 33.2459 15.5542ZM32.1161 15.5542C32.1729 15.4473 32.2532 15.3547 32.3511 15.2836C32.449 15.2124 32.5618 15.1644 32.681 15.1434L32.7324 15.2461C32.5852 15.4549 32.3655 15.6014 32.1161 15.6569C32.0648 15.5542 32.1161 15.5542 32.1161 15.5542ZM32.1675 16.3245C32.0628 16.4549 31.9298 16.5597 31.7785 16.6309C31.6272 16.702 31.4617 16.7378 31.2945 16.7353C31.4027 16.609 31.5364 16.5071 31.6869 16.4363C31.8374 16.3655 32.0012 16.3274 32.1675 16.3245ZM31.7053 15.8623C31.6326 15.9883 31.5277 16.0928 31.4014 16.1649C31.2751 16.2371 31.1319 16.2745 30.9864 16.2732C31.0542 16.1429 31.158 16.0349 31.2855 15.9621C31.413 15.8893 31.5587 15.8546 31.7053 15.8623ZM31.0891 16.8894C30.9753 17.0192 30.8318 17.1197 30.6709 17.1823C30.51 17.2449 30.3364 17.2677 30.1647 17.2489C30.2785 17.119 30.422 17.0185 30.5829 16.956C30.7438 16.8934 30.9175 16.8705 31.0891 16.8894ZM30.6269 16.4786C30.5993 16.5258 30.5818 16.5783 30.5756 16.6326C30.3702 16.7353 30.1647 16.9407 29.908 16.838C29.8566 16.838 29.8566 16.7353 29.8566 16.7353C30.0819 16.5745 30.3502 16.4851 30.6269 16.4786ZM29.8053 17.5056C29.6715 17.6196 29.5162 17.7056 29.3486 17.7585C29.181 17.8114 29.0046 17.8302 28.8296 17.8137C28.942 17.6698 29.0955 17.5633 29.2696 17.5083C29.4438 17.4533 29.6306 17.4524 29.8053 17.5056ZM29.3945 17.0435C29.2879 17.1658 29.1515 17.2585 28.9985 17.3125C28.8456 17.3665 28.6812 17.3799 28.5215 17.3516C28.6253 17.2258 28.7614 17.1307 28.9152 17.0764C29.069 17.0222 29.2347 17.0108 29.3945 17.0435ZM27.4431 18.2246C27.5669 18.0969 27.7232 18.0055 27.8952 17.9603C28.0671 17.915 28.2482 17.9176 28.4188 17.9678C28.1362 18.1706 27.7888 18.262 27.4431 18.2246ZM28.2134 17.5056C27.9507 17.7132 27.6237 17.8222 27.289 17.8137C27.4944 17.5056 27.5971 17.5056 28.2134 17.5056ZM25.9025 18.4813C26.0321 18.3818 26.1842 18.3157 26.3454 18.2888C26.5066 18.262 26.672 18.2752 26.8268 18.3273C26.6972 18.4268 26.5451 18.4929 26.3839 18.5198C26.2227 18.5466 26.0574 18.5334 25.9025 18.4813ZM26.7755 17.8137C26.6492 17.9196 26.4993 17.9936 26.3384 18.0293C26.1775 18.0651 26.0104 18.0616 25.8511 18.0191C25.9817 17.921 26.1317 17.8519 26.2911 17.8164C26.4505 17.781 26.6157 17.7801 26.7755 17.8137ZM25.4403 18.5327C25.2818 18.6333 25.1036 18.6991 24.9177 18.7257C24.7318 18.7522 24.5423 18.7389 24.3619 18.6867C24.5211 18.5876 24.6992 18.5227 24.8849 18.4962C25.0706 18.4696 25.2597 18.4821 25.4403 18.5327ZM22.8214 18.6354C22.9551 18.5551 23.11 18.5171 23.2658 18.5262C23.4215 18.5354 23.5709 18.5913 23.6943 18.6867C23.554 18.7429 23.403 18.7675 23.2521 18.7586C23.1012 18.7497 22.9541 18.7077 22.8214 18.6354ZM23.8998 18.1219C23.7426 18.2347 23.554 18.2954 23.3606 18.2954C23.1671 18.2954 22.9785 18.2347 22.8214 18.1219C23.179 18.0704 23.5421 18.0704 23.8998 18.1219ZM15.9915 16.3759C16.1475 16.3457 16.3092 16.37 16.4494 16.4448C16.5897 16.5196 16.6999 16.6403 16.7618 16.7867C16.351 16.838 16.1969 16.5813 15.9915 16.3759ZM22.3078 18.1219C22.1657 18.1809 22.0108 18.2025 21.8579 18.1845C21.7051 18.1665 21.5594 18.1096 21.4348 18.0191C21.5737 17.9459 21.7314 17.9165 21.8873 17.9349C22.0432 17.9532 22.1898 18.0184 22.3078 18.1219ZM22.1538 18.584C21.9968 18.6557 21.8235 18.6839 21.6519 18.6658C21.4803 18.6478 21.3167 18.5841 21.1781 18.4813C21.3371 18.4192 21.5087 18.3962 21.6784 18.414C21.8482 18.4319 22.0112 18.4902 22.1538 18.584ZM20.9727 17.8651C20.8173 17.8988 20.656 17.8929 20.5034 17.848C20.3509 17.8032 20.2121 17.7208 20.0997 17.6083C20.2551 17.5812 20.4148 17.5902 20.5662 17.6347C20.7176 17.6793 20.8567 17.7581 20.9727 17.8651ZM20.6646 18.2759C20.5139 18.3222 20.3537 18.3275 20.2002 18.2914C20.0468 18.2554 19.9058 18.1791 19.7916 18.0705C19.9431 18.0365 20.1005 18.0373 20.2517 18.0729C20.4029 18.1085 20.5441 18.1779 20.6646 18.2759ZM19.6889 17.5056C19.3189 17.4879 18.9621 17.363 18.6618 17.1462C18.849 17.0898 19.0493 17.0942 19.2338 17.1588C19.4184 17.2233 19.5777 17.3448 19.6889 17.5056ZM19.278 17.9164C18.95 17.9352 18.6251 17.8449 18.3537 17.6597C18.7645 17.5056 18.9186 17.557 19.278 17.9164ZM18.5078 16.8894C18.3278 16.9328 18.139 16.9219 17.9653 16.8579C17.7916 16.7939 17.6408 16.6797 17.5321 16.5299C17.8915 16.4786 18.1483 16.684 18.5078 16.8894ZM17.9429 17.3516C17.6348 17.4543 17.378 17.2489 17.0185 16.9921C17.1904 16.9691 17.3653 16.99 17.527 17.0529C17.6886 17.1157 17.8317 17.2185 17.9429 17.3516ZM16.5564 15.9137C16.6874 15.9199 16.8154 15.9555 16.931 16.0177C17.0465 16.0799 17.1466 16.1672 17.224 16.2732L17.1726 16.3759C16.8645 16.3759 16.7104 16.1705 16.4537 16.0164C16.505 15.9137 16.5564 15.9137 16.5564 15.9137ZM15.6834 15.1434C15.7894 15.1661 15.8877 15.2158 15.9687 15.2878C16.0497 15.3598 16.1106 15.4516 16.1456 15.5542C16.1456 15.6569 16.0942 15.6569 15.9915 15.6569C15.8034 15.5639 15.6438 15.422 15.5293 15.2461C15.5293 15.1434 15.632 15.1434 15.6834 15.1434ZM15.6834 16.0164C15.3239 16.0678 15.1699 15.9137 14.9644 15.6056C15.3753 15.5029 15.478 15.8623 15.6834 16.0164ZM14.9131 14.3218C15.1185 14.3731 15.2212 14.5785 15.3239 14.7326C15.3264 14.7534 15.3241 14.7745 15.3172 14.7944C15.3104 14.8142 15.2991 14.8322 15.2843 14.847C15.2694 14.8618 15.2514 14.8731 15.2316 14.88C15.2118 14.8869 15.1907 14.8891 15.1699 14.8867C15.0717 14.8444 14.984 14.7811 14.913 14.7013C14.842 14.6214 14.7895 14.5269 14.759 14.4245C14.759 14.3731 14.8617 14.3218 14.9131 14.3218ZM14.759 15.1434C14.759 15.2461 14.759 15.2975 14.6563 15.2975C14.3996 15.2461 14.2969 15.0407 14.1942 14.8867C14.1942 14.8353 14.1428 14.8353 14.1942 14.7839C14.2455 14.7326 14.2455 14.6812 14.3482 14.7326C14.4509 14.7839 14.605 14.9894 14.759 15.1434ZM14.6563 13.8083C14.7077 13.9623 14.6563 14.0137 14.5536 14.065C14.3482 14.0137 14.2969 13.8083 14.2455 13.6542C14.1942 13.5001 14.2455 13.4488 14.3482 13.4488C14.605 13.4488 14.5536 13.7055 14.6563 13.8083ZM14.3482 12.7812C14.3482 12.8839 14.3996 13.038 14.2455 13.0893C14.0915 13.1407 14.0401 12.8839 14.0401 12.7812C14.0401 12.6785 13.9374 12.5244 14.1428 12.4731C14.3482 12.4217 14.3482 12.6785 14.3482 12.7812ZM14.0915 12.1136C13.9374 12.0623 13.9374 11.9082 13.9374 11.7542C13.9374 11.6001 13.9374 11.4974 14.0915 11.4974C14.3482 11.4974 14.2455 11.7542 14.2969 11.8569C14.2455 12.0109 14.2969 12.165 14.0915 12.1136ZM14.1942 10.9325C14.1942 11.0866 14.2455 11.2406 14.0401 11.1893C13.8347 11.1379 13.886 10.9839 13.886 10.8812C13.886 10.7785 13.8347 10.5731 14.0401 10.6244C14.1942 10.5731 14.1942 10.7785 14.1942 10.9325ZM13.8347 9.90548C13.8347 9.80277 13.8347 9.64871 13.9888 9.64871C14.1428 9.64871 14.1428 9.85412 14.1428 10.0082C14.1428 10.1622 14.1428 10.2649 13.9374 10.2649C13.732 10.2649 13.8347 10.0082 13.8347 9.90548ZM13.732 13.8083C13.9374 13.8596 13.9888 14.1164 14.0401 14.2191V14.3218C14.0401 14.3731 13.9888 14.4245 13.886 14.4245C13.6806 14.3731 13.6293 14.1677 13.5779 14.0137C13.5266 13.8596 13.6293 13.8083 13.732 13.8083ZM13.732 13.192C13.732 13.2947 13.7833 13.4488 13.5779 13.4488C13.3725 13.4488 13.3725 13.192 13.3725 13.0893C13.3725 12.9866 13.3725 12.8326 13.4752 12.8326C13.732 12.8326 13.6806 13.038 13.732 13.192ZM13.4752 12.4731C13.2698 12.4731 13.2698 12.319 13.2698 12.165C13.2698 12.0109 13.2698 11.8569 13.4239 11.8569C13.5779 11.8569 13.5779 12.0623 13.5779 12.165C13.5779 12.319 13.6293 12.4731 13.4752 12.4731ZM13.3725 11.4974C13.1671 11.4974 13.1671 11.292 13.1671 11.1893C13.1671 11.0866 13.1671 10.8812 13.3212 10.8812C13.4752 10.8812 13.5266 11.0866 13.5266 11.2406C13.5266 11.3947 13.5266 11.4974 13.3725 11.4974ZM13.1671 9.23789C13.1671 9.08384 13.1671 8.98113 13.3212 8.92978C13.5266 8.98113 13.4752 9.13519 13.4752 9.28925C13.4752 9.4433 13.4239 9.59736 13.2698 9.54601C13.1158 9.49466 13.1671 9.39195 13.1671 9.23789ZM13.3212 9.90548C13.5266 9.90548 13.5266 10.0595 13.5266 10.2136C13.5266 10.3676 13.5779 10.4703 13.3725 10.5217C13.1671 10.5731 13.1671 10.3676 13.1671 10.2136C13.1671 10.0595 13.1158 9.90548 13.3212 9.90548Z" fill="#377DFF"/>
<path id="Vector_2" d="M34.4784 41.0765C33.8201 39.5885 32.9745 38.1907 31.9621 36.9169C30.9055 35.4928 29.3763 34.4915 27.6485 34.0926C25.0599 33.5238 22.3606 33.7383 19.8943 34.7088C17.7888 35.5818 15.9915 36.8142 14.9645 38.971C14.7077 39.69 14.5023 40.3576 14.2969 41.0765H34.4784Z" fill="#379DFF"/>
<path id="Vector_3" d="M34.7351 35.0681C36.0299 36.9106 37.0023 38.9596 37.6108 41.1277H41.0001C40.5644 39.0178 39.6896 37.0232 38.4325 35.2735C37.5595 34.0411 36.7378 32.7573 35.8135 31.5762C34.6324 30.087 34.4783 28.4437 34.9405 26.6463C35.5567 24.0274 36.8405 21.6652 38.2784 19.4057C38.3736 19.2836 38.4412 19.1423 38.4767 18.9917C38.5121 18.841 38.5146 18.6844 38.4838 18.5327C38.2585 17.6538 38.087 16.7621 37.9703 15.8623C37.7135 14.2191 37.1487 12.6785 37.2514 11.0352C37.3027 10.4703 37.3027 9.90547 37.3541 9.3406C37.3541 9.08384 37.3027 8.98113 37.0973 8.92978C36.5838 8.82707 36.0703 8.72437 35.5567 8.57031C35.7108 11.1379 35.9676 13.6542 36.2757 16.2218C36.4811 17.8137 36.327 19.2516 35.3 20.5868L35.0432 20.9976L34.9405 21.1003C34.8945 21.2796 34.8254 21.4522 34.7351 21.6138C33.6917 23.7811 32.7828 26.0106 32.0134 28.2896C31.8372 28.8513 31.7828 29.4441 31.8536 30.0285C31.9244 30.6129 32.119 31.1755 32.4242 31.6789L34.7351 35.0681Z" fill="url(#paint0_linear_151_14694)"/>
<path id="Vector_4" d="M24.0539 12.6785C24.0025 9.80282 24.0025 6.87573 24.0025 4H20.4592C20.3052 5.54057 19.3295 6.56762 17.8916 7.18385C16.928 7.54243 15.9299 7.80056 14.9132 7.95413C14.7003 9.10599 14.6657 10.2837 14.8105 11.4461C14.8622 12.4617 15.3036 13.4182 16.0429 14.1164C18.2327 16.1831 21.1461 17.3079 24.1566 17.2489C24.1566 15.811 24.1566 14.3732 24.1053 12.9353V12.6785H24.0539Z" fill="#C2C2C6"/>
<path id="Vector_5" d="M11.4211 12.7813C11.2671 14.9381 11.0617 17.0949 10.8563 19.2004C10.959 19.5598 10.7022 19.9193 11.113 20.2274C12.2978 21.2768 13.2586 22.5545 13.9381 23.9839C14.6175 25.4133 15.0015 26.9652 15.0671 28.5465C15.1312 30.4783 14.472 32.3645 13.2185 33.8358C11.4272 36.021 10.0048 38.4841 9.00757 41.1278H11.8833C12.3416 39.7076 12.8905 38.3183 13.5266 36.9683C14.4057 35.3631 15.3656 33.8034 16.4023 32.2952C16.8776 31.5772 17.1925 30.7651 17.3254 29.9144C17.4584 29.0636 17.4062 28.1942 17.1726 27.3654C16.6042 25.3575 15.7937 23.4262 14.759 21.6139C14.2947 20.8818 13.8993 20.1082 13.5779 19.3031C13.1109 17.9301 12.8682 16.491 12.859 15.0408C12.8624 12.842 12.444 10.663 11.6265 8.62177C11.2762 8.61354 10.933 8.72192 10.6508 8.92989C11.0103 10.1623 11.5752 11.3948 11.4211 12.7813Z" fill="url(#paint1_linear_151_14694)"/>
<path id="Vector_6" d="M24.1052 17.3002V12.9866C27.4431 12.7812 30.0621 11.1379 32.3216 8.82709C32.6297 8.51898 32.8865 8.21086 33.1432 7.9541C33.4641 9.03849 33.6369 10.1613 33.6568 11.292C33.6215 11.9122 33.446 12.5163 33.1436 13.0588C32.8412 13.6014 32.4197 14.0683 31.9108 14.4245C29.9203 15.9721 27.5369 16.9326 25.0296 17.1975C24.7292 17.2822 24.4169 17.3169 24.1052 17.3002Z" fill="black"/>
<path id="Vector_7" d="M10.7022 8.87854C11.0616 10.1623 11.5752 11.3948 11.4725 12.73C11.3184 14.8868 11.113 17.0436 10.9076 19.149C9.71285 17.6866 8.64755 16.123 7.72374 14.4759C7.42618 13.9255 7.20176 13.3385 7.05616 12.73C6.95192 12.2332 6.99339 11.717 7.17559 11.2432C7.3578 10.7695 7.67297 10.3585 8.08321 10.0596C8.88357 9.52147 9.76898 9.12217 10.7022 8.87854Z" fill="#C2C2C6"/>
<path id="Vector_8" d="M35.2998 20.4327L35.043 20.9976L34.9403 21.1003C34.5808 21.1516 34.4268 21.5111 34.1187 21.6652C32.9249 22.3368 31.6205 22.789 30.2672 23.0003C28.8397 23.222 27.3982 23.3421 25.9536 23.3598C24.4131 23.4111 22.8211 23.4625 21.2806 23.4111C19.683 23.4047 18.0997 23.1089 16.6075 22.5381C16.0794 22.3418 15.6217 21.9929 15.2925 21.5356C14.9633 21.0784 14.7775 20.5336 14.7588 19.9705C14.7248 19.5279 14.868 19.0899 15.1569 18.7528C15.4458 18.4158 15.8568 18.2073 16.2994 18.1732H16.7616C17.6346 18.3272 18.5075 18.584 19.3292 18.7894C21.5373 19.3543 23.6941 19.2002 25.9023 18.8408C27.751 18.5327 29.5483 18.1218 31.4483 17.9164C32.0985 17.8559 32.7536 17.8732 33.3997 17.9678C33.9613 18.0787 34.4636 18.3897 34.8131 18.8431C35.1625 19.2965 35.3355 19.8614 35.2998 20.4327Z" fill="#379DFF"/>
<path id="Vector_9" d="M19.2781 17.9165C18.9501 17.9352 18.6251 17.845 18.3538 17.6598C18.7646 17.5057 18.9186 17.5571 19.2781 17.9165Z" fill="#BCC9BE"/>
<path id="Vector_10" d="M34.7351 10.3164C34.7351 10.4191 34.7351 10.5731 34.581 10.5218C34.3243 10.4704 34.427 10.265 34.3756 10.111C34.3243 10.0596 34.3756 9.95691 34.4783 9.95691H34.5297C34.7351 9.95691 34.6837 10.1623 34.7351 10.3164Z" fill="#BECED0"/>
<path id="Vector_11" d="M13.5268 11.2407C13.5268 11.3947 13.5268 11.5488 13.3213 11.4975C13.1159 11.4461 13.1673 11.292 13.1159 11.1893C13.0646 11.0866 13.1159 10.8812 13.27 10.8812C13.5268 10.8812 13.5268 11.0866 13.5268 11.2407Z" fill="#BCC9BE"/>
<path id="Vector_12" d="M25.4405 18.5326C25.2819 18.6333 25.1037 18.6991 24.9178 18.7256C24.7319 18.7522 24.5425 18.7389 24.3621 18.6867C24.5213 18.5875 24.6994 18.5226 24.885 18.4961C25.0707 18.4696 25.2599 18.482 25.4405 18.5326Z" fill="#BECCC7"/>
<path id="Vector_13" d="M14.2454 13.0894C14.04 13.0894 14.04 12.9353 14.04 12.7812C14.04 12.6272 13.9886 12.5245 14.1427 12.4731C14.2967 12.4218 14.3481 12.6272 14.3481 12.7812C14.3481 12.9353 14.3994 13.038 14.2454 13.0894Z" fill="#BFD0D6"/>
<path id="Vector_14" d="M13.9889 9.59741C14.1944 9.64876 14.143 9.80282 14.143 9.95688C14.143 10.1109 14.143 10.2136 13.9376 10.2136C13.7322 10.2136 13.7835 10.0082 13.7835 9.90553C13.7814 9.83916 13.8 9.77378 13.8368 9.71854C13.8737 9.66329 13.9269 9.62094 13.9889 9.59741Z" fill="#BCC9BE"/>
<path id="Vector_15" d="M14.1941 10.9326C14.1941 11.0866 14.1941 11.2407 14.04 11.1893C13.886 11.138 13.886 10.9839 13.886 10.8812C13.886 10.7785 13.886 10.5731 14.04 10.6244C14.1941 10.6758 14.1941 10.7785 14.1941 10.9326Z" fill="#BECCC7"/>
<path id="Vector_16" d="M25.9023 18.4813C26.032 18.3818 26.1841 18.3157 26.3453 18.2888C26.5065 18.262 26.6718 18.2752 26.8267 18.3273C26.6971 18.4268 26.545 18.4929 26.3838 18.5198C26.2226 18.5466 26.0572 18.5334 25.9023 18.4813Z" fill="#BECCC7"/>
<path id="Vector_17" d="M27.3918 18.2246C27.5156 18.097 27.672 18.0056 27.8439 17.9603C28.0159 17.9151 28.197 17.9177 28.3675 17.9679C28.2305 18.0741 28.0735 18.1516 27.9059 18.1957C27.7382 18.2398 27.5634 18.2496 27.3918 18.2246Z" fill="#BECCC7"/>
<path id="Vector_18" d="M22.2052 18.5841C22.0482 18.6557 21.8749 18.684 21.7033 18.6659C21.5317 18.6479 21.3681 18.5841 21.2295 18.4814C21.389 18.4222 21.5601 18.4006 21.7294 18.4184C21.8986 18.4362 22.0615 18.4929 22.2052 18.5841Z" fill="#BECCC7"/>
<path id="Vector_19" d="M14.7591 15.1435C14.7591 15.2462 14.7591 15.2975 14.6563 15.2975C14.3996 15.2462 14.2969 15.0408 14.1942 14.8867C14.1824 14.8776 14.173 14.8659 14.1664 14.8526C14.1599 14.8392 14.1565 14.8246 14.1565 14.8097C14.1565 14.7948 14.1599 14.7802 14.1664 14.7668C14.173 14.7535 14.1824 14.7418 14.1942 14.7327C14.2455 14.7327 14.2455 14.6813 14.2969 14.7327C14.5023 14.784 14.605 14.9894 14.7591 15.1435Z" fill="#C0D3DE"/>
<path id="Vector_20" d="M31.2944 16.7354C31.3991 16.605 31.5321 16.5003 31.6834 16.4291C31.8347 16.3579 32.0002 16.3221 32.1674 16.3246C32.0627 16.455 31.9297 16.5597 31.7784 16.6309C31.6271 16.7021 31.4616 16.7378 31.2944 16.7354Z" fill="#BFD0D6"/>
<path id="Vector_21" d="M34.0674 14.8867C33.9133 15.0408 33.8106 15.2975 33.5539 15.2975C33.5274 15.2952 33.5026 15.2837 33.4838 15.2649C33.465 15.2461 33.4535 15.2213 33.4512 15.1948V15.1435C33.5539 14.9381 33.6566 14.7327 33.9133 14.7327C34.0674 14.6813 34.0674 14.784 34.0674 14.8867Z" fill="#BECCC7"/>
<path id="Vector_22" d="M15.9915 16.3759C16.1475 16.3457 16.3092 16.3701 16.4494 16.4448C16.5896 16.5196 16.6999 16.6403 16.7617 16.7867C16.3509 16.8381 16.1969 16.5813 15.9915 16.3759Z" fill="#BECCC7"/>
<path id="Vector_23" d="M17.0186 16.9922C17.1909 16.9568 17.3698 16.9719 17.5337 17.0357C17.6977 17.0994 17.8398 17.2091 17.9429 17.3517C17.6348 17.4544 17.378 17.249 17.0186 16.9922Z" fill="#BECCC7"/>
<path id="Vector_24" d="M29.8053 17.5057C29.6715 17.6197 29.5162 17.7056 29.3486 17.7586C29.1811 17.8115 29.0046 17.8303 28.8296 17.8138C28.942 17.6699 29.0955 17.5634 29.2696 17.5084C29.4438 17.4534 29.6306 17.4524 29.8053 17.5057Z" fill="#BECED0"/>
<path id="Vector_25" d="M21.4861 17.9679C21.6301 17.9193 21.7832 17.9033 21.9341 17.9211C22.0851 17.9389 22.2302 17.9899 22.3591 18.0706C22.2206 18.1452 22.0626 18.1755 21.9064 18.1571C21.7501 18.1387 21.6034 18.0726 21.4861 17.9679Z" fill="#BCC9BE"/>
<path id="Vector_26" d="M20.7158 18.276C20.5651 18.3223 20.4049 18.3276 20.2514 18.2915C20.098 18.2554 19.957 18.1792 19.8428 18.0706C19.9945 18.0398 20.1511 18.0423 20.3018 18.0777C20.4524 18.1132 20.5937 18.1808 20.7158 18.276Z" fill="#BECCC7"/>
<path id="Vector_27" d="M13.321 8.92981C13.5264 8.98116 13.475 9.13522 13.475 9.28928C13.475 9.44333 13.475 9.59739 13.2696 9.54604C13.0642 9.49469 13.1156 9.39198 13.1156 9.23792C13.107 9.17044 13.123 9.10211 13.1607 9.04551C13.1985 8.9889 13.2554 8.94782 13.321 8.92981Z" fill="#BECED0"/>
<path id="Vector_28" d="M34.3243 10.9325C34.3243 11.0865 34.3243 11.1892 34.1703 11.1892C34.0162 11.1892 33.9648 10.9838 33.9648 10.8298C33.9648 10.6757 33.9648 10.573 34.1189 10.573C34.273 10.573 34.273 10.8298 34.3243 10.9325Z" fill="#BECCC7"/>
<path id="Vector_29" d="M34.9403 11.292C34.9917 11.4461 34.9403 11.5488 34.7863 11.5488C34.6322 11.5488 34.5808 11.3434 34.5295 11.1893C34.4781 11.0353 34.4781 10.9326 34.6322 10.9326C34.9403 10.8812 34.889 11.138 34.9403 11.292Z" fill="#BFD0D6"/>
<path id="Vector_30" d="M34.273 14.4245C34.1703 14.3731 34.1189 14.3218 34.1703 14.219C34.2216 14.1163 34.273 13.8082 34.5298 13.8082C34.6325 13.8082 34.6838 13.9109 34.6325 14.0136C34.5811 14.1163 34.5298 14.3731 34.273 14.4245Z" fill="#BFD0D6"/>
<path id="Vector_31" d="M31.0891 16.9408C30.9682 17.0612 30.8236 17.1553 30.6645 17.2172C30.5055 17.279 30.3353 17.3073 30.1648 17.3003C30.2737 17.1644 30.4165 17.0597 30.5788 16.9966C30.741 16.9335 30.9171 16.9142 31.0891 16.9408Z" fill="#BFD0D6"/>
<path id="Vector_32" d="M29.3945 17.0948C29.1514 17.3016 28.8405 17.4114 28.5215 17.4029C28.6121 17.2619 28.7471 17.1551 28.9052 17.0993C29.0633 17.0435 29.2354 17.0419 29.3945 17.0948Z" fill="#BFD0D6"/>
<path id="Vector_33" d="M19.6889 17.5057C19.319 17.488 18.9621 17.3631 18.6619 17.1462C18.8495 17.1039 19.0453 17.1152 19.2269 17.1788C19.4085 17.2423 19.5686 17.3556 19.6889 17.5057Z" fill="#BCC9BE"/>
<path id="Vector_34" d="M18.5077 16.9408C18.3278 16.9731 18.1425 16.9569 17.971 16.8937C17.7995 16.8305 17.6479 16.7227 17.532 16.5813C17.9428 16.4786 18.1482 16.684 18.5077 16.9408Z" fill="#BECCC7"/>
<path id="Vector_35" d="M34.3757 8.9812C34.5811 9.03255 34.5298 9.23796 34.5298 9.39202C34.5298 9.54608 34.5298 9.64878 34.3757 9.59743C34.2217 9.54608 34.2217 9.34067 34.2217 9.18661C34.2217 9.03255 34.273 8.9812 34.3757 8.9812Z" fill="#C0D3DE"/>
<path id="Vector_36" d="M33.9133 9.6488C34.1187 9.6488 34.1187 9.80286 34.1187 9.95692C34.1187 10.111 34.1701 10.2137 34.016 10.265C33.8619 10.3164 33.8106 10.111 33.8106 9.95692C33.8106 9.80286 33.7079 9.70016 33.9133 9.6488Z" fill="#BECED0"/>
<path id="Vector_37" d="M34.0674 13.5515C33.9647 13.7056 33.9647 13.911 33.7593 14.0137C33.7079 14.0137 33.6052 13.9623 33.6052 13.911C33.6566 13.7056 33.7079 13.5002 33.9647 13.4488C34.016 13.3975 34.0674 13.5002 34.0674 13.5515Z" fill="#BFD0D6"/>
<path id="Vector_38" d="M13.7319 13.8082C13.9373 13.8596 13.9887 14.065 14.04 14.219C14.0914 14.2704 14.04 14.3217 13.9887 14.3731H13.886C13.6806 14.3217 13.6292 14.1163 13.5779 13.9623C13.5754 13.9415 13.5777 13.9203 13.5845 13.9005C13.5914 13.8807 13.6027 13.8627 13.6175 13.8479C13.6323 13.833 13.6503 13.8218 13.6702 13.8149C13.69 13.808 13.7111 13.8057 13.7319 13.8082Z" fill="#C0D3DE"/>
<path id="Vector_39" d="M33.2458 15.6056C33.1698 15.7377 33.0662 15.852 32.9422 15.9406C32.8182 16.0292 32.6765 16.0901 32.5269 16.1191C32.7323 15.6569 32.835 15.6056 33.2458 15.6056Z" fill="#BECED0"/>
<path id="Vector_40" d="M25.8511 18.0192C25.9774 17.9133 26.1273 17.8394 26.2882 17.8036C26.449 17.7679 26.6162 17.7714 26.7754 17.8138C26.6561 17.9312 26.5061 18.0127 26.3427 18.049C26.1793 18.0853 26.0089 18.075 25.8511 18.0192Z" fill="#BCC9BE"/>
<path id="Vector_41" d="M34.1702 13.0894C34.0161 13.0894 34.0161 12.9867 34.0161 12.8326C34.0161 12.6786 34.0161 12.4731 34.2215 12.4731C34.2729 12.4731 34.3756 12.5245 34.3756 12.5758V12.6272C34.3242 12.8326 34.3756 13.038 34.1702 13.0894Z" fill="#BECCC7"/>
<path id="Vector_42" d="M13.732 13.192C13.732 13.2947 13.7834 13.5001 13.578 13.4487C13.3726 13.3974 13.3726 13.2433 13.3726 13.0893C13.3726 12.9352 13.3726 12.8325 13.4753 12.8325C13.732 12.8325 13.6807 13.0379 13.732 13.192Z" fill="#BFD0D6"/>
<path id="Vector_43" d="M15.9915 15.657C15.8034 15.5639 15.6438 15.422 15.5293 15.2461C15.5293 15.1948 15.632 15.1434 15.6834 15.1434C15.7893 15.1661 15.8876 15.2158 15.9687 15.2878C16.0497 15.3599 16.1106 15.4516 16.1455 15.5543C16.1969 15.657 16.0942 15.657 15.9915 15.657Z" fill="#BECCC7"/>
<path id="Vector_44" d="M30.6268 16.4786C30.5755 16.5813 30.5755 16.6327 30.5241 16.6327C30.3187 16.7354 30.1133 16.9408 29.8565 16.8381L29.8052 16.7354C30.0491 16.5735 30.3341 16.4844 30.6268 16.4786Z" fill="#BECED0"/>
<path id="Vector_45" d="M33.5027 14.4759C33.4 14.6299 33.2973 14.8353 33.0918 14.8867C32.9891 14.8867 32.9378 14.8353 32.9891 14.784C33.0135 14.6845 33.0646 14.5935 33.1371 14.5211C33.2095 14.4487 33.3004 14.3975 33.4 14.3732C33.4513 14.3218 33.5027 14.3732 33.5027 14.4759Z" fill="#BFD0D6"/>
<path id="Vector_46" d="M15.3239 14.7326C15.3264 14.7534 15.3241 14.7745 15.3172 14.7944C15.3104 14.8142 15.2991 14.8322 15.2843 14.847C15.2694 14.8618 15.2514 14.8731 15.2316 14.88C15.2118 14.8868 15.1907 14.8891 15.1698 14.8867C15.0743 14.8546 14.9874 14.8008 14.9162 14.7295C14.8449 14.6582 14.7911 14.5714 14.759 14.4758C14.7077 14.4245 14.8104 14.3218 14.9131 14.3731C15.1185 14.3731 15.2212 14.5785 15.3239 14.7326Z" fill="#BFD0D6"/>
<path id="Vector_47" d="M15.6318 16.0165C15.2723 16.0679 15.1183 15.8625 14.9128 15.6057C15.375 15.503 15.4777 15.8625 15.6318 16.0165Z" fill="#BFD0D6"/>
<path id="Vector_48" d="M16.4023 15.9651C16.505 15.8624 16.505 15.8624 16.5564 15.8624C16.6875 15.8687 16.8155 15.9042 16.931 15.9664C17.0465 16.0286 17.1466 16.1159 17.224 16.2219L17.1726 16.3246C16.8872 16.2794 16.6203 16.1548 16.4023 15.9651Z" fill="#BECCC7"/>
<path id="Vector_49" d="M14.6561 13.8083C14.7074 13.9623 14.6561 14.065 14.5534 14.0137C14.3479 13.9623 14.2966 13.7569 14.2452 13.6029C14.1939 13.4488 14.2452 13.3975 14.3479 13.3975C14.6047 13.4488 14.5534 13.7056 14.6561 13.8083Z" fill="#BFD0D6"/>
<path id="Vector_50" d="M14.2456 11.9082C14.2456 12.0622 14.2456 12.1649 14.0916 12.1649C13.9375 12.1649 13.9375 11.9595 13.9375 11.8055C13.9375 11.6514 13.9375 11.5487 14.0916 11.5487C14.2456 11.5487 14.1943 11.7541 14.2456 11.9082Z" fill="#BFD0D6"/>
<path id="Vector_51" d="M13.5781 12.2164C13.5781 12.3191 13.6294 12.4732 13.424 12.4732C13.2186 12.4732 13.2186 12.3191 13.2186 12.165C13.2186 12.011 13.1672 11.8569 13.3727 11.8569C13.5781 11.8569 13.5781 12.0623 13.5781 12.2164Z" fill="#BECED0"/>
<path id="Vector_52" d="M20.9726 17.8651C20.8172 17.8987 20.6559 17.8929 20.5034 17.848C20.3508 17.8032 20.212 17.7207 20.0996 17.6083C20.2551 17.5831 20.4142 17.5931 20.5653 17.6375C20.7164 17.6819 20.8556 17.7597 20.9726 17.8651Z" fill="#BECED0"/>
<path id="Vector_53" d="M28.2132 17.5058C27.9465 17.7058 27.6222 17.8139 27.2888 17.8139C27.4942 17.5058 27.5969 17.4544 28.2132 17.5058Z" fill="#BECED0"/>
<path id="Vector_54" d="M31.7055 15.8624C31.6328 15.9884 31.5279 16.0928 31.4016 16.165C31.2753 16.2372 31.132 16.2745 30.9866 16.2732C31.0544 16.143 31.1582 16.035 31.2857 15.9621C31.4131 15.8893 31.5589 15.8547 31.7055 15.8624Z" fill="#BFD0D6"/>
<path id="Vector_55" d="M34.7865 12.8839C34.9405 12.8839 34.9919 12.9353 34.9919 13.038C34.9919 13.2434 34.9919 13.4488 34.7351 13.5001C34.6324 13.5001 34.5811 13.3974 34.5811 13.2947C34.5811 13.192 34.6324 12.9353 34.7865 12.8839Z" fill="#BFD0D6"/>
<path id="Vector_56" d="M35.0944 12.2164C35.0944 12.3705 35.0944 12.5245 34.889 12.4732C34.6836 12.4218 34.735 12.2678 34.735 12.1137C34.735 11.9596 34.735 11.8569 34.889 11.8569C35.0431 11.8569 35.0431 12.1137 35.0944 12.2164Z" fill="#C0D3DE"/>
<path id="Vector_57" d="M32.0647 15.7083V15.5543C32.1214 15.4473 32.2018 15.3548 32.2997 15.2836C32.3975 15.2124 32.5104 15.1645 32.6296 15.1434L32.6809 15.2461C32.5341 15.4659 32.3167 15.6289 32.0647 15.7083Z" fill="#BFD0D6"/>
<path id="Vector_58" d="M22.8213 18.6354C22.9551 18.5551 23.11 18.5171 23.2657 18.5262C23.4215 18.5354 23.5708 18.5913 23.6943 18.6867C23.554 18.7429 23.403 18.7675 23.252 18.7586C23.1011 18.7497 22.9541 18.7076 22.8213 18.6354Z" fill="#BECED0"/>
<path id="Vector_59" d="M22.77 18.1732C23.1221 18.0705 23.4963 18.0705 23.8484 18.1732C23.6826 18.2622 23.4974 18.3088 23.3092 18.3088C23.1211 18.3088 22.9358 18.2622 22.77 18.1732Z" fill="#BECED0"/>
<path id="Vector_60" d="M34.2729 11.5487C34.4783 11.6001 34.4269 11.7541 34.4269 11.9082C34.4269 12.0622 34.4269 12.1649 34.2729 12.1649C34.0161 12.1649 34.1188 11.9595 34.0675 11.8055C34.0566 11.782 34.0506 11.7565 34.0499 11.7306C34.0492 11.7047 34.0538 11.679 34.0634 11.6549C34.073 11.6309 34.0874 11.609 34.1058 11.5908C34.1242 11.5725 34.1461 11.5582 34.1702 11.5487H34.2729Z" fill="#BECED0"/>
<path id="Vector_61" d="M13.4754 10.2136C13.4754 10.3163 13.4754 10.4704 13.3213 10.5217C13.1673 10.5731 13.1673 10.3677 13.1159 10.2136C13.0646 10.0596 13.1159 9.90552 13.27 9.90552C13.4241 9.90552 13.4754 10.1109 13.4754 10.2136Z" fill="#C0D3DE"/>
<path id="Vector_62" d="M34.9917 21.1004L35.0944 20.9977L34.9917 21.1004Z" fill="#A78D08"/>
</g>
<defs>
<linearGradient id="paint0_linear_151_14694" x1="31.9004" y1="24.849" x2="41.9398" y2="24.849" gradientUnits="userSpaceOnUse">
<stop stop-color="#377DFF"/>
<stop offset="1" stop-color="#3744FF"/>
</linearGradient>
<linearGradient id="paint1_linear_151_14694" x1="7.28726" y1="24.8748" x2="17.3985" y2="24.8748" gradientUnits="userSpaceOnUse">
<stop stop-color="#377DFF"/>
<stop offset="1" stop-color="#3744FF"/>
</linearGradient>
</defs>
</svg>
