<svg width="71" height="49" viewBox="0 0 71 49" fill="none" xmlns="http://www.w3.org/2000/svg">
<g id="Group">
<g id="Group 95">
<g id="Group_2">
<g id="Group_3">
<path id="Vector" d="M12.5607 29.9043C24.9683 30.0422 37.3759 30.18 49.7836 30.3179C53.1872 30.3564 56.6336 30.3901 59.9445 29.595C63.2554 28.7998 66.4704 27.0775 68.379 24.258C70.2876 21.437 70.6052 17.4163 68.576 14.6822C66.9414 12.4798 64.0481 11.427 61.3124 11.6051C58.5783 11.7831 57.5255 12.4527 55.3822 14.1628C55.8696 12.6037 56.2028 11.7602 56.0715 9.89176C55.9402 8.025 55.0105 6.28296 53.7846 4.8675C50.5713 1.15777 45.1367 -0.457899 40.4202 0.894376C35.7036 2.24665 31.9504 6.49548 31.1906 11.3433C29.9425 6.53569 23.895 3.82869 19.2942 5.7053C14.695 7.58191 12.2268 13.2716 13.5454 18.062C12.4623 15.9869 9.83401 15.0087 7.53727 15.4609C5.24218 15.9146 3.31552 17.5746 2.09453 19.5719C1.4266 20.6665 0.929348 21.9342 1.07705 23.2102C1.32075 25.3133 3.20721 26.8289 5.09448 27.7873C8.08951 29.3094 11.4661 29.8928 12.5607 29.9043Z" fill="#FFF0F0"/>
<path id="Vector_2" d="M51.9407 30.7467C51.2162 30.7467 50.4949 30.7385 49.7785 30.7303L12.5573 30.3151C11.4692 30.3036 8.03279 29.7432 4.90811 28.1546C3.12751 27.2487 0.946448 25.6642 0.667459 23.255C0.529606 22.0611 0.891462 20.7499 1.74484 19.3541C3.14717 17.0623 5.22894 15.4951 7.46003 15.0561C9.44085 14.6647 11.4775 15.2481 12.8371 16.4855C12.3743 11.8633 15.0042 7.01051 19.1406 5.32181C21.5252 4.34863 24.4423 4.5185 26.9458 5.77395C28.8191 6.71348 30.2731 8.1634 31.0887 9.86851C32.3081 5.44325 35.866 1.77045 40.3085 0.496127C45.2146 -0.909485 50.7558 0.738192 54.0979 4.59562C55.0998 5.75261 56.3258 7.60378 56.4858 9.86195C56.5834 11.2454 56.4357 12.0963 56.1649 13.0367C57.7708 11.8493 58.9343 11.3455 61.2884 11.1921C64.359 10.9935 67.2761 12.235 68.9073 14.4357C70.9136 17.1378 70.8356 21.3653 68.721 24.4875C66.9371 27.124 63.8535 29.0794 60.0412 29.9943C57.3769 30.6343 54.6379 30.7467 51.9407 30.7467ZM12.5655 29.4921L49.7884 29.9057C53.1223 29.9442 56.5678 29.9811 59.8484 29.1942C63.4604 28.3269 66.3694 26.4921 68.0375 24.0256C69.9609 21.184 70.0487 17.3585 68.2443 14.9272C66.778 12.9497 64.1284 11.8337 61.3401 12.0167C58.7357 12.1866 57.7617 12.7922 55.6398 14.485C55.4986 14.599 55.2984 14.6048 55.1491 14.5022C54.9997 14.4013 54.9341 14.2117 54.989 14.0394L55.108 13.6644C55.5249 12.3482 55.776 11.5556 55.6628 9.92021C55.5183 7.88933 54.3933 6.19735 53.4735 5.13637C50.3866 1.57187 45.0677 -0.00933887 40.535 1.2896C36.0022 2.58854 32.3278 6.74958 31.5983 11.4071C31.5679 11.5991 31.4063 11.7451 31.2102 11.755C31.0214 11.7681 30.8417 11.636 30.7917 11.4473C30.2567 9.38438 28.7198 7.58655 26.5732 6.5108C24.2798 5.36038 21.6179 5.20119 19.4491 6.08575C15.1732 7.83107 12.6508 13.264 13.9424 17.9502C13.9982 18.1537 13.8907 18.367 13.6954 18.4441C13.4985 18.5213 13.2753 18.4376 13.1793 18.2521C12.2397 16.4527 9.85029 15.427 7.61674 15.866C5.61376 16.2598 3.72898 17.69 2.44645 19.7857C1.69154 21.0199 1.36824 22.1547 1.48476 23.1607C1.7219 25.2055 3.67893 26.6046 5.27983 27.4186C8.11157 28.8586 11.4225 29.479 12.5655 29.4921Z" fill="#F15959"/>
</g>
<g id="Group_4" opacity="0.1294">
<path id="Vector_3" opacity="0.1294" d="M64.5871 26.2724C64.5682 26.2806 64.555 26.2872 64.5386 26.2946C63.7008 26.6088 62.8032 26.7352 61.9326 26.9354C59.7622 27.3998 55.977 27.3088 52.959 27.381C51.5599 27.3875 50.1609 27.541 48.7635 27.4433C46.7293 27.2669 44.6878 27.3309 42.6479 27.3038C38.811 27.2333 34.9724 27.1725 31.1347 27.2078C28.7099 27.2283 26.2868 27.4081 23.8621 27.2464C21.3922 27.1553 18.9215 27.1808 16.4516 27.152C14.8524 27.0191 13.2498 27.0257 11.6481 26.9453C10.8834 26.8985 9.85192 26.6244 7.75869 26.1936C7.05219 26.0369 6.33418 25.9245 5.62686 25.7612C5.21659 25.657 4.76608 25.5306 4.3796 25.7776C3.56725 26.2215 3.72561 27.5533 4.64053 27.7732C6.73869 28.2024 8.78846 28.794 10.8218 29.1944C11.9131 29.3725 13.0176 29.361 14.1188 29.3831C15.197 29.4406 16.2711 29.5719 17.3526 29.5694C20.2582 29.5612 23.1621 29.6515 26.0644 29.7524C27.9345 29.7393 29.8037 29.6334 31.6737 29.6047C31.5876 30.0675 31.8904 30.6156 32.4639 30.6033C36.6324 30.5155 40.8008 30.4154 44.9709 30.3424C47.9675 30.4146 50.965 30.5746 53.9601 30.3456C55.7037 30.2447 57.4712 30.2702 59.1894 29.9255C59.6769 29.8262 60.1544 29.6851 60.6172 29.5054C60.9216 29.4414 61.1941 29.2445 61.3319 28.9827C63.284 28.7037 65.5643 28.1589 66.0599 27.1061C66.2413 26.1813 65.3083 25.7678 64.5871 26.2724Z" fill="#F15959"/>
</g>
</g>
<g id="Group_5">
<g id="Group_6">
<path id="Vector_4" d="M36.2669 23.0662L43.1135 13.8362L49.96 23.0662H46.1056L46.3599 48.6565H40.3756L40.1214 23.0662H36.2669Z" fill="#FFCACA"/>
<path id="Vector_5" d="M43.1136 13.4921C43.0039 13.4921 42.9018 13.5429 42.8366 13.6313L35.99 22.8613C35.9139 22.9655 35.9002 23.1046 35.9592 23.2212C36.0182 23.3377 36.1375 23.4097 36.267 23.4097H39.7801L40.0303 48.66C40.033 48.8485 40.1872 49 40.3757 49H46.36C46.4512 49 46.5396 48.9637 46.6047 48.8985C46.6692 48.8341 46.7048 48.7443 46.7041 48.6538L46.4525 23.4103H49.9601C50.0897 23.4103 50.209 23.3384 50.2665 23.2218C50.3255 23.1053 50.3132 22.9662 50.2357 22.862L43.3891 13.632C43.3254 13.5429 43.2219 13.4921 43.1136 13.4921ZM36.9511 22.7221L43.1136 14.4148L49.276 22.7221H46.1057C46.0131 22.7221 45.9247 22.7585 45.861 22.8236C45.7972 22.8887 45.7609 22.9778 45.7616 23.0697L46.0118 48.3118H40.7151L40.4649 23.0628C40.4635 22.8743 40.3092 22.7214 40.1207 22.7214H36.9511V22.7221Z" fill="#F15959"/>
</g>
</g>
</g>
</g>
</svg>
