<svg width="63" height="67" viewBox="0 0 63 67" fill="none" xmlns="http://www.w3.org/2000/svg">
<g id="Group">
<g id="Group_2">
<g id="Group_3">
<path id="Vector" d="M27.7946 23.552L28.7664 23.5586L30.9977 14.624C34.0242 14.9692 36.3751 17.5141 36.3751 20.625V22.6562C36.3751 23.6741 35.5491 24.5 34.5313 24.5H17.3438C16.326 24.5 15.5001 23.6741 15.5001 22.6562V20.625C15.5001 17.5141 17.8509 14.9692 20.8774 14.624L23.1087 23.5586L24.0805 23.552L25.643 16.9114L25.6881 16.7197L25.5904 16.5488L24.4554 14.5625H27.4197L26.2847 16.5488L26.187 16.7197L26.2321 16.9114L27.7946 23.552ZM31.6876 6.25C31.6876 9.42601 29.1136 12 25.9376 12C22.7616 12 20.1876 9.42601 20.1876 6.25C20.1876 3.07399 22.7616 0.5 25.9376 0.5C29.1136 0.5 31.6876 3.07399 31.6876 6.25Z" fill="#FFF0F0" stroke="#F15959"/>
</g>
<g id="Group_4">
<path id="Vector_2" d="M42.7947 65.552L43.7665 65.5586L45.9978 56.624C49.0243 56.9692 51.3751 59.5141 51.3751 62.625V64.6562C51.3751 65.6741 50.5492 66.5 49.5314 66.5H32.3439C31.3261 66.5 30.5001 65.6741 30.5001 64.6562V62.625C30.5001 59.5141 32.851 56.9692 35.8774 56.624L38.1088 65.5586L39.0806 65.552L40.6431 58.9114L40.6882 58.7197L40.5905 58.5488L39.4555 56.5625H42.4198L41.2848 58.5488L41.1871 58.7197L41.2322 58.9114L42.7947 65.552ZM46.6876 48.25C46.6876 51.426 44.1136 54 40.9376 54C37.7616 54 35.1876 51.426 35.1876 48.25C35.1876 45.074 37.7616 42.5 40.9376 42.5C44.1136 42.5 46.6876 45.074 46.6876 48.25Z" fill="#FFF0F0" stroke="#F15959"/>
</g>
<g id="Group_5">
<path id="Vector_3" d="M12.7945 64.552L13.7664 64.5586L15.9977 55.624C19.0242 55.9692 21.375 58.5141 21.375 61.625V63.6562C21.375 64.6741 20.5491 65.5 19.5312 65.5H2.34375C1.32595 65.5 0.5 64.6741 0.5 63.6562V61.625C0.5 58.5141 2.85085 55.9692 5.87733 55.624L8.10865 64.5586L9.08046 64.552L10.643 57.9114L10.6881 57.7197L10.5904 57.5488L9.45534 55.5625H12.4197L11.2846 57.5488L11.1869 57.7197L11.232 57.9114L12.7945 64.552ZM16.6875 47.25C16.6875 50.426 14.1135 53 10.9375 53C7.76149 53 5.1875 50.426 5.1875 47.25C5.1875 44.074 7.76149 41.5 10.9375 41.5C14.1135 41.5 16.6875 44.074 16.6875 47.25Z" fill="#FFF0F0" stroke="#F15959"/>
</g>
<g id="Group_6">
<path id="Vector_4" d="M25.5092 35.3226C25.3462 35.3226 25.2129 35.1916 25.2117 35.0281C25.1981 33.6755 25.1999 32.0148 25.2011 30.257C25.2034 28.3954 25.2058 26.4711 25.1892 24.8092C25.1868 24.6451 25.319 24.5106 25.4831 24.5088C25.6484 24.5065 25.7829 24.6392 25.7841 24.8039C25.8001 26.4693 25.7989 28.3954 25.7965 30.2587C25.7941 32.0148 25.7918 33.6737 25.806 35.0234C25.8072 35.1881 25.6762 35.3226 25.5109 35.3238C25.5115 35.3226 25.5103 35.3226 25.5092 35.3226Z" fill="#F15959"/>
</g>
<g id="Group_7">
<path id="Vector_5" d="M40.8683 42.0566C40.8659 42.0566 40.8648 42.0566 40.8624 42.0566C40.6983 42.053 40.5673 41.9168 40.5709 41.7527C40.61 39.8662 40.6218 37.9555 40.6035 36.0732C40.6011 35.8914 40.5999 35.7041 40.5377 35.5596C40.4708 35.4049 40.4565 35.3854 40.3214 35.3818C33.9891 35.2236 26.8807 35.3042 20.6094 35.3753C17.3532 35.4126 14.2765 35.4476 11.5559 35.4476C11.5488 35.4476 11.5422 35.4476 11.534 35.447C11.4623 35.4423 11.3408 35.5009 11.297 35.5768C11.2348 35.681 11.2277 35.8327 11.2241 36.0199C11.1868 37.8501 11.1998 39.708 11.262 41.5417C11.2679 41.7059 11.1394 41.8433 10.9753 41.8492C10.8212 41.8534 10.6731 41.726 10.6672 41.5619C10.605 39.7175 10.5919 37.8483 10.6281 36.0075C10.6328 35.8025 10.6375 35.5217 10.7833 35.274C10.9385 35.0115 11.2668 34.8374 11.5654 34.8522C14.2801 34.8522 17.3526 34.8172 20.6029 34.7805C26.8795 34.7088 33.9939 34.6282 40.3363 34.787C40.8594 34.8 41.0123 35.1543 41.0851 35.3244C41.1953 35.5785 41.1971 35.8499 41.1995 36.0673C41.2179 37.9561 41.2078 39.8733 41.1669 41.7657C41.1622 41.9268 41.0301 42.0566 40.8683 42.0566Z" fill="#F15959"/>
</g>
</g>
<g id="Group_8">
<g id="Group_9">
<path id="Vector_6" d="M49.3135 33.6594C51.3918 35.7034 53.4702 37.7481 55.5468 39.7921C56.6453 40.8716 57.7455 41.954 58.9411 42.8907C59.5857 43.3961 60.3044 43.8736 61.0888 43.8736C61.8732 43.8742 62.7074 43.2124 62.7009 42.3255C62.6962 41.6335 62.2192 41.0777 61.7719 40.6055C58.4636 37.1159 55.0047 33.8069 51.4144 30.6947C50.7549 31.6598 50.0967 32.6244 49.3135 33.6594Z" fill="#FFF0F0"/>
<path id="Vector_7" d="M61.0899 44.1716C61.0888 44.1716 61.0887 44.1716 61.0887 44.1716C60.2137 44.1716 59.4512 43.6686 58.758 43.1253C57.5476 42.1773 56.4243 41.0729 55.3389 40.0047L49.1055 33.8715C48.9988 33.7666 48.9864 33.5989 49.0765 33.4799C49.855 32.4507 50.5227 31.4732 51.1673 30.5276C51.2159 30.4577 51.2911 30.4115 51.3758 30.4002C51.4582 30.3889 51.5435 30.4144 51.6087 30.4701C55.1937 33.5764 58.6845 36.9174 61.9887 40.4011C62.4746 40.9142 62.9941 41.5285 63.0001 42.3236C63.0024 42.7864 62.8146 43.2325 62.4692 43.5797C62.1001 43.95 61.5841 44.1716 61.0899 44.1716ZM49.708 33.6297L55.7565 39.5799C56.8307 40.6369 57.9416 41.7294 59.1253 42.656C59.7338 43.1336 60.395 43.5755 61.0887 43.5761C61.0887 43.5761 61.0888 43.5761 61.0899 43.5761C61.4288 43.5761 61.7879 43.4203 62.0468 43.1596C62.2784 42.9256 62.4052 42.63 62.4034 42.3278C62.3999 41.749 61.9822 41.2608 61.5551 40.8105C58.3439 37.4233 54.952 34.1707 51.4706 31.1396C50.9226 31.94 50.3538 32.7653 49.708 33.6297Z" fill="#F15959"/>
</g>
<g id="Group_10">
<g id="Group_11">
<path id="Vector_8" d="M41.2037 11.0525C34.0466 11.0525 28.2446 16.8545 28.2446 24.0116C28.2446 31.1692 34.0466 36.9713 41.2037 36.9713C48.3607 36.9713 54.1627 31.1692 54.1627 24.0116C54.1627 16.8545 48.3607 11.0525 41.2037 11.0525ZM41.2037 33.8537C35.7684 33.8537 31.3622 29.4469 31.3622 24.011C31.3622 18.5751 35.7689 14.1683 41.2037 14.1683C46.6402 14.1683 51.0464 18.5751 51.0464 24.011C51.0464 29.4475 46.6402 33.8537 41.2037 33.8537ZM41.2037 33.8537C35.7684 33.8537 31.3622 29.4469 31.3622 24.011C31.3622 18.5751 35.7689 14.1683 41.2037 14.1683C46.6402 14.1683 51.0464 18.5751 51.0464 24.011C51.0464 29.4475 46.6402 33.8537 41.2037 33.8537Z" fill="#FFF0F0"/>
<path id="Vector_9" d="M41.2037 37.2681C33.8938 37.2681 27.9471 31.3209 27.9471 24.0116C27.9471 16.7023 33.8938 10.7551 41.2037 10.7551C48.5135 10.7551 54.4614 16.7023 54.4614 24.0116C54.4614 31.3209 48.5135 37.2681 41.2037 37.2681ZM41.2037 11.35C34.2226 11.35 28.542 17.03 28.542 24.0116C28.542 30.9933 34.2226 36.6733 41.2037 36.6733C48.1859 36.6733 53.8653 30.9933 53.8653 24.0116C53.8653 17.03 48.1859 11.35 41.2037 11.35ZM41.2037 34.1517C35.6119 34.1517 31.0635 29.6028 31.0635 24.0116C31.0635 18.4205 35.6125 13.8715 41.2037 13.8715C46.7948 13.8715 51.3438 18.4205 51.3438 24.0116C51.3438 29.6028 46.7954 34.1517 41.2037 34.1517ZM31.6596 24.0116C31.6596 29.2751 35.9413 33.5569 41.2037 33.5569C46.4677 33.5569 50.7489 29.2751 50.7489 24.0116C50.7489 18.7487 46.4671 14.4669 41.2037 14.4669C35.9407 14.4664 31.6596 18.7481 31.6596 24.0116Z" fill="#F15959"/>
</g>
</g>
<g id="Group_12">
<path id="Vector_10" d="M50.9842 34.0308C50.9748 34.0308 50.9659 34.0296 50.9564 34.0266C50.9043 34.0118 50.8741 33.9567 50.8895 33.904L51.1176 33.1059C51.1324 33.0532 51.1869 33.0224 51.2402 33.0378C51.2935 33.0526 51.3237 33.1077 51.3083 33.1604L51.0791 33.9585C51.0678 34.0017 51.0269 34.0308 50.9842 34.0308Z" fill="#F15959"/>
</g>
<g id="Group_13">
<path id="Vector_11" d="M52.0744 35.4278C52.0708 35.4278 52.0661 35.4278 52.0619 35.4272C52.0074 35.4201 51.9695 35.3703 51.976 35.3158C52.0986 34.3809 52.2456 33.4389 52.4132 32.5158C52.4227 32.4619 52.4748 32.4258 52.5288 32.4364C52.5821 32.4459 52.6176 32.4981 52.6087 32.5514C52.4411 33.4709 52.2942 34.41 52.1727 35.3413C52.1668 35.3917 52.1241 35.4278 52.0744 35.4278Z" fill="#F15959"/>
</g>
<g id="Group_14">
<path id="Vector_12" d="M53.4904 36.784C53.4347 36.784 53.3908 36.7396 53.3908 36.6851C53.3908 36.2182 53.4625 35.4356 53.5265 34.7447C53.5644 34.3241 53.5982 33.9603 53.6101 33.7316C53.6124 33.6771 53.6504 33.6351 53.7143 33.6374C53.7689 33.6398 53.8103 33.6866 53.8079 33.7417C53.7961 33.9745 53.7629 34.3395 53.7244 34.7625C53.661 35.4492 53.5899 36.2277 53.5899 36.6851C53.5899 36.7402 53.5449 36.784 53.4904 36.784Z" fill="#F15959"/>
</g>
<g id="Group_15">
<path id="Vector_13" d="M54.9395 38.1201C54.8862 38.1201 54.8411 38.0774 54.8399 38.0229L54.7659 34.7134C54.7647 34.6589 54.8073 34.6132 54.863 34.6121C54.9235 34.6168 54.9626 34.6541 54.9638 34.7092L55.039 38.0188C55.0402 38.0733 54.9963 38.1189 54.9418 38.1201C54.9406 38.1201 54.9407 38.1201 54.9395 38.1201Z" fill="#F15959"/>
</g>
<g id="Group_16">
<path id="Vector_14" d="M56.3188 39.5841C56.2655 39.5841 56.2216 39.5421 56.2193 39.4887L56.0895 36.0222C56.0883 35.9677 56.131 35.9215 56.1855 35.9197C56.2424 35.9156 56.2862 35.9606 56.2886 36.0151L56.4183 39.4816C56.4207 39.5361 56.3781 39.5823 56.3224 39.5841C56.3212 39.5841 56.32 39.5841 56.3188 39.5841Z" fill="#F15959"/>
</g>
<g id="Group_17">
<path id="Vector_15" d="M57.7224 40.8181C57.6702 40.8181 57.6264 40.7772 57.624 40.7239L57.4481 37.4861C57.4445 37.4316 57.4872 37.3848 57.5417 37.3818C57.6021 37.3782 57.6436 37.4209 57.646 37.4754L57.8219 40.7133C57.8243 40.7678 57.7828 40.8146 57.7283 40.8175C57.7259 40.8181 57.7247 40.8181 57.7224 40.8181Z" fill="#F15959"/>
</g>
<g id="Group_18">
<path id="Vector_16" d="M59.1123 41.9587C59.0613 41.9587 59.0175 41.9196 59.014 41.8674L58.771 38.7149C58.7663 38.6604 58.8072 38.613 58.8623 38.6083C58.9109 38.6047 58.9642 38.645 58.9689 38.6995L59.2118 41.8514C59.2154 41.9059 59.1745 41.9539 59.1206 41.9581C59.1182 41.9587 59.1147 41.9587 59.1123 41.9587Z" fill="#F15959"/>
</g>
<g id="Group_19">
<path id="Vector_17" d="M60.4276 42.9836C60.3778 42.9836 60.3351 42.9457 60.3292 42.8947L60.0448 40.1303C60.0389 40.0758 60.0798 40.0272 60.1337 40.0213C60.1846 40.0165 60.2368 40.055 60.2427 40.1095L60.5265 42.8746C60.5324 42.9291 60.4927 42.9777 60.4388 42.9836C60.4347 42.9836 60.4311 42.9836 60.4276 42.9836Z" fill="#F15959"/>
</g>
<g id="Group_20">
<path id="Vector_18" d="M61.7156 42.8366C61.6682 42.8366 61.6267 42.8017 61.6184 42.7531L61.4194 41.5178C61.4099 41.4639 61.4472 41.4129 61.5005 41.404C61.555 41.3951 61.606 41.4319 61.6149 41.4864L61.8139 42.7217C61.8234 42.7756 61.7861 42.8266 61.7316 42.8354C61.7274 42.836 61.7215 42.8366 61.7156 42.8366Z" fill="#F15959"/>
</g>
<g id="Group_21" opacity="0.1294">
<path id="Vector_19" opacity="0.1294" d="M50.3722 27.1463C50.0469 27.4212 49.8964 27.8644 49.6197 28.1902C49.5688 28.2844 48.9035 29.0321 48.5284 29.3894C48.2032 29.6797 47.8909 29.935 47.5739 30.1774C47.5171 30.1886 47.462 30.2093 47.4075 30.2431C45.7876 31.4156 44.5701 31.8434 42.5208 32.2208C41.5473 32.4027 40.4276 32.5555 38.8966 32.1758C37.8225 31.9257 37.3053 31.6325 36.1843 30.8776C35.7086 30.5435 34.6486 29.6098 33.9276 28.7376C33.9276 28.7376 33.9276 28.7377 33.9276 28.7371C33.152 27.6765 32.886 26.7499 32.7267 26.3275C32.5661 25.8938 32.4441 25.4483 32.3173 25.0045C32.13 24.3937 32.072 24.1804 32.072 23.6614C31.9541 23.3308 31.8451 22.996 31.7479 22.6589C31.6519 22.6157 31.5465 22.5943 31.441 22.6014C31.2674 23.9404 31.2929 25.2841 31.4617 26.6172C31.7532 27.7702 32.1123 29.0203 33.2172 30.2615C34.1083 31.242 34.7179 31.5821 35.1013 31.8973C35.9947 32.5413 36.9433 33.1302 37.9967 33.4721C38.572 33.6392 39.1698 33.7085 39.7634 33.7784C39.767 33.779 39.7682 33.7796 39.7729 33.7802C40.4187 33.8975 41.0769 33.9004 41.7275 33.8276C42.2376 33.7855 42.7281 33.6362 43.2205 33.5041C44.2425 33.2529 45.2627 32.9406 46.1952 32.4471C46.575 32.2131 46.7054 32.1224 46.8837 31.9891C48.0296 31.2752 49.2121 30.2834 49.8182 29.5902C49.977 29.2644 50.1281 28.9361 50.2721 28.6049C50.4504 28.1096 50.6299 27.6143 50.8053 27.1172C50.6672 27.0627 50.5061 27.0657 50.3722 27.1463Z" fill="#F15959"/>
</g>
<g id="Group_22" opacity="0.1294">
<path id="Vector_20" opacity="0.1294" d="M52.4849 31.3754C51.992 31.2338 51.6619 31.5768 51.419 31.953C51.4084 31.9655 51.3983 31.9773 51.3853 31.9921C50.9545 32.4946 50.8331 32.4519 50.1227 33.0947C50.1203 33.0971 50.1168 33.0995 50.1144 33.1018C49.9734 33.1996 49.8063 33.2689 49.7174 33.4224C49.1202 34.1576 50.0309 35.1832 50.8432 34.7051C51.4101 34.394 51.8936 33.9532 52.2829 33.4401C52.5329 33.1664 52.7758 32.8808 52.9677 32.5633C53.2409 32.1207 52.9849 31.5075 52.4849 31.3754Z" fill="#F15959"/>
</g>
</g>
<g id="Group_23">
<g id="Group_24">
<g id="Group_25">
<path id="Vector_21" d="M49.3135 33.6594C51.3918 35.7034 53.4702 37.7481 55.5468 39.7921C56.6453 40.8716 57.7455 41.954 58.9411 42.8907C59.5857 43.3961 60.3044 43.8736 61.0888 43.8736C61.8732 43.8742 62.7074 43.2124 62.7009 42.3255C62.6962 41.6335 62.2192 41.0777 61.7719 40.6055C58.4636 37.1159 55.0047 33.8069 51.4144 30.6947C50.7549 31.6598 50.0967 32.6244 49.3135 33.6594Z" fill="#FFF0F0"/>
<path id="Vector_22" d="M61.0899 44.1716C61.0888 44.1716 61.0887 44.1716 61.0887 44.1716C60.2137 44.1716 59.4512 43.6686 58.758 43.1253C57.5476 42.1773 56.4243 41.0729 55.3389 40.0047L49.1055 33.8715C48.9988 33.7666 48.9864 33.5989 49.0765 33.4799C49.855 32.4507 50.5227 31.4732 51.1673 30.5276C51.2159 30.4577 51.2911 30.4115 51.3758 30.4002C51.4582 30.3889 51.5435 30.4144 51.6087 30.4701C55.1937 33.5764 58.6845 36.9174 61.9887 40.4011C62.4746 40.9142 62.9941 41.5285 63.0001 42.3236C63.0024 42.7864 62.8146 43.2325 62.4692 43.5797C62.1001 43.95 61.5841 44.1716 61.0899 44.1716ZM49.708 33.6297L55.7565 39.5799C56.8307 40.6369 57.9416 41.7294 59.1253 42.656C59.7338 43.1336 60.395 43.5755 61.0887 43.5761C61.0887 43.5761 61.0888 43.5761 61.0899 43.5761C61.4288 43.5761 61.7879 43.4203 62.0468 43.1596C62.2784 42.9256 62.4052 42.63 62.4034 42.3278C62.3999 41.749 61.9822 41.2608 61.5551 40.8105C58.3439 37.4233 54.952 34.1707 51.4706 31.1396C50.9226 31.94 50.3538 32.7653 49.708 33.6297Z" fill="#F15959"/>
</g>
<g id="Group_26">
<g id="Group_27">
<path id="Vector_23" d="M41.2037 11.0525C34.0466 11.0525 28.2446 16.8545 28.2446 24.0116C28.2446 31.1692 34.0466 36.9713 41.2037 36.9713C48.3607 36.9713 54.1627 31.1692 54.1627 24.0116C54.1627 16.8545 48.3607 11.0525 41.2037 11.0525ZM41.2037 33.8537C35.7684 33.8537 31.3622 29.4469 31.3622 24.011C31.3622 18.5751 35.7689 14.1683 41.2037 14.1683C46.6402 14.1683 51.0464 18.5751 51.0464 24.011C51.0464 29.4475 46.6402 33.8537 41.2037 33.8537ZM41.2037 33.8537C35.7684 33.8537 31.3622 29.4469 31.3622 24.011C31.3622 18.5751 35.7689 14.1683 41.2037 14.1683C46.6402 14.1683 51.0464 18.5751 51.0464 24.011C51.0464 29.4475 46.6402 33.8537 41.2037 33.8537Z" fill="#FFF0F0"/>
<path id="Vector_24" d="M41.2037 37.2681C33.8938 37.2681 27.9471 31.3209 27.9471 24.0116C27.9471 16.7023 33.8938 10.7551 41.2037 10.7551C48.5135 10.7551 54.4614 16.7023 54.4614 24.0116C54.4614 31.3209 48.5135 37.2681 41.2037 37.2681ZM41.2037 11.35C34.2226 11.35 28.542 17.03 28.542 24.0116C28.542 30.9933 34.2226 36.6733 41.2037 36.6733C48.1859 36.6733 53.8653 30.9933 53.8653 24.0116C53.8653 17.03 48.1859 11.35 41.2037 11.35ZM41.2037 34.1517C35.6119 34.1517 31.0635 29.6028 31.0635 24.0116C31.0635 18.4205 35.6125 13.8715 41.2037 13.8715C46.7948 13.8715 51.3438 18.4205 51.3438 24.0116C51.3438 29.6028 46.7954 34.1517 41.2037 34.1517ZM31.6596 24.0116C31.6596 29.2751 35.9413 33.5569 41.2037 33.5569C46.4677 33.5569 50.7489 29.2751 50.7489 24.0116C50.7489 18.7487 46.4671 14.4669 41.2037 14.4669C35.9407 14.4664 31.6596 18.7481 31.6596 24.0116Z" fill="#F15959"/>
</g>
</g>
<g id="Group_28">
<path id="Vector_25" d="M50.9842 34.0308C50.9748 34.0308 50.9659 34.0296 50.9564 34.0266C50.9043 34.0118 50.8741 33.9567 50.8895 33.904L51.1176 33.1059C51.1324 33.0532 51.1869 33.0224 51.2402 33.0378C51.2935 33.0526 51.3237 33.1077 51.3083 33.1604L51.0791 33.9585C51.0678 34.0017 51.0269 34.0308 50.9842 34.0308Z" fill="#F15959"/>
</g>
<g id="Group_29">
<path id="Vector_26" d="M52.0744 35.4278C52.0708 35.4278 52.0661 35.4278 52.0619 35.4272C52.0074 35.4201 51.9695 35.3703 51.976 35.3158C52.0986 34.3809 52.2456 33.4389 52.4132 32.5158C52.4227 32.4619 52.4748 32.4258 52.5288 32.4364C52.5821 32.4459 52.6176 32.4981 52.6087 32.5514C52.4411 33.4709 52.2942 34.41 52.1727 35.3413C52.1668 35.3917 52.1241 35.4278 52.0744 35.4278Z" fill="#F15959"/>
</g>
<g id="Group_30">
<path id="Vector_27" d="M53.4904 36.784C53.4347 36.784 53.3908 36.7396 53.3908 36.6851C53.3908 36.2182 53.4625 35.4356 53.5265 34.7447C53.5644 34.3241 53.5982 33.9603 53.6101 33.7316C53.6124 33.6771 53.6504 33.6351 53.7143 33.6374C53.7689 33.6398 53.8103 33.6866 53.8079 33.7417C53.7961 33.9745 53.7629 34.3395 53.7244 34.7625C53.661 35.4492 53.5899 36.2277 53.5899 36.6851C53.5899 36.7402 53.5449 36.784 53.4904 36.784Z" fill="#F15959"/>
</g>
<g id="Group_31">
<path id="Vector_28" d="M54.9395 38.1201C54.8862 38.1201 54.8411 38.0774 54.8399 38.0229L54.7659 34.7134C54.7647 34.6589 54.8073 34.6132 54.863 34.6121C54.9235 34.6168 54.9626 34.6541 54.9638 34.7092L55.039 38.0188C55.0402 38.0733 54.9963 38.1189 54.9418 38.1201C54.9406 38.1201 54.9407 38.1201 54.9395 38.1201Z" fill="#F15959"/>
</g>
<g id="Group_32">
<path id="Vector_29" d="M56.3188 39.5841C56.2655 39.5841 56.2216 39.5421 56.2193 39.4887L56.0895 36.0222C56.0883 35.9677 56.131 35.9215 56.1855 35.9197C56.2424 35.9156 56.2862 35.9606 56.2886 36.0151L56.4183 39.4816C56.4207 39.5361 56.3781 39.5823 56.3224 39.5841C56.3212 39.5841 56.32 39.5841 56.3188 39.5841Z" fill="#F15959"/>
</g>
<g id="Group_33">
<path id="Vector_30" d="M57.7224 40.8181C57.6702 40.8181 57.6264 40.7772 57.624 40.7239L57.4481 37.4861C57.4445 37.4316 57.4872 37.3848 57.5417 37.3818C57.6021 37.3782 57.6436 37.4209 57.646 37.4754L57.8219 40.7133C57.8243 40.7678 57.7828 40.8146 57.7283 40.8175C57.7259 40.8181 57.7247 40.8181 57.7224 40.8181Z" fill="#F15959"/>
</g>
<g id="Group_34">
<path id="Vector_31" d="M59.1123 41.9587C59.0613 41.9587 59.0175 41.9196 59.014 41.8674L58.771 38.7149C58.7663 38.6604 58.8072 38.613 58.8623 38.6083C58.9109 38.6047 58.9642 38.645 58.9689 38.6995L59.2118 41.8514C59.2154 41.9059 59.1745 41.9539 59.1206 41.9581C59.1182 41.9587 59.1147 41.9587 59.1123 41.9587Z" fill="#F15959"/>
</g>
<g id="Group_35">
<path id="Vector_32" d="M60.4276 42.9836C60.3778 42.9836 60.3351 42.9457 60.3292 42.8947L60.0448 40.1303C60.0389 40.0758 60.0798 40.0272 60.1337 40.0213C60.1846 40.0165 60.2368 40.055 60.2427 40.1095L60.5265 42.8746C60.5324 42.9291 60.4927 42.9777 60.4388 42.9836C60.4347 42.9836 60.4311 42.9836 60.4276 42.9836Z" fill="#F15959"/>
</g>
<g id="Group_36">
<path id="Vector_33" d="M61.7156 42.8366C61.6682 42.8366 61.6267 42.8017 61.6184 42.7531L61.4194 41.5178C61.4099 41.4639 61.4472 41.4129 61.5005 41.404C61.555 41.3951 61.606 41.4319 61.6149 41.4864L61.8139 42.7217C61.8234 42.7756 61.7861 42.8266 61.7316 42.8354C61.7274 42.836 61.7215 42.8366 61.7156 42.8366Z" fill="#F15959"/>
</g>
<g id="Group_37" opacity="0.1294">
<path id="Vector_34" opacity="0.1294" d="M50.3722 27.1463C50.0469 27.4212 49.8964 27.8644 49.6197 28.1902C49.5688 28.2844 48.9035 29.0321 48.5284 29.3894C48.2032 29.6797 47.8909 29.935 47.5739 30.1774C47.5171 30.1886 47.462 30.2093 47.4075 30.2431C45.7876 31.4156 44.5701 31.8434 42.5208 32.2208C41.5473 32.4027 40.4276 32.5555 38.8966 32.1758C37.8225 31.9257 37.3053 31.6325 36.1843 30.8776C35.7086 30.5435 34.6486 29.6098 33.9276 28.7376C33.9276 28.7376 33.9276 28.7377 33.9276 28.7371C33.152 27.6765 32.886 26.7499 32.7267 26.3275C32.5661 25.8938 32.4441 25.4483 32.3173 25.0045C32.13 24.3937 32.072 24.1804 32.072 23.6614C31.9541 23.3308 31.8451 22.996 31.7479 22.6589C31.6519 22.6157 31.5465 22.5943 31.441 22.6014C31.2674 23.9404 31.2929 25.2841 31.4617 26.6172C31.7532 27.7702 32.1123 29.0203 33.2172 30.2615C34.1083 31.242 34.7179 31.5821 35.1013 31.8973C35.9947 32.5413 36.9433 33.1302 37.9967 33.4721C38.572 33.6392 39.1698 33.7085 39.7634 33.7784C39.767 33.779 39.7682 33.7796 39.7729 33.7802C40.4187 33.8975 41.0769 33.9004 41.7275 33.8276C42.2376 33.7855 42.7281 33.6362 43.2205 33.5041C44.2425 33.2529 45.2627 32.9406 46.1952 32.4471C46.575 32.2131 46.7054 32.1224 46.8837 31.9891C48.0296 31.2752 49.2121 30.2834 49.8182 29.5902C49.977 29.2644 50.1281 28.9361 50.2721 28.6049C50.4504 28.1096 50.6299 27.6143 50.8053 27.1172C50.6672 27.0627 50.5061 27.0657 50.3722 27.1463Z" fill="#F15959"/>
</g>
<g id="Group_38" opacity="0.1294">
<path id="Vector_35" opacity="0.1294" d="M52.4849 31.3754C51.992 31.2338 51.6619 31.5768 51.419 31.953C51.4084 31.9655 51.3983 31.9773 51.3853 31.9921C50.9545 32.4946 50.8331 32.4519 50.1227 33.0947C50.1203 33.0971 50.1168 33.0995 50.1144 33.1018C49.9734 33.1996 49.8063 33.2689 49.7174 33.4224C49.1202 34.1576 50.0309 35.1832 50.8432 34.7051C51.4101 34.394 51.8936 33.9532 52.2829 33.4401C52.5329 33.1664 52.7758 32.8808 52.9677 32.5633C53.2409 32.1207 52.9849 31.5075 52.4849 31.3754Z" fill="#F15959"/>
</g>
</g>
<g id="Group_39">
<path id="Vector_36" d="M37.6951 29.1736C37.531 29.1736 37.3965 29.0403 37.3965 28.8762V22.3425C37.3965 22.1783 37.531 22.045 37.6951 22.045C37.8592 22.045 37.9925 22.1783 37.9925 22.3425V28.8756C37.9925 29.0397 37.8598 29.1736 37.6951 29.1736Z" fill="#F15959"/>
</g>
<g id="Group_40">
<path id="Vector_37" d="M44.2425 29.1736C44.0783 29.1736 43.945 29.0403 43.945 28.8762V22.3425C43.945 22.1783 44.0783 22.045 44.2425 22.045C44.4066 22.045 44.5399 22.1783 44.5399 22.3425V28.8756C44.5399 29.0397 44.4066 29.1736 44.2425 29.1736Z" fill="#F15959"/>
</g>
<g id="Group_41">
<path id="Vector_38" d="M40.9691 29.1737C40.805 29.1737 40.6717 29.0404 40.6717 28.8763V18.3599C40.6717 18.1958 40.805 18.0625 40.9691 18.0625C41.1332 18.0625 41.2666 18.1958 41.2666 18.3599V28.8757C41.2666 29.0398 41.1332 29.1737 40.9691 29.1737Z" fill="#F15959"/>
</g>
</g>
<g id="Group_42">
<g id="Group_43">
<g id="Group_44">
<path id="Vector_39" d="M49.3135 33.6594C51.3918 35.7034 53.4702 37.7481 55.5468 39.7921C56.6453 40.8716 57.7455 41.954 58.9411 42.8907C59.5857 43.3961 60.3044 43.8736 61.0888 43.8736C61.8732 43.8742 62.7074 43.2124 62.7009 42.3255C62.6962 41.6335 62.2192 41.0777 61.7719 40.6055C58.4636 37.1159 55.0047 33.8069 51.4144 30.6947C50.7549 31.6598 50.0967 32.6244 49.3135 33.6594Z" fill="#FFF0F0"/>
<path id="Vector_40" d="M61.0899 44.1716C61.0888 44.1716 61.0887 44.1716 61.0887 44.1716C60.2137 44.1716 59.4512 43.6686 58.758 43.1253C57.5476 42.1773 56.4243 41.0729 55.3389 40.0047L49.1055 33.8715C48.9988 33.7666 48.9864 33.5989 49.0765 33.4799C49.855 32.4507 50.5227 31.4732 51.1673 30.5276C51.2159 30.4577 51.2911 30.4115 51.3758 30.4002C51.4582 30.3889 51.5435 30.4144 51.6087 30.4701C55.1937 33.5764 58.6845 36.9174 61.9887 40.4011C62.4746 40.9142 62.9941 41.5285 63.0001 42.3236C63.0024 42.7864 62.8146 43.2325 62.4692 43.5797C62.1001 43.95 61.5841 44.1716 61.0899 44.1716ZM49.708 33.6297L55.7565 39.5799C56.8307 40.6369 57.9416 41.7294 59.1253 42.656C59.7338 43.1336 60.395 43.5755 61.0887 43.5761C61.0887 43.5761 61.0888 43.5761 61.0899 43.5761C61.4288 43.5761 61.7879 43.4203 62.0468 43.1596C62.2784 42.9256 62.4052 42.63 62.4034 42.3278C62.3999 41.749 61.9822 41.2608 61.5551 40.8105C58.3439 37.4233 54.952 34.1707 51.4706 31.1396C50.9226 31.94 50.3538 32.7653 49.708 33.6297Z" fill="#F15959"/>
</g>
<g id="Group_45">
<g id="Group_46">
<path id="Vector_41" d="M41.2037 11.0525C34.0466 11.0525 28.2446 16.8545 28.2446 24.0116C28.2446 31.1692 34.0466 36.9713 41.2037 36.9713C48.3607 36.9713 54.1627 31.1692 54.1627 24.0116C54.1627 16.8545 48.3607 11.0525 41.2037 11.0525ZM41.2037 33.8537C35.7684 33.8537 31.3622 29.4469 31.3622 24.011C31.3622 18.5751 35.7689 14.1683 41.2037 14.1683C46.6402 14.1683 51.0464 18.5751 51.0464 24.011C51.0464 29.4475 46.6402 33.8537 41.2037 33.8537ZM41.2037 33.8537C35.7684 33.8537 31.3622 29.4469 31.3622 24.011C31.3622 18.5751 35.7689 14.1683 41.2037 14.1683C46.6402 14.1683 51.0464 18.5751 51.0464 24.011C51.0464 29.4475 46.6402 33.8537 41.2037 33.8537Z" fill="#FFF0F0"/>
<path id="Vector_42" d="M41.2037 37.2681C33.8938 37.2681 27.9471 31.3209 27.9471 24.0116C27.9471 16.7023 33.8938 10.7551 41.2037 10.7551C48.5135 10.7551 54.4614 16.7023 54.4614 24.0116C54.4614 31.3209 48.5135 37.2681 41.2037 37.2681ZM41.2037 11.35C34.2226 11.35 28.542 17.03 28.542 24.0116C28.542 30.9933 34.2226 36.6733 41.2037 36.6733C48.1859 36.6733 53.8653 30.9933 53.8653 24.0116C53.8653 17.03 48.1859 11.35 41.2037 11.35ZM41.2037 34.1517C35.6119 34.1517 31.0635 29.6028 31.0635 24.0116C31.0635 18.4205 35.6125 13.8715 41.2037 13.8715C46.7948 13.8715 51.3438 18.4205 51.3438 24.0116C51.3438 29.6028 46.7954 34.1517 41.2037 34.1517ZM31.6596 24.0116C31.6596 29.2751 35.9413 33.5569 41.2037 33.5569C46.4677 33.5569 50.7489 29.2751 50.7489 24.0116C50.7489 18.7487 46.4671 14.4669 41.2037 14.4669C35.9407 14.4664 31.6596 18.7481 31.6596 24.0116Z" fill="#F15959"/>
</g>
</g>
<g id="Group_47">
<path id="Vector_43" d="M50.9842 34.0308C50.9748 34.0308 50.9659 34.0296 50.9564 34.0266C50.9043 34.0118 50.8741 33.9567 50.8895 33.904L51.1176 33.1059C51.1324 33.0532 51.1869 33.0224 51.2402 33.0378C51.2935 33.0526 51.3237 33.1077 51.3083 33.1604L51.0791 33.9585C51.0678 34.0017 51.0269 34.0308 50.9842 34.0308Z" fill="#F15959"/>
</g>
<g id="Group_48">
<path id="Vector_44" d="M52.0744 35.4278C52.0708 35.4278 52.0661 35.4278 52.0619 35.4272C52.0074 35.4201 51.9695 35.3703 51.976 35.3158C52.0986 34.3809 52.2456 33.4389 52.4132 32.5158C52.4227 32.4619 52.4748 32.4258 52.5288 32.4364C52.5821 32.4459 52.6176 32.4981 52.6087 32.5514C52.4411 33.4709 52.2942 34.41 52.1727 35.3413C52.1668 35.3917 52.1241 35.4278 52.0744 35.4278Z" fill="#F15959"/>
</g>
<g id="Group_49">
<path id="Vector_45" d="M53.4904 36.784C53.4347 36.784 53.3908 36.7396 53.3908 36.6851C53.3908 36.2182 53.4625 35.4356 53.5265 34.7447C53.5644 34.3241 53.5982 33.9603 53.6101 33.7316C53.6124 33.6771 53.6504 33.6351 53.7143 33.6374C53.7689 33.6398 53.8103 33.6866 53.8079 33.7417C53.7961 33.9745 53.7629 34.3395 53.7244 34.7625C53.661 35.4492 53.5899 36.2277 53.5899 36.6851C53.5899 36.7402 53.5449 36.784 53.4904 36.784Z" fill="#F15959"/>
</g>
<g id="Group_50">
<path id="Vector_46" d="M54.9395 38.1201C54.8862 38.1201 54.8411 38.0774 54.8399 38.0229L54.7659 34.7134C54.7647 34.6589 54.8073 34.6132 54.863 34.6121C54.9235 34.6168 54.9626 34.6541 54.9638 34.7092L55.039 38.0188C55.0402 38.0733 54.9963 38.1189 54.9418 38.1201C54.9406 38.1201 54.9407 38.1201 54.9395 38.1201Z" fill="#F15959"/>
</g>
<g id="Group_51">
<path id="Vector_47" d="M56.3188 39.5841C56.2655 39.5841 56.2216 39.5421 56.2193 39.4887L56.0895 36.0222C56.0883 35.9677 56.131 35.9215 56.1855 35.9197C56.2424 35.9156 56.2862 35.9606 56.2886 36.0151L56.4183 39.4816C56.4207 39.5361 56.3781 39.5823 56.3224 39.5841C56.3212 39.5841 56.32 39.5841 56.3188 39.5841Z" fill="#F15959"/>
</g>
<g id="Group_52">
<path id="Vector_48" d="M57.7224 40.8181C57.6702 40.8181 57.6264 40.7772 57.624 40.7239L57.4481 37.4861C57.4445 37.4316 57.4872 37.3848 57.5417 37.3818C57.6021 37.3782 57.6436 37.4209 57.646 37.4754L57.8219 40.7133C57.8243 40.7678 57.7828 40.8146 57.7283 40.8175C57.7259 40.8181 57.7247 40.8181 57.7224 40.8181Z" fill="#F15959"/>
</g>
<g id="Group_53">
<path id="Vector_49" d="M59.1123 41.9587C59.0613 41.9587 59.0175 41.9196 59.014 41.8674L58.771 38.7149C58.7663 38.6604 58.8072 38.613 58.8623 38.6083C58.9109 38.6047 58.9642 38.645 58.9689 38.6995L59.2118 41.8514C59.2154 41.9059 59.1745 41.9539 59.1206 41.9581C59.1182 41.9587 59.1147 41.9587 59.1123 41.9587Z" fill="#F15959"/>
</g>
<g id="Group_54">
<path id="Vector_50" d="M60.4276 42.9836C60.3778 42.9836 60.3351 42.9457 60.3292 42.8947L60.0448 40.1303C60.0389 40.0758 60.0798 40.0272 60.1337 40.0213C60.1846 40.0165 60.2368 40.055 60.2427 40.1095L60.5265 42.8746C60.5324 42.9291 60.4927 42.9777 60.4388 42.9836C60.4347 42.9836 60.4311 42.9836 60.4276 42.9836Z" fill="#F15959"/>
</g>
<g id="Group_55">
<path id="Vector_51" d="M61.7156 42.8366C61.6682 42.8366 61.6267 42.8017 61.6184 42.7531L61.4194 41.5178C61.4099 41.4639 61.4472 41.4129 61.5005 41.404C61.555 41.3951 61.606 41.4319 61.6149 41.4864L61.8139 42.7217C61.8234 42.7756 61.7861 42.8266 61.7316 42.8354C61.7274 42.836 61.7215 42.8366 61.7156 42.8366Z" fill="#F15959"/>
</g>
<g id="Group_56" opacity="0.1294">
<path id="Vector_52" opacity="0.1294" d="M50.3722 27.1463C50.0469 27.4212 49.8964 27.8644 49.6197 28.1902C49.5688 28.2844 48.9035 29.0321 48.5284 29.3894C48.2032 29.6797 47.8909 29.935 47.5739 30.1774C47.5171 30.1886 47.462 30.2093 47.4075 30.2431C45.7876 31.4156 44.5701 31.8434 42.5208 32.2208C41.5473 32.4027 40.4276 32.5555 38.8966 32.1758C37.8225 31.9257 37.3053 31.6325 36.1843 30.8776C35.7086 30.5435 34.6486 29.6098 33.9276 28.7376C33.9276 28.7376 33.9276 28.7377 33.9276 28.7371C33.152 27.6765 32.886 26.7499 32.7267 26.3275C32.5661 25.8938 32.4441 25.4483 32.3173 25.0045C32.13 24.3937 32.072 24.1804 32.072 23.6614C31.9541 23.3308 31.8451 22.996 31.7479 22.6589C31.6519 22.6157 31.5465 22.5943 31.441 22.6014C31.2674 23.9404 31.2929 25.2841 31.4617 26.6172C31.7532 27.7702 32.1123 29.0203 33.2172 30.2615C34.1083 31.242 34.7179 31.5821 35.1013 31.8973C35.9947 32.5413 36.9433 33.1302 37.9967 33.4721C38.572 33.6392 39.1698 33.7085 39.7634 33.7784C39.767 33.779 39.7682 33.7796 39.7729 33.7802C40.4187 33.8975 41.0769 33.9004 41.7275 33.8276C42.2376 33.7855 42.7281 33.6362 43.2205 33.5041C44.2425 33.2529 45.2627 32.9406 46.1952 32.4471C46.575 32.2131 46.7054 32.1224 46.8837 31.9891C48.0296 31.2752 49.2121 30.2834 49.8182 29.5902C49.977 29.2644 50.1281 28.9361 50.2721 28.6049C50.4504 28.1096 50.6299 27.6143 50.8053 27.1172C50.6672 27.0627 50.5061 27.0657 50.3722 27.1463Z" fill="#F15959"/>
</g>
<g id="Group_57" opacity="0.1294">
<path id="Vector_53" opacity="0.1294" d="M52.4849 31.3754C51.992 31.2338 51.6619 31.5768 51.419 31.953C51.4084 31.9655 51.3983 31.9773 51.3853 31.9921C50.9545 32.4946 50.8331 32.4519 50.1227 33.0947C50.1203 33.0971 50.1168 33.0995 50.1144 33.1018C49.9734 33.1996 49.8063 33.2689 49.7174 33.4224C49.1202 34.1576 50.0309 35.1832 50.8432 34.7051C51.4101 34.394 51.8936 33.9532 52.2829 33.4401C52.5329 33.1664 52.7758 32.8808 52.9677 32.5633C53.2409 32.1207 52.9849 31.5075 52.4849 31.3754Z" fill="#F15959"/>
</g>
</g>
<g id="Group_58">
<path id="Vector_54" d="M37.6951 29.1736C37.531 29.1736 37.3965 29.0403 37.3965 28.8762V22.3425C37.3965 22.1783 37.531 22.045 37.6951 22.045C37.8592 22.045 37.9925 22.1783 37.9925 22.3425V28.8756C37.9925 29.0397 37.8598 29.1736 37.6951 29.1736Z" fill="#F15959"/>
</g>
<g id="Group_59">
<path id="Vector_55" d="M44.2425 29.1736C44.0783 29.1736 43.945 29.0403 43.945 28.8762V22.3425C43.945 22.1783 44.0783 22.045 44.2425 22.045C44.4066 22.045 44.5399 22.1783 44.5399 22.3425V28.8756C44.5399 29.0397 44.4066 29.1736 44.2425 29.1736Z" fill="#F15959"/>
</g>
<g id="Group_60">
<path id="Vector_56" d="M40.9691 29.1737C40.805 29.1737 40.6717 29.0404 40.6717 28.8763V18.3599C40.6717 18.1958 40.805 18.0625 40.9691 18.0625C41.1332 18.0625 41.2666 18.1958 41.2666 18.3599V28.8757C41.2666 29.0398 41.1332 29.1737 40.9691 29.1737Z" fill="#F15959"/>
</g>
</g>
</g>
</svg>
