<svg width="63" height="49" viewBox="0 0 63 49" fill="none" xmlns="http://www.w3.org/2000/svg">
<g id="Group">
<g id="Group_2">
<path id="Vector" d="M4.125 43.6111V44.1111H4.625H32.375H32.875V43.6111V35.6972V35.4868L32.7246 35.3397L26.4002 29.1559C25.8673 28.6348 25.0077 28.6349 24.4747 29.1559L24.4747 29.1559L15.0312 38.3896L11.369 34.8087C10.836 34.2876 9.97648 34.2876 9.44348 34.8087L9.44344 34.8087L4.27544 39.8619L4.125 40.009V40.2194V43.6111ZM33.5312 47.6333H3.46875C1.81848 47.6333 0.5 46.3282 0.5 44.7417V24.3917C0.5 22.8052 1.81848 21.5 3.46875 21.5H33.5312C35.1815 21.5 36.5 22.8052 36.5 24.3917V44.7417C36.5 46.3282 35.1815 47.6333 33.5312 47.6333ZM8.09375 24.4569C5.59323 24.4569 3.54688 26.4419 3.54688 28.9139C3.54688 31.3859 5.59323 33.3708 8.09375 33.3708C10.5943 33.3708 12.6406 31.3859 12.6406 28.9139C12.6406 26.4419 10.5943 24.4569 8.09375 24.4569Z" fill="#FFF0F0" stroke="#F15959"/>
</g>
<g id="Group_3">
<g id="Group_4">
<path id="Vector_2" d="M46.8787 27.8128C49.3258 30.2201 51.7743 32.6288 54.2221 35.0382C55.5148 36.3099 56.8109 37.5845 58.2209 38.688C58.9803 39.284 59.8255 39.8466 60.7496 39.8466C61.6751 39.8466 62.6565 39.067 62.6502 38.0228C62.6446 37.2075 62.0821 36.5536 61.5558 35.9973C57.6569 31.8855 53.5835 27.988 49.3524 24.3208C48.5762 25.4571 47.8014 26.5927 46.8787 27.8128Z" fill="#FFF0F0"/>
<path id="Vector_3" d="M60.7511 40.1965C60.7511 40.1965 60.7511 40.1965 60.7497 40.1965C59.7202 40.1965 58.8219 39.6032 58.0039 38.9638C56.5779 37.8457 55.2552 36.5453 53.9765 35.2869L46.6317 28.0614C46.5061 27.9386 46.4928 27.741 46.5989 27.6008C47.5153 26.3905 48.2992 25.2395 49.0579 24.1283C49.1137 24.0453 49.2051 23.988 49.305 23.9741C49.4048 23.9615 49.5053 23.9887 49.5814 24.0543C53.8048 27.7131 57.9173 31.6504 61.8085 35.7538C62.3823 36.3576 62.993 37.0814 63 38.0181C63.0042 38.5632 62.7815 39.0881 62.3753 39.4971C61.9426 39.9361 61.3346 40.1965 60.7511 40.1965ZM47.3436 27.7773L54.4679 34.7871C55.7333 36.0316 57.042 37.3187 58.4366 38.4117C59.1548 38.975 59.9338 39.4943 60.7511 39.4957C61.1517 39.4957 61.5733 39.3114 61.8783 39.005C62.1526 38.7293 62.302 38.3803 62.2999 38.025C62.2943 37.3431 61.8036 36.768 61.3004 36.2375C57.5159 32.2472 53.5214 28.4153 49.4201 24.8437C48.7724 25.7895 48.103 26.7618 47.3436 27.7773Z" fill="#F15959"/>
</g>
<g id="Group_5">
<g id="Group_6">
<path id="Vector_4" d="M37.3248 1.17871C28.8932 1.17871 22.0579 8.014 22.0579 16.4456C22.0579 24.8785 28.8932 31.7124 37.3248 31.7124C45.7564 31.7124 52.5916 24.8785 52.5916 16.4456C52.5923 8.014 45.7571 1.17871 37.3248 1.17871ZM37.3248 28.0418C30.9201 28.0418 25.7293 22.8502 25.7293 16.4463C25.7293 10.043 30.9208 4.85217 37.3248 4.85217C43.7287 4.85217 48.9203 10.0437 48.9203 16.4463C48.921 22.8502 43.7294 28.0418 37.3248 28.0418ZM37.3248 28.0418C30.9201 28.0418 25.7293 22.8502 25.7293 16.4463C25.7293 10.043 30.9208 4.85217 37.3248 4.85217C43.7287 4.85217 48.9203 10.0437 48.9203 16.4463C48.921 22.8502 43.7294 28.0418 37.3248 28.0418Z" fill="#FFF0F0"/>
<path id="Vector_5" d="M37.3249 32.0643C28.7132 32.0643 21.7076 25.0573 21.7076 16.4456C21.7076 7.83397 28.7132 0.828369 37.3249 0.828369C45.9365 0.828369 52.9421 7.83397 52.9421 16.4456C52.9421 25.0573 45.9365 32.0643 37.3249 32.0643ZM37.3249 1.53054C29.1006 1.53054 22.4084 8.22135 22.4084 16.4456C22.4084 24.6713 29.1006 31.3621 37.3249 31.3621C45.5491 31.3621 52.2414 24.6713 52.2414 16.4456C52.2421 8.22135 45.5498 1.53054 37.3249 1.53054ZM37.3249 28.3922C30.7373 28.3922 25.379 23.0331 25.379 16.4463C25.379 9.8602 30.738 4.50044 37.3249 4.50044C43.9117 4.50044 49.2707 9.8609 49.2707 16.4463C49.2714 23.0331 43.9124 28.3922 37.3249 28.3922ZM26.0797 16.4456C26.0797 22.6472 31.1254 27.6908 37.3249 27.6908C43.5243 27.6908 48.57 22.6465 48.57 16.4456C48.57 10.2455 43.5243 5.20191 37.3249 5.20191C31.1254 5.20191 26.0797 10.2462 26.0797 16.4456Z" fill="#F15959"/>
</g>
</g>
<g id="Group_7">
<path id="Vector_6" d="M31.3683 17.4872C32.0298 17.4872 32.5661 16.951 32.5661 16.2895C32.5661 15.628 32.0298 15.0918 31.3683 15.0918C30.7068 15.0918 30.1706 15.628 30.1706 16.2895C30.1706 16.951 30.7068 17.4872 31.3683 17.4872Z" fill="#FFF0F0"/>
<path id="Vector_7" d="M31.369 17.8382C30.514 17.8382 29.8202 17.143 29.8202 16.2894C29.8202 15.4344 30.514 14.7406 31.369 14.7406C32.2226 14.7406 32.9178 15.4344 32.9178 16.2894C32.9178 17.1423 32.2226 17.8382 31.369 17.8382ZM31.369 15.4414C30.9014 15.4414 30.521 15.8218 30.521 16.2894C30.521 16.7557 30.9014 17.1361 31.369 17.1361C31.8353 17.1361 32.2157 16.7557 32.2157 16.2894C32.2157 15.8218 31.8353 15.4414 31.369 15.4414Z" fill="#F15959"/>
</g>
<g id="Group_8">
<path id="Vector_8" d="M37.17 17.4879C37.8319 17.4879 38.3684 16.9514 38.3684 16.2895C38.3684 15.6276 37.8319 15.0911 37.17 15.0911C36.5081 15.0911 35.9715 15.6276 35.9715 16.2895C35.9715 16.9514 36.5081 17.4879 37.17 17.4879Z" fill="#FFF0F0"/>
<path id="Vector_9" d="M37.1699 17.8382C36.3149 17.8382 35.6211 17.143 35.6211 16.2894C35.6211 15.4344 36.3149 14.7406 37.1699 14.7406C38.0236 14.7406 38.7187 15.4344 38.7187 16.2894C38.7187 17.1423 38.0229 17.8382 37.1699 17.8382ZM37.1699 15.4414C36.7023 15.4414 36.3219 15.8218 36.3219 16.2894C36.3219 16.7557 36.7023 17.1361 37.1699 17.1361C37.6376 17.1361 38.0166 16.7557 38.0166 16.2894C38.0166 15.8218 37.6376 15.4414 37.1699 15.4414Z" fill="#F15959"/>
</g>
<g id="Group_9">
<path id="Vector_10" d="M42.9702 17.4879C43.632 17.4879 44.1686 16.9514 44.1686 16.2895C44.1686 15.6276 43.632 15.0911 42.9702 15.0911C42.3083 15.0911 41.7717 15.6276 41.7717 16.2895C41.7717 16.9514 42.3083 17.4879 42.9702 17.4879Z" fill="#FFF0F0"/>
<path id="Vector_11" d="M42.9701 17.8382C42.1165 17.8382 41.4213 17.143 41.4213 16.2894C41.4213 15.4344 42.1165 14.7406 42.9701 14.7406C43.8237 14.7406 44.5189 15.4344 44.5189 16.2894C44.5189 17.1423 43.8237 17.8382 42.9701 17.8382ZM42.9701 15.4414C42.5024 15.4414 42.1234 15.8218 42.1234 16.2894C42.1234 16.7557 42.5024 17.1361 42.9701 17.1361C43.4377 17.1361 43.8181 16.7557 43.8181 16.2894C43.8181 15.8218 43.4377 15.4414 42.9701 15.4414Z" fill="#F15959"/>
</g>
<g id="Group_10">
<path id="Vector_12" d="M48.847 28.2506C48.8359 28.2506 48.8254 28.2492 48.8142 28.245C48.7528 28.2276 48.7158 28.1634 48.734 28.1005L49.0041 27.1611C49.0201 27.0997 49.0843 27.0626 49.1486 27.0808C49.21 27.0982 49.2456 27.1639 49.2274 27.2253L48.9587 28.1662C48.9441 28.2164 48.898 28.2506 48.847 28.2506Z" fill="#F15959"/>
</g>
<g id="Group_11">
<path id="Vector_13" d="M50.1313 29.8959C50.1258 29.8959 50.1216 29.8959 50.1167 29.8959C50.0525 29.8861 50.0078 29.8275 50.0155 29.7639C50.1586 28.6653 50.3316 27.5555 50.5306 26.466C50.5417 26.4018 50.6031 26.3599 50.6653 26.3718C50.7295 26.3829 50.7714 26.4444 50.7595 26.5079C50.5634 27.5932 50.3903 28.6988 50.2472 29.7946C50.2388 29.8533 50.1886 29.8959 50.1313 29.8959Z" fill="#F15959"/>
</g>
<g id="Group_12">
<path id="Vector_14" d="M51.7988 31.4934C51.7346 31.4934 51.683 31.4418 51.683 31.3775C51.683 30.8282 51.7674 29.9069 51.8414 29.0945C51.8875 28.5968 51.9259 28.1675 51.9398 27.8974C51.944 27.8332 52.0012 27.7816 52.0627 27.7872C52.1283 27.7899 52.1771 27.8444 52.173 27.91C52.1604 28.1843 52.1199 28.6164 52.0745 29.1168C52.0013 29.9237 51.9161 30.8401 51.9161 31.3782C51.9161 31.4418 51.8644 31.4934 51.7988 31.4934Z" fill="#F15959"/>
</g>
<g id="Group_13">
<path id="Vector_15" d="M53.5067 33.068C53.4425 33.068 53.3908 33.0177 53.3894 32.9535L53.3008 29.0546C53.3008 28.9904 53.351 28.936 53.4153 28.9346C53.4753 28.9346 53.5339 28.9848 53.5353 29.049L53.624 32.9479C53.6253 33.0136 53.5737 33.0666 53.5095 33.068C53.5081 33.068 53.5081 33.068 53.5067 33.068Z" fill="#F15959"/>
</g>
<g id="Group_14">
<path id="Vector_16" d="M55.1316 34.7927C55.0688 34.7927 55.0171 34.7438 55.0143 34.681L54.8615 30.5964C54.8587 30.5322 54.9089 30.4778 54.9745 30.475C55.0429 30.4722 55.0932 30.5238 55.0946 30.588L55.2488 34.6712C55.2502 34.7354 55.2 34.7899 55.1358 34.7927C55.1344 34.7927 55.133 34.7927 55.1316 34.7927Z" fill="#F15959"/>
</g>
<g id="Group_15">
<path id="Vector_17" d="M56.7852 36.2459C56.7223 36.2459 56.6721 36.1984 56.6679 36.1356L56.462 32.3211C56.4578 32.2569 56.5081 32.2025 56.5723 32.1983C56.6484 32.1969 56.691 32.2444 56.6951 32.3086L56.901 36.123C56.9052 36.1872 56.8564 36.2431 56.7921 36.2459C56.7894 36.2459 56.7866 36.2459 56.7852 36.2459Z" fill="#F15959"/>
</g>
<g id="Group_16">
<path id="Vector_18" d="M58.4226 37.5896C58.3626 37.5896 58.3109 37.5435 58.3068 37.4821L58.0192 33.7688C58.015 33.7046 58.0632 33.6488 58.1267 33.6432C58.1881 33.639 58.2482 33.6858 58.2524 33.7507L58.5385 37.4639C58.5441 37.5281 58.4959 37.584 58.431 37.5896C58.4282 37.5896 58.4254 37.5896 58.4226 37.5896Z" fill="#F15959"/>
</g>
<g id="Group_17">
<path id="Vector_19" d="M59.9728 38.7977C59.9128 38.7977 59.8625 38.753 59.8569 38.693L59.5219 35.4362C59.5149 35.372 59.5617 35.3148 59.6266 35.3078C59.6853 35.3008 59.7481 35.3476 59.7537 35.4111L60.0887 38.6679C60.0957 38.7321 60.0489 38.7907 59.9854 38.7963C59.9805 38.7977 59.977 38.7977 59.9728 38.7977Z" fill="#F15959"/>
</g>
<g id="Group_18">
<path id="Vector_20" d="M61.4902 38.6246C61.4343 38.6246 61.3841 38.5834 61.3757 38.5262L61.1398 37.0702C61.1286 37.006 61.1726 36.946 61.2368 36.9369C61.301 36.9257 61.361 36.9697 61.3701 37.0339L61.606 38.4885C61.6158 38.5527 61.5732 38.6128 61.509 38.6232C61.502 38.6232 61.4964 38.6246 61.4902 38.6246Z" fill="#F15959"/>
</g>
<g id="Group_19" opacity="0.1294">
<path id="Vector_21" opacity="0.1294" d="M48.126 20.1402C47.7428 20.4633 47.5641 20.9854 47.2396 21.37C47.1796 21.4803 46.3957 22.3611 45.9525 22.782C45.5693 23.124 45.2029 23.4256 44.8281 23.7103C44.7624 23.7243 44.6961 23.7487 44.6319 23.7878C42.7236 25.1691 41.2893 25.673 38.875 26.1177C37.7296 26.3319 36.4104 26.5113 34.6055 26.0646C33.3414 25.77 32.7307 25.4239 31.4115 24.5353C30.8511 24.1417 29.601 23.041 28.7529 22.0135H28.7515C27.8379 20.7635 27.5259 19.6718 27.3381 19.1742C27.149 18.6647 27.0052 18.1398 26.8558 17.6163C26.6353 16.8967 26.5668 16.6454 26.5668 16.0333C26.4279 15.6431 26.2995 15.2494 26.1851 14.8516C26.072 14.8013 25.9464 14.7769 25.8235 14.7846C25.619 16.362 25.6476 17.9443 25.848 19.5148C26.1914 20.8737 26.6143 22.3465 27.9147 23.8087C28.9644 24.9632 29.684 25.3645 30.1356 25.7352C31.1868 26.4946 32.3056 27.1883 33.5466 27.5904C34.2244 27.7879 34.928 27.8696 35.6266 27.9519C35.6322 27.9533 35.6336 27.9533 35.6392 27.9547C36.3986 28.0922 37.1755 28.0964 37.9418 28.0106C38.5428 27.9603 39.1207 27.7844 39.7007 27.6288C40.9047 27.3328 42.1066 26.965 43.2052 26.3843C43.6513 26.1086 43.8062 26.0011 44.0149 25.8447C45.3662 25.0037 46.7593 23.8353 47.4734 23.0172C47.659 22.634 47.8384 22.2467 48.0067 21.8572C48.2181 21.2737 48.4289 20.6902 48.6362 20.1053C48.4736 20.0411 48.2844 20.0452 48.126 20.1402Z" fill="#F15959"/>
</g>
<g id="Group_20" opacity="0.1294">
<path id="Vector_22" opacity="0.1294" d="M50.6157 25.1214C50.035 24.9553 49.6462 25.3587 49.36 25.8019C49.3474 25.8166 49.3356 25.8306 49.3202 25.848C48.8128 26.4413 48.6697 26.3903 47.8328 27.1469C47.8286 27.1497 47.8259 27.1525 47.8217 27.1553C47.657 27.2712 47.4587 27.3529 47.3554 27.5329C46.6505 28.3998 47.7247 29.608 48.6816 29.0448C49.3481 28.6783 49.9177 28.1583 50.3777 27.5532C50.6722 27.2314 50.957 26.895 51.1845 26.5209C51.5056 25.9995 51.2041 25.2771 50.6157 25.1214Z" fill="#F15959"/>
</g>
</g>
<g id="Group_21">
<g id="Group_22">
<path id="Vector_23" d="M16.8796 7.49875L16.2947 5.52766L17.5245 3.7527L14.4953 1.60852C14.1037 2.25904 13.7143 2.91026 13.3227 3.56217C13.3025 3.59637 13.2801 3.63336 13.2466 3.655C13.202 3.68501 13.1447 3.68501 13.091 3.68501C12.4161 3.67524 11.7411 3.66338 11.0668 3.64662C10.7339 3.0003 10.4114 2.38676 10.0471 1.79976C10.0185 1.75369 9.98427 1.70276 9.93123 1.69089C9.87958 1.67693 9.82654 1.70694 9.77978 1.73556C8.9785 2.22763 8.17511 2.7211 7.37383 3.21318C7.35359 3.22574 7.33129 3.23899 7.31803 3.25923C7.28383 3.31088 7.31243 3.38207 7.34384 3.43652C7.64677 3.98303 8.00762 4.49606 8.41803 4.9637C8.05508 5.64563 7.67399 6.27939 7.2566 6.88872C7.15679 7.0346 7.04232 7.18886 6.8748 7.23912C6.73591 7.2803 6.58582 7.24189 6.44692 7.20071C5.88086 7.03878 5.3239 6.85312 4.7718 6.64722C4.30136 7.78283 4.21131 9.07897 4.52122 10.2718C4.56589 10.3632 6.6598 10.0575 6.6598 10.0575L7.90848 12.2701L6.9062 13.9537L9.20185 15.663L10.3947 13.8825L12.5012 13.925L13.3136 15.8033L16.4518 14.6949L15.6924 12.7685L16.821 10.8993L18.9505 10.7248L19.0161 8.07319L16.8796 7.49875ZM13.2585 8.50105C13.2801 8.59667 13.1999 8.77884 13.1643 8.86399C13.1343 8.93728 13.1028 9.00848 13.061 9.07548C12.9821 9.19972 12.8781 9.31979 12.772 9.4203C12.5473 9.63458 12.296 9.78812 12.0098 9.8963C11.894 9.94097 11.7697 9.9689 11.6483 9.99054C11.5408 10.008 11.4423 10.0178 11.3348 10.0066C11.2678 9.99962 11.2001 9.97798 11.1331 9.97659C11.3202 9.97798 11.1157 9.97936 11.0417 9.95912C10.7185 9.86629 10.4038 9.59549 10.2453 9.29676C10.1511 9.11528 10.0652 8.91355 10.0569 8.70485C10.0499 8.5164 10.0995 8.32306 10.1686 8.15136C10.2705 7.90427 10.387 7.65789 10.5364 7.43873C10.7039 7.19164 10.9154 6.9327 11.1841 6.7966C11.457 6.6577 11.7502 6.63605 12.0133 6.73796C12.1222 6.6877 12.2478 6.67095 12.3525 6.71074C12.55 6.78542 12.7155 6.88244 12.8516 7.04856C12.9849 7.21189 13.0735 7.37172 13.1517 7.57064C13.1747 7.63206 13.1957 7.69489 13.2103 7.75911C13.2201 7.7975 13.2264 7.83519 13.232 7.87358C13.2403 7.93221 13.248 7.99084 13.255 8.05086C13.255 8.0369 13.2536 8.02363 13.2522 8.00967C13.2466 7.95941 13.248 7.95662 13.2564 8.00409C13.2662 8.06411 13.2738 8.12414 13.2808 8.18416C13.2836 8.21557 13.285 8.24559 13.2836 8.27561C13.2829 8.34959 13.2787 8.42986 13.2585 8.50105Z" fill="#FFF0F0"/>
</g>
<g id="Group_23" opacity="0.1294">
<path id="Vector_24" opacity="0.1294" d="M13.6788 8.89194C13.6544 8.5604 13.1567 8.52829 13.0827 8.84936C12.9829 9.15996 13.0227 9.10552 12.6939 9.42729C12.3778 9.68624 12.4922 9.61017 12.0001 9.79234C11.5395 9.93403 11.7259 9.9054 11.3378 9.90261C11.2847 9.89284 11.2317 9.87958 11.1793 9.86144C10.9902 9.79024 11.0495 9.82723 10.6887 9.62272C10.5386 9.54664 10.4053 9.40704 10.2336 9.39657C9.71008 9.29816 9.45395 10.0743 9.91601 10.3375C10.7382 10.9126 11.5639 11.1715 12.502 10.6976C12.9871 10.4275 13.3389 9.97101 13.5162 9.43915C13.5915 9.26675 13.6935 9.08319 13.6788 8.89194Z" fill="#F15959"/>
</g>
<g id="Group_24" opacity="0.1294">
<path id="Vector_25" opacity="0.1294" d="M15.388 14.1324C15.0802 14.2455 14.9707 14.3229 14.3899 14.4283C14.1142 14.5156 13.7806 14.4709 13.5447 14.6531C13.0526 15.0104 13.4602 15.8348 14.034 15.6603C14.7222 15.5144 15.513 15.4844 16.0504 14.9651C16.472 14.4828 15.9387 13.8504 15.388 14.1324Z" fill="#F15959"/>
</g>
<g id="Group_25" opacity="0.1294">
<path id="Vector_26" opacity="0.1294" d="M19.1997 9.65703C19.1997 9.65005 19.2011 9.64447 19.2011 9.63959C19.2011 9.64517 19.1997 9.65074 19.1997 9.65562C19.2025 9.53836 19.1752 9.42112 19.118 9.32061C18.8779 8.86692 18.1827 8.9416 18.0166 9.40924C18.0054 9.43088 17.995 9.4567 17.9796 9.48671C17.9336 9.57815 17.9036 9.67588 17.8666 9.7715C17.8365 9.84409 17.7933 9.9446 17.7667 10.0004C17.7067 10.1051 17.6781 10.2189 17.6767 10.3397C17.6851 11.1137 18.7579 11.2624 18.9638 10.5183C19.0685 10.2768 19.1509 10.0304 19.1858 9.7715C19.1927 9.73311 19.1983 9.69542 19.1997 9.65703Z" fill="#F15959"/>
</g>
<g id="Group_26">
<path id="Vector_27" d="M13.2872 16.1322C13.1441 16.1322 13.0143 16.045 12.9612 15.9103C12.7379 15.347 12.5264 14.8117 12.206 14.2728C11.5855 14.3398 10.9685 14.307 10.3808 14.2512C10.2077 14.566 10.0388 14.8891 9.86151 15.227C9.75542 15.4315 9.64445 15.6415 9.52858 15.8593C9.44552 16.0178 9.25705 16.0855 9.08953 16.0212C8.05373 15.6122 7.15127 14.9471 6.48051 14.0962C6.38349 13.9748 6.37931 13.8031 6.46935 13.676C6.79949 13.2112 7.1387 12.7324 7.50234 12.1558C7.13032 11.6526 6.79458 11.06 6.48677 10.3551C6.36951 10.3795 6.25086 10.4039 6.1322 10.4297C5.63873 10.5344 5.12782 10.644 4.57432 10.7215C4.39843 10.7459 4.23371 10.637 4.18695 10.4653C3.86937 9.28367 3.9566 7.94914 4.44728 6.50083C4.50591 6.32774 4.68881 6.22793 4.8661 6.2733C5.54662 6.4464 6.21315 6.61531 6.91253 6.78701C7.19451 6.19931 7.53165 5.64581 7.88971 5.07208C7.55817 4.62467 7.19452 4.10817 6.86856 3.50721C6.79109 3.36552 6.82109 3.18962 6.93975 3.08213C7.70473 2.38136 8.66868 1.77343 9.80289 1.27158C9.96761 1.19899 10.1616 1.2632 10.2503 1.42164C10.5818 2.01353 10.8826 2.62914 11.1458 3.25663C11.8067 3.15961 12.4761 3.13659 13.1413 3.18685C13.4519 2.58728 13.7806 1.96956 14.1869 1.32324C14.2839 1.16898 14.4828 1.11453 14.6447 1.19899C15.4746 1.63243 16.2599 2.16011 16.9774 2.76665C17.1645 2.92509 17.3452 3.08842 17.5281 3.25175L17.5455 3.2664C17.6439 3.35505 17.7787 3.47649 17.8261 3.66564C17.8506 3.76266 17.8331 3.86317 17.7773 3.94623C17.6153 4.18913 17.4485 4.42994 17.2782 4.67563C17.059 4.99321 16.8322 5.32055 16.5977 5.67652C16.7938 6.16999 16.9913 6.66766 17.1728 7.16392C17.7689 7.22534 18.5171 7.34958 19.3198 7.68042C19.444 7.73207 19.5285 7.84932 19.5355 7.98333C19.6011 9.07427 19.458 10.0689 19.0992 11.0272C19.0462 11.1689 18.9192 11.2603 18.7572 11.2548L18.5227 11.245C18.0153 11.2247 17.4918 11.2038 16.9397 11.2408C16.7191 11.7545 16.3988 12.2717 15.9486 12.8399C16.2515 13.3794 16.5579 13.9427 16.8294 14.6009C16.8978 14.7656 16.8308 14.9568 16.6738 15.0427C15.578 15.6409 14.4514 16.0052 13.3228 16.1266C13.3116 16.1308 13.2997 16.1322 13.2872 16.1322ZM12.3847 13.5462C12.5033 13.5462 12.615 13.6063 12.6806 13.7068C13.0471 14.2777 13.2914 14.8466 13.5119 15.4001C14.3655 15.2758 15.2185 15.0008 16.0561 14.5778C15.7999 14.0027 15.5186 13.5064 15.2234 12.9844C15.1522 12.8573 15.1647 12.6968 15.2562 12.5851C15.8027 11.9227 16.1559 11.3525 16.3688 10.7885C16.4162 10.6629 16.5307 10.5756 16.6633 10.5638C17.3341 10.4995 17.9406 10.5226 18.5283 10.5463C18.7684 9.82111 18.8731 9.0645 18.8472 8.25066C18.1067 7.97775 17.4185 7.8905 16.8894 7.84443C16.7519 7.83327 16.6347 7.74253 16.5879 7.6127C16.3722 7.00337 16.1244 6.38287 15.8843 5.7833C15.8418 5.67861 15.8487 5.546 15.9116 5.45037C16.1873 5.02531 16.449 4.64631 16.7024 4.28057C16.8224 4.10747 16.9383 3.93856 17.0542 3.76965C16.8685 3.60353 16.6982 3.45206 16.5251 3.30479C15.9304 2.80155 15.2862 2.35624 14.6084 1.97863C14.2483 2.57541 13.9489 3.15681 13.6571 3.71938C13.5901 3.84781 13.4484 3.92251 13.3095 3.90785C12.5369 3.82898 11.7551 3.8576 10.9894 3.9951C10.8289 4.02371 10.6649 3.93507 10.6035 3.78081C10.3647 3.19032 10.0939 2.6096 9.79382 2.04982C8.95555 2.44488 8.22614 2.90484 7.62239 3.41855C7.93997 3.96228 8.28758 4.43832 8.59608 4.84733C8.68194 4.9632 8.68888 5.12163 8.6121 5.24378C8.16609 5.95572 7.74661 6.62717 7.43043 7.3405C7.36203 7.49615 7.19312 7.58061 7.027 7.53943C6.33042 7.36912 5.67083 7.203 5.01473 7.03618C4.69436 8.10618 4.6211 9.09451 4.79559 9.98095C5.20879 9.91254 5.60384 9.82809 5.98842 9.74643C6.2041 9.70036 6.41768 9.65499 6.63196 9.61311C6.79668 9.5803 6.9607 9.66757 7.02491 9.82322C7.37948 10.6831 7.76548 11.3692 8.20381 11.9199C8.29664 12.0344 8.3057 12.1963 8.22822 12.322C7.86318 12.9152 7.52467 13.4031 7.19732 13.8652C7.70614 14.4459 8.34129 14.9178 9.06091 15.2472C9.12233 15.1299 9.18235 15.0155 9.24098 14.9024C9.45945 14.4878 9.66328 14.0969 9.88175 13.7081C9.95015 13.5867 10.0862 13.5176 10.2237 13.5309C10.9057 13.6034 11.6337 13.6551 12.3351 13.5511C12.3519 13.5476 12.3686 13.5462 12.3847 13.5462Z" fill="#F15959"/>
</g>
<g id="Group_27">
<path id="Vector_28" d="M11.4194 10.1603C11.1179 10.1603 10.8157 10.0975 10.533 9.97182C10.2852 9.86154 10.1037 9.72265 9.98088 9.54536C9.81476 9.30805 9.77498 9.03304 9.75893 8.81876C9.70309 8.08937 9.87898 7.42421 10.2552 6.9426C10.72 6.34583 11.4969 6.08269 12.1446 6.30465C12.1921 6.3207 12.2347 6.34722 12.2703 6.37933C12.9424 6.61245 13.4387 7.2902 13.4792 8.03006C13.5203 8.74549 13.1476 9.45741 12.5341 9.84478C12.2033 10.0535 11.8138 10.1603 11.4194 10.1603ZM11.6679 6.92795C11.3601 6.92795 11.0272 7.09267 10.808 7.37396C10.5407 7.71736 10.4165 8.21083 10.459 8.76572C10.4688 8.88996 10.4876 9.0463 10.5574 9.14472C10.6049 9.21452 10.6908 9.27594 10.8192 9.33178C11.2582 9.52652 11.7733 9.4965 12.1621 9.25291C12.5571 9.00373 12.8056 8.52771 12.7812 8.07123C12.7554 7.61196 12.442 7.17853 12.0343 7.04033L11.9855 7.02567C11.9122 7.00264 11.8508 6.97401 11.7998 6.93981C11.7552 6.93074 11.7112 6.92795 11.6679 6.92795Z" fill="#F15959"/>
</g>
</g>
<g id="Group_28">
<g id="Group_29">
<path id="Vector_29" d="M16.8796 7.49875L16.2947 5.52766L17.5245 3.7527L14.4953 1.60852C14.1037 2.25904 13.7143 2.91026 13.3227 3.56217C13.3025 3.59637 13.2801 3.63336 13.2466 3.655C13.202 3.68501 13.1447 3.68501 13.091 3.68501C12.4161 3.67524 11.7411 3.66338 11.0668 3.64662C10.7339 3.0003 10.4114 2.38676 10.0471 1.79976C10.0185 1.75369 9.98427 1.70276 9.93123 1.69089C9.87958 1.67693 9.82654 1.70694 9.77978 1.73556C8.9785 2.22763 8.17511 2.7211 7.37383 3.21318C7.35359 3.22574 7.33129 3.23899 7.31803 3.25923C7.28383 3.31088 7.31243 3.38207 7.34384 3.43652C7.64677 3.98303 8.00762 4.49606 8.41803 4.9637C8.05508 5.64563 7.67399 6.27939 7.2566 6.88872C7.15679 7.0346 7.04232 7.18886 6.8748 7.23912C6.73591 7.2803 6.58582 7.24189 6.44692 7.20071C5.88086 7.03878 5.3239 6.85312 4.7718 6.64722C4.30136 7.78283 4.21131 9.07897 4.52122 10.2718C4.56589 10.3632 6.6598 10.0575 6.6598 10.0575L7.90848 12.2701L6.9062 13.9537L9.20185 15.663L10.3947 13.8825L12.5012 13.925L13.3136 15.8033L16.4518 14.6949L15.6924 12.7685L16.821 10.8993L18.9505 10.7248L19.0161 8.07319L16.8796 7.49875ZM13.2585 8.50105C13.2801 8.59667 13.1999 8.77884 13.1643 8.86399C13.1343 8.93728 13.1028 9.00848 13.061 9.07548C12.9821 9.19972 12.8781 9.31979 12.772 9.4203C12.5473 9.63458 12.296 9.78812 12.0098 9.8963C11.894 9.94097 11.7697 9.9689 11.6483 9.99054C11.5408 10.008 11.4423 10.0178 11.3348 10.0066C11.2678 9.99962 11.2001 9.97798 11.1331 9.97659C11.3202 9.97798 11.1157 9.97936 11.0417 9.95912C10.7185 9.86629 10.4038 9.59549 10.2453 9.29676C10.1511 9.11528 10.0652 8.91355 10.0569 8.70485C10.0499 8.5164 10.0995 8.32306 10.1686 8.15136C10.2705 7.90427 10.387 7.65789 10.5364 7.43873C10.7039 7.19164 10.9154 6.9327 11.1841 6.7966C11.457 6.6577 11.7502 6.63605 12.0133 6.73796C12.1222 6.6877 12.2478 6.67095 12.3525 6.71074C12.55 6.78542 12.7155 6.88244 12.8516 7.04856C12.9849 7.21189 13.0735 7.37172 13.1517 7.57064C13.1747 7.63206 13.1957 7.69489 13.2103 7.75911C13.2201 7.7975 13.2264 7.83519 13.232 7.87358C13.2403 7.93221 13.248 7.99084 13.255 8.05086C13.255 8.0369 13.2536 8.02363 13.2522 8.00967C13.2466 7.95941 13.248 7.95662 13.2564 8.00409C13.2662 8.06411 13.2738 8.12414 13.2808 8.18416C13.2836 8.21557 13.285 8.24559 13.2836 8.27561C13.2829 8.34959 13.2787 8.42986 13.2585 8.50105Z" fill="#FFF0F0"/>
</g>
<g id="Group_30" opacity="0.1294">
<path id="Vector_30" opacity="0.1294" d="M13.6788 8.89194C13.6544 8.5604 13.1567 8.52829 13.0827 8.84936C12.9829 9.15996 13.0227 9.10552 12.6939 9.42729C12.3778 9.68624 12.4922 9.61017 12.0001 9.79234C11.5395 9.93403 11.7259 9.9054 11.3378 9.90261C11.2847 9.89284 11.2317 9.87958 11.1793 9.86144C10.9902 9.79024 11.0495 9.82723 10.6887 9.62272C10.5386 9.54664 10.4053 9.40704 10.2336 9.39657C9.71008 9.29816 9.45395 10.0743 9.91601 10.3375C10.7382 10.9126 11.5639 11.1715 12.502 10.6976C12.9871 10.4275 13.3389 9.97101 13.5162 9.43915C13.5915 9.26675 13.6935 9.08319 13.6788 8.89194Z" fill="#F15959"/>
</g>
<g id="Group_31" opacity="0.1294">
<path id="Vector_31" opacity="0.1294" d="M15.388 14.1324C15.0802 14.2455 14.9707 14.3229 14.3899 14.4283C14.1142 14.5156 13.7806 14.4709 13.5447 14.6531C13.0526 15.0104 13.4602 15.8348 14.034 15.6603C14.7222 15.5144 15.513 15.4844 16.0504 14.9651C16.472 14.4828 15.9387 13.8504 15.388 14.1324Z" fill="#F15959"/>
</g>
<g id="Group_32" opacity="0.1294">
<path id="Vector_32" opacity="0.1294" d="M19.1997 9.65703C19.1997 9.65005 19.2011 9.64447 19.2011 9.63959C19.2011 9.64517 19.1997 9.65074 19.1997 9.65562C19.2025 9.53836 19.1752 9.42112 19.118 9.32061C18.8779 8.86692 18.1827 8.9416 18.0166 9.40924C18.0054 9.43088 17.995 9.4567 17.9796 9.48671C17.9336 9.57815 17.9036 9.67588 17.8666 9.7715C17.8365 9.84409 17.7933 9.9446 17.7667 10.0004C17.7067 10.1051 17.6781 10.2189 17.6767 10.3397C17.6851 11.1137 18.7579 11.2624 18.9638 10.5183C19.0685 10.2768 19.1509 10.0304 19.1858 9.7715C19.1927 9.73311 19.1983 9.69542 19.1997 9.65703Z" fill="#F15959"/>
</g>
<g id="Group_33">
<path id="Vector_33" d="M13.2872 16.1322C13.1441 16.1322 13.0143 16.045 12.9612 15.9103C12.7379 15.347 12.5264 14.8117 12.206 14.2728C11.5855 14.3398 10.9685 14.307 10.3808 14.2512C10.2077 14.566 10.0388 14.8891 9.86151 15.227C9.75542 15.4315 9.64445 15.6415 9.52858 15.8593C9.44552 16.0178 9.25705 16.0855 9.08953 16.0212C8.05373 15.6122 7.15127 14.9471 6.48051 14.0962C6.38349 13.9748 6.37931 13.8031 6.46935 13.676C6.79949 13.2112 7.1387 12.7324 7.50234 12.1558C7.13032 11.6526 6.79458 11.06 6.48677 10.3551C6.36951 10.3795 6.25086 10.4039 6.1322 10.4297C5.63873 10.5344 5.12782 10.644 4.57432 10.7215C4.39843 10.7459 4.23371 10.637 4.18695 10.4653C3.86937 9.28367 3.9566 7.94914 4.44728 6.50083C4.50591 6.32774 4.68881 6.22793 4.8661 6.2733C5.54662 6.4464 6.21315 6.61531 6.91253 6.78701C7.19451 6.19931 7.53165 5.64581 7.88971 5.07208C7.55817 4.62467 7.19452 4.10817 6.86856 3.50721C6.79109 3.36552 6.82109 3.18962 6.93975 3.08213C7.70473 2.38136 8.66868 1.77343 9.80289 1.27158C9.96761 1.19899 10.1616 1.2632 10.2503 1.42164C10.5818 2.01353 10.8826 2.62914 11.1458 3.25663C11.8067 3.15961 12.4761 3.13659 13.1413 3.18685C13.4519 2.58728 13.7806 1.96956 14.1869 1.32324C14.2839 1.16898 14.4828 1.11453 14.6447 1.19899C15.4746 1.63243 16.2599 2.16011 16.9774 2.76665C17.1645 2.92509 17.3452 3.08842 17.5281 3.25175L17.5455 3.2664C17.6439 3.35505 17.7787 3.47649 17.8261 3.66564C17.8506 3.76266 17.8331 3.86317 17.7773 3.94623C17.6153 4.18913 17.4485 4.42994 17.2782 4.67563C17.059 4.99321 16.8322 5.32055 16.5977 5.67652C16.7938 6.16999 16.9913 6.66766 17.1728 7.16392C17.7689 7.22534 18.5171 7.34958 19.3198 7.68042C19.444 7.73207 19.5285 7.84932 19.5355 7.98333C19.6011 9.07427 19.458 10.0689 19.0992 11.0272C19.0462 11.1689 18.9192 11.2603 18.7572 11.2548L18.5227 11.245C18.0153 11.2247 17.4918 11.2038 16.9397 11.2408C16.7191 11.7545 16.3988 12.2717 15.9486 12.8399C16.2515 13.3794 16.5579 13.9427 16.8294 14.6009C16.8978 14.7656 16.8308 14.9568 16.6738 15.0427C15.578 15.6409 14.4514 16.0052 13.3228 16.1266C13.3116 16.1308 13.2997 16.1322 13.2872 16.1322ZM12.3847 13.5462C12.5033 13.5462 12.615 13.6063 12.6806 13.7068C13.0471 14.2777 13.2914 14.8466 13.5119 15.4001C14.3655 15.2758 15.2185 15.0008 16.0561 14.5778C15.7999 14.0027 15.5186 13.5064 15.2234 12.9844C15.1522 12.8573 15.1647 12.6968 15.2562 12.5851C15.8027 11.9227 16.1559 11.3525 16.3688 10.7885C16.4162 10.6629 16.5307 10.5756 16.6633 10.5638C17.3341 10.4995 17.9406 10.5226 18.5283 10.5463C18.7684 9.82111 18.8731 9.0645 18.8472 8.25066C18.1067 7.97775 17.4185 7.8905 16.8894 7.84443C16.7519 7.83327 16.6347 7.74253 16.5879 7.6127C16.3722 7.00337 16.1244 6.38287 15.8843 5.7833C15.8418 5.67861 15.8487 5.546 15.9116 5.45037C16.1873 5.02531 16.449 4.64631 16.7024 4.28057C16.8224 4.10747 16.9383 3.93856 17.0542 3.76965C16.8685 3.60353 16.6982 3.45206 16.5251 3.30479C15.9304 2.80155 15.2862 2.35624 14.6084 1.97863C14.2483 2.57541 13.9489 3.15681 13.6571 3.71938C13.5901 3.84781 13.4484 3.92251 13.3095 3.90785C12.5369 3.82898 11.7551 3.8576 10.9894 3.9951C10.8289 4.02371 10.6649 3.93507 10.6035 3.78081C10.3647 3.19032 10.0939 2.6096 9.79382 2.04982C8.95555 2.44488 8.22614 2.90484 7.62239 3.41855C7.93997 3.96228 8.28758 4.43832 8.59608 4.84733C8.68194 4.9632 8.68888 5.12163 8.6121 5.24378C8.16609 5.95572 7.74661 6.62717 7.43043 7.3405C7.36203 7.49615 7.19312 7.58061 7.027 7.53943C6.33042 7.36912 5.67083 7.203 5.01473 7.03618C4.69436 8.10618 4.6211 9.09451 4.79559 9.98095C5.20879 9.91254 5.60384 9.82809 5.98842 9.74643C6.2041 9.70036 6.41768 9.65499 6.63196 9.61311C6.79668 9.5803 6.9607 9.66757 7.02491 9.82322C7.37948 10.6831 7.76548 11.3692 8.20381 11.9199C8.29664 12.0344 8.3057 12.1963 8.22822 12.322C7.86318 12.9152 7.52467 13.4031 7.19732 13.8652C7.70614 14.4459 8.34129 14.9178 9.06091 15.2472C9.12233 15.1299 9.18235 15.0155 9.24098 14.9024C9.45945 14.4878 9.66328 14.0969 9.88175 13.7081C9.95015 13.5867 10.0862 13.5176 10.2237 13.5309C10.9057 13.6034 11.6337 13.6551 12.3351 13.5511C12.3519 13.5476 12.3686 13.5462 12.3847 13.5462Z" fill="#F15959"/>
</g>
<g id="Group_34">
<path id="Vector_34" d="M11.4194 10.1603C11.1179 10.1603 10.8157 10.0975 10.533 9.97182C10.2852 9.86154 10.1037 9.72265 9.98088 9.54536C9.81476 9.30805 9.77498 9.03304 9.75893 8.81876C9.70309 8.08937 9.87898 7.42421 10.2552 6.9426C10.72 6.34583 11.4969 6.08269 12.1446 6.30465C12.1921 6.3207 12.2347 6.34722 12.2703 6.37933C12.9424 6.61245 13.4387 7.2902 13.4792 8.03006C13.5203 8.74549 13.1476 9.45741 12.5341 9.84478C12.2033 10.0535 11.8138 10.1603 11.4194 10.1603ZM11.6679 6.92795C11.3601 6.92795 11.0272 7.09267 10.808 7.37396C10.5407 7.71736 10.4165 8.21083 10.459 8.76572C10.4688 8.88996 10.4876 9.0463 10.5574 9.14472C10.6049 9.21452 10.6908 9.27594 10.8192 9.33178C11.2582 9.52652 11.7733 9.4965 12.1621 9.25291C12.5571 9.00373 12.8056 8.52771 12.7812 8.07123C12.7554 7.61196 12.442 7.17853 12.0343 7.04033L11.9855 7.02567C11.9122 7.00264 11.8508 6.97401 11.7998 6.93981C11.7552 6.93074 11.7112 6.92795 11.6679 6.92795Z" fill="#F15959"/>
</g>
</g>
<g id="Group_35">
<g id="Group_36">
<path id="Vector_35" d="M16.8796 7.49875L16.2947 5.52766L17.5245 3.7527L14.4953 1.60852C14.1037 2.25904 13.7143 2.91026 13.3227 3.56217C13.3025 3.59637 13.2801 3.63336 13.2466 3.655C13.202 3.68501 13.1447 3.68501 13.091 3.68501C12.4161 3.67524 11.7411 3.66338 11.0668 3.64662C10.7339 3.0003 10.4114 2.38676 10.0471 1.79976C10.0185 1.75369 9.98427 1.70276 9.93123 1.69089C9.87958 1.67693 9.82654 1.70694 9.77978 1.73556C8.9785 2.22763 8.17511 2.7211 7.37383 3.21318C7.35359 3.22574 7.33129 3.23899 7.31803 3.25923C7.28383 3.31088 7.31243 3.38207 7.34384 3.43652C7.64677 3.98303 8.00762 4.49606 8.41803 4.9637C8.05508 5.64563 7.67399 6.27939 7.2566 6.88872C7.15679 7.0346 7.04232 7.18886 6.8748 7.23912C6.73591 7.2803 6.58582 7.24189 6.44692 7.20071C5.88086 7.03878 5.3239 6.85312 4.7718 6.64722C4.30136 7.78283 4.21131 9.07897 4.52122 10.2718C4.56589 10.3632 6.6598 10.0575 6.6598 10.0575L7.90848 12.2701L6.9062 13.9537L9.20185 15.663L10.3947 13.8825L12.5012 13.925L13.3136 15.8033L16.4518 14.6949L15.6924 12.7685L16.821 10.8993L18.9505 10.7248L19.0161 8.07319L16.8796 7.49875ZM13.2585 8.50105C13.2801 8.59667 13.1999 8.77884 13.1643 8.86399C13.1343 8.93728 13.1028 9.00848 13.061 9.07548C12.9821 9.19972 12.8781 9.31979 12.772 9.4203C12.5473 9.63458 12.296 9.78812 12.0098 9.8963C11.894 9.94097 11.7697 9.9689 11.6483 9.99054C11.5408 10.008 11.4423 10.0178 11.3348 10.0066C11.2678 9.99962 11.2001 9.97798 11.1331 9.97659C11.3202 9.97798 11.1157 9.97936 11.0417 9.95912C10.7185 9.86629 10.4038 9.59549 10.2453 9.29676C10.1511 9.11528 10.0652 8.91355 10.0569 8.70485C10.0499 8.5164 10.0995 8.32306 10.1686 8.15136C10.2705 7.90427 10.387 7.65789 10.5364 7.43873C10.7039 7.19164 10.9154 6.9327 11.1841 6.7966C11.457 6.6577 11.7502 6.63605 12.0133 6.73796C12.1222 6.6877 12.2478 6.67095 12.3525 6.71074C12.55 6.78542 12.7155 6.88244 12.8516 7.04856C12.9849 7.21189 13.0735 7.37172 13.1517 7.57064C13.1747 7.63206 13.1957 7.69489 13.2103 7.75911C13.2201 7.7975 13.2264 7.83519 13.232 7.87358C13.2403 7.93221 13.248 7.99084 13.255 8.05086C13.255 8.0369 13.2536 8.02363 13.2522 8.00967C13.2466 7.95941 13.248 7.95662 13.2564 8.00409C13.2662 8.06411 13.2738 8.12414 13.2808 8.18416C13.2836 8.21557 13.285 8.24559 13.2836 8.27561C13.2829 8.34959 13.2787 8.42986 13.2585 8.50105Z" fill="#FFF0F0"/>
</g>
<g id="Group_37" opacity="0.1294">
<path id="Vector_36" opacity="0.1294" d="M13.6788 8.89194C13.6544 8.5604 13.1567 8.52829 13.0827 8.84936C12.9829 9.15996 13.0227 9.10552 12.6939 9.42729C12.3778 9.68624 12.4922 9.61017 12.0001 9.79234C11.5395 9.93403 11.7259 9.9054 11.3378 9.90261C11.2847 9.89284 11.2317 9.87958 11.1793 9.86144C10.9902 9.79024 11.0495 9.82723 10.6887 9.62272C10.5386 9.54664 10.4053 9.40704 10.2336 9.39657C9.71008 9.29816 9.45395 10.0743 9.91601 10.3375C10.7382 10.9126 11.5639 11.1715 12.502 10.6976C12.9871 10.4275 13.3389 9.97101 13.5162 9.43915C13.5915 9.26675 13.6935 9.08319 13.6788 8.89194Z" fill="#F15959"/>
</g>
<g id="Group_38" opacity="0.1294">
<path id="Vector_37" opacity="0.1294" d="M15.388 14.1324C15.0802 14.2455 14.9707 14.3229 14.3899 14.4283C14.1142 14.5156 13.7806 14.4709 13.5447 14.6531C13.0526 15.0104 13.4602 15.8348 14.034 15.6603C14.7222 15.5144 15.513 15.4844 16.0504 14.9651C16.472 14.4828 15.9387 13.8504 15.388 14.1324Z" fill="#F15959"/>
</g>
<g id="Group_39" opacity="0.1294">
<path id="Vector_38" opacity="0.1294" d="M19.1997 9.65703C19.1997 9.65005 19.2011 9.64447 19.2011 9.63959C19.2011 9.64517 19.1997 9.65074 19.1997 9.65562C19.2025 9.53836 19.1752 9.42112 19.118 9.32061C18.8779 8.86692 18.1827 8.9416 18.0166 9.40924C18.0054 9.43088 17.995 9.4567 17.9796 9.48671C17.9336 9.57815 17.9036 9.67588 17.8666 9.7715C17.8365 9.84409 17.7933 9.9446 17.7667 10.0004C17.7067 10.1051 17.6781 10.2189 17.6767 10.3397C17.6851 11.1137 18.7579 11.2624 18.9638 10.5183C19.0685 10.2768 19.1509 10.0304 19.1858 9.7715C19.1927 9.73311 19.1983 9.69542 19.1997 9.65703Z" fill="#F15959"/>
</g>
<g id="Group_40">
<path id="Vector_39" d="M13.2872 16.1322C13.1441 16.1322 13.0143 16.045 12.9612 15.9103C12.7379 15.347 12.5264 14.8117 12.206 14.2728C11.5855 14.3398 10.9685 14.307 10.3808 14.2512C10.2077 14.566 10.0388 14.8891 9.86151 15.227C9.75542 15.4315 9.64445 15.6415 9.52858 15.8593C9.44552 16.0178 9.25705 16.0855 9.08953 16.0212C8.05373 15.6122 7.15127 14.9471 6.48051 14.0962C6.38349 13.9748 6.37931 13.8031 6.46935 13.676C6.79949 13.2112 7.1387 12.7324 7.50234 12.1558C7.13032 11.6526 6.79458 11.06 6.48677 10.3551C6.36951 10.3795 6.25086 10.4039 6.1322 10.4297C5.63873 10.5344 5.12782 10.644 4.57432 10.7215C4.39843 10.7459 4.23371 10.637 4.18695 10.4653C3.86937 9.28367 3.9566 7.94914 4.44728 6.50083C4.50591 6.32774 4.68881 6.22793 4.8661 6.2733C5.54662 6.4464 6.21315 6.61531 6.91253 6.78701C7.19451 6.19931 7.53165 5.64581 7.88971 5.07208C7.55817 4.62467 7.19452 4.10817 6.86856 3.50721C6.79109 3.36552 6.82109 3.18962 6.93975 3.08213C7.70473 2.38136 8.66868 1.77343 9.80289 1.27158C9.96761 1.19899 10.1616 1.2632 10.2503 1.42164C10.5818 2.01353 10.8826 2.62914 11.1458 3.25663C11.8067 3.15961 12.4761 3.13659 13.1413 3.18685C13.4519 2.58728 13.7806 1.96956 14.1869 1.32324C14.2839 1.16898 14.4828 1.11453 14.6447 1.19899C15.4746 1.63243 16.2599 2.16011 16.9774 2.76665C17.1645 2.92509 17.3452 3.08842 17.5281 3.25175L17.5455 3.2664C17.6439 3.35505 17.7787 3.47649 17.8261 3.66564C17.8506 3.76266 17.8331 3.86317 17.7773 3.94623C17.6153 4.18913 17.4485 4.42994 17.2782 4.67563C17.059 4.99321 16.8322 5.32055 16.5977 5.67652C16.7938 6.16999 16.9913 6.66766 17.1728 7.16392C17.7689 7.22534 18.5171 7.34958 19.3198 7.68042C19.444 7.73207 19.5285 7.84932 19.5355 7.98333C19.6011 9.07427 19.458 10.0689 19.0992 11.0272C19.0462 11.1689 18.9192 11.2603 18.7572 11.2548L18.5227 11.245C18.0153 11.2247 17.4918 11.2038 16.9397 11.2408C16.7191 11.7545 16.3988 12.2717 15.9486 12.8399C16.2515 13.3794 16.5579 13.9427 16.8294 14.6009C16.8978 14.7656 16.8308 14.9568 16.6738 15.0427C15.578 15.6409 14.4514 16.0052 13.3228 16.1266C13.3116 16.1308 13.2997 16.1322 13.2872 16.1322ZM12.3847 13.5462C12.5033 13.5462 12.615 13.6063 12.6806 13.7068C13.0471 14.2777 13.2914 14.8466 13.5119 15.4001C14.3655 15.2758 15.2185 15.0008 16.0561 14.5778C15.7999 14.0027 15.5186 13.5064 15.2234 12.9844C15.1522 12.8573 15.1647 12.6968 15.2562 12.5851C15.8027 11.9227 16.1559 11.3525 16.3688 10.7885C16.4162 10.6629 16.5307 10.5756 16.6633 10.5638C17.3341 10.4995 17.9406 10.5226 18.5283 10.5463C18.7684 9.82111 18.8731 9.0645 18.8472 8.25066C18.1067 7.97775 17.4185 7.8905 16.8894 7.84443C16.7519 7.83327 16.6347 7.74253 16.5879 7.6127C16.3722 7.00337 16.1244 6.38287 15.8843 5.7833C15.8418 5.67861 15.8487 5.546 15.9116 5.45037C16.1873 5.02531 16.449 4.64631 16.7024 4.28057C16.8224 4.10747 16.9383 3.93856 17.0542 3.76965C16.8685 3.60353 16.6982 3.45206 16.5251 3.30479C15.9304 2.80155 15.2862 2.35624 14.6084 1.97863C14.2483 2.57541 13.9489 3.15681 13.6571 3.71938C13.5901 3.84781 13.4484 3.92251 13.3095 3.90785C12.5369 3.82898 11.7551 3.8576 10.9894 3.9951C10.8289 4.02371 10.6649 3.93507 10.6035 3.78081C10.3647 3.19032 10.0939 2.6096 9.79382 2.04982C8.95555 2.44488 8.22614 2.90484 7.62239 3.41855C7.93997 3.96228 8.28758 4.43832 8.59608 4.84733C8.68194 4.9632 8.68888 5.12163 8.6121 5.24378C8.16609 5.95572 7.74661 6.62717 7.43043 7.3405C7.36203 7.49615 7.19312 7.58061 7.027 7.53943C6.33042 7.36912 5.67083 7.203 5.01473 7.03618C4.69436 8.10618 4.6211 9.09451 4.79559 9.98095C5.20879 9.91254 5.60384 9.82809 5.98842 9.74643C6.2041 9.70036 6.41768 9.65499 6.63196 9.61311C6.79668 9.5803 6.9607 9.66757 7.02491 9.82322C7.37948 10.6831 7.76548 11.3692 8.20381 11.9199C8.29664 12.0344 8.3057 12.1963 8.22822 12.322C7.86318 12.9152 7.52467 13.4031 7.19732 13.8652C7.70614 14.4459 8.34129 14.9178 9.06091 15.2472C9.12233 15.1299 9.18235 15.0155 9.24098 14.9024C9.45945 14.4878 9.66328 14.0969 9.88175 13.7081C9.95015 13.5867 10.0862 13.5176 10.2237 13.5309C10.9057 13.6034 11.6337 13.6551 12.3351 13.5511C12.3519 13.5476 12.3686 13.5462 12.3847 13.5462Z" fill="#F15959"/>
</g>
<g id="Group_41">
<path id="Vector_40" d="M11.4194 10.1603C11.1179 10.1603 10.8157 10.0975 10.533 9.97182C10.2852 9.86154 10.1037 9.72265 9.98088 9.54536C9.81476 9.30805 9.77498 9.03304 9.75893 8.81876C9.70309 8.08937 9.87898 7.42421 10.2552 6.9426C10.72 6.34583 11.4969 6.08269 12.1446 6.30465C12.1921 6.3207 12.2347 6.34722 12.2703 6.37933C12.9424 6.61245 13.4387 7.2902 13.4792 8.03006C13.5203 8.74549 13.1476 9.45741 12.5341 9.84478C12.2033 10.0535 11.8138 10.1603 11.4194 10.1603ZM11.6679 6.92795C11.3601 6.92795 11.0272 7.09267 10.808 7.37396C10.5407 7.71736 10.4165 8.21083 10.459 8.76572C10.4688 8.88996 10.4876 9.0463 10.5574 9.14472C10.6049 9.21452 10.6908 9.27594 10.8192 9.33178C11.2582 9.52652 11.7733 9.4965 12.1621 9.25291C12.5571 9.00373 12.8056 8.52771 12.7812 8.07123C12.7554 7.61196 12.442 7.17853 12.0343 7.04033L11.9855 7.02567C11.9122 7.00264 11.8508 6.97401 11.7998 6.93981C11.7552 6.93074 11.7112 6.92795 11.6679 6.92795Z" fill="#F15959"/>
</g>
</g>
<g id="Group_42" opacity="0.1294">
<path id="Vector_41" opacity="0.1294" d="M25.1954 25.8836C24.6217 25.2973 23.9537 24.263 23.3744 23.082C22.8279 21.9066 22.5508 21.4669 22.3177 20.0283C22.2179 19.2934 22.2046 19.4588 22.1843 18.6882C22.2485 18.3532 22.2716 17.9804 22.0015 17.7271C21.5136 17.2238 20.6258 17.6315 20.6767 18.3294C20.6711 18.3936 20.6851 18.4565 20.6955 18.52C20.7011 18.5647 20.7067 18.61 20.7116 18.6547C20.7088 18.6372 20.706 18.6491 20.7102 18.7273C20.683 19.0393 20.8519 20.2321 20.8505 20.1993C20.965 21.3405 21.3824 22.4105 21.8633 23.4414C22.444 24.7131 23.142 25.9528 24.0884 26.99C24.8339 27.7019 25.9025 26.6347 25.1954 25.8836Z" fill="#F15959"/>
</g>
<g id="Group_43" opacity="0.1294">
<path id="Vector_42" opacity="0.1294" d="M39.0523 31.4822C37.9823 31.767 37.5579 31.737 36.2457 31.6692C34.7737 31.5317 34.0129 31.538 32.5325 30.9329C32.5179 30.9259 32.4997 30.9182 32.4767 30.9057C31.8918 30.5427 31.1163 31.2044 31.4241 31.8326C31.5812 32.2702 32.1221 32.3191 32.4955 32.4922C34.1602 33.0673 35.9623 33.0757 37.7031 33.1846C38.1296 33.1776 38.5554 33.1085 38.9762 33.0345C39.2219 32.9717 39.5095 32.9689 39.707 32.7958C40.3624 32.3226 39.8263 31.2616 39.0523 31.4822Z" fill="#F15959"/>
</g>
</g>
</svg>
