<svg width="60" height="44" viewBox="0 0 60 44" fill="none" xmlns="http://www.w3.org/2000/svg">
<g id="Group">
<g id="Group_2">
<g id="Group_3">
<path id="Vector" d="M37.0786 31.7756H0.330452V43.573H37.0786V31.7756Z" fill="#FFF0F0"/>
<path id="Vector_2" d="M37.0786 43.905H0.330457C0.148118 43.905 0 43.7569 0 43.5732V31.7759C0 31.5935 0.148118 31.4454 0.330457 31.4454H37.0786C37.2609 31.4454 37.409 31.5935 37.409 31.7759V43.5732C37.409 43.7569 37.2616 43.905 37.0786 43.905ZM0.660914 43.2428H36.7468V32.1063H0.660914V43.2428Z" fill="#F15959"/>
</g>
<g id="Group_4">
<path id="Vector_3" d="M37.0786 0.646729H0.330452V12.4447H37.0786V0.646729Z" fill="#FFF0F0"/>
<path id="Vector_4" d="M37.0786 12.7765H0.330457C0.148118 12.7765 0 12.6284 0 12.4461V0.646704C0 0.463049 0.148118 0.314941 0.330457 0.314941H37.0786C37.2609 0.314941 37.409 0.463049 37.409 0.646704V12.4461C37.409 12.6284 37.2616 12.7765 37.0786 12.7765ZM0.660914 12.1143H36.7468V0.977151H0.660914V12.1143Z" fill="#F15959"/>
</g>
<g id="Group_5">
<path id="Vector_5" d="M37.0786 16.2119H0.330452V28.0106H37.0786V16.2119Z" fill="#FFCACA"/>
<path id="Vector_6" d="M37.0786 28.3404H0.330457C0.148118 28.3404 0 28.1923 0 28.01V16.2113C0 16.029 0.148118 15.8809 0.330457 15.8809H37.0786C37.2609 15.8809 37.409 16.029 37.409 16.2113V28.01C37.409 28.193 37.2616 28.3404 37.0786 28.3404ZM0.660914 27.6789H36.7468V16.5424H0.660914V27.6789Z" fill="#F15959"/>
</g>
<g id="Group_6">
<path id="Vector_7" d="M6.38893 7.88347C7.1931 7.88347 7.84499 7.23156 7.84499 6.42739C7.84499 5.62322 7.1931 4.97131 6.38893 4.97131C5.58476 4.97131 4.93287 5.62322 4.93287 6.42739C4.93287 7.23156 5.58476 7.88347 6.38893 7.88347Z" fill="#FFF0F0"/>
<path id="Vector_8" d="M6.38964 8.21477C5.40488 8.21477 4.60248 7.41235 4.60248 6.42759C4.60248 5.44283 5.40488 4.64172 6.38964 4.64172C7.3744 4.64172 8.17551 5.44283 8.17551 6.42759C8.17551 7.41235 7.3744 8.21477 6.38964 8.21477ZM6.38964 5.30262C5.7689 5.30262 5.26468 5.80816 5.26468 6.42759C5.26468 7.04833 5.7689 7.55256 6.38964 7.55256C7.00906 7.55256 7.51464 7.04833 7.51464 6.42759C7.51464 5.80816 7.00972 5.30262 6.38964 5.30262Z" fill="#F15959"/>
</g>
<g id="Group_7">
<path id="Vector_9" d="M6.38893 7.88347C7.1931 7.88347 7.84499 7.23156 7.84499 6.42739C7.84499 5.62322 7.1931 4.97131 6.38893 4.97131C5.58476 4.97131 4.93287 5.62322 4.93287 6.42739C4.93287 7.23156 5.58476 7.88347 6.38893 7.88347Z" fill="#FFF0F0"/>
<path id="Vector_10" d="M6.38964 8.21477C5.40488 8.21477 4.60248 7.41235 4.60248 6.42759C4.60248 5.44283 5.40488 4.64172 6.38964 4.64172C7.3744 4.64172 8.17551 5.44283 8.17551 6.42759C8.17551 7.41235 7.3744 8.21477 6.38964 8.21477ZM6.38964 5.30262C5.7689 5.30262 5.26468 5.80816 5.26468 6.42759C5.26468 7.04833 5.7689 7.55256 6.38964 7.55256C7.00906 7.55256 7.51464 7.04833 7.51464 6.42759C7.51464 5.80816 7.00972 5.30262 6.38964 5.30262Z" fill="#F15959"/>
</g>
<g id="Group_8">
<path id="Vector_11" d="M6.38893 23.5666C7.1931 23.5666 7.84499 22.9147 7.84499 22.1105C7.84499 21.3063 7.1931 20.6544 6.38893 20.6544C5.58476 20.6544 4.93287 21.3063 4.93287 22.1105C4.93287 22.9147 5.58476 23.5666 6.38893 23.5666Z" fill="#FFF0F0"/>
<path id="Vector_12" d="M6.38964 23.8973C5.40488 23.8973 4.60248 23.0949 4.60248 22.1101C4.60248 21.1253 5.40488 20.3242 6.38964 20.3242C7.3744 20.3242 8.17551 21.1253 8.17551 22.1101C8.17551 23.0949 7.3744 23.8973 6.38964 23.8973ZM6.38964 20.9858C5.7689 20.9858 5.26468 21.4913 5.26468 22.1107C5.26468 22.7315 5.7689 23.2357 6.38964 23.2357C7.00906 23.2357 7.51464 22.7315 7.51464 22.1107C7.51464 21.4907 7.00972 20.9858 6.38964 20.9858Z" fill="#F15959"/>
</g>
<g id="Group_9">
<path id="Vector_13" d="M6.38893 39.1305C7.1931 39.1305 7.84499 38.4786 7.84499 37.6745C7.84499 36.8703 7.1931 36.2184 6.38893 36.2184C5.58476 36.2184 4.93287 36.8703 4.93287 37.6745C4.93287 38.4786 5.58476 39.1305 6.38893 39.1305Z" fill="#FFF0F0"/>
<path id="Vector_14" d="M6.38964 39.4618C5.40488 39.4618 4.60248 38.6594 4.60248 37.6747C4.60248 36.6899 5.40488 35.8888 6.38964 35.8888C7.3744 35.8888 8.17551 36.6899 8.17551 37.6747C8.17551 38.6594 7.3744 39.4618 6.38964 39.4618ZM6.38964 36.5497C5.7689 36.5497 5.26468 37.0552 5.26468 37.6747C5.26468 38.2954 5.7689 38.7996 6.38964 38.7996C7.00906 38.7996 7.51464 38.2954 7.51464 37.6747C7.51464 37.0552 7.00972 36.5497 6.38964 36.5497Z" fill="#F15959"/>
</g>
<g id="Group_10">
<path id="Vector_15" d="M6.38893 39.1305C7.1931 39.1305 7.84499 38.4786 7.84499 37.6745C7.84499 36.8703 7.1931 36.2184 6.38893 36.2184C5.58476 36.2184 4.93287 36.8703 4.93287 37.6745C4.93287 38.4786 5.58476 39.1305 6.38893 39.1305Z" fill="#FFF0F0"/>
<path id="Vector_16" d="M6.38964 39.4618C5.40488 39.4618 4.60248 38.6594 4.60248 37.6747C4.60248 36.6899 5.40488 35.8888 6.38964 35.8888C7.3744 35.8888 8.17551 36.6899 8.17551 37.6747C8.17551 38.6594 7.3744 39.4618 6.38964 39.4618ZM6.38964 36.5497C5.7689 36.5497 5.26468 37.0552 5.26468 37.6747C5.26468 38.2954 5.7689 38.7996 6.38964 38.7996C7.00906 38.7996 7.51464 38.2954 7.51464 37.6747C7.51464 37.0552 7.00972 36.5497 6.38964 36.5497Z" fill="#F15959"/>
</g>
<g id="Group_11">
<path id="Vector_17" d="M13.8571 23.5659C14.6609 23.5659 15.3125 22.9143 15.3125 22.1104C15.3125 21.3066 14.6609 20.655 13.8571 20.655C13.0533 20.655 12.4017 21.3066 12.4017 22.1104C12.4017 22.9143 13.0533 23.5659 13.8571 23.5659Z" fill="#FFF0F0"/>
<path id="Vector_18" d="M13.8571 23.8973C12.8723 23.8973 12.0699 23.0949 12.0699 22.1101C12.0699 21.1253 12.8723 20.3242 13.8571 20.3242C14.8418 20.3242 15.6429 21.1253 15.6429 22.1101C15.6429 23.0949 14.8418 23.8973 13.8571 23.8973ZM13.8571 20.9858C13.2363 20.9858 12.7321 21.4913 12.7321 22.1107C12.7321 22.7315 13.2363 23.2357 13.8571 23.2357C14.4778 23.2357 14.982 22.7315 14.982 22.1107C14.982 21.4907 14.4778 20.9858 13.8571 20.9858Z" fill="#F15959"/>
</g>
<g id="Group_12">
<path id="Vector_19" d="M4.88705 42.6195C4.85875 42.6195 4.83043 42.6089 4.80871 42.5872C4.76658 42.5438 4.76658 42.474 4.80871 42.4319C7.14751 40.0931 10.3901 36.4318 13.4846 32.635C13.5234 32.5889 13.5926 32.581 13.64 32.6198C13.6874 32.6587 13.6939 32.7278 13.6551 32.7752C10.5567 36.5766 7.30749 40.2451 4.96407 42.5872C4.94367 42.6089 4.91536 42.6195 4.88705 42.6195Z" fill="#F15959"/>
</g>
<g id="Group_13">
<path id="Vector_20" d="M2.45799 42.4371C2.431 42.4371 2.40531 42.4279 2.38491 42.4101C2.34015 42.37 2.33489 42.3009 2.37438 42.2548L4.56243 39.7488C4.6039 39.7027 4.67303 39.6987 4.71779 39.7382C4.76387 39.7784 4.76913 39.8475 4.72832 39.8936L2.54027 42.3996C2.51855 42.4239 2.48761 42.4371 2.45799 42.4371Z" fill="#F15959"/>
</g>
<g id="Group_14">
<path id="Vector_21" d="M8.0472 36.0073C8.02153 36.0073 7.99457 35.9981 7.97416 35.979C7.92808 35.9389 7.92414 35.8698 7.96363 35.8237L10.7474 32.6621C10.7889 32.6173 10.858 32.612 10.9028 32.6528C10.9488 32.693 10.9528 32.7621 10.9133 32.8082L8.12948 35.9698C8.1071 35.9942 8.07814 36.0073 8.0472 36.0073Z" fill="#F15959"/>
</g>
<g id="Group_15">
<path id="Vector_22" d="M1.29215 40.661C1.26911 40.661 1.24475 40.6531 1.22368 40.6367C1.17629 40.5991 1.16836 40.53 1.20588 40.4826C3.3426 37.7917 5.60046 35.1395 7.9182 32.6013C7.95967 32.5565 8.0288 32.5525 8.07356 32.5934C8.11832 32.6342 8.12225 32.7039 8.08144 32.7487C5.76567 35.2843 3.51112 37.9312 1.37901 40.6182C1.35794 40.6459 1.32572 40.661 1.29215 40.661Z" fill="#F15959"/>
</g>
<g id="Group_16">
<path id="Vector_23" d="M1.40402 37.2C1.37835 37.2 1.35399 37.1921 1.33359 37.1743C1.28751 37.1355 1.28093 37.0663 1.31977 37.0189C2.52044 35.5932 3.7843 34.1878 5.0791 32.8403C5.12123 32.7969 5.19102 32.7955 5.23447 32.8377C5.27791 32.8798 5.27921 32.9496 5.23708 32.993C3.94623 34.3365 2.685 35.738 1.4896 37.1611C1.46722 37.1875 1.43496 37.2 1.40402 37.2Z" fill="#F15959"/>
</g>
<g id="Group_17">
<path id="Vector_24" d="M1.36253 34.3411C1.33422 34.3411 1.30459 34.3293 1.28418 34.3062C1.24205 34.2628 1.24273 34.193 1.28683 34.1509L2.94563 32.5513C2.98907 32.5092 3.05886 32.5098 3.10099 32.5539C3.14312 32.598 3.14244 32.6671 3.09834 32.7093L1.43955 34.3102C1.41782 34.3306 1.39083 34.3411 1.36253 34.3411Z" fill="#F15959"/>
</g>
<g id="Group_18">
<path id="Vector_25" d="M7.3041 42.6194C7.27843 42.6194 7.25407 42.6102 7.23235 42.5937C7.18627 42.5549 7.17967 42.4845 7.21917 42.4384C9.99111 39.1352 12.8684 35.842 15.77 32.6507C15.8115 32.6059 15.8806 32.602 15.9253 32.6428C15.9701 32.6836 15.9741 32.7534 15.9333 32.7981C13.033 35.9881 10.1583 39.2794 7.38771 42.5793C7.36599 42.6062 7.33504 42.6194 7.3041 42.6194Z" fill="#F15959"/>
</g>
<g id="Group_19">
<path id="Vector_26" d="M9.88973 42.5292C9.86406 42.5292 9.83971 42.5213 9.8193 42.5035C9.77191 42.4647 9.76533 42.3956 9.80548 42.3495C12.503 39.0983 15.3131 35.8597 18.1595 32.725C18.2009 32.6803 18.2701 32.6763 18.3148 32.7171C18.3596 32.758 18.3636 32.8277 18.3228 32.8725C15.4791 36.0058 12.6696 39.2405 9.97467 42.489C9.95229 42.5167 9.92001 42.5292 9.88973 42.5292Z" fill="#F15959"/>
</g>
<g id="Group_20">
<path id="Vector_27" d="M12.4016 42.6192C12.376 42.6192 12.3503 42.61 12.3299 42.5936C12.2838 42.5534 12.2785 42.4843 12.3167 42.4382L20.4127 32.9178C20.4515 32.8717 20.5219 32.8651 20.568 32.9046C20.6141 32.9441 20.6194 33.0139 20.5799 33.0599L12.4852 42.5804C12.4635 42.6061 12.4326 42.6192 12.4016 42.6192Z" fill="#F15959"/>
</g>
<g id="Group_21">
<path id="Vector_28" d="M14.803 42.6195C14.7786 42.6195 14.753 42.6116 14.7339 42.5951C14.6865 42.5563 14.6799 42.4872 14.7174 42.4398C17.3979 39.1537 20.1751 35.869 22.974 32.6778C23.0142 32.633 23.0833 32.6277 23.1294 32.6672C23.1742 32.7074 23.1794 32.7778 23.1399 32.8226C20.3436 36.0125 17.5664 39.2946 14.8886 42.578C14.8662 42.605 14.8353 42.6195 14.803 42.6195Z" fill="#F15959"/>
</g>
<g id="Group_22">
<path id="Vector_29" d="M17.1024 42.6194C17.0781 42.6194 17.0537 42.6115 17.0333 42.5951C16.9872 42.5562 16.9793 42.4871 17.0168 42.4397C19.6334 39.1945 22.3586 35.9664 25.1194 32.8462C25.1608 32.8015 25.23 32.7975 25.2747 32.837C25.3208 32.8771 25.3247 32.9463 25.2852 32.9923C22.5265 36.1099 19.8032 39.3347 17.1893 42.5786C17.1662 42.6049 17.134 42.6194 17.1024 42.6194Z" fill="#F15959"/>
</g>
<g id="Group_23">
<path id="Vector_30" d="M19.5411 42.5294C19.5141 42.5294 19.4872 42.5202 19.4668 42.5011C19.422 42.4597 19.418 42.3906 19.4589 42.3458C22.2551 39.2651 24.9823 36.0475 27.5601 32.7806C27.5989 32.7332 27.6681 32.7253 27.7155 32.7628C27.7628 32.8003 27.7707 32.8695 27.7332 32.9168C25.1515 36.1878 22.4224 39.4093 19.6221 42.4939C19.5998 42.5183 19.5708 42.5294 19.5411 42.5294Z" fill="#F15959"/>
</g>
<g id="Group_24">
<path id="Vector_31" d="M21.8497 42.4371C21.824 42.4371 21.7996 42.4279 21.7792 42.4115C21.7318 42.3713 21.7266 42.3022 21.7661 42.2561L29.2433 33.4992C29.2834 33.4532 29.3526 33.4479 29.3986 33.4861C29.4447 33.5262 29.45 33.5954 29.4105 33.6414L21.9333 42.3983C21.9116 42.424 21.8806 42.4371 21.8497 42.4371Z" fill="#F15959"/>
</g>
<g id="Group_25">
<path id="Vector_32" d="M24.1976 42.5293C24.172 42.5293 24.1476 42.52 24.1259 42.5036C24.0798 42.4634 24.0745 42.3943 24.1127 42.3482L31.4333 33.6908C31.4734 33.6447 31.5425 33.6394 31.5886 33.6776C31.6347 33.7178 31.6413 33.7869 31.6018 33.833L24.2813 42.4904C24.2595 42.5168 24.2286 42.5293 24.1976 42.5293Z" fill="#F15959"/>
</g>
<g id="Group_26">
<path id="Vector_33" d="M26.7893 42.5294C26.7623 42.5294 26.7367 42.5201 26.7162 42.5024C26.6702 42.4609 26.6662 42.3918 26.7057 42.347C29.1795 39.5547 31.5735 36.6208 33.8241 33.6251C33.8603 33.5763 33.9295 33.5671 33.9782 33.6033C34.0269 33.6409 34.0361 33.7087 33.9999 33.7574C31.746 36.7571 29.3473 39.6955 26.8709 42.4925C26.8499 42.5169 26.819 42.5294 26.7893 42.5294Z" fill="#F15959"/>
</g>
<g id="Group_27">
<path id="Vector_34" d="M29.155 42.5293C29.1307 42.5293 29.1076 42.5214 29.0879 42.5075C29.0392 42.47 29.0299 42.4009 29.0675 42.3522C31.2825 39.4493 33.6483 36.6128 36.099 33.9218C36.1405 33.8771 36.2096 33.8744 36.2544 33.9152C36.2991 33.9554 36.3018 34.0258 36.2623 34.0706C33.8155 36.755 31.4537 39.5875 29.2426 42.4852C29.2208 42.5141 29.1886 42.5293 29.155 42.5293Z" fill="#F15959"/>
</g>
<g id="Group_28">
<path id="Vector_35" d="M31.2702 42.4371C31.2445 42.4371 31.2188 42.4279 31.1984 42.4101C31.1523 42.3712 31.1471 42.3008 31.1866 42.2561L35.8536 36.8228C35.8938 36.7767 35.9629 36.7714 36.009 36.8109C36.0551 36.8504 36.0603 36.9202 36.0208 36.9663L31.3537 42.3982C31.332 42.4239 31.3011 42.4371 31.2702 42.4371Z" fill="#F15959"/>
</g>
<g id="Group_29">
<path id="Vector_36" d="M33.3139 42.5292C33.2883 42.5292 33.2613 42.52 33.2409 42.5009C33.1961 42.4594 33.1922 42.3903 33.233 42.3455L35.7877 39.5058C35.8278 39.461 35.8983 39.4571 35.9431 39.4979C35.9878 39.5381 35.9917 39.6072 35.9509 39.6533L33.3962 42.493C33.3745 42.518 33.3449 42.5292 33.3139 42.5292Z" fill="#F15959"/>
</g>
<g id="Group_30">
<path id="Vector_37" d="M35.5053 42.5294C35.4784 42.5294 35.4527 42.5202 35.4323 42.5011C35.3862 42.4609 35.3823 42.3905 35.4231 42.3458L36.084 41.6092C36.1241 41.5644 36.1945 41.5604 36.2393 41.5999C36.2841 41.6414 36.288 41.7105 36.2472 41.7553L35.5876 42.4932C35.5652 42.5169 35.5343 42.5294 35.5053 42.5294Z" fill="#F15959"/>
</g>
</g>
<g id="Group_31">
<g id="Group_32">
<g id="Group_33">
<path id="Vector_38" d="M44.7955 30.5713C47.1034 32.843 49.4126 35.1146 51.7211 37.3856C52.9402 38.585 54.1626 39.7883 55.4923 40.8284C56.2085 41.3905 57.0056 41.9198 57.8772 41.9211C58.75 41.9211 59.6755 41.1858 59.6696 40.201C59.6643 39.4322 59.1338 38.8141 58.6361 38.2908C54.9604 34.4129 51.1188 30.7372 47.1284 27.2787C46.3957 28.351 45.6657 29.422 44.7955 30.5713Z" fill="#FFF0F0"/>
<path id="Vector_39" d="M57.8784 42.2514C57.8784 42.2514 57.8784 42.2514 57.8771 42.2514C56.9048 42.2501 56.0576 41.6919 55.2874 41.0876C53.9413 40.0344 52.6945 38.8067 51.4893 37.6212L44.5624 30.8069C44.4439 30.6897 44.4314 30.5034 44.5315 30.3711C45.3964 29.2283 46.137 28.1416 46.8545 27.0916C46.9071 27.0146 46.9907 26.9619 47.0848 26.9501C47.179 26.9369 47.2725 26.9666 47.3449 27.0284C51.3267 30.479 55.2065 34.191 58.8763 38.0622C59.4174 38.6316 59.9934 39.3142 59.9999 40.1976C60.0039 40.7117 59.7939 41.2067 59.4108 41.5925C59.002 42.0059 58.4287 42.2514 57.8784 42.2514ZM45.2338 30.5389L51.9527 37.1499C53.1461 38.3235 54.379 39.5374 55.6956 40.5682C56.3729 41.0981 57.1062 41.5892 57.8784 41.5892C58.2562 41.5892 58.6538 41.4167 58.9415 41.1264C59.2002 40.8664 59.341 40.5386 59.3391 40.2022C59.3338 39.5604 58.871 39.018 58.3964 38.5164C54.8273 34.7531 51.0594 31.1393 47.1922 27.7723C46.5839 28.6622 45.9513 29.5785 45.2338 30.5389Z" fill="#F15959"/>
</g>
<g id="Group_34">
<g id="Group_35">
<path id="Vector_40" d="M35.7852 5.45459C27.8334 5.45459 21.387 11.9009 21.387 19.8528C21.387 27.8046 27.8334 34.2509 35.7852 34.2509C43.737 34.2509 50.1834 27.8046 50.1834 19.8528C50.1834 11.9009 43.737 5.45459 35.7852 5.45459ZM35.7852 30.7885C29.745 30.7885 24.8495 25.8923 24.8495 19.8528C24.8495 13.8132 29.7456 8.91704 35.7852 8.91704C41.8247 8.91704 46.7209 13.8132 46.7209 19.8528C46.7209 25.8923 41.8254 30.7885 35.7852 30.7885ZM35.7852 30.7885C29.745 30.7885 24.8495 25.8923 24.8495 19.8528C24.8495 13.8132 29.7456 8.91704 35.7852 8.91704C41.8247 8.91704 46.7209 13.8132 46.7209 19.8528C46.7209 25.8923 41.8254 30.7885 35.7852 30.7885Z" fill="#FFF0F0"/>
<path id="Vector_41" d="M35.7852 34.5815C27.6635 34.5815 21.0565 27.9745 21.0565 19.8529C21.0565 11.7312 27.6635 5.12427 35.7852 5.12427C43.9068 5.12427 50.5138 11.7312 50.5138 19.8529C50.5138 27.9745 43.9068 34.5815 35.7852 34.5815ZM35.7852 5.78516C28.0289 5.78516 21.7175 12.0966 21.7175 19.8529C21.7175 27.6105 28.0289 33.9206 35.7852 33.9206C43.5415 33.9206 49.8529 27.6105 49.8529 19.8529C49.8529 12.0966 43.5421 5.78516 35.7852 5.78516ZM35.7852 31.119C29.5725 31.119 24.519 26.0649 24.519 19.8529C24.519 13.6409 29.5731 8.58672 35.7852 8.58672C41.9972 8.58672 47.0513 13.6409 47.0513 19.8529C47.0513 26.0649 41.9978 31.119 35.7852 31.119ZM25.1799 19.8529C25.1799 25.7002 29.9385 30.4581 35.7852 30.4581C41.6318 30.4581 46.3904 25.6996 46.3904 19.8529C46.3904 14.0062 41.6318 9.24893 35.7852 9.24893C29.9385 9.24893 25.1799 14.0055 25.1799 19.8529Z" fill="#F15959"/>
</g>
</g>
<g id="Group_36">
<path id="Vector_42" d="M46.6518 30.9841C46.6412 30.9841 46.6314 30.9828 46.6208 30.9801C46.5616 30.9637 46.528 30.9031 46.5451 30.8439L46.7999 29.9578C46.815 29.8986 46.8756 29.8637 46.9361 29.8821C46.9941 29.8986 47.0277 29.9592 47.0105 30.0184L46.7571 30.9044C46.7433 30.9531 46.6992 30.9841 46.6518 30.9841Z" fill="#F15959"/>
</g>
<g id="Group_37">
<path id="Vector_43" d="M47.863 32.5367C47.8577 32.5367 47.8538 32.5367 47.8492 32.5354C47.7886 32.5275 47.7465 32.4722 47.7537 32.4116C47.8886 31.3768 48.0519 30.3289 48.2395 29.3013C48.2501 29.2408 48.3086 29.2013 48.3666 29.2125C48.4271 29.223 48.4666 29.2809 48.4554 29.3395C48.2705 30.3644 48.1072 31.4084 47.9723 32.4393C47.9644 32.4972 47.917 32.5367 47.863 32.5367Z" fill="#F15959"/>
</g>
<g id="Group_38">
<path id="Vector_44" d="M49.4356 34.0441C49.375 34.0441 49.3263 33.9954 49.3263 33.9335C49.3263 33.4154 49.406 32.5452 49.4757 31.7777C49.5192 31.311 49.5554 30.9061 49.5685 30.6527C49.5725 30.5922 49.6199 30.5461 49.6844 30.5474C49.745 30.5513 49.7923 30.6027 49.7884 30.6632C49.7752 30.9233 49.7397 31.3281 49.6956 31.7987C49.6265 32.561 49.5462 33.4266 49.5462 33.9342C49.5462 33.9947 49.4968 34.0441 49.4356 34.0441Z" fill="#F15959"/>
</g>
<g id="Group_39">
<path id="Vector_45" d="M51.0462 35.5287C50.9857 35.5287 50.937 35.4813 50.9357 35.4208L50.8521 31.7437C50.8507 31.6818 50.8995 31.6318 50.96 31.6305C51.0305 31.6358 51.0719 31.6766 51.0732 31.7384L51.1555 35.4155C51.1568 35.4761 51.1094 35.5274 51.0489 35.5287C51.0476 35.5287 51.0462 35.5287 51.0462 35.5287Z" fill="#F15959"/>
</g>
<g id="Group_40">
<path id="Vector_46" d="M52.5786 37.155C52.5194 37.155 52.4707 37.109 52.468 37.0484L52.3239 33.1976C52.3212 33.137 52.3687 33.0857 52.4306 33.083C52.4951 33.0778 52.5425 33.1278 52.5438 33.1897L52.6892 37.0405C52.6905 37.101 52.6431 37.1524 52.5826 37.155C52.5813 37.155 52.58 37.155 52.5786 37.155Z" fill="#F15959"/>
</g>
<g id="Group_41">
<path id="Vector_47" d="M54.1382 38.5257C54.0789 38.5257 54.0315 38.4809 54.0275 38.4217L53.8334 34.8243C53.8294 34.7637 53.8755 34.711 53.9374 34.7084C54.0032 34.7071 54.0493 34.7519 54.0532 34.8124L54.2474 38.4098C54.2513 38.4704 54.2053 38.523 54.1434 38.5257C54.1421 38.5257 54.1395 38.5257 54.1382 38.5257Z" fill="#F15959"/>
</g>
<g id="Group_42">
<path id="Vector_48" d="M55.6824 39.7936C55.6258 39.7936 55.5771 39.7501 55.5718 39.6922L55.302 36.1903C55.298 36.1297 55.3434 36.0757 55.4033 36.0718C55.4599 36.0678 55.5179 36.1119 55.5218 36.1718L55.7917 39.6751C55.7969 39.7357 55.7515 39.7883 55.6903 39.7936C55.6877 39.7936 55.6851 39.7936 55.6824 39.7936Z" fill="#F15959"/>
</g>
<g id="Group_43">
<path id="Vector_49" d="M57.1445 40.9323C57.0879 40.9323 57.0405 40.8902 57.0352 40.8335L56.7192 37.7608C56.7127 37.7002 56.7568 37.6462 56.8167 37.6397C56.872 37.6357 56.9325 37.6785 56.9378 37.7384L57.2538 40.8098C57.2603 40.8704 57.2162 40.9244 57.1563 40.931C57.1517 40.931 57.1478 40.9323 57.1445 40.9323Z" fill="#F15959"/>
</g>
<g id="Group_44">
<path id="Vector_50" d="M58.5748 40.7678C58.5222 40.7678 58.4748 40.7289 58.4669 40.675L58.2444 39.3031C58.2338 39.2426 58.2753 39.186 58.3359 39.1774C58.3977 39.1669 58.4531 39.2084 58.4616 39.2689L58.6841 40.6407C58.6933 40.7013 58.6532 40.7579 58.5926 40.7665C58.5867 40.7678 58.5814 40.7678 58.5748 40.7678Z" fill="#F15959"/>
</g>
<g id="Group_45" opacity="0.1294">
<path id="Vector_51" opacity="0.1294" d="M45.9717 23.3355C45.609 23.6416 45.4418 24.134 45.1357 24.4954C45.0791 24.5994 44.3399 25.4314 43.9219 25.8284C43.5605 26.1509 43.2149 26.4353 42.8614 26.7038C42.7995 26.7157 42.737 26.7401 42.6764 26.7756C40.8767 28.079 39.524 28.5536 37.2471 28.9742C36.1669 29.1763 34.9228 29.3454 33.2205 28.9228C32.0284 28.6464 31.4524 28.3199 30.2083 27.4806C29.6797 27.11 28.5007 26.0726 27.701 25.1036C27.6996 25.1036 27.6997 25.1036 27.6997 25.1036C26.838 23.9247 26.5437 22.8951 26.3667 22.4258C26.1883 21.944 26.0527 21.4489 25.9118 20.9552C25.7038 20.2779 25.638 20.0396 25.6393 19.4636C25.5083 19.0957 25.3872 18.7244 25.2779 18.3492C25.1726 18.3018 25.0541 18.2774 24.9383 18.286C24.7454 19.7737 24.7724 21.2659 24.9613 22.747C25.2838 24.0273 25.684 25.4176 26.9104 26.7953C27.9004 27.8854 28.5791 28.2633 29.005 28.6135C29.9963 29.3296 31.0515 29.9826 32.2219 30.3631C32.8598 30.5481 33.5246 30.6264 34.1835 30.7041C34.1888 30.7054 34.1901 30.7054 34.1954 30.7067C34.9116 30.8364 35.6442 30.8404 36.367 30.7581C36.9338 30.712 37.4782 30.5461 38.0258 30.398C39.1613 30.1202 40.2949 29.7733 41.331 29.2243C41.7516 28.9643 41.8977 28.8643 42.0945 28.7155C43.3689 27.9236 44.6828 26.8204 45.3562 26.0502C45.5313 25.6875 45.7005 25.3235 45.8591 24.9562C46.0586 24.4059 46.2574 23.8555 46.4529 23.3026C46.2995 23.2427 46.1211 23.2467 45.9717 23.3355Z" fill="#F15959"/>
</g>
<g id="Group_46" opacity="0.1294">
<path id="Vector_52" opacity="0.1294" d="M48.3191 28.035C47.7714 27.877 47.4047 28.2588 47.1348 28.6768C47.123 28.6906 47.1118 28.7038 47.0973 28.7202C46.6188 29.2784 46.4838 29.2317 45.6946 29.9453C45.6906 29.9479 45.688 29.9505 45.6841 29.9532C45.5287 30.0611 45.3417 30.1381 45.2443 30.3093C44.5795 31.1255 45.5926 32.2663 46.495 31.7351C47.1237 31.3895 47.6608 30.8991 48.0946 30.3284C48.3724 30.0249 48.641 29.7076 48.8556 29.3541C49.159 28.8624 48.8733 28.1811 48.3191 28.035Z" fill="#F15959"/>
</g>
</g>
<g id="Group_47">
<path id="Vector_53" d="M33.0644 17.31L30.8836 18.9076L36.8285 24.098L43.3993 16.5806L40.9647 15.0601L36.377 20.1418L33.0644 17.31Z" fill="#FFCACA"/>
<path id="Vector_54" d="M36.6719 24C36.5463 24 36.4269 23.9627 36.3444 23.8986L30.1136 19.0816C29.952 18.9576 29.9643 18.7664 30.1408 18.6522L32.4256 17.1693C32.5134 17.1131 32.6293 17.0844 32.7443 17.0869C32.8611 17.0905 32.9726 17.126 33.0516 17.1858L36.1539 19.5348L40.647 15.1294C40.7172 15.0604 40.8252 15.0146 40.9455 15.003C41.0658 14.9914 41.187 15.014 41.2818 15.0665L43.8335 16.4779C44.0152 16.5781 44.053 16.7583 43.923 16.892L37.0354 23.8669C36.9582 23.9444 36.8344 23.9933 36.7009 23.9994C36.6904 23.9988 36.6798 24 36.6719 24ZM31.0584 18.8959L36.6254 23.1987L42.9624 16.7797L41.0983 15.7487L36.5569 20.1993C36.4796 20.2744 36.3576 20.322 36.2259 20.3281C36.0889 20.333 35.9633 20.297 35.8729 20.2292L32.7039 17.8289L31.0584 18.8959Z" fill="#F15959"/>
</g>
</g>
<g id="Group_48" opacity="0.1294">
<path id="Vector_55" opacity="0.1294" d="M36.5454 34.3201C36.2163 34.3859 34.8293 34.3958 33.9328 34.3339C32.6294 34.1772 30.7646 33.4881 29.2492 32.5968C28.6851 32.2611 28.2993 31.9359 28.1874 31.8536C27.9538 31.6456 27.7155 31.3921 27.3751 31.4086C26.6668 31.3856 26.2746 32.3302 26.7926 32.8153C27.6293 33.5736 28.6134 34.1292 29.6264 34.615C31.2773 35.4378 33.1606 35.8361 35.0031 35.7551C35.4862 35.7413 35.9701 35.7413 36.4493 35.6807C36.6599 35.6959 36.8772 35.636 37.0266 35.4813C37.4532 35.083 37.1313 34.301 36.5454 34.3201Z" fill="#F15959"/>
</g>
</g>
</svg>
