<svg width="63" height="53" viewBox="0 0 63 53" fill="none" xmlns="http://www.w3.org/2000/svg">
<g id="Group">
<g id="Group_2">
<g id="Group_3">
<path id="Vector" d="M10.7725 27.778C21.9839 27.9026 33.1952 28.0271 44.4065 28.1517C47.482 28.1865 50.5961 28.2169 53.5878 27.4985C56.5795 26.78 59.4845 25.2237 61.2091 22.6761C62.9336 20.1271 63.2206 16.494 61.387 14.0235C59.9101 12.0335 57.2957 11.0822 54.8238 11.2431C52.3533 11.404 51.402 12.009 49.4654 13.5542C49.9058 12.1454 50.2068 11.3832 50.0882 9.69498C49.9696 8.0082 49.1295 6.43412 48.0218 5.15514C45.1183 1.80308 40.2077 0.343186 35.9459 1.56508C31.6841 2.78698 28.2928 6.62615 27.6062 11.0066C26.4785 6.66248 21.0141 4.21648 16.8568 5.91216C12.701 7.60783 10.4708 12.749 11.6623 17.0775C10.6836 15.2024 8.30873 14.3186 6.23344 14.7271C4.15963 15.1372 2.41873 16.6371 1.31546 18.4418C0.711928 19.4308 0.262622 20.5764 0.396081 21.7293C0.616289 23.6296 2.32086 24.9991 4.02617 25.8651C6.73243 27.2404 9.78346 27.7676 10.7725 27.778Z" fill="#FFF0F0"/>
<path id="Vector_2" d="M46.3557 28.5393C45.7011 28.5393 45.0493 28.5319 44.402 28.5245L10.7695 28.1493C9.78636 28.139 6.68123 27.6326 3.85783 26.1971C2.2489 25.3786 0.278126 23.9468 0.0260356 21.77C-0.0985266 20.6912 0.22844 19.5064 0.999539 18.2452C2.26666 16.1743 4.14772 14.7582 6.1637 14.3615C7.95354 14.0078 9.79378 14.535 11.0223 15.6531C10.6042 11.4766 12.9805 7.09167 16.7181 5.56579C18.8727 4.68644 21.5086 4.83992 23.7707 5.97433C25.4634 6.82328 26.7772 8.1334 27.5142 9.67411C28.616 5.67552 31.8309 2.35683 35.8451 1.20537C40.2781 -0.0647159 45.2851 1.4241 48.305 4.90961C49.2103 5.95505 50.318 7.62774 50.4626 9.66818C50.5508 10.9183 50.4174 11.6871 50.1727 12.5368C51.6237 11.464 52.675 11.0087 54.8022 10.8701C57.5767 10.6906 60.2125 11.8124 61.6865 13.801C63.4993 16.2425 63.4289 20.0625 61.5182 22.8836C59.9063 25.2659 57.12 27.0327 53.6753 27.8594C51.2678 28.4378 48.7929 28.5393 46.3557 28.5393ZM10.7769 27.4057L44.4109 27.7794C47.4234 27.8142 50.5367 27.8476 53.501 27.1365C56.7648 26.3528 59.3932 24.695 60.9006 22.4662C62.6385 19.8986 62.7178 16.442 61.0874 14.2451C59.7624 12.4582 57.3683 11.4499 54.8489 11.6152C52.4956 11.7687 51.6155 12.3159 49.6982 13.8455C49.5706 13.9485 49.3897 13.9537 49.2548 13.861C49.1198 13.7698 49.0605 13.5986 49.1102 13.4429L49.2177 13.104C49.5943 11.9148 49.8212 11.1985 49.7189 9.72082C49.5884 7.88576 48.5719 6.3569 47.7407 5.39822C44.9514 2.1774 40.1454 0.748642 36.0497 1.92234C31.954 3.09604 28.6338 6.85589 27.9747 11.0643C27.9472 11.2378 27.8012 11.3698 27.6239 11.3787C27.4534 11.3905 27.291 11.2712 27.2458 11.1006C26.7624 9.23666 25.3737 7.61217 23.4341 6.64014C21.3617 5.60064 18.9565 5.45679 16.9969 6.25607C13.1332 7.83311 10.854 12.7422 12.0211 16.9766C12.0715 17.1604 11.9744 17.3532 11.7979 17.4229C11.62 17.4926 11.4183 17.417 11.3315 17.2494C10.4826 15.6234 8.3235 14.6966 6.3053 15.0933C4.49544 15.4492 2.79237 16.7415 1.6335 18.6352C0.951376 19.7503 0.659251 20.7757 0.764535 21.6847C0.978812 23.5324 2.74715 24.7965 4.1937 25.5321C6.75241 26.8333 9.7441 27.3938 10.7769 27.4057Z" fill="#F15959"/>
</g>
<g id="Group_4" opacity="0.1294">
<path id="Vector_3" opacity="0.1294" d="M57.7828 24.4964C57.7658 24.5038 57.7539 24.5098 57.7391 24.5165C56.9821 24.8004 56.1709 24.9146 55.3843 25.0955C53.4232 25.5152 50.0029 25.4329 47.2759 25.4981C46.0117 25.5041 44.7476 25.6427 43.4849 25.5545C41.6468 25.3951 39.8021 25.4529 37.9589 25.4284C34.4919 25.3647 31.0235 25.3098 27.5558 25.3417C25.3648 25.3602 23.1753 25.5226 20.9844 25.3765C18.7526 25.2942 16.5202 25.3172 14.2884 25.2913C12.8434 25.1711 11.3953 25.1771 9.94802 25.1044C9.257 25.0622 8.32501 24.8145 6.4336 24.4253C5.79522 24.2836 5.14644 24.1821 4.50732 24.0345C4.13659 23.9404 3.72953 23.8262 3.38031 24.0493C2.64628 24.4505 2.78938 25.6538 3.61608 25.8525C5.51195 26.2403 7.36408 26.7749 9.20137 27.1367C10.1875 27.2976 11.1855 27.2872 12.1805 27.3072C13.1547 27.3591 14.1253 27.4778 15.1025 27.4755C17.7279 27.4681 20.3519 27.5497 22.9744 27.6409C24.6641 27.629 26.3531 27.5334 28.0429 27.5074C27.965 27.9256 28.2386 28.4209 28.7569 28.4098C32.5234 28.3304 36.2899 28.24 40.0579 28.174C42.7657 28.2392 45.4742 28.3838 48.1804 28.177C49.756 28.0858 51.3531 28.1087 52.9056 27.7973C53.346 27.7076 53.7776 27.5801 54.1957 27.4177C54.4708 27.3599 54.717 27.1819 54.8415 26.9454C56.6054 26.6933 58.6659 26.201 59.1137 25.2497C59.2776 24.4141 58.4346 24.0404 57.7828 24.4964Z" fill="#F15959"/>
</g>
</g>
<g id="Group_5">
<g id="Group_6">
<path id="Vector_4" d="M31.5054 42.4944L38.9109 52.4779L46.3164 42.4944H42.1473L42.4224 14.8149H35.9496L35.6745 42.4944H31.5054Z" fill="#FFCACA"/>
<path id="Vector_5" d="M38.9108 52.8503C38.7922 52.8503 38.6817 52.7954 38.6113 52.6997L31.2057 42.7162C31.1234 42.6035 31.1086 42.453 31.1724 42.327C31.2362 42.2009 31.3652 42.1231 31.5053 42.1231H35.3052L35.5758 14.8114C35.5788 14.6075 35.7456 14.4436 35.9495 14.4436H42.4223C42.5209 14.4436 42.6166 14.4829 42.687 14.5533C42.7567 14.623 42.7952 14.7202 42.7945 14.818L42.5224 42.1223H46.3163C46.4565 42.1223 46.5855 42.2002 46.6478 42.3262C46.7115 42.4523 46.6982 42.6028 46.6144 42.7155L39.2089 52.699C39.1399 52.7954 39.028 52.8503 38.9108 52.8503ZM32.2453 42.8668L38.9108 51.8523L45.5764 42.8668H42.1472C42.0471 42.8668 41.9515 42.8275 41.8825 42.757C41.8136 42.6866 41.7743 42.5902 41.775 42.4908L42.0457 15.188H36.3165L36.0459 42.4983C36.0444 42.7022 35.8776 42.8675 35.6737 42.8675H32.2453V42.8668Z" fill="#F15959"/>
</g>
</g>
<g id="Group_7">
<path id="Vector_6" d="M14.7577 6.00092C14.7228 6.00092 14.688 5.98608 14.6635 5.95717L13.647 4.75232C13.6018 4.70042 13.6092 4.62184 13.6618 4.57883C13.7137 4.5336 13.7923 4.53954 13.8368 4.59366L14.8533 5.79701C14.8971 5.8504 14.8912 5.92899 14.8385 5.972C14.8141 5.99202 14.7866 6.00092 14.7577 6.00092Z" fill="#F15959"/>
</g>
<g id="Group_8" opacity="0.1294">
<path id="Vector_7" opacity="0.1294" d="M5.35326 13.2605C5.04185 13.1737 4.72007 13.2805 4.42053 13.3732C3.1319 13.8151 1.96338 14.5965 1.18709 15.7295C0.752602 16.4286 -0.206045 17.3428 0.223991 18.2133C0.734844 19.0096 1.74466 18.6203 1.95301 17.8277C2.39936 17.1078 2.47868 17.0574 3.1912 16.2981C3.57527 15.8926 4.13509 15.616 5.06485 15.1919C5.13603 15.166 5.25909 15.1252 5.35326 15.1037C5.592 15.0384 5.7996 14.8761 5.92491 14.6633C6.24521 14.1435 5.94122 13.4169 5.35326 13.2605Z" fill="#F15959"/>
</g>
<g id="Group_9" opacity="0.1294">
<path id="Vector_8" opacity="0.1294" d="M30.586 3.0129C29.6725 3.37769 28.9919 4.1688 28.3543 4.89393C27.8998 5.38773 27.5275 5.94084 27.1872 6.60592C27.1019 6.51323 27.0137 6.42204 26.9196 6.33826C26.643 6.13436 26.3694 5.84149 26.0076 5.81851C24.9807 5.64204 24.4899 7.09453 25.3907 7.60687C25.4589 7.65061 25.5271 7.69361 25.5946 7.74032C25.6079 7.75218 25.6206 7.76331 25.6398 7.77962C26.041 8.20669 25.8282 7.88935 26.1804 8.53663C26.2256 8.63524 26.2745 8.73237 26.322 8.83024C26.342 8.90438 26.4829 9.25731 26.6015 9.34555C27.0085 9.78003 27.7774 9.66732 28.0614 9.15128C28.2712 8.73533 28.3438 8.27194 28.5218 7.84487C28.5248 7.83745 28.5262 7.83301 28.5292 7.82782C28.544 7.79445 28.5567 7.7596 28.573 7.72772C29.1491 6.5377 29.5776 6.14623 30.6594 5.01553C31.1079 4.61441 30.7765 4.92433 31.3052 4.49726C31.4676 4.34971 31.6255 4.15842 31.6299 3.92931C31.7411 3.36508 31.1317 2.84236 30.586 3.0129Z" fill="#F15959"/>
</g>
</g>
</svg>
