<svg width="406" height="404" viewBox="0 0 406 404" fill="none" xmlns="http://www.w3.org/2000/svg">
<path d="M355.402 347.19C347.147 355.88 339.336 361.484 333.165 365.912C260.627 417.959 174.795 402.788 156.553 399.083C129.616 393.612 77.5463 383.036 39.901 338.766C-17.0529 271.79 -8.18439 166.269 35.993 96.6142C44.0737 83.873 86.7585 13.1569 173.515 1.81614C226.019 -5.0471 287.222 8.79524 331.544 45.9279C424.579 123.873 417.956 281.335 355.402 347.19Z" fill="#F15959" fill-opacity="0.1"/>
<g opacity="0.3">
<path d="M65.2549 329.108C65.1214 329.936 64.3807 330.547 63.5245 330.5C61.6519 330.396 59.7562 330.209 57.8898 329.945C56.9818 329.816 56.3499 328.976 56.4784 328.069C56.4801 328.058 56.4817 328.047 56.4836 328.036C56.627 327.146 57.458 326.53 58.3551 326.657C60.1283 326.909 61.9291 327.086 63.7079 327.184C64.6232 327.235 65.3247 328.018 65.2738 328.934C65.2708 328.993 65.2641 329.051 65.2549 329.108ZM50.9931 326.702C50.9827 326.766 50.9686 326.83 50.9503 326.895C50.6992 327.776 49.7807 328.288 48.8988 328.037C47.0876 327.521 45.2804 326.922 43.5279 326.257C42.6706 325.932 42.2403 324.978 42.5636 324.116C42.8889 323.259 43.8478 322.828 44.7046 323.153C46.3705 323.784 48.0872 324.353 49.8087 324.843C50.6265 325.076 51.1251 325.883 50.9931 326.702ZM37.6158 321.216C37.5864 321.398 37.5258 321.579 37.4318 321.75C36.9903 322.554 35.9812 322.848 35.1774 322.407C33.5298 321.503 31.9008 320.516 30.336 319.473C29.5733 318.964 29.3681 317.933 29.8753 317.171C30.3838 316.408 31.4148 316.201 32.1777 316.71C33.6635 317.7 35.21 318.637 36.7748 319.496C37.4073 319.843 37.7243 320.542 37.6158 321.216ZM25.7987 312.874C25.75 313.176 25.6177 313.467 25.3996 313.713C24.79 314.397 23.7404 314.458 23.0556 313.848C21.6512 312.597 20.2838 311.271 18.9916 309.906C18.3625 309.24 18.3912 308.19 19.0563 307.559C19.7221 306.929 20.7729 306.958 21.4034 307.623C22.6304 308.92 23.929 310.18 25.2642 311.368C25.7036 311.76 25.8858 312.333 25.7987 312.874ZM16.1386 302.107C16.0705 302.53 15.8398 302.926 15.4635 303.195C14.7169 303.727 13.6801 303.553 13.1481 302.807C12.0588 301.28 11.0193 299.684 10.0597 298.064C9.59147 297.276 9.85162 296.257 10.6409 295.79C11.4295 295.322 12.4478 295.582 12.9158 296.371C13.8279 297.911 14.8158 299.427 15.851 300.879C16.1152 301.249 16.2057 301.691 16.1386 302.107ZM9.10148 289.472C9.01318 290.02 8.6529 290.511 8.10346 290.741C7.25751 291.095 6.28517 290.696 5.93066 289.851C5.2049 288.118 4.54407 286.331 3.96794 284.542C3.68687 283.669 4.16662 282.734 5.03955 282.453C5.91176 282.172 6.84745 282.652 7.12867 283.524C7.67637 285.224 8.30373 286.921 8.99342 288.568C9.11779 288.865 9.14895 289.176 9.10148 289.472ZM14.8748 228.782C14.8383 229.009 14.7539 229.232 14.6185 229.435C13.6316 230.921 12.6964 232.47 11.8393 234.039C11.3997 234.844 10.391 235.14 9.58686 234.7C8.78203 234.261 8.48596 233.252 8.9256 232.447C9.82825 230.795 10.8131 229.163 11.8521 227.599C12.3595 226.835 13.3901 226.627 14.1536 227.134C14.7139 227.506 14.9752 228.159 14.8748 228.782ZM5.042 275.601C4.93249 276.281 4.40368 276.847 3.6873 276.972C2.78379 277.129 1.92413 276.524 1.76686 275.621C1.44438 273.77 1.19881 271.882 1.03663 270.009C0.961747 269.096 1.6334 268.291 2.5473 268.212C3.46063 268.133 4.26531 268.809 4.34482 269.723C4.49848 271.501 4.73193 273.294 5.03796 275.052C5.06999 275.239 5.07057 275.424 5.042 275.601ZM8.28309 241.655C8.26563 241.763 8.23779 241.871 8.19753 241.978C7.56787 243.648 7.00256 245.368 6.51574 247.088C6.26598 247.971 5.34832 248.484 4.46631 248.234C3.58429 247.984 3.06673 247.067 3.32053 246.185C3.83289 244.374 4.42792 242.565 5.08991 240.807C5.4134 239.949 6.37131 239.516 7.22909 239.839C7.98024 240.122 8.40602 240.892 8.28309 241.655ZM4.18293 261.17C4.04961 261.997 3.31086 262.608 2.45583 262.562C1.54004 262.513 0.837806 261.731 0.886142 260.815C0.98642 258.941 1.16894 257.045 1.42981 255.182C1.43097 255.17 1.43284 255.158 1.43486 255.147C1.57814 254.257 2.40706 253.642 3.30322 253.767C4.2115 253.894 4.84491 254.733 4.71765 255.641C4.47063 257.411 4.29734 259.212 4.20226 260.993C4.19851 261.053 4.19216 261.112 4.18293 261.17Z" fill="#FF928E"/>
<path d="M22.1764 219.694C22.1245 220.017 21.9771 220.328 21.7327 220.581C21.1383 221.197 20.5473 221.836 19.9746 222.479C19.3656 223.165 18.3159 223.226 17.631 222.617C16.9455 222.008 16.8827 220.958 17.4936 220.273C18.0953 219.596 18.7171 218.924 19.3425 218.276C19.9789 217.616 21.0303 217.597 21.6897 218.233C22.097 218.626 22.2599 219.176 22.1764 219.694Z" fill="#FF928E"/>
</g>
<g opacity="0.3">
<path d="M68.7509 199.879C68.6235 200.67 67.9377 201.274 67.1107 201.274C66.2549 201.273 65.3844 201.29 64.5242 201.325C63.6078 201.362 62.8352 200.649 62.7983 199.733C62.7612 198.813 63.4744 198.044 64.39 198.007C65.2957 197.971 66.2123 197.953 67.1136 197.953C68.0303 197.954 68.773 198.698 68.7724 199.615C68.7724 199.705 68.7648 199.793 68.7509 199.879Z" fill="#FF928E"/>
<path d="M132.592 274.759C132.47 275.513 132.335 276.268 132.187 277.024C132.011 277.923 131.139 278.51 130.239 278.334C129.339 278.158 128.75 277.28 128.928 276.386C129.27 274.642 129.54 272.888 129.733 271.153C129.836 270.241 130.655 269.585 131.566 269.686C132.478 269.788 133.134 270.609 133.033 271.52C132.914 272.593 132.765 273.683 132.592 274.759ZM129.919 285.49C129.904 285.582 129.882 285.673 129.851 285.764C129.252 287.517 128.573 289.265 127.831 290.957C127.463 291.797 126.484 292.179 125.645 291.811C124.805 291.443 124.42 290.462 124.79 289.624C125.495 288.017 126.14 286.357 126.709 284.691C127.005 283.824 127.949 283.361 128.816 283.657C129.593 283.922 130.045 284.706 129.919 285.49ZM133.393 262.791C133.269 263.564 132.609 264.163 131.798 264.185C130.882 264.209 130.119 263.485 130.095 262.569C130.049 260.815 129.927 259.04 129.732 257.292C129.631 256.38 130.287 255.559 131.198 255.458C132.109 255.356 132.93 256.013 133.032 256.924C133.237 258.765 133.365 260.635 133.414 262.481C133.417 262.587 133.409 262.69 133.393 262.791ZM123.864 298.374C123.83 298.582 123.756 298.787 123.639 298.978C122.671 300.555 121.623 302.11 120.526 303.599C119.982 304.337 118.944 304.494 118.206 303.951C117.467 303.407 117.309 302.368 117.854 301.629C118.895 300.215 119.89 298.739 120.809 297.241C121.288 296.459 122.311 296.215 123.092 296.695C123.683 297.057 123.967 297.73 123.864 298.374ZM131.446 248.701C131.344 249.335 130.877 249.879 130.214 250.046C129.326 250.272 128.422 249.734 128.197 248.845C127.767 247.146 127.257 245.441 126.683 243.777C126.384 242.911 126.843 241.965 127.711 241.666C128.577 241.367 129.522 241.827 129.821 242.694C130.426 244.445 130.962 246.24 131.416 248.029C131.473 248.256 131.481 248.484 131.446 248.701ZM126.454 235.379C126.372 235.885 126.058 236.347 125.565 236.597C124.747 237.011 123.748 236.684 123.334 235.866C122.539 234.297 121.67 232.743 120.749 231.248C120.267 230.468 120.51 229.445 121.292 228.964C122.073 228.483 123.095 228.726 123.576 229.507C124.545 231.08 125.46 232.715 126.296 234.366C126.46 234.691 126.508 235.044 126.454 235.379ZM118.677 223.462C118.614 223.847 118.417 224.212 118.092 224.48C117.384 225.062 116.337 224.96 115.755 224.251C114.637 222.892 113.451 221.564 112.227 220.306C111.588 219.649 111.601 218.599 112.259 217.959C112.917 217.32 113.967 217.334 114.607 217.991C115.895 219.316 117.144 220.712 118.32 222.143C118.635 222.526 118.75 223.008 118.677 223.462ZM108.486 213.526C108.443 213.793 108.334 214.052 108.156 214.281C107.592 215.004 106.549 215.133 105.826 214.569C104.439 213.487 102.991 212.453 101.52 211.494C100.752 210.993 100.535 209.963 101.035 209.196C101.536 208.428 102.565 208.212 103.333 208.712C104.882 209.722 106.408 210.812 107.868 211.95C108.363 212.337 108.579 212.947 108.486 213.526ZM96.3579 206.066C96.3336 206.216 96.288 206.365 96.2199 206.51C95.8295 207.339 94.8401 207.695 94.011 207.304C92.4236 206.557 90.7834 205.867 89.1349 205.255C88.2753 204.936 87.8391 203.978 88.1572 203.121C88.4764 202.261 89.4323 201.823 90.2919 202.143C92.0273 202.788 93.7542 203.513 95.4252 204.3C96.1101 204.623 96.4726 205.354 96.3579 206.066ZM82.8964 201.456C82.8909 201.489 82.8842 201.523 82.8768 201.557C82.6761 202.451 81.7882 203.014 80.8936 202.813C79.6308 202.53 78.3445 202.282 77.069 202.077C76.6075 202.002 76.1456 201.934 75.6849 201.87C74.7765 201.743 74.1425 200.905 74.269 199.997C74.3788 199.075 75.2334 198.455 76.1413 198.581C76.6265 198.648 77.1113 198.72 77.5972 198.799C78.9385 199.015 80.2925 199.276 81.6205 199.574C82.4815 199.767 83.0349 200.596 82.8964 201.456Z" fill="#FF928E"/>
<path d="M115.091 309.636C115.039 309.962 114.889 310.275 114.642 310.529C114.015 311.173 113.362 311.816 112.702 312.439C112.036 313.069 110.985 313.04 110.355 312.373C109.726 311.707 109.754 310.657 110.421 310.026C111.048 309.434 111.668 308.823 112.264 308.212C112.903 307.555 113.954 307.542 114.611 308.181C115.014 308.574 115.175 309.121 115.091 309.636Z" fill="#FF928E"/>
</g>
<path d="M96.4374 304.362C96.7238 304.196 96.8736 303.866 96.8103 303.541L95.0019 294.272C98.2145 291.251 100.968 287.695 103.108 283.692L112.521 283.019C112.852 282.995 113.13 282.765 113.216 282.445L116.135 271.5C116.221 271.18 116.093 270.841 115.819 270.656L107.991 265.384C108.13 260.847 107.513 256.392 106.232 252.172L112.417 245.035C112.633 244.785 112.668 244.425 112.502 244.138L106.827 234.334C106.661 234.048 106.332 233.898 106.007 233.961L96.7378 235.77C93.7162 232.557 90.1603 229.803 86.1573 227.664L85.4841 218.25C85.4606 217.92 85.23 217.641 84.9101 217.556L73.9649 214.636C73.645 214.551 73.3063 214.678 73.1214 214.952L67.8489 222.78C63.3123 222.642 58.8575 223.258 54.6373 224.539L47.5 218.355C47.25 218.138 46.8899 218.104 46.6034 218.27L36.7995 223.945C36.5128 224.11 36.3633 224.44 36.4267 224.765L38.235 234.034C35.0224 237.055 32.2685 240.611 30.1295 244.614L20.7154 245.287C20.3853 245.311 20.1065 245.541 20.021 245.861L17.1015 256.807C17.0161 257.126 17.1432 257.465 17.4178 257.65L25.2457 262.922C25.1067 267.459 25.7239 271.914 27.0048 276.134L20.8202 283.271C20.6033 283.521 20.5691 283.881 20.7349 284.168L26.4099 293.972C26.5757 294.258 26.9051 294.408 27.2301 294.345L36.4993 292.536C39.5209 295.749 43.0767 298.503 47.0797 300.642L47.753 310.056C47.7765 310.386 48.0071 310.665 48.3271 310.75L59.2722 313.67C59.592 313.755 59.9307 313.628 60.1158 313.354L65.3881 305.526C69.9246 305.665 74.3795 305.048 78.5998 303.767L85.737 309.951C85.9872 310.168 86.3472 310.202 86.6339 310.037L96.4374 304.362Z" fill="#FF928E"/>
<path d="M77.8592 265.972C76.9763 271.451 72.1774 275.615 66.4657 275.539C60.1872 275.454 55.1486 270.279 55.2325 264C55.2724 260.959 56.4957 258.116 58.6747 255.995C60.8537 253.873 63.7289 252.727 66.7701 252.768C73.0487 252.852 78.0872 258.028 78.0034 264.306C77.9957 264.872 77.9467 265.429 77.8592 265.972ZM58.0003 262.746C57.9321 263.169 57.8944 263.6 57.8884 264.036C57.8237 268.849 61.6878 272.818 66.5008 272.883C71.3144 272.947 75.2846 269.085 75.3476 264.27C75.4123 259.457 71.5482 255.488 66.7352 255.424C64.403 255.392 62.199 256.271 60.5279 257.898C59.17 259.22 58.2962 260.908 58.0003 262.746Z" fill="#EEE0FF"/>
<path d="M94.1337 268.357C93.9821 269.299 93.7823 270.238 93.5332 271.171C93.455 271.465 93.3718 271.758 93.284 272.049C92.851 273.485 92.3043 274.885 91.6529 276.226C91.6439 276.244 91.6351 276.262 91.6263 276.281C91.601 276.332 91.5755 276.384 91.5494 276.436C91.4998 276.536 91.4489 276.637 91.3979 276.736C91.2638 276.999 90.9785 277.134 90.7019 277.09C90.6347 277.079 90.5679 277.058 90.5041 277.025C90.1776 276.858 90.0496 276.458 90.2158 276.132C91.0756 274.451 91.7598 272.668 92.2497 270.829C94.6869 261.698 92.0563 252.389 86.095 245.895C82.7797 242.282 78.4334 239.541 73.3547 238.187C72.4642 237.949 71.5682 237.758 70.6704 237.614C64.6289 236.641 58.4878 237.767 53.1207 240.874C46.9552 244.442 42.5484 250.199 40.7125 257.081C36.9221 271.297 45.3991 285.934 59.6075 289.724C60.4834 289.958 61.3682 290.146 62.2576 290.289C66.1113 290.909 70.0581 290.679 73.8135 289.602C73.9106 289.574 74.0086 289.569 74.1021 289.584C74.348 289.624 74.5618 289.801 74.6348 290.057C74.735 290.41 74.5332 290.777 74.1793 290.878C70.2366 292.009 66.0928 292.251 62.047 291.6C61.1135 291.45 60.185 291.252 59.2655 291.007C44.348 287.028 35.4516 271.651 39.4291 256.739C41.3565 249.513 45.9827 243.471 52.4554 239.724C58.09 236.462 64.5368 235.281 70.8793 236.301C71.8218 236.453 72.7623 236.654 73.697 236.903C80.9232 238.83 86.9661 243.457 90.7126 249.929C93.975 255.565 95.1557 262.014 94.1337 268.357Z" fill="#EEE0FF"/>
<g opacity="0.3">
<path d="M99.4384 392C99.3679 392.438 99.0172 392.795 98.5545 392.853C97.691 392.963 96.8121 393.047 95.9428 393.105C95.3779 393.142 94.8899 392.714 94.8521 392.149C94.8125 391.583 95.2429 391.096 95.8079 391.058C96.6362 391.004 97.4738 390.923 98.298 390.819C98.8592 390.748 99.3722 391.146 99.4439 391.707C99.4562 391.807 99.4536 391.905 99.4384 392Z" fill="#FF928E"/>
<path d="M91.5556 392.267C91.4729 392.78 91.0135 393.157 90.4841 393.126C88.9877 393.039 87.4786 392.875 85.9999 392.636C85.6885 392.586 85.3765 392.532 85.0642 392.475C84.5066 392.373 84.1638 391.813 84.2391 391.282C84.3412 390.725 84.8753 390.356 85.4319 390.457C85.7305 390.512 86.0286 390.564 86.3261 390.612C87.7369 390.839 89.176 390.996 90.603 391.079C91.1687 391.112 91.5999 391.597 91.5676 392.162C91.5647 392.198 91.5611 392.233 91.5556 392.267ZM81.0825 390.351C81.0747 390.399 81.064 390.448 81.0493 390.495C80.88 391.036 80.305 391.337 79.7643 391.169C78.0297 390.628 76.3134 389.974 74.664 389.226C74.1479 388.992 73.9215 388.382 74.1534 387.868C74.3877 387.352 74.9945 387.124 75.5106 387.358C77.0844 388.071 78.7215 388.695 80.3757 389.211C80.8682 389.365 81.1622 389.856 81.0825 390.351ZM71.3867 385.954C71.366 386.082 71.3202 386.209 71.2485 386.326C70.9527 386.809 70.3208 386.96 69.8381 386.664C68.292 385.715 66.7875 384.66 65.3689 383.525C64.9258 383.171 64.8541 382.528 65.2084 382.084C65.5616 381.642 66.2072 381.57 66.6493 381.923C68.0025 383.005 69.4359 384.012 70.9109 384.916C71.2754 385.14 71.4508 385.556 71.3867 385.954ZM63.0685 379.306C63.0348 379.516 62.9355 379.717 62.7727 379.876C62.3673 380.272 61.7174 380.264 61.3222 379.858C60.0531 378.557 58.8542 377.166 57.7579 375.723C57.4158 375.271 57.5053 374.628 57.9549 374.286C58.4056 373.943 59.0487 374.031 59.3918 374.483C60.436 375.858 61.5804 377.186 62.7903 378.426C63.0263 378.668 63.1183 378.997 63.0685 379.306ZM56.6262 370.829C56.579 371.122 56.4057 371.392 56.1292 371.553C55.6401 371.838 55.0128 371.672 54.7274 371.183C53.8148 369.614 52.9897 367.974 52.2762 366.308C52.0519 365.787 52.294 365.184 52.8147 364.962C53.3354 364.739 53.9386 364.98 54.161 365.5C54.8422 367.09 55.6287 368.654 56.5004 370.151C56.6242 370.364 56.6627 370.604 56.6262 370.829ZM52.4371 361.047C52.3761 361.426 52.1028 361.756 51.7092 361.869C51.1655 362.027 50.5973 361.713 50.4396 361.169C49.9354 359.426 49.5354 357.634 49.2516 355.845C49.1644 355.284 49.5451 354.76 50.104 354.671C50.663 354.582 51.1888 354.964 51.2772 355.523C51.5479 357.23 51.9291 358.937 52.4098 360.599C52.4536 360.75 52.4605 360.902 52.4371 361.047ZM50.7674 350.54C50.691 351.015 50.2877 351.384 49.7901 351.401C49.224 351.42 48.7499 350.976 48.7306 350.41C48.6698 348.602 48.7222 346.767 48.8854 344.954C48.9458 344.39 49.4358 343.974 49.9996 344.025C50.5634 344.076 50.9791 344.574 50.9288 345.138C50.7719 346.867 50.7223 348.618 50.7803 350.342C50.7824 350.41 50.7778 350.476 50.7674 350.54ZM53.171 334.802C53.1616 334.86 53.147 334.919 53.1265 334.977C52.6344 336.389 52.211 337.852 51.8679 339.327C51.8147 339.55 51.7652 339.77 51.7184 339.99C51.5987 340.544 51.0541 340.896 50.5004 340.777C49.9453 340.658 49.578 340.106 49.7127 339.559C49.7637 339.325 49.8155 339.091 49.8714 338.858C50.2303 337.317 50.6741 335.783 51.1905 334.303C51.3771 333.768 51.9613 333.485 52.496 333.672C52.9724 333.838 53.2486 334.32 53.171 334.802Z" fill="#FF928E"/>
</g>
<g opacity="0.3">
<path d="M136.818 355.354C136.729 355.906 136.211 356.286 135.656 356.204C135.096 356.122 134.708 355.6 134.791 355.04C135.041 353.354 135.189 351.638 135.233 349.939C135.252 349.377 135.717 348.926 136.284 348.94C136.851 348.955 137.297 349.426 137.283 349.992C137.237 351.773 137.082 353.572 136.82 355.34C136.82 355.344 136.819 355.349 136.818 355.354ZM135.741 360.488C135.735 360.524 135.727 360.56 135.717 360.596C135.247 362.319 134.667 364.029 133.994 365.682C133.78 366.206 133.182 366.458 132.658 366.244C132.132 366.031 131.883 365.43 132.094 364.908C132.737 363.331 133.29 361.699 133.739 360.055C133.888 359.509 134.452 359.187 134.998 359.337C135.509 359.476 135.823 359.977 135.741 360.488ZM137.084 344.887C137.012 345.336 136.645 345.698 136.171 345.744C135.609 345.799 135.107 345.387 135.052 344.823C134.885 343.125 134.615 341.424 134.246 339.765C134.125 339.211 134.472 338.665 135.025 338.542C135.577 338.419 136.125 338.768 136.248 339.321C136.635 341.059 136.918 342.844 137.092 344.623C137.101 344.714 137.098 344.802 137.084 344.887ZM131.782 370.187C131.764 370.302 131.725 370.416 131.665 370.524C130.794 372.083 129.818 373.605 128.763 375.045C128.429 375.502 127.787 375.601 127.33 375.267C126.874 374.933 126.775 374.291 127.108 373.834C128.113 372.46 129.044 371.01 129.875 369.523C130.151 369.029 130.776 368.852 131.27 369.128C131.656 369.345 131.849 369.773 131.782 370.187ZM134.813 334.667C134.755 335.026 134.508 335.343 134.142 335.472C133.608 335.661 133.022 335.381 132.833 334.848C132.266 333.244 131.594 331.658 130.836 330.133C130.583 329.625 130.79 329.01 131.298 328.758C131.805 328.506 132.421 328.713 132.673 329.22C133.467 330.819 134.172 332.481 134.767 334.163C134.826 334.331 134.839 334.504 134.813 334.667ZM130.155 325.291C130.111 325.565 129.956 325.82 129.707 325.985C129.234 326.296 128.598 326.165 128.286 325.692C127.348 324.267 126.316 322.887 125.219 321.59C124.852 321.157 124.907 320.509 125.339 320.144C125.771 319.778 126.418 319.832 126.783 320.264C127.934 321.625 129.017 323.071 130 324.564C130.146 324.787 130.195 325.047 130.155 325.291ZM123.385 317.299C123.354 317.492 123.268 317.678 123.125 317.832C122.741 318.248 122.092 318.272 121.676 317.887C120.425 316.728 119.092 315.636 117.714 314.641C117.256 314.31 117.151 313.669 117.483 313.21C117.814 312.751 118.455 312.647 118.915 312.979C120.359 314.022 121.758 315.167 123.071 316.383C123.332 316.625 123.438 316.972 123.385 317.299Z" fill="#FF928E"/>
<path d="M125.566 378.677C125.534 378.872 125.446 379.06 125.301 379.215C124.7 379.855 124.077 380.479 123.45 381.072C123.038 381.46 122.389 381.442 122 381.031C121.613 380.619 121.63 379.971 122.041 379.581C122.639 379.016 123.233 378.42 123.807 377.81C124.195 377.397 124.844 377.378 125.256 377.766C125.513 378.008 125.618 378.352 125.566 378.677Z" fill="#FF928E"/>
</g>
<path d="M112.623 375.728C112.814 375.617 112.915 375.397 112.872 375.18L111.662 368.977C113.812 366.955 115.655 364.576 117.086 361.897L123.385 361.447C123.606 361.431 123.793 361.277 123.85 361.063L125.804 353.739C125.861 353.525 125.776 353.298 125.592 353.174L120.354 349.646C120.447 346.611 120.034 343.63 119.177 340.806L123.316 336.03C123.461 335.862 123.483 335.621 123.373 335.43L119.575 328.869C119.464 328.678 119.244 328.577 119.026 328.62L112.824 329.83C110.802 327.68 108.423 325.837 105.744 324.406L105.294 318.107C105.278 317.886 105.124 317.699 104.91 317.642L97.5855 315.688C97.3714 315.631 97.1447 315.716 97.021 315.9L93.493 321.138C90.4572 321.045 87.4762 321.458 84.6524 322.315L79.8764 318.177C79.7091 318.032 79.4681 318.009 79.2765 318.119L72.7161 321.917C72.5244 322.028 72.4244 322.248 72.4666 322.466L73.6768 328.668C71.5269 330.69 69.6844 333.069 68.2529 335.748L61.9535 336.198C61.7326 336.214 61.5461 336.368 61.4889 336.582L59.5352 343.907C59.478 344.12 59.563 344.347 59.7468 344.471L64.985 347.999C64.8921 351.035 65.3049 354.016 66.1621 356.84L62.0237 361.615C61.8785 361.783 61.8556 362.024 61.9667 362.216L65.764 368.776C65.8751 368.967 66.0953 369.068 66.3129 369.025L72.5153 367.815C74.5371 369.965 76.9166 371.808 79.5954 373.239L80.0457 379.539C80.0614 379.759 80.2156 379.946 80.4298 380.003L87.7537 381.957C87.9678 382.014 88.1945 381.929 88.3183 381.745L91.8464 376.507C94.882 376.6 97.8629 376.187 100.687 375.33L105.463 379.469C105.63 379.614 105.871 379.636 106.063 379.526L112.623 375.728Z" fill="#FF928E"/>
<path d="M100.325 350.072C100.062 351.705 99.2864 353.205 98.0798 354.38C96.5954 355.825 94.6369 356.606 92.5651 356.578C88.29 356.521 84.8576 352.996 84.9138 348.719C84.9787 344.437 88.4977 341.01 92.7736 341.067C94.8454 341.095 96.7823 341.928 98.2269 343.412C99.6725 344.896 100.453 346.855 100.425 348.927C100.419 349.314 100.386 349.697 100.325 350.072ZM87.0366 347.912C86.9928 348.184 86.9682 348.463 86.9641 348.747C86.9228 351.892 89.4474 354.485 92.5931 354.528C94.1163 354.548 95.5577 353.974 96.6488 352.911C97.7411 351.847 98.352 350.423 98.3743 348.899C98.3947 347.375 97.8204 345.934 96.7578 344.843C95.6942 343.751 94.2695 343.138 92.7453 343.118C89.8843 343.079 87.479 345.166 87.0366 347.912Z" fill="#EEE0FF"/>
<path d="M111.651 351.748C111.548 352.388 111.411 353.029 111.241 353.669C110.903 354.939 110.434 356.177 109.848 357.35C109.821 357.402 109.794 357.455 109.768 357.507C109.56 357.913 109.12 358.121 108.693 358.053C108.589 358.036 108.486 358.003 108.388 357.953C107.884 357.695 107.687 357.077 107.943 356.573C108.5 355.483 108.943 354.328 109.259 353.141L109.259 353.14C109.277 353.075 109.293 353.01 109.31 352.945C110.033 350.127 110.026 347.237 109.332 344.489C108.956 342.998 108.376 341.549 107.598 340.176C107.592 340.165 107.585 340.154 107.579 340.143C107.559 340.109 107.54 340.075 107.52 340.041C105.21 336.05 101.483 333.197 97.0276 332.009C96.451 331.854 95.8714 331.731 95.2901 331.637C91.3791 331.008 87.4035 331.737 83.9281 333.748C79.9368 336.058 77.0849 339.785 75.8965 344.24C74.7105 348.694 75.3259 353.348 77.6355 357.34C79.9461 361.331 83.6722 364.184 88.1282 365.372C88.6951 365.524 89.2678 365.646 89.8432 365.738C92.3386 366.14 94.8932 365.991 97.3241 365.293C97.474 365.25 97.6254 365.243 97.7695 365.267C98.1491 365.328 98.4794 365.601 98.5922 365.996C98.7469 366.541 98.4344 367.108 97.8888 367.265C95.1686 368.045 92.3099 368.212 89.519 367.763C88.8743 367.659 88.234 367.523 87.5998 367.354C82.6141 366.024 78.4453 362.833 75.8603 358.367C73.2762 353.902 72.5807 348.699 73.9146 343.712C75.2441 338.727 78.4353 334.558 82.9015 331.973C86.7887 329.723 91.2367 328.908 95.6123 329.612C96.2619 329.717 96.911 329.855 97.5558 330.027C107.207 332.602 113.207 342.09 111.651 351.748Z" fill="#EEE0FF"/>
<path d="M139.235 20.0137C137.91 82.5516 133.612 298.267 135.664 374.711C135.881 382.809 141.431 389.309 148.353 389.574C182.591 390.885 308.105 394.207 364.107 391.458C375.771 390.886 385.047 379.833 385.289 366.178C386.453 300.537 389.02 115.913 382.918 31.3366C382.186 21.2033 375.388 13.1335 366.738 12.1211C329.451 7.75745 203.397 -2.90915 155.015 0.763928C146.29 1.42649 139.452 9.7877 139.235 20.0137Z" fill="#407BFF"/>
<path d="M154.512 39.2008C152.669 89.678 146.856 257.604 148.701 319.699C148.971 328.775 155.085 336.114 162.835 336.645C194.743 338.829 303.605 343.645 350.407 339.261C358.834 338.472 365.447 330.499 365.902 320.623C368.274 269.126 375.083 112.763 373.315 51.3634C373.033 41.5685 366.547 33.5692 358.203 32.6929C323.684 29.067 208.005 20.4401 168.235 22.9785C160.769 23.4552 154.831 30.4621 154.512 39.2008Z" fill="#7DA5FF"/>
<path opacity="0.33" d="M163.451 49.1428C161.766 96.0976 156.449 252.305 158.136 310.067C158.383 318.51 163.975 325.337 171.063 325.83C200.247 327.862 299.815 332.343 342.62 328.264C350.327 327.53 356.376 320.113 356.792 310.926C358.961 263.023 365.189 117.572 363.572 60.4566C363.314 51.3453 357.382 43.9042 349.75 43.089C318.178 39.7161 212.377 31.691 176.002 34.0523C169.174 34.4959 163.743 41.0138 163.451 49.1428Z" fill="white"/>
<path opacity="0.66" d="M223.851 11.6916C223.851 13.6105 225.129 15.1933 226.767 15.2934C234.854 15.7889 257.634 17.1906 267.815 17.8816C269.823 18.018 271.398 15.9071 271.017 13.5973L270.953 13.2031C270.693 11.6271 269.575 10.4409 268.209 10.2945C261.327 9.55676 240.562 7.51122 226.803 8.08562C225.151 8.15488 223.851 9.75688 223.851 11.6916Z" fill="#234CA8"/>
<path opacity="0.54" d="M311.473 280.626H212.222C211.206 280.626 210.383 279.803 210.383 278.787V251.942C210.383 250.926 211.206 250.102 212.222 250.102H311.473C312.489 250.102 313.313 250.926 313.313 251.942V278.787C313.313 279.803 312.489 280.626 311.473 280.626Z" fill="white"/>
<path opacity="0.54" d="M311.947 303.696H212.696C211.68 303.696 210.856 302.873 210.856 301.857V290.274C210.856 289.258 211.68 288.435 212.696 288.435H311.947C312.963 288.435 313.787 289.258 313.787 290.274V301.857C313.787 302.873 312.963 303.696 311.947 303.696Z" fill="white"/>
<path d="M250.996 223.054C269.238 223.054 284.025 208.267 284.025 190.025C284.025 171.784 269.238 156.997 250.996 156.997C232.755 156.997 217.968 171.784 217.968 190.025C217.968 208.267 232.755 223.054 250.996 223.054Z" fill="url(#paint0_linear_151_4538)"/>
<path d="M250.997 221.956C268.632 221.956 282.927 207.66 282.927 190.025C282.927 172.391 268.632 158.095 250.997 158.095C233.362 158.095 219.066 172.391 219.066 190.025C219.066 207.66 233.362 221.956 250.997 221.956Z" fill="url(#paint1_linear_151_4538)"/>
<path opacity="0.7" d="M224.411 178.396C224.25 178.399 224.085 178.366 223.929 178.292C223.396 178.037 223.172 177.399 223.426 176.868C228.433 166.396 238.747 159.738 250.343 159.49C252.193 159.45 254.05 159.577 255.861 159.867C256.443 159.96 256.839 160.507 256.747 161.089C256.654 161.672 256.109 162.073 255.523 161.975C253.839 161.706 252.111 161.588 250.388 161.625C239.603 161.856 230.01 168.049 225.352 177.788C225.173 178.165 224.802 178.388 224.411 178.396Z" fill="white"/>
<path opacity="0.78" d="M251.707 217.731C266.633 217.731 278.732 205.632 278.732 190.706C278.732 175.78 266.633 163.681 251.707 163.681C236.781 163.681 224.682 175.78 224.682 190.706C224.682 205.632 236.781 217.731 251.707 217.731Z" fill="white"/>
<path d="M249.486 210.849L249.423 207.909C246.356 207.852 243.31 207.194 241.137 206.298C240.361 205.978 239.951 205.123 240.154 204.309L240.842 201.555C241.095 200.545 242.176 200.002 243.145 200.384C245.299 201.233 247.951 201.885 250.794 201.824C253.746 201.761 255.926 200.713 255.882 198.662C255.842 196.811 254.118 195.747 249.992 194.734C244.105 193.259 239.848 190.798 239.738 185.645C239.638 180.992 242.964 177.368 248.846 176.291L248.783 173.351C248.763 172.405 249.513 171.622 250.459 171.602L252.187 171.565C253.132 171.544 253.916 172.295 253.936 173.241L253.993 175.88C256.83 175.933 258.905 176.374 260.555 176.914C261.401 177.191 261.879 178.085 261.664 178.949L261.032 181.496C260.788 182.478 259.756 183.035 258.802 182.698C257.282 182.159 255.136 181.611 252.365 181.671C248.863 181.746 247.894 183.218 247.922 184.519C247.956 186.119 250.08 187.175 254.663 188.478C261.208 190.29 263.967 192.933 264.071 197.786C264.167 202.238 260.951 206.311 254.569 207.449L254.639 210.739C254.659 211.685 253.909 212.468 252.963 212.488L251.236 212.525C250.29 212.545 249.506 211.795 249.486 210.849Z" fill="url(#paint2_linear_151_4538)"/>
<path d="M291.953 191.309C315.234 191.309 334.107 172.436 334.107 149.155C334.107 125.874 315.234 107.001 291.953 107.001C268.672 107.001 249.799 125.874 249.799 149.155C249.799 172.436 268.672 191.309 291.953 191.309Z" fill="url(#paint3_linear_151_4538)"/>
<path d="M291.953 189.908C314.46 189.908 332.705 171.662 332.705 149.155C332.705 126.648 314.46 108.403 291.953 108.403C269.446 108.403 251.2 126.648 251.2 149.155C251.2 171.662 269.446 189.908 291.953 189.908Z" fill="url(#paint4_linear_151_4538)"/>
<path opacity="0.7" d="M258.015 133.988C257.858 133.992 257.697 133.96 257.546 133.887C257.028 133.639 256.809 133.019 257.057 132.503C263.394 119.249 276.449 110.821 291.125 110.506C293.464 110.456 295.813 110.617 298.11 110.985C298.675 111.075 299.061 111.607 298.971 112.173C298.88 112.739 298.352 113.133 297.781 113.034C295.608 112.687 293.384 112.535 291.169 112.583C277.281 112.88 264.928 120.856 258.93 133.398C258.756 133.763 258.395 133.98 258.015 133.988Z" fill="white"/>
<path opacity="0.78" d="M292.859 184.516C311.908 184.516 327.351 169.073 327.351 150.024C327.351 130.975 311.908 115.532 292.859 115.532C273.81 115.532 258.367 130.975 258.367 150.024C258.367 169.073 273.81 184.516 292.859 184.516Z" fill="white"/>
<path d="M290.025 175.732L289.945 171.981C286.03 171.908 282.142 171.068 279.369 169.924C278.379 169.515 277.855 168.425 278.115 167.386L278.993 163.871C279.315 162.582 280.695 161.889 281.932 162.376C284.682 163.46 288.066 164.292 291.695 164.214C295.462 164.134 298.244 162.796 298.188 160.178C298.137 157.816 295.936 156.458 290.671 155.166C283.157 153.283 277.724 150.141 277.583 143.565C277.456 137.627 281.7 133.001 289.208 131.627L289.128 127.875C289.102 126.667 290.06 125.668 291.267 125.642L293.471 125.594C294.679 125.568 295.678 126.526 295.704 127.734L295.776 131.102C299.398 131.17 302.046 131.732 304.152 132.422C305.231 132.775 305.841 133.917 305.568 135.019L304.761 138.27C304.449 139.523 303.132 140.234 301.914 139.803C299.974 139.117 297.236 138.417 293.699 138.493C289.229 138.589 287.993 140.467 288.028 142.128C288.072 144.171 290.783 145.518 296.632 147.181C304.985 149.493 308.507 152.867 308.64 159.061C308.761 164.743 304.657 169.941 296.512 171.393L296.601 175.592C296.627 176.799 295.67 177.799 294.462 177.825L292.258 177.872C291.051 177.897 290.051 176.94 290.025 175.732Z" fill="url(#paint5_linear_151_4538)"/>
<path d="M349.135 146.865C380.134 146.865 405.265 121.735 405.265 90.7355C405.265 59.7358 380.134 34.6056 349.135 34.6056C318.135 34.6056 293.005 59.7358 293.005 90.7355C293.005 121.735 318.135 146.865 349.135 146.865Z" fill="url(#paint6_linear_151_4538)"/>
<path d="M349.135 144.999C379.104 144.999 403.399 120.704 403.399 90.7355C403.399 60.7667 379.104 36.4721 349.135 36.4721C319.167 36.4721 294.872 60.7667 294.872 90.7355C294.872 120.704 319.167 144.999 349.135 144.999Z" fill="url(#paint7_linear_151_4538)"/>
<path opacity="0.7" d="M303.937 70.1708C303.784 70.1741 303.628 70.1428 303.48 70.0718C302.975 69.8303 302.761 69.2253 303.003 68.7215C311.38 51.2004 328.637 40.0587 348.04 39.6431C351.136 39.5768 354.242 39.7893 357.274 40.2755C357.826 40.3636 358.203 40.883 358.114 41.4359C358.025 41.9881 357.51 42.3673 356.953 42.2751C354.042 41.8092 351.057 41.6048 348.083 41.6685C329.45 42.0676 312.876 52.7682 304.83 69.5944C304.66 69.9517 304.308 70.163 303.937 70.1708Z" fill="white"/>
<path opacity="0.78" d="M350.341 137.82C375.707 137.82 396.269 117.257 396.269 91.8924C396.269 66.5273 375.707 45.9649 350.341 45.9649C324.976 45.9649 304.414 66.5273 304.414 91.8924C304.414 117.257 324.976 137.82 350.341 137.82Z" fill="white"/>
<path d="M346.568 126.124L346.461 121.128C341.249 121.031 336.072 119.913 332.379 118.39C331.06 117.846 330.363 116.394 330.709 115.01L331.878 110.33C332.307 108.613 334.145 107.69 335.791 108.339C339.453 109.783 343.959 110.89 348.791 110.787C353.807 110.679 357.511 108.899 357.437 105.413C357.369 102.267 354.439 100.459 347.428 98.7384C337.423 96.231 330.188 92.048 330.001 83.2913C329.831 75.3844 335.483 69.2248 345.48 67.3949L345.373 62.3989C345.339 60.7913 346.614 59.4604 348.222 59.426L351.157 59.3631C352.765 59.3286 354.095 60.6038 354.13 62.2115L354.226 66.697C359.049 66.7866 362.574 67.5356 365.379 68.4541C366.816 68.9246 367.628 70.4443 367.264 71.9118L366.189 76.2402C365.775 77.9093 364.02 78.8563 362.399 78.2827C359.815 77.3684 356.17 76.4369 351.46 76.5377C345.509 76.6651 343.862 79.1669 343.909 81.3774C343.967 84.0979 347.578 85.8915 355.365 88.1066C366.488 91.1853 371.177 95.6778 371.354 103.924C371.516 111.49 366.051 118.412 355.205 120.346L355.325 125.936C355.359 127.544 354.084 128.875 352.477 128.909L349.541 128.972C347.934 129.007 346.603 127.732 346.568 126.124Z" fill="url(#paint8_linear_151_4538)"/>
<path d="M220.025 100.002H27.6969C26.0337 100.002 24.6855 98.6541 24.6855 96.9909V3.14115C24.6855 1.47797 26.0337 0.129761 27.6969 0.129761H220.025C221.688 0.129761 223.036 1.47797 223.036 3.14115V96.9909C223.036 98.6541 221.688 100.002 220.025 100.002Z" fill="#242F46"/>
<path opacity="0.41" d="M213.962 98.279H31.8825C30.2193 98.279 28.8711 96.9308 28.8711 95.2676V15.51C28.8711 13.847 30.2193 12.4987 31.8825 12.4987H213.962C215.625 12.4987 216.973 13.847 216.973 15.51V95.2676C216.973 96.9308 215.625 98.279 213.962 98.279Z" fill="white"/>
<g opacity="0.67">
<path d="M46.3984 28.5991H35.0303V94.189H46.3984V28.5991Z" fill="white"/>
</g>
<g opacity="0.67">
<path d="M61.665 28.5991H50.2969V94.189H61.665V28.5991Z" fill="white"/>
</g>
<g opacity="0.67">
<path d="M76.6132 28.5992H65.2451V94.189H76.6132V28.5992Z" fill="white"/>
</g>
<g opacity="0.67">
<path d="M91.8808 28.5991H80.5127V94.189H91.8808V28.5991Z" fill="white"/>
</g>
<g opacity="0.67">
<path d="M106.375 28.5992H95.0068V94.189H106.375V28.5992Z" fill="white"/>
</g>
<g opacity="0.67">
<path d="M121.642 28.5992H110.273V94.189H121.642V28.5992Z" fill="white"/>
</g>
<g opacity="0.67">
<path d="M136.59 28.5991H125.222V94.189H136.59V28.5991Z" fill="white"/>
</g>
<g opacity="0.67">
<path d="M151.857 28.5992H140.489V94.189H151.857V28.5992Z" fill="white"/>
</g>
<g opacity="0.67">
<path d="M167.073 28.5992H155.705V94.189H167.073V28.5992Z" fill="white"/>
</g>
<g opacity="0.67">
<path d="M182.339 28.5992H170.971V94.189H182.339V28.5992Z" fill="white"/>
</g>
<g opacity="0.67">
<path d="M197.288 28.5991H185.92V94.189H197.288V28.5991Z" fill="white"/>
</g>
<g opacity="0.67">
<path d="M212.555 28.5991H201.187V94.189H212.555V28.5991Z" fill="white"/>
</g>
<path d="M223.085 21.009V6.25609C223.085 2.80766 220.24 0 216.792 0H30.9286C27.4805 0 24.7207 2.80766 24.7207 6.25609V21.0091H223.085V21.009Z" fill="#242F46"/>
<path d="M46.4677 62.5248H35.0996V94.1891H46.4677V62.5248Z" fill="#242F46"/>
<path d="M61.7334 52.8312H50.3652V94.1891H61.7334V52.8312Z" fill="#242F46"/>
<path d="M76.6826 70.2341H65.3145V94.1891H76.6826V70.2341Z" fill="#242F46"/>
<path d="M91.9502 44.1554H80.582V94.1891H91.9502V44.1554Z" fill="#242F46"/>
<path d="M106.443 35.7789H95.0752V94.1891H106.443V35.7789Z" fill="#242F46"/>
<path d="M121.712 76.3905H110.344V94.1892H121.712V76.3905Z" fill="#242F46"/>
<path d="M136.659 58.613H125.291V94.189H136.659V58.613Z" fill="#242F46"/>
<path d="M151.926 52.8312H140.558V94.1892H151.926V52.8312Z" fill="#242F46"/>
<path d="M167.142 61.3941H155.773V94.1891H167.142V61.3941Z" fill="#242F46"/>
<path d="M182.409 39.668H171.041V94.1891H182.409V39.668Z" fill="#242F46"/>
<path d="M197.357 44.1554H185.989V94.1891H197.357V44.1554Z" fill="#242F46"/>
<path d="M212.624 50.4362H201.256V94.1891H212.624V50.4362Z" fill="#242F46"/>
<path d="M128.821 391.016C123.165 391.505 113.348 392.299 105.61 392.64C100.958 392.844 98.2797 392.389 96.7373 391.771C96.7399 391.945 96.7448 392.109 96.7516 392.262C96.7881 393.076 97.4499 393.728 98.2724 393.774C112.895 394.59 124.524 394.056 128.664 393.804C129.52 393.752 130.031 392.822 129.593 392.092C129.374 391.727 129.109 391.369 128.821 391.016Z" fill="#7D97F4"/>
<path d="M105.609 392.64C113.347 392.299 123.163 391.505 128.819 391.016C123.259 384.194 105.609 379.595 105.609 379.595H100.624C97.1951 384.537 96.6987 389.243 96.7363 391.771C98.2787 392.389 100.957 392.844 105.609 392.64Z" fill="url(#paint9_linear_151_4538)"/>
<path d="M99.7842 371.457L100.251 380.688C100.301 381.688 101.049 382.528 102.051 382.671C103.047 382.813 104.381 382.831 105.795 382.36C106.665 382.071 107.312 381.338 107.472 380.443L109.084 371.457H99.7842Z" fill="url(#paint10_linear_151_4538)"/>
<path d="M41.9284 401.665C39.4756 401.223 38.3659 399.576 37.9005 397.815C37.8975 397.831 37.8945 397.847 37.8914 397.863C37.5306 399.72 38.367 401.645 40.0396 402.56C42.0612 403.666 44.2713 403.855 45.9872 403.763C47.8281 403.665 49.518 402.681 50.4468 401.105L50.4608 401.081C48.6127 402.263 46.0189 402.402 41.9284 401.665Z" fill="#7D97F4"/>
<path d="M53.4925 374.301H49.3816C43.1198 374.136 39.1876 391.205 37.9004 397.815C38.3657 399.576 39.4754 401.223 41.9283 401.665C46.0188 402.402 48.6126 402.263 50.4605 401.081C53.8434 395.328 55.5207 386.901 56.3268 381.984C57.2438 376.39 53.4925 374.301 53.4925 374.301Z" fill="url(#paint11_linear_151_4538)"/>
<path d="M49.9095 365.733L47.6268 374.812C47.3468 375.925 47.8795 377.077 48.9089 377.605C50.1859 378.26 51.9839 378.949 53.6363 378.75C54.4134 378.656 55.0589 378.109 55.3156 377.377L58.6671 367.824L49.9095 365.733Z" fill="url(#paint12_linear_151_4538)"/>
<path d="M130.213 246.153C130.213 246.153 109.813 373.67 110.149 374.371C110.149 374.371 104.514 376.932 98.3723 374.697C98.3723 374.697 100.217 306.53 104.54 280.393C104.54 280.393 69.7238 341.321 58.6677 371.681C58.6677 371.681 52.9012 370.993 48.1279 367.851C48.1279 367.851 85.6149 258.184 95.616 243.577L130.213 246.153Z" fill="#242F46"/>
<path d="M105.354 279.947C105.205 279.947 105.055 279.907 104.92 279.822C104.536 279.582 104.42 279.076 104.66 278.692L112.284 266.515C112.403 266.324 112.596 266.191 112.817 266.147L118.427 265.018C118.871 264.929 119.303 265.216 119.392 265.66C119.482 266.104 119.194 266.536 118.75 266.625L113.486 267.684L106.05 279.562C105.894 279.811 105.627 279.947 105.354 279.947Z" fill="url(#paint13_linear_151_4538)"/>
<path d="M223.827 121.286C223.827 121.286 210.061 124.322 201.689 128.188C200.026 128.955 198.699 130.298 197.944 131.952C195.44 137.438 187.948 151.193 173.419 157.757C175.511 160.534 178.88 166.311 180.348 176.02C189.074 169.525 196.608 158.678 200.224 140.889C200.224 140.889 202.979 142.386 206.414 140.718C208.23 139.836 210.325 138.586 211.899 137.602C213.466 136.622 214.634 135.099 215.088 133.32C215.686 130.971 215.334 128.905 215.334 126.689L222.409 124.497C222.409 124.497 224.536 123.694 223.827 121.286Z" fill="url(#paint14_linear_151_4538)"/>
<path d="M180.348 176.02C178.88 166.311 175.511 160.534 173.419 157.757C164.393 161.835 152.652 163.138 137.702 157.958C136.324 157.48 134.886 157.2 133.429 157.115C125.47 156.648 99.2422 155.797 77.5396 162.967C72.9723 164.476 69.2728 167.852 67.3662 172.227C61.4955 185.7 51.9907 216.382 78.3769 231.872C80.4043 226.839 82.744 222.793 84.7448 219.821C80.4956 212.654 79.237 202.864 86.7775 190.116C92.2758 204.963 94.8554 226.626 95.3943 236.213C95.5718 239.369 95.018 242.52 93.7796 245.434L93.6444 245.752C93.3795 246.376 93.7441 247.092 94.4108 247.242C109.265 250.579 124.715 249.672 129.331 249.291C130.155 249.223 130.839 248.633 131.028 247.837C138.251 217.401 138.268 196.64 136.499 183.515C143.256 185.026 163.918 188.248 180.348 176.02Z" fill="url(#paint15_linear_151_4538)"/>
<path d="M136.529 184.551C136.124 184.551 135.772 184.251 135.717 183.839C134.022 171.03 130.599 165.52 130.564 165.465C130.322 165.083 130.435 164.577 130.817 164.334C131.2 164.091 131.706 164.205 131.949 164.587C132.097 164.82 135.6 170.46 137.343 183.623C137.402 184.072 137.087 184.484 136.638 184.543C136.601 184.549 136.565 184.551 136.529 184.551Z" fill="url(#paint16_linear_151_4538)"/>
<path d="M99.8708 139.385C99.8708 139.385 98.368 155.274 97.0449 159.973C96.8442 160.686 97.154 161.438 97.8017 161.808C100.047 163.092 105.433 165.184 112.8 161.574C113.994 160.989 114.711 159.745 114.656 158.428L114.007 143.075L99.8708 139.385Z" fill="url(#paint17_linear_151_4538)"/>
<path d="M114.333 119.058C114.333 119.058 119.139 130.099 119.462 135.894C119.785 141.689 121.033 145.45 114.333 146.617C107.632 147.784 101.987 144.446 98.9293 138.673C98.9293 138.673 94.1379 129.778 95.2128 126.135C96.2876 122.493 114.333 119.058 114.333 119.058Z" fill="url(#paint18_linear_151_4538)"/>
<path d="M101.218 134.523L101.6 134.355C102.085 134.14 102.293 133.562 102.049 133.091C101.104 131.265 99.2624 127.082 101.642 126.106C104.709 124.848 116.856 122.371 119.477 118.06C121.996 113.918 119.764 108.57 116.41 107.049C116.186 106.947 115.921 107.028 115.806 107.246L115.526 107.775C115.335 108.137 114.8 108.082 114.686 107.689C114.577 107.311 114.075 107.238 113.866 107.572C113.061 108.861 110.886 110.952 105.069 112.025C96.8027 113.551 91.3375 116.896 91.2014 122.608C91.1928 122.971 90.8068 123.173 90.4967 122.984C89.8864 122.612 88.9097 122.438 87.6044 123.535C85.3342 125.444 86.2633 130.396 91.24 134.469C91.4763 134.663 91.4744 135.032 91.2185 135.198C90.3162 135.786 88.9712 137.183 92.4563 139.046C96.061 140.973 98.7528 140.815 99.7892 140.644C100.047 140.601 100.213 140.352 100.157 140.096L99.0507 135.076C98.9881 134.792 99.2044 134.523 99.4954 134.523H101.218Z" fill="#242F46"/>
<path d="M101.427 135.582C101.427 135.582 99.5933 128.529 96.4311 130.507C93.269 132.484 98.0719 138.409 100.614 138.673L101.427 135.582Z" fill="url(#paint19_linear_151_4538)"/>
<path d="M203.897 139.466C203.715 139.466 203.533 139.406 203.38 139.282C203.029 138.997 202.976 138.48 203.262 138.129C203.785 137.485 208.429 131.808 210.243 130.783C210.828 130.452 211.187 130.114 211.254 129.83C211.263 129.791 211.283 129.708 211.245 129.563L206.055 130.603L203.024 133.205C202.68 133.5 202.162 133.46 201.868 133.117C201.573 132.773 201.612 132.256 201.956 131.961L205.15 129.219C205.257 129.127 205.385 129.065 205.523 129.037L211.532 127.833C211.855 127.768 212.188 127.904 212.373 128.179C212.842 128.876 213.003 129.558 212.85 130.207C212.669 130.973 212.08 131.628 211.049 132.21C209.886 132.868 206.435 136.824 204.534 139.163C204.372 139.362 204.135 139.466 203.897 139.466Z" fill="url(#paint20_linear_151_4538)"/>
<path d="M101.29 242.723L122.98 242.251C122.98 242.251 104.066 236.904 102.892 238.361C102.892 238.361 91.1693 230.657 84.7449 219.821C82.7441 222.793 80.4043 226.839 78.377 231.872C84.1363 235.253 91.6999 241.127 101.29 242.723Z" fill="url(#paint21_linear_151_4538)"/>
<path d="M100.679 238.967C100.679 238.967 100.232 247.609 111.576 246.354C117.741 245.672 127.694 239.924 127.694 239.924C127.694 239.924 101.751 239.855 100.679 238.967Z" fill="url(#paint22_linear_151_4538)"/>
<path d="M105.121 241.285C105.162 241.288 105.203 241.288 105.245 241.288L159.173 241.23C160.506 241.229 161.586 240.158 161.584 238.84C161.583 237.52 160.497 236.43 159.168 236.454L105.239 236.512C103.906 236.513 102.827 237.583 102.828 238.902C102.83 240.18 103.845 241.223 105.121 241.285Z" fill="url(#paint23_linear_151_4538)"/>
<path d="M207.652 192.839H162.74C159.427 192.839 156.411 194.731 154.998 197.696L134.235 241.257H190.049C192.184 241.257 194.102 239.966 194.887 238.002L210.987 197.692C211.918 195.363 210.183 192.839 207.652 192.839Z" fill="url(#paint24_linear_151_4538)"/>
<path d="M176.011 215.174C175.038 218.166 175.757 221.072 177.617 221.664C179.477 222.256 181.774 220.312 182.747 217.32C183.72 214.328 183.002 211.422 181.141 210.83C179.281 210.237 176.984 212.182 176.011 215.174Z" fill="#7D97F4"/>
<defs>
<linearGradient id="paint0_linear_151_4538" x1="206.933" y1="243.441" x2="250.124" y2="191.083" gradientUnits="userSpaceOnUse">
<stop stop-color="#FF928E"/>
<stop offset="1" stop-color="#FE7062"/>
</linearGradient>
<linearGradient id="paint1_linear_151_4538" x1="274.349" y1="153.05" x2="147.613" y2="353.715" gradientUnits="userSpaceOnUse">
<stop stop-color="#FF928E"/>
<stop offset="1" stop-color="#FE7062"/>
</linearGradient>
<linearGradient id="paint2_linear_151_4538" x1="307.477" y1="98.6306" x2="278.163" y2="147.731" gradientUnits="userSpaceOnUse">
<stop stop-color="#FF928E"/>
<stop offset="1" stop-color="#FE7062"/>
</linearGradient>
<linearGradient id="paint3_linear_151_4538" x1="235.715" y1="217.329" x2="290.84" y2="150.505" gradientUnits="userSpaceOnUse">
<stop stop-color="#FF928E"/>
<stop offset="1" stop-color="#FE7062"/>
</linearGradient>
<linearGradient id="paint4_linear_151_4538" x1="321.757" y1="101.965" x2="160.005" y2="358.071" gradientUnits="userSpaceOnUse">
<stop stop-color="#FF928E"/>
<stop offset="1" stop-color="#FE7062"/>
</linearGradient>
<linearGradient id="paint5_linear_151_4538" x1="168.567" y1="363.533" x2="223.021" y2="270.744" gradientUnits="userSpaceOnUse">
<stop stop-color="#FF928E"/>
<stop offset="1" stop-color="#FE7062"/>
</linearGradient>
<linearGradient id="paint6_linear_151_4538" x1="274.252" y1="181.512" x2="347.652" y2="92.533" gradientUnits="userSpaceOnUse">
<stop stop-color="#FF928E"/>
<stop offset="1" stop-color="#FE7062"/>
</linearGradient>
<linearGradient id="paint7_linear_151_4538" x1="388.822" y1="27.8996" x2="173.442" y2="368.915" gradientUnits="userSpaceOnUse">
<stop stop-color="#FF928E"/>
<stop offset="1" stop-color="#FE7062"/>
</linearGradient>
<linearGradient id="paint8_linear_151_4538" x1="309.339" y1="242.914" x2="337.915" y2="139.684" gradientUnits="userSpaceOnUse">
<stop stop-color="#FF928E"/>
<stop offset="1" stop-color="#FE7062"/>
</linearGradient>
<linearGradient id="paint9_linear_151_4538" x1="96.7344" y1="386.142" x2="128.82" y2="386.142" gradientUnits="userSpaceOnUse">
<stop stop-color="#09005D"/>
<stop offset="1" stop-color="#1A0F91"/>
</linearGradient>
<linearGradient id="paint10_linear_151_4538" x1="99.7842" y1="377.108" x2="109.084" y2="377.108" gradientUnits="userSpaceOnUse">
<stop stop-color="#FEBBBA"/>
<stop offset="1" stop-color="#FF928E"/>
</linearGradient>
<linearGradient id="paint11_linear_151_4538" x1="37.9004" y1="388.209" x2="56.4712" y2="388.209" gradientUnits="userSpaceOnUse">
<stop stop-color="#09005D"/>
<stop offset="1" stop-color="#1A0F91"/>
</linearGradient>
<linearGradient id="paint12_linear_151_4538" x1="47.5527" y1="372.259" x2="58.6669" y2="372.259" gradientUnits="userSpaceOnUse">
<stop stop-color="#FEBBBA"/>
<stop offset="1" stop-color="#FF928E"/>
</linearGradient>
<linearGradient id="paint13_linear_151_4538" x1="81.0496" y1="41.0894" x2="102.302" y2="200.114" gradientUnits="userSpaceOnUse">
<stop stop-color="#4F52FF"/>
<stop offset="1" stop-color="#4042E2"/>
</linearGradient>
<linearGradient id="paint14_linear_151_4538" x1="169.754" y1="187.166" x2="210.06" y2="121.944" gradientUnits="userSpaceOnUse">
<stop stop-color="#FEBBBA"/>
<stop offset="1" stop-color="#FF928E"/>
</linearGradient>
<linearGradient id="paint15_linear_151_4538" x1="189.049" y1="49.9019" x2="173.659" y2="79.2154" gradientUnits="userSpaceOnUse">
<stop stop-color="#FF928E"/>
<stop offset="1" stop-color="#FE7062"/>
</linearGradient>
<linearGradient id="paint16_linear_151_4538" x1="209.017" y1="21.1254" x2="62.4426" y2="320.138" gradientUnits="userSpaceOnUse">
<stop stop-color="#E1473D"/>
<stop offset="1" stop-color="#E9605A"/>
</linearGradient>
<linearGradient id="paint17_linear_151_4538" x1="102.308" y1="175.162" x2="107.123" y2="149.88" gradientUnits="userSpaceOnUse">
<stop stop-color="#FEBBBA"/>
<stop offset="1" stop-color="#FF928E"/>
</linearGradient>
<linearGradient id="paint18_linear_151_4538" x1="115.34" y1="128.777" x2="87.8637" y2="149.8" gradientUnits="userSpaceOnUse">
<stop stop-color="#FEBBBA"/>
<stop offset="1" stop-color="#FF928E"/>
</linearGradient>
<linearGradient id="paint19_linear_151_4538" x1="111.932" y1="124.322" x2="84.4552" y2="145.346" gradientUnits="userSpaceOnUse">
<stop stop-color="#FEBBBA"/>
<stop offset="1" stop-color="#FF928E"/>
</linearGradient>
<linearGradient id="paint20_linear_151_4538" x1="239.24" y1="38.3098" x2="223.117" y2="85.2109" gradientUnits="userSpaceOnUse">
<stop stop-color="#FF928E"/>
<stop offset="1" stop-color="#FE7062"/>
</linearGradient>
<linearGradient id="paint21_linear_151_4538" x1="119.394" y1="24.167" x2="125.257" y2="-42.5211" gradientUnits="userSpaceOnUse">
<stop stop-color="#FEBBBA"/>
<stop offset="1" stop-color="#FF928E"/>
</linearGradient>
<linearGradient id="paint22_linear_151_4538" x1="95.3367" y1="25.2372" x2="89.474" y2="-41.4512" gradientUnits="userSpaceOnUse">
<stop stop-color="#FEBBBA"/>
<stop offset="1" stop-color="#FF928E"/>
</linearGradient>
<linearGradient id="paint23_linear_151_4538" x1="95.9742" y1="226.984" x2="138.78" y2="241.023" gradientUnits="userSpaceOnUse">
<stop stop-color="#09005D"/>
<stop offset="1" stop-color="#1A0F91"/>
</linearGradient>
<linearGradient id="paint24_linear_151_4538" x1="154.892" y1="199.26" x2="185.538" y2="231.651" gradientUnits="userSpaceOnUse">
<stop stop-color="#09005D"/>
<stop offset="1" stop-color="#242F46"/>
</linearGradient>
</defs>
</svg>
