<svg width="300" height="301" viewBox="0 0 300 301" fill="none" xmlns="http://www.w3.org/2000/svg">
<path id="Vector" d="M222.576 162.263L222.576 162.269C222.809 203.565 186.937 229.273 148.122 229.439L222.576 162.263ZM222.576 162.263L222.02 90.744L222.001 88.2518M222.576 162.263L222.001 88.2518M222.001 88.2518L219.508 88.2635M222.001 88.2518L219.508 88.2635M219.508 88.2635L151.101 88.5852M219.508 88.2635L151.101 88.5852M151.101 88.5852C111.864 88.7515 76.3567 121.971 76.5874 162.94C76.819 204.078 109.068 229.659 148.12 229.439L151.101 88.5852ZM151.122 93.5851L151.123 93.5851L217.04 93.2752L217.576 162.297C217.576 162.299 217.576 162.3 217.576 162.302C217.786 200.026 185.03 224.283 148.097 224.439L148.094 224.439C111.285 224.648 81.8006 200.799 81.5873 162.912C81.373 124.856 114.497 93.7404 151.122 93.5851ZM297.498 159.929L297.498 159.936C297.717 203.863 279.703 238.292 251.639 261.822C223.528 285.392 185.228 298.105 144.872 298.264C64.6134 298.58 2.5 233.977 2.5 154.134C2.5 66.2153 71.4417 4.31418 151.79 3.94485L297.17 3.27663L297.498 159.929Z" fill="#B0D4FF" stroke="#B0D4FF" stroke-width="5"/>
</svg>
