<svg width="300" height="300" viewBox="0 0 300 300" fill="none" xmlns="http://www.w3.org/2000/svg">
<path id="Vector" d="M148.118 228.174C186.745 228.01 222.307 202.447 222.076 161.506L222.076 161.502L221.52 89.9828L221.505 87.989L219.511 87.9984L151.103 88.32C112.127 88.4853 76.8584 121.494 77.0874 162.172C77.3172 202.985 109.29 228.393 148.118 228.174ZM148.118 228.174C148.117 228.174 148.117 228.174 148.117 228.174L148.108 226.174L148.119 228.174C148.119 228.174 148.118 228.174 148.118 228.174ZM151.12 92.32L151.121 92.32L217.536 92.0077L218.076 161.529C218.291 199.613 185.222 224.017 148.1 224.174L148.097 224.174C111.064 224.384 81.3025 200.361 81.0873 162.15C80.8714 123.803 114.234 92.4764 151.12 92.32ZM297.669 2.00919L297.998 159.163L297.998 159.169C298.217 203.247 280.135 237.816 251.96 261.44C223.747 285.096 185.329 297.84 144.874 297.999C64.3269 298.316 2 233.477 2 153.368C2 65.1593 71.18 3.05024 151.788 2.67972L297.669 2.00919Z" fill="#FF928E" stroke="#FF928E" stroke-width="4"/>
</svg>
