<svg width="300" height="300" viewBox="0 0 300 300" fill="none" xmlns="http://www.w3.org/2000/svg">
<path id="Vector" d="M148.11 226.674C186.173 226.513 220.801 201.384 220.576 161.515L220.576 161.514L220.02 89.9944L220.016 89.496L219.518 89.4983L151.109 89.82C112.917 89.982 78.3633 122.36 78.5874 162.164C78.8117 202.001 109.955 226.89 148.11 226.674ZM148.11 226.674L148.108 226.174L148.111 226.674C148.111 226.674 148.11 226.674 148.11 226.674ZM148.105 225.674L148.106 225.674C185.793 225.514 219.796 200.676 219.576 161.521L148.105 225.674ZM148.105 225.674C110.399 225.887 79.808 201.345 79.5873 162.158C79.3665 122.937 113.444 90.9797 151.113 90.82L219.024 90.5007L219.576 161.52L148.105 225.674ZM299.165 0.502299L299.498 159.16V159.161C299.72 203.695 281.434 238.685 252.924 262.59C224.404 286.502 185.632 299.338 144.88 299.499C63.4674 299.819 0.5 234.273 0.5 153.368C0.5 64.287 70.3948 1.55383 151.781 1.17974L299.165 0.502299Z" fill="#FF928E" stroke="#FF928E"/>
</svg>
