<svg width="300" height="301" viewBox="0 0 300 301" fill="none" xmlns="http://www.w3.org/2000/svg">
<path id="Vector" d="M148.11 227.439C186.173 227.278 220.801 202.149 220.576 162.28L220.576 162.279L220.02 90.7596L220.016 90.2611L219.518 90.2635L151.109 90.5852C112.917 90.7471 78.3633 123.125 78.5874 162.929C78.8117 202.766 109.955 227.655 148.11 227.439ZM148.11 227.439L148.108 226.939L148.111 227.439C148.111 227.439 148.11 227.439 148.11 227.439ZM148.105 226.439L148.106 226.439C185.793 226.279 219.796 201.441 219.576 162.287L148.105 226.439ZM148.105 226.439C110.399 226.653 79.808 202.111 79.5873 162.923C79.3665 123.702 113.444 91.7449 151.113 91.5851L219.024 91.2658L219.576 162.285L148.105 226.439ZM299.165 1.26744L299.498 159.925V159.926C299.72 204.461 281.434 239.45 252.924 263.355C224.404 287.267 185.632 300.104 144.88 300.264C63.4674 300.585 0.5 235.038 0.5 154.134C0.5 65.0521 70.3948 2.31897 151.781 1.94488L299.165 1.26744Z" fill="#6887F5" stroke="#6887F5"/>
</svg>
