<svg width="300" height="301" viewBox="0 0 300 301" fill="none" xmlns="http://www.w3.org/2000/svg">
<path id="Vector" d="M148.118 228.939C186.745 228.775 222.307 203.212 222.076 162.271L222.076 162.267L221.52 90.7479L221.505 88.7541L219.511 88.7635L151.103 89.0852C112.127 89.2504 76.8584 122.259 77.0874 162.937C77.3172 203.75 109.29 229.158 148.118 228.939ZM148.118 228.939C148.117 228.939 148.117 228.939 148.117 228.939L148.108 226.939L148.119 228.939C148.119 228.939 148.118 228.939 148.118 228.939ZM151.12 93.0851L151.121 93.0851L217.536 92.7728L218.076 162.294C218.291 200.378 185.222 224.782 148.1 224.939L148.097 224.939C111.064 225.149 81.3025 201.127 81.0873 162.915C80.8714 124.568 114.234 93.2415 151.12 93.0851ZM297.669 2.77433L297.998 159.928L297.998 159.934C298.217 204.013 280.135 238.581 251.96 262.205C223.747 285.861 185.329 298.605 144.874 298.764C64.3269 299.081 2 234.242 2 154.134C2 65.9245 71.18 3.81538 151.788 3.44486L297.669 2.77433Z" fill="#6887F5" stroke="#6887F5" stroke-width="4"/>
</svg>
