<svg width="418" height="418" viewBox="0 0 418 418" fill="none" xmlns="http://www.w3.org/2000/svg">
<path d="M206.372 317.136C259.898 316.909 308.958 281.519 308.64 225.036L308.64 225.032L307.865 125.382L307.849 123.388L305.855 123.398L210.54 123.846C210.54 123.846 210.539 123.846 210.539 123.846C156.645 124.075 107.879 169.736 108.195 225.955C108.512 282.309 152.626 317.439 206.372 317.136ZM206.372 317.136L206.364 315.136L206.375 317.136C206.374 317.136 206.373 317.136 206.372 317.136ZM210.557 127.846H210.558L303.88 127.407L304.64 225.059C304.942 278.685 258.376 312.915 206.355 313.136L206.353 313.136C154.4 313.43 112.498 279.686 112.195 225.933C111.892 172.044 158.751 128.066 210.557 127.846ZM415.537 2.00919L415.997 221.765L415.997 221.771C416.304 283.426 391.003 331.813 351.57 364.876C312.099 397.971 258.384 415.776 201.861 415.998C89.178 416.442 2 325.729 2 213.693C2 90.3312 98.7656 3.46522 211.488 2.94709L415.537 2.00919Z" fill="#F15959" stroke="#F15959" stroke-width="4"/>
</svg>
