<svg width="40" height="40" viewBox="0 0 40 40" fill="none" xmlns="http://www.w3.org/2000/svg">
<path fill-rule="evenodd" clip-rule="evenodd" d="M23.624 6.72412L23.668 16.1961L17.464 16.2241L17.452 13.3521L10.288 13.3881L10.256 6.78812L23.624 6.72412Z" fill="#F15959"/>
<path d="M27.42 31.024L27.384 23.68L22.824 23.7L22.848 28.892C22.88 35.56 17.568 39.376 11.692 39.4C5.81597 39.424 1.27197 34.516 1.27197 28.46C1.27197 21.792 6.31597 17.096 12.188 17.068L33.16 16.968L33.272 31L27.42 31.024ZM17.1 29.068L17.06 23.732L12.14 23.756C9.41197 23.768 6.94397 26.168 6.95997 29.116C6.97597 32.064 9.19597 33.908 11.924 33.892C14.648 33.88 17.116 32.016 17.1 29.068Z" fill="#F15959"/>
<path fill-rule="evenodd" clip-rule="evenodd" d="M33.16 16.1521L24.74 16.1921L24.696 6.71212L33.116 6.67212L33.16 16.1521Z" fill="black"/>
<path fill-rule="evenodd" clip-rule="evenodd" d="M23.624 6.72388L23.668 16.1959L17.464 16.2239L17.452 13.3519L10.288 13.3879L10.256 6.78788L23.624 6.72388Z" fill="#F15959"/>
<path d="M27.42 31.024L27.384 23.68L22.824 23.7L22.848 28.892C22.88 35.56 17.568 39.376 11.692 39.4C5.81597 39.424 1.27197 34.516 1.27197 28.46C1.27197 21.792 6.31597 17.096 12.188 17.068L33.16 16.968L33.272 31L27.42 31.024ZM17.1 29.068L17.06 23.732L12.14 23.756C9.41197 23.768 6.94397 26.168 6.95997 29.116C6.97597 32.064 9.19597 33.908 11.924 33.892C14.648 33.88 17.116 32.016 17.1 29.068Z" fill="#F15959"/>
<path fill-rule="evenodd" clip-rule="evenodd" d="M33.16 16.1519L24.74 16.1919L24.696 6.71188L33.116 6.67188L33.16 16.1519Z" fill="#242F46"/>
<path fill-rule="evenodd" clip-rule="evenodd" d="M38.148 1.25195L38.172 6.64395L33.108 6.66795L33.084 1.27595L38.148 1.25195Z" fill="#242F46"/>
</svg>
