<svg width="73" height="62" viewBox="0 0 73 62" fill="none" xmlns="http://www.w3.org/2000/svg">
<g id="Group">
<g id="Group_2">
<path id="Vector" d="M41.2857 54.2858H27.2857L29.2857 48.2858H39.2857L41.2857 54.2858Z" stroke="#377DFF" stroke-width="2" stroke-miterlimit="10" stroke-linecap="square"/>
<path id="Vector_2" d="M25.2857 54.2858H43.2857" stroke="#377DFF" stroke-width="2" stroke-miterlimit="10" stroke-linecap="square"/>
<path id="Vector_3" d="M34.2857 46.2858C35.3903 46.2858 36.2857 45.3903 36.2857 44.2858C36.2857 43.1812 35.3903 42.2858 34.2857 42.2858C33.1811 42.2858 32.2857 43.1812 32.2857 44.2858C32.2857 45.3903 33.1811 46.2858 34.2857 46.2858Z" fill="#F15959"/>
<path id="Vector_4" d="M11.2857 40.2858H57.2857" stroke="#377DFF" stroke-width="2" stroke-miterlimit="10" stroke-linecap="square"/>
<path id="Vector_5" d="M55.2857 48.2858H13.2857C12.1857 48.2858 11.2857 47.3858 11.2857 46.2858V14.2858C11.2857 13.1858 12.1857 12.2858 13.2857 12.2858H55.2857C56.3857 12.2858 57.2857 13.1858 57.2857 14.2858V46.2858C57.2857 47.3858 56.3857 48.2858 55.2857 48.2858Z" stroke="#377DFF" stroke-width="2" stroke-miterlimit="10" stroke-linecap="square"/>
</g>
<g id="Group 57">
<path id="Vector 4" d="M65.5 60.5H70.5V42" stroke="#242F46" stroke-width="2"/>
<path id="Vector 5" d="M70 36V3H52" stroke="#242F46" stroke-width="2"/>
<path id="Vector 6" d="M46 3L9 3" stroke="#242F46" stroke-width="2"/>
<path id="Vector 2" d="M1 2.5V60.5" stroke="#242F46" stroke-width="2"/>
<path id="Vector 3" d="M8.5 60.5L58 60" stroke="#242F46" stroke-width="2"/>
<circle id="Ellipse 13" cx="70.5" cy="40.5" r="2" stroke="#242F46"/>
<circle id="Ellipse 12" cx="7.5" cy="2.5" r="2" stroke="#242F46"/>
</g>
</g>
</svg>
