<svg width="73" height="62" viewBox="0 0 73 62" fill="none" xmlns="http://www.w3.org/2000/svg">
<g id="Group 60">
<g id="Group">
<g id="Group_2">
<g id="Group_3">
<g id="Group_4">
<g id="Group_5">
<path id="Vector" d="M29.2858 40.2858H28.2858H27.2858L19.2858 48.2858V40.2858H15.2858C14.1858 40.2858 13.2858 39.3858 13.2858 38.2858V16.2858C13.2858 15.1858 14.1858 14.2858 15.2858 14.2858H49.2858C50.3858 14.2858 51.2858 15.1858 51.2858 16.2858V25.2858V26.2858" stroke="#377DFF" stroke-width="2" stroke-miterlimit="10" stroke-linecap="square"/>
<path id="Vector_2" d="M46.2858 30.2858H57.2858C58.3858 30.2858 59.2858 31.1858 59.2858 32.2858V48.2858C59.2858 49.3858 58.3858 50.2858 57.2858 50.2858H55.2858V54.2858L51.2858 50.2858H35.2858C34.1858 50.2858 33.2858 49.3858 33.2858 48.2858V32.2858C33.2858 31.1858 34.1858 30.2858 35.2858 30.2858H46.2858Z" stroke="#F15959" stroke-width="2" stroke-miterlimit="10" stroke-linecap="square"/>
</g>
</g>
</g>
</g>
<g id="Group 59">
<path id="Vector 4" d="M65.5 60.5H70.5V42" stroke="#242F46" stroke-width="2"/>
<path id="Vector 5" d="M70 36V3H52" stroke="#242F46" stroke-width="2"/>
<path id="Vector 6" d="M46 3L9 3" stroke="#242F46" stroke-width="2"/>
<path id="Vector 2" d="M1 2.5V60.5" stroke="#242F46" stroke-width="2"/>
<path id="Vector 3" d="M8.5 60.5L58 60" stroke="#242F46" stroke-width="2"/>
<circle id="Ellipse 13" cx="70.5" cy="40.5" r="2" stroke="#242F46"/>
<circle id="Ellipse 12" cx="7.5" cy="2.5" r="2" stroke="#242F46"/>
</g>
</g>
</g>
</svg>
