<svg width="14" height="14" viewBox="0 0 14 14" fill="none" xmlns="http://www.w3.org/2000/svg">
<path d="M14 7C14 10.8664 10.8664 14 7 14C3.13359 14 0 10.8664 0 7C0 3.13359 3.13359 0 7 0C10.8664 0 14 3.13359 14 7ZM8.75 9.625C8.75 8.88945 8.29883 8.26055 7.65625 8.00352V2.40625C7.65625 2.04258 7.36367 1.75 7 1.75C6.63633 1.75 6.34375 2.04258 6.34375 2.40625V8.00352C5.70117 8.26328 5.25 8.89219 5.25 9.625C5.25 10.5902 6.03477 11.375 7 11.375C7.96523 11.375 8.75 10.5902 8.75 9.625ZM3.9375 4.8125C4.42148 4.8125 4.8125 4.42148 4.8125 3.9375C4.8125 3.45352 4.42148 3.0625 3.9375 3.0625C3.45352 3.0625 3.0625 3.45352 3.0625 3.9375C3.0625 4.42148 3.45352 4.8125 3.9375 4.8125ZM3.5 7C3.5 6.51602 3.10898 6.125 2.625 6.125C2.14102 6.125 1.75 6.51602 1.75 7C1.75 7.48398 2.14102 7.875 2.625 7.875C3.10898 7.875 3.5 7.48398 3.5 7ZM11.375 7.875C11.859 7.875 12.25 7.48398 12.25 7C12.25 6.51602 11.859 6.125 11.375 6.125C10.891 6.125 10.5 6.51602 10.5 7C10.5 7.48398 10.891 7.875 11.375 7.875ZM10.9375 3.9375C10.9375 3.45352 10.5465 3.0625 10.0625 3.0625C9.57852 3.0625 9.1875 3.45352 9.1875 3.9375C9.1875 4.42148 9.57852 4.8125 10.0625 4.8125C10.5465 4.8125 10.9375 4.42148 10.9375 3.9375Z" fill="#F15959"/>
</svg>
