<svg width="18" height="14" viewBox="0 0 18 14" fill="none" xmlns="http://www.w3.org/2000/svg">
<g clip-path="url(#clip0_97_14)">
<path d="M0.9 0C0.402187 0 0 0.391016 0 0.875C0 1.35898 0.402187 1.75 0.9 1.75H1.35C1.5975 1.75 1.8 1.94687 1.8 2.1875V10.0625C1.8 11.2711 2.80687 12.25 4.05 12.25H4.57594C4.52531 12.3867 4.5 12.5344 4.5 12.6875C4.5 13.4121 5.10469 14 5.85 14C6.59531 14 7.2 13.4121 7.2 12.6875C7.2 12.5344 7.17188 12.3867 7.12406 12.25H12.6759C12.6253 12.3867 12.6 12.5344 12.6 12.6875C12.6 13.4121 13.2047 14 13.95 14C14.6953 14 15.3 13.4121 15.3 12.6875C15.3 12.5344 15.2719 12.3867 15.2241 12.25H17.1C17.5978 12.25 18 11.859 18 11.375C18 10.891 17.5978 10.5 17.1 10.5H4.05C3.8025 10.5 3.6 10.3031 3.6 10.0625V2.1875C3.6 0.978906 2.59312 0 1.35 0H0.9ZM5.4 2.1875V7.4375C5.4 8.16211 6.00469 8.75 6.75 8.75H15.75C16.4953 8.75 17.1 8.16211 17.1 7.4375V2.1875C17.1 1.46289 16.4953 0.875 15.75 0.875H13.05V4.8125C13.05 4.97383 12.96 5.12148 12.8109 5.19805C12.6619 5.27461 12.4875 5.26641 12.3497 5.17617L11.25 4.4625L10.1503 5.17617C10.0125 5.26641 9.83531 5.27461 9.68906 5.19805C9.54281 5.12148 9.45 4.97383 9.45 4.8125V0.875H6.75C6.00469 0.875 5.4 1.46289 5.4 2.1875Z" fill="#F15959"/>
</g>
<defs>
<clipPath id="clip0_97_14">
<rect width="18" height="14" fill="white"/>
</clipPath>
</defs>
</svg>
