<svg width="16" height="14" viewBox="0 0 16 14" fill="none" xmlns="http://www.w3.org/2000/svg">
<g clip-path="url(#clip0_97_5)">
<path fill-rule="evenodd" clip-rule="evenodd" d="M0.666667 0C0.297222 0 0 0.292578 0 0.65625C0 1.01992 0.297222 1.3125 0.666667 1.3125H1.93056C2.03889 1.3125 2.13056 1.38633 2.15 1.49023L3.58333 8.90039C3.76111 9.82734 4.58611 10.5 5.54722 10.5H13.5556C13.925 10.5 14.2222 10.2074 14.2222 9.84375C14.2222 9.48008 13.925 9.1875 13.5556 9.1875H5.54722C5.22778 9.1875 4.95278 8.96328 4.89167 8.6543L4.74167 7.875H12.7556C13.6583 7.875 14.45 7.27617 14.6861 6.41758L15.825 2.25313C16.0167 1.55859 15.4833 0.875 14.7528 0.875H3.33611C3.08333 0.35 2.54167 0 1.93056 0H0.666667ZM3.65705 12.1852C3.59004 12.3445 3.55556 12.5151 3.55556 12.6875C3.55556 12.8599 3.59004 13.0305 3.65705 13.1898C3.72406 13.349 3.82227 13.4937 3.94608 13.6156C4.06989 13.7375 4.21688 13.8341 4.37864 13.9001C4.54041 13.9661 4.71379 14 4.88889 14C5.06398 14 5.23737 13.9661 5.39913 13.9001C5.5609 13.8341 5.70789 13.7375 5.8317 13.6156C5.95551 13.4937 6.05372 13.349 6.12073 13.1898C6.18773 13.0305 6.22222 12.8599 6.22222 12.6875C6.22222 12.5151 6.18773 12.3445 6.12073 12.1852C6.05372 12.026 5.95551 11.8813 5.8317 11.7594C5.70789 11.6375 5.5609 11.5409 5.39913 11.4749C5.23737 11.4089 5.06398 11.375 4.88889 11.375C4.71379 11.375 4.54041 11.4089 4.37864 11.4749C4.21688 11.5409 4.06989 11.6375 3.94608 11.7594C3.82227 11.8813 3.72406 12.026 3.65705 12.1852ZM13.8317 11.7594C13.5816 11.5133 13.2425 11.375 12.8889 11.375C12.5353 11.375 12.1961 11.5133 11.9461 11.7594C11.696 12.0056 11.5556 12.3394 11.5556 12.6875C11.5556 13.0356 11.696 13.3694 11.9461 13.6156C12.1961 13.8617 12.5353 14 12.8889 14C13.2425 14 13.5816 13.8617 13.8317 13.6156C14.0817 13.3694 14.2222 13.0356 14.2222 12.6875C14.2222 12.3394 14.0817 12.0056 13.8317 11.7594Z" fill="white"/>
<path d="M8.22695 2.79993L10.576 5.11843C10.8132 5.35252 10.8132 5.73534 10.576 5.96943V5.96943C10.3432 6.19922 9.96889 6.19922 9.73607 5.96943L7.12057 3.38793C6.88646 3.15686 6.88646 2.77899 7.12057 2.54793V2.54793V2.54793C7.35648 2.31509 7.73572 2.31509 7.97163 2.54793L8.22695 2.79993Z" fill="#E8EFE9"/>
<path d="M7.37589 4.87203L9.73607 2.54254C9.96889 2.31274 10.3432 2.31274 10.576 2.54254V2.54254C10.8132 2.77663 10.8132 3.15944 10.576 3.39353L7.97163 5.96403C7.73572 6.19688 7.35648 6.19688 7.12057 5.96403V5.96403V5.96403C6.88646 5.73297 6.88646 5.3551 7.12057 5.12403L7.37589 4.87203Z" fill="#E8EFE9"/>
</g>
<defs>
<clipPath id="clip0_97_5">
<rect width="16" height="14" fill="white"/>
</clipPath>
</defs>
</svg>
