<svg width="16" height="14" viewBox="0 0 16 14" fill="none" xmlns="http://www.w3.org/2000/svg">
<path d="M0 0.623239C0 0.277861 0.278384 0 0.624413 0H1.8082C2.38057 0 2.88791 0.332394 3.12467 0.830986H13.8177C14.502 0.830986 15.0015 1.48019 14.822 2.13979L13.7553 6.09476C13.5342 6.91017 12.7927 7.47887 11.9471 7.47887H4.44114L4.58163 8.21897C4.63887 8.51241 4.89644 8.72535 5.19564 8.72535H12.6964C13.0424 8.72535 13.3208 9.00321 13.3208 9.34859C13.3208 9.69397 13.0424 9.97183 12.6964 9.97183H5.19564C4.29544 9.97183 3.52273 9.33301 3.35622 8.45268L2.01373 1.41527C1.99552 1.31659 1.90966 1.24648 1.8082 1.24648H0.624413C0.278384 1.24648 0 0.968618 0 0.623239ZM3.3302 12.0493C3.3302 11.8856 3.3625 11.7235 3.42526 11.5723C3.48802 11.4211 3.58001 11.2836 3.69598 11.1679C3.81194 11.0522 3.94961 10.9603 4.10112 10.8977C4.25264 10.8351 4.41503 10.8028 4.57903 10.8028C4.74303 10.8028 4.90542 10.8351 5.05693 10.8977C5.20845 10.9603 5.34612 11.0522 5.46208 11.1679C5.57805 11.2836 5.67003 11.4211 5.73279 11.5723C5.79555 11.7235 5.82786 11.8856 5.82786 12.0493C5.82786 12.213 5.79555 12.3751 5.73279 12.5263C5.67003 12.6775 5.57805 12.8149 5.46208 12.9307C5.34612 13.0464 5.20845 13.1383 5.05693 13.2009C4.90542 13.2635 4.74303 13.2958 4.57903 13.2958C4.41503 13.2958 4.25264 13.2635 4.10112 13.2009C3.94961 13.1383 3.81194 13.0464 3.69598 12.9307C3.58001 12.8149 3.48802 12.6775 3.42526 12.5263C3.3625 12.3751 3.3302 12.213 3.3302 12.0493ZM12.072 10.8028C12.4032 10.8028 12.7208 10.9341 12.955 11.1679C13.1892 11.4017 13.3208 11.7187 13.3208 12.0493C13.3208 12.3799 13.1892 12.6969 12.955 12.9307C12.7208 13.1644 12.4032 13.2958 12.072 13.2958C11.7408 13.2958 11.4231 13.1644 11.1889 12.9307C10.9547 12.6969 10.8232 12.3799 10.8232 12.0493C10.8232 11.7187 10.9547 11.4017 11.1889 11.1679C11.4231 10.9341 11.7408 10.8028 12.072 10.8028Z" fill="white"/>
<circle cx="11.7746" cy="9.52101" r="4.22535" fill="white"/>
<path d="M11.831 13.4086C13.947 13.4086 15.662 11.6936 15.662 9.57757C15.662 7.46155 13.947 5.74658 11.831 5.74658C9.71496 5.74658 8 7.46155 8 9.57757C8 11.6936 9.71496 13.4086 11.831 13.4086ZM13.522 8.87422L12.5643 9.83197L11.6065 10.7897C11.4658 10.9304 11.2384 10.9304 11.0992 10.7897L10.1415 9.83197C10.0008 9.6913 10.0008 9.46384 10.1415 9.32466C10.2821 9.18549 10.5096 9.18399 10.6488 9.32466L11.3521 10.028L13.0132 8.36542C13.1539 8.22475 13.3813 8.22475 13.5205 8.36542C13.6597 8.50609 13.6612 8.73355 13.5205 8.87273L13.522 8.87422Z" fill="#E8EFE9"/>
<path d="M11.6065 10.7897C11.4658 10.9304 11.2384 10.9304 11.0992 10.7897L10.1415 9.83197C10.0008 9.6913 10.0008 9.46384 10.1415 9.32466C10.2821 9.18549 10.5096 9.18399 10.6488 9.32466L11.3521 10.028L13.0132 8.36542C13.1539 8.22475 13.3813 8.22475 13.5205 8.36542C13.6597 8.50609 13.6612 8.73355 13.5205 8.87273L13.522 8.87422L12.5643 9.83197L11.6065 10.7897Z" fill="white"/>
</svg>
