<svg width="17" height="14" viewBox="0 0 17 14" fill="none" xmlns="http://www.w3.org/2000/svg">
<path d="M0 0.639979C0 0.285324 0.285861 0 0.641184 0H1.85676C2.44452 0 2.96548 0.341322 3.20859 0.853306H14.1889C14.8915 0.853306 15.4045 1.51995 15.2201 2.19726L14.1248 6.25846C13.8977 7.09577 13.1363 7.67975 12.268 7.67975H4.56042L4.70469 8.43973C4.76347 8.74105 5.02795 8.95971 5.33519 8.95971H13.0374C13.3927 8.95971 13.6786 9.24503 13.6786 9.59969C13.6786 9.95434 13.3927 10.2397 13.0374 10.2397H5.33519C4.41081 10.2397 3.61735 9.58369 3.44637 8.67972L2.06782 1.45329C2.04912 1.35196 1.96096 1.27996 1.85676 1.27996H0.641184C0.285861 1.27996 0 0.994635 0 0.639979ZM3.41965 12.3729C3.41965 12.2048 3.45282 12.0384 3.51727 11.8831C3.58171 11.7278 3.67617 11.5867 3.79525 11.4679C3.91433 11.349 4.05569 11.2547 4.21128 11.1904C4.36686 11.1261 4.53362 11.093 4.70202 11.093C4.87042 11.093 5.03718 11.1261 5.19276 11.1904C5.34834 11.2547 5.48971 11.349 5.60879 11.4679C5.72787 11.5867 5.82233 11.7278 5.88677 11.8831C5.95122 12.0384 5.98439 12.2048 5.98439 12.3729C5.98439 12.541 5.95122 12.7075 5.88677 12.8628C5.82233 13.018 5.72787 13.1591 5.60879 13.278C5.48971 13.3969 5.34834 13.4911 5.19276 13.5555C5.03718 13.6198 4.87042 13.6529 4.70202 13.6529C4.53362 13.6529 4.36686 13.6198 4.21128 13.5555C4.05569 13.4911 3.91433 13.3969 3.79525 13.278C3.67617 13.1591 3.58171 13.018 3.51727 12.8628C3.45282 12.7075 3.41965 12.541 3.41965 12.3729ZM12.3962 11.093C12.7363 11.093 13.0625 11.2278 13.303 11.4679C13.5435 11.7079 13.6786 12.0335 13.6786 12.3729C13.6786 12.7124 13.5435 13.038 13.303 13.278C13.0625 13.518 12.7363 13.6529 12.3962 13.6529C12.0561 13.6529 11.73 13.518 11.4895 13.278C11.249 13.038 11.1139 12.7124 11.1139 12.3729C11.1139 12.0335 11.249 11.7079 11.4895 11.4679C11.73 11.2278 12.0561 11.093 12.3962 11.093Z" fill="white"/>
<circle cx="12.3223" cy="9.66111" r="4.33884" fill="white"/>
<path d="M12.3802 13.6529C14.553 13.6529 16.3141 11.8919 16.3141 9.71904C16.3141 7.54618 14.553 5.78516 12.3802 5.78516C10.2073 5.78516 8.44628 7.54618 8.44628 9.71904C8.44628 11.8919 10.2073 13.6529 12.3802 13.6529ZM12.3802 7.7521C12.5845 7.7521 12.749 7.91652 12.749 8.1209V9.84197C12.749 10.0464 12.5845 10.2108 12.3802 10.2108C12.1758 10.2108 12.0114 10.0464 12.0114 9.84197V8.1209C12.0114 7.91652 12.1758 7.7521 12.3802 7.7521ZM12.8719 11.1942C12.8719 11.4662 12.6522 11.686 12.3802 11.686C12.1082 11.686 11.8884 11.4662 11.8884 11.1942C11.8884 10.9223 12.1082 10.7025 12.3802 10.7025C12.6522 10.7025 12.8719 10.9223 12.8719 11.1942Z" fill="#E8EFE9"/>
<path d="M12.8719 11.1942C12.8719 11.4662 12.6522 11.686 12.3802 11.686C12.1082 11.686 11.8884 11.4662 11.8884 11.1942C11.8884 10.9223 12.1082 10.7025 12.3802 10.7025C12.6522 10.7025 12.8719 10.9223 12.8719 11.1942Z" fill="#F5F5F5"/>
<path d="M12.3802 7.7521C12.5845 7.7521 12.749 7.91652 12.749 8.1209V9.84197C12.749 10.0464 12.5845 10.2108 12.3802 10.2108C12.1758 10.2108 12.0114 10.0464 12.0114 9.84197V8.1209C12.0114 7.91652 12.1758 7.7521 12.3802 7.7521Z" fill="white"/>
</svg>
