<svg width="666" height="418" viewBox="0 0 666 418" fill="none" xmlns="http://www.w3.org/2000/svg">
<g id="Group">
<g id="Group_2">
<path id="Vector" d="M634.69 416.102C596.601 416.102 41.7479 416.238 41.4273 415.245L41.3729 415.12C41.3729 415.12 41.3185 414.997 41.3185 414.936C41.1064 414.439 -44.1718 274.945 88.4037 177.838C140.277 139.842 85.1575 114.76 126.407 72.4616C173.813 23.8538 225.547 77.626 278.262 55.5843C287.575 51.6936 296.921 45.431 306.277 35.821C327.976 13.5564 357.746 3.2564 388.485 0.944698C447.385 -3.4572 513.67 21.3038 547.878 57.4945C554.764 64.7824 586.081 102.49 561.395 154.32C545.809 187.043 611.104 218.297 634.306 255.664C693.298 350.67 635.225 414.864 634.69 416.102Z" fill="#FFF0F0"/>
</g>
<g id="Group_3" opacity="0.5">
<g id="Group_4" opacity="0.5">
<path id="Vector_2" opacity="0.5" d="M215.001 154.85C215.001 154.85 210.68 118.657 192.134 97.0578C189.669 94.1874 184.952 96.0148 185.032 99.7974C185.033 99.8605 185.035 99.9242 185.037 99.9888C185.277 106.445 206.042 133.679 215.001 154.85Z" fill="#AEC3FF"/>
</g>
<g id="Group_5" opacity="0.5">
<path id="Vector_3" opacity="0.5" d="M217.255 165.212C217.255 165.212 198.774 119.973 167.208 99.9664C165.283 98.7464 162.677 99.1886 161.386 101.067C160.546 102.29 160.168 104.201 161.111 107.185C163.626 115.142 198.832 141.925 217.255 165.212Z" fill="#AEC3FF"/>
</g>
</g>
<g id="Group_6">
<g id="Group_7">
<path id="Vector_4" d="M447.454 153.709C447.454 153.709 430.906 143.522 439.344 130.974C439.344 130.974 445.996 123.33 452.856 121.577C452.856 121.577 448.448 140.627 452.043 141.229C455.638 141.83 455.425 119.647 455.425 119.647C455.425 119.647 473.624 111.802 480.598 112.77C480.598 112.77 468.755 131.059 472.387 130.757C476.02 130.455 489.228 111.995 489.228 111.995C489.228 111.995 507.664 109.364 510.152 120.328C512.64 131.292 507.672 136.516 504.934 137.082C502.195 137.647 484.812 136.702 485.171 138.979C485.529 141.257 497.125 145.357 503.759 143.595C503.759 143.595 495.793 161.14 486.344 159.844C476.894 158.548 474.201 152.554 468.347 151.859C462.493 151.164 458.136 152.568 461.007 154.27C463.877 155.973 473.86 155.321 478.437 159.55C483.013 163.779 486.75 166.422 477.866 167.865C468.982 169.307 453.218 167.524 450.336 160.617C447.454 153.709 447.454 153.709 447.454 153.709Z" fill="#FF928E"/>
</g>
<g id="Group_8">
<g id="Group_9">
<path id="Vector_5" d="M501.655 123.37C501.655 123.37 453.586 136.767 447.454 153.709C447.454 153.709 447.362 161.398 442.254 170.011L442.114 173.399C442.114 173.399 447.56 162.085 450.336 160.616C450.336 160.616 440.337 145.269 501.655 123.37Z" fill="#FF928E"/>
</g>
<g id="Group_10">
<path id="Vector_6" d="M442.254 170.011C442.254 170.011 434.479 180.817 438.09 194.511L439.993 194.084C439.993 194.084 438.782 179.115 442.919 171.782C447.057 164.45 442.254 170.011 442.254 170.011Z" fill="#FF928E"/>
</g>
</g>
</g>
<g id="Group_11">
<g id="Group_12">
<path id="Vector_7" d="M380.495 153.302C380.495 153.302 352.706 155.761 351.663 134.078C351.663 134.078 352.768 119.573 359.165 111.673C359.165 111.673 370.422 137.387 375.078 134.997C379.733 132.606 360.467 107.248 360.467 107.248C360.467 107.248 374.696 82.6105 383.556 77.7445C383.556 77.7445 385.601 108.959 389.525 105.496C393.448 102.033 392.829 69.4535 392.829 69.4535C392.829 69.4535 411.801 50.6164 424.066 61.107C436.33 71.5978 435.09 81.873 432.422 84.8722C429.754 87.8714 408.928 101.688 411.293 104.002C413.658 106.318 430.526 101.096 436.654 93.3784C436.654 93.3784 442.525 120.411 430.533 127.021C418.542 133.63 410.301 129.038 402.965 133.257C395.628 137.477 391.815 142.829 396.581 142.328C401.346 141.827 412.282 132.517 421.177 133.462C430.072 134.407 436.642 134.246 427.65 143.525C418.657 152.803 398.976 164.266 389.736 158.784C380.495 153.302 380.495 153.302 380.495 153.302Z" fill="#FFD7D7"/>
</g>
<g id="Group_13">
<g id="Group_14">
<path id="Vector_8" d="M416.889 71.8962C416.889 71.8962 373.028 128.538 380.495 153.303C380.495 153.303 386.982 162.235 388.485 176.532L391.229 180.553C391.229 180.553 387.799 162.856 389.736 158.785C389.736 158.785 365.063 149.687 416.889 71.8962Z" fill="#FFD7D7"/>
</g>
<g id="Group_15">
<path id="Vector_9" d="M388.486 176.531C388.486 176.531 388.799 195.64 404.698 208.312L406.523 206.188C406.523 206.188 392.294 189.99 390.77 178C389.247 166.01 388.486 176.531 388.486 176.531Z" fill="#FFD7D7"/>
</g>
</g>
</g>
<g id="Group_16">
<g id="Group_17">
<g id="Group_18">
<path id="Vector_10" d="M119.364 366.933C119.364 366.933 111.58 357.852 118.884 352.084C118.884 352.084 124.219 348.855 128.569 349.117C128.569 349.117 122.405 359.453 124.399 360.481C126.393 361.509 130.437 348.468 130.437 348.468C130.437 348.468 142.577 347.291 146.483 349.169C146.483 349.169 136.104 357.662 138.29 358.167C140.476 358.673 151.686 350.337 151.686 350.337C151.686 350.337 162.986 352.259 162.383 359.152C161.781 366.046 157.887 368.174 156.176 367.991C154.465 367.807 144.455 363.986 144.237 365.388C144.019 366.79 150.044 371.373 154.264 371.587C154.264 371.587 146.297 380.372 141.003 377.837C135.709 375.301 135.257 371.282 131.956 369.775C128.656 368.268 125.839 368.271 127.201 369.809C128.564 371.346 134.537 372.84 136.424 376.179C138.312 379.517 140.005 381.769 134.527 380.945C129.05 380.12 120.146 376.112 119.755 371.523C119.364 366.933 119.364 366.933 119.364 366.933Z" fill="#FF928E"/>
</g>
<g id="Group_19">
<g id="Group_20">
<path id="Vector_11" d="M156.831 359.339C156.831 359.339 126.141 358.156 119.363 366.933C119.363 366.933 117.865 371.422 113.252 375.51L112.533 377.469C112.533 377.469 117.851 371.862 119.754 371.523C119.754 371.523 116.779 360.649 156.831 359.339Z" fill="#FF928E"/>
</g>
<g id="Group_21">
<path id="Vector_12" d="M113.252 375.51C113.252 375.51 106.665 380.382 106.208 389.086L107.403 389.193C107.403 389.193 109.507 380.193 113.309 376.673C117.112 373.153 113.252 375.51 113.252 375.51Z" fill="#FF928E"/>
</g>
</g>
</g>
<g id="Group_22">
<g id="Group_23">
<path id="Vector_13" d="M92.1494 355.513C92.1494 355.513 104.531 348.579 98.753 339.169C98.753 339.169 94.1303 333.391 89.1779 331.905C89.1779 331.905 91.8194 345.938 89.1779 346.268C86.5364 346.598 87.3619 330.419 87.3619 330.419C87.3619 330.419 74.3198 324.146 69.202 324.641C69.202 324.641 77.2913 338.344 74.6498 338.013C72.0083 337.683 62.9284 323.816 62.9284 323.816C62.9284 323.816 49.5561 321.339 47.41 329.263C45.2639 337.188 48.7306 341.15 50.7118 341.645C52.693 342.141 65.405 341.975 65.0747 343.627C64.7447 345.278 56.1597 347.919 51.3721 346.433C51.3721 346.433 56.6551 359.476 63.5887 358.815C70.5226 358.155 72.6686 353.862 76.961 353.532C81.2534 353.202 84.3901 354.358 82.244 355.513C80.0977 356.669 72.8338 355.892 69.3669 358.839C65.8999 361.787 63.0935 363.603 69.532 364.923C75.9704 366.244 87.527 365.419 89.8382 360.466C92.1494 355.513 92.1494 355.513 92.1494 355.513Z" fill="#FF928E"/>
</g>
<g id="Group_24">
<g id="Group_25">
<path id="Vector_14" d="M53.5183 331.74C53.5183 331.74 88.1874 342.966 92.1495 355.513C92.1495 355.513 91.9844 361.126 95.4513 367.564V370.041C95.4513 370.041 91.8193 361.621 89.8381 360.466C89.8381 360.465 97.5974 349.57 53.5183 331.74Z" fill="#FF928E"/>
</g>
<g id="Group_26">
<path id="Vector_15" d="M95.4514 367.564C95.4514 367.564 100.798 375.684 97.7498 385.566L96.3743 385.197C96.3743 385.197 97.7095 374.311 94.9123 368.837C92.115 363.362 95.4514 367.564 95.4514 367.564Z" fill="#FF928E"/>
</g>
</g>
</g>
<g id="Group_27">
<g id="Group_28">
<path id="Vector_16" d="M111.848 345.95C111.848 345.95 95.5262 336.81 103.143 324.406C103.143 324.406 109.236 316.789 115.765 314.831C115.765 314.831 112.283 333.328 115.765 333.764C119.247 334.199 118.159 312.872 118.159 312.872C118.159 312.872 135.35 304.602 142.097 305.255C142.097 305.255 131.434 323.317 134.916 322.882C138.398 322.447 150.367 304.167 150.367 304.167C150.367 304.167 167.994 300.903 170.823 311.349C173.652 321.794 169.082 327.017 166.471 327.67C163.859 328.323 147.102 328.106 147.538 330.282C147.973 332.458 159.289 335.94 165.6 333.981C165.6 333.981 158.636 351.173 149.496 350.302C140.356 349.432 137.527 343.774 131.869 343.338C126.211 342.903 122.076 344.427 124.905 345.95C127.734 347.473 137.31 346.449 141.88 350.334C146.45 354.22 150.149 356.613 141.662 358.354C133.175 360.095 117.941 359.007 114.895 352.478C111.848 345.95 111.848 345.95 111.848 345.95Z" fill="#FFD7D7"/>
</g>
<g id="Group_29">
<g id="Group_30">
<path id="Vector_17" d="M162.771 314.613C162.771 314.613 117.071 329.411 111.848 345.95C111.848 345.95 112.065 353.35 107.495 361.837V365.101C107.495 365.101 112.283 354.002 114.894 352.479C114.894 352.479 104.666 338.116 162.771 314.613Z" fill="#FFD7D7"/>
</g>
<g id="Group_31">
<path id="Vector_18" d="M107.495 361.836C107.495 361.836 100.448 372.539 104.466 385.566L106.279 385.079C106.279 385.079 104.518 370.73 108.206 363.513C111.893 356.297 107.495 361.836 107.495 361.836Z" fill="#FFD7D7"/>
</g>
</g>
</g>
<g id="Group_32">
<path id="Vector_19" d="M111.298 413.818C128.955 413.818 143.269 399.504 143.269 381.847H79.3267C79.3267 399.504 93.6406 413.818 111.298 413.818Z" fill="#FFB8B6"/>
</g>
<g id="Group_33">
<path id="Vector_20" d="M143.711 415.445H78.885C78.885 413.266 80.6511 411.5 82.8296 411.5H139.766C141.945 411.5 143.711 413.266 143.711 415.445Z" fill="#FFB8B6"/>
</g>
<g id="Group_34">
<path id="Vector_21" d="M143.996 381.847H78.2751V382.827H143.996V381.847Z" fill="#FF928E"/>
</g>
</g>
<g id="Group_35">
<path id="Vector_22" d="M329.379 234.71L315.072 404.821C315.072 404.821 313.574 415.133 321.244 415.151C333.855 415.182 384.015 415.151 384.015 415.151C384.015 415.151 374.523 413.005 374.638 408.175C374.774 402.482 391.36 233.101 391.36 233.101L329.379 234.71Z" fill="#798EE8"/>
</g>
<g id="Group_36">
<path id="Vector_23" d="M388.737 412.059C386.257 412.067 337.695 412.149 325.414 411.991C320.062 411.925 319.123 407.233 319.079 404.195C319.057 402.74 319.242 401.663 319.242 401.663L319.613 397.242L320.562 385.973L321.399 376.017L322.476 363.223L323.382 352.424L333.548 231.549L395.529 229.94C395.529 229.94 388.543 300.826 383.602 352.424C383.05 358.173 382.526 363.686 382.041 368.831C381.883 370.474 381.733 372.081 381.585 373.645C381.127 378.527 380.708 383.01 380.343 386.968C380.152 389.054 379.974 390.993 379.814 392.769C379.183 399.727 378.814 404.171 378.809 405.016C378.807 405.509 378.848 405.967 378.93 406.393C379.946 411.814 387.806 412.059 388.737 412.059Z" fill="#AEC3FF"/>
</g>
<g id="Group_37">
<path id="Vector_24" d="M178.856 142.069L213.705 282.049L218.476 301.22L234.707 366.419H536.25L476.426 142.069H178.856Z" fill="#AEC3FF"/>
</g>
<g id="Group_38">
<path id="Vector_25" d="M178.855 142.068L174.026 143.678L228.286 371.289L234.707 366.419L178.855 142.068Z" fill="#798EE8"/>
</g>
<g id="Group_39">
<path id="Vector_26" d="M228.286 371.289H527.974L536.249 366.419H234.708L228.286 371.289Z" fill="#849DEF"/>
</g>
<g id="Group_40">
<path id="Vector_27" d="M398.415 412.059H333.528V415.143H398.415V412.059Z" fill="#AEC3FF"/>
</g>
<g id="Group_41">
<path id="Vector_28" d="M381.919 371.287L381.584 373.645L320.562 385.973L321.399 376.017L321.798 371.287H381.919Z" fill="#8C9DF4"/>
</g>
<g id="Group_42" opacity="0.5">
<path id="Vector_29" opacity="0.5" d="M388.737 412.059C386.257 412.067 337.696 412.149 325.414 411.991C320.062 411.925 319.123 407.233 319.079 404.195L379.814 392.769C379.183 399.727 378.814 404.171 378.809 405.016C378.806 405.508 378.848 405.966 378.929 406.393C379.947 411.814 387.806 412.059 388.737 412.059Z" fill="#8C9DF4"/>
</g>
<g id="Group_43">
<path id="Vector_30" d="M178.855 142.068H476.426L524.707 322.375H223.743L178.855 142.068Z" fill="#8C9DF4"/>
</g>
<g id="Group_44">
<path id="Vector_31" d="M510.672 314.562H232.056L222.099 274.899L218.247 259.553L216.677 253.295L206.443 212.534L205.915 210.412L200.504 188.867L198.084 179.227L196.021 171.003L194.335 164.297L191.18 151.728H465.782L469.247 164.297L471.095 171.003L473.362 179.227L476.019 188.867L493.529 252.377V252.38L495.01 257.761L495.701 260.258L507.788 304.104L510.672 314.562Z" fill="#505ABA"/>
</g>
<g id="Group_45">
<path id="Vector_32" d="M400.247 307.377H256.892L249.016 268.771L245.969 256.632L244.726 251.681L236.631 219.437L236.213 217.758L231.933 200.715L230.018 193.088L228.386 186.583L227.053 181.278L224.556 171.335H364.827L400.247 307.377Z" fill="#6F7DD1"/>
</g>
<g id="Group_46">
<path id="Vector_33" d="M336.798 322.375L234.809 366.944L223.743 322.375H336.798Z" fill="#8C9DF4"/>
</g>
<g id="Group_47">
<g id="Group_48">
<path id="Vector_34" d="M569.057 224.187C569.071 223.786 569.382 219.46 575.971 219.234C575.971 219.234 572.731 219.62 572.171 221.045C572.171 221.045 574.377 219.285 576.174 219.851C577.97 220.417 579.026 223.565 579.036 224.6C579.047 225.635 578.049 228.973 576.909 229.257C576.477 229.364 575.979 229.335 575.527 229.258C575.831 229.732 576.128 230.255 576.412 230.838C579.042 236.235 576.33 241.51 574.104 240.927C572.677 240.554 572.273 242.99 572.273 242.99L558.404 231.762C558.404 231.761 563.498 221.221 569.057 224.187Z" fill="#2C3A64"/>
</g>
<g id="Group_49">
<path id="Vector_35" d="M531.259 291.67C532.418 292.696 535.495 289.173 535.919 288.705C535.941 288.661 535.963 288.638 535.963 288.638L535.027 286.03C535.027 286.03 530.992 285.874 530.323 286.542C529.654 287.212 529.988 290.578 531.259 291.67Z" fill="#FFB27D"/>
</g>
<g id="Group_50">
<path id="Vector_36" d="M564.228 383.188L567.174 384.285C567.174 384.285 579.969 366.539 581.545 350.925C581.826 348.138 581.249 342.228 581.468 340.966C581.569 340.376 581.694 339.667 581.836 338.854C582.252 336.47 582.824 333.209 583.478 329.496C584.984 320.951 586.934 310.027 588.45 301.996L587.656 301.741L579.067 298.971L577.292 293.333L570.897 291.649C570.897 291.649 569.469 294.444 568.192 307.646C567.956 309.377 567.742 311.287 567.581 313.358C567.083 319.678 567.047 327.519 568.189 336.483C568.483 338.777 569.7 347.796 569.558 350.589C568.913 363.352 564.228 383.188 564.228 383.188Z" fill="#2B478B"/>
</g>
<g id="Group_51">
<path id="Vector_37" d="M567.581 313.358L581.468 340.966C581.569 340.376 581.694 339.667 581.836 338.854C582.252 336.47 582.824 333.209 583.478 329.496C584.984 320.951 586.934 310.027 588.45 301.996L587.656 301.741L579.067 298.971L577.292 293.333L570.897 291.649C570.897 291.649 569.469 294.444 568.192 307.646C567.956 309.377 567.742 311.287 567.581 313.358Z" fill="#233862"/>
</g>
<g id="Group_52">
<path id="Vector_38" d="M573.69 295.192L574.012 292.435C579.397 293.866 593.788 288.438 593.788 288.438C593.788 288.438 599.005 293.025 598.32 304.018C597.986 309.384 597.375 332.187 596.738 338.934C596.507 341.38 598.094 347.673 598.732 349.371C604.993 366.055 597.767 386.602 597.767 386.602L595.893 385.846C595.893 385.846 584.03 342.839 582.806 338.283C580.494 329.668 578.632 318.463 577.393 309.813C577.223 309.822 573.69 295.192 573.69 295.192Z" fill="#2B478B"/>
</g>
<g id="Group_53">
<path id="Vector_39" d="M569.604 263.207C578.863 263.714 576.829 249.911 576.263 249.981C575.13 249.389 573.096 246.515 571.92 241.708L571.521 241.893L564.839 245.034C564.839 245.034 565.549 247.208 566.073 249.288C566.482 250.917 566.776 252.49 566.53 252.93C566.004 253.143 565.688 253.278 565.688 253.278C565.688 253.278 565.688 253.281 565.686 253.285C565.619 253.456 567.134 263.072 569.604 263.207Z" fill="#FFB27D"/>
</g>
<g id="Group_54">
<path id="Vector_40" d="M564.839 245.035C564.839 245.035 565.549 247.207 566.073 249.289C569.978 248.2 571.164 244.095 571.521 241.894L564.839 245.035Z" fill="#ED985F"/>
</g>
<g id="Group_55">
<path id="Vector_41" d="M564.017 247.335C564.017 247.335 573.36 245.173 571.924 239.375C570.488 233.577 570.726 229.393 564.7 230.528C558.674 231.664 558.067 234.162 558.076 236.214C558.084 238.266 561.549 247.748 564.017 247.335Z" fill="#FFB27D"/>
</g>
<g id="Group_56">
<path id="Vector_42" d="M557.55 232.922C558.555 230.821 559.737 230.933 560.476 231.306C564.867 227.243 569.173 230.562 569.173 230.562C570.83 234.566 574.422 236.202 574.422 236.202C574.422 236.202 572.987 237.672 568.827 237.639C567.556 237.629 566.278 237.046 565.116 236.242C567.358 238.501 569.988 239.875 569.988 239.875C564.78 238.879 561.288 232.85 560.93 232.209C560.489 232.861 559.645 234.248 559.574 235.419C559.477 237.01 560.025 240.101 559.113 240.218C559.114 240.218 556.044 236.074 557.55 232.922Z" fill="#2C3A64"/>
</g>
<g id="Group_57">
<path id="Vector_43" d="M586.866 388.134H601.704C601.704 388.134 602.059 385.873 601.284 384.157C600.542 382.511 599.378 381.763 599.657 379.771C598.714 380.742 597.178 381.829 595.033 381.54C594.77 381.967 593.336 384.247 592.458 384.878C591.488 385.574 587.165 385.326 586.866 388.134Z" fill="#233862"/>
</g>
<g id="Group_58">
<path id="Vector_44" d="M555.009 388.134H569.846C569.846 388.134 570.401 385.768 569.427 384.157C568.565 382.732 568.895 381.921 569.534 380.742C568.862 381.017 567.992 381.267 567.035 381.213C566.296 381.17 565.514 380.835 564.828 380.437C564.19 381.164 561.455 384.263 560.601 384.877C559.631 385.574 555.308 385.326 555.009 388.134Z" fill="#233862"/>
</g>
<g id="Group_59">
<path id="Vector_45" d="M594.063 270.91C593.265 268.322 592.441 265.839 591.605 263.548C589.706 258.34 588.499 255.62 587.474 253.513C585.526 249.505 576.815 249.757 576.815 249.757C575.138 255.803 570.527 259.573 570.527 259.573C568.07 258.129 566.239 253.055 566.239 253.055L560.859 255.917C560.84 255.937 559.194 256.909 557.743 261.083C555.584 267.292 552.082 276.109 549.652 278.806C549.085 279.434 547.424 280.385 545.414 281.396V281.398C545.371 281.463 545.337 281.496 545.316 281.496C545.445 281.793 546.032 283.191 546.977 284.613C547.744 285.767 548.753 286.935 549.946 287.537C550.863 287.094 552.515 286.443 553.215 286.013C555.747 284.465 559.519 282.234 562.468 277.531L563.292 288.59L564.78 308.597C567.069 309.309 569.248 309.865 571.314 310.292C571.45 308.615 571.992 306.609 571.992 306.609C571.969 307.661 573.2 309.674 573.929 310.77C592.929 313.814 601.836 305.526 601.836 305.526C601.096 298.19 597.895 283.351 594.063 270.91Z" fill="#B27AFA"/>
</g>
<g id="Group_60">
<path id="Vector_46" d="M574.895 248.64C574.895 248.64 576.475 248.746 576.815 249.757C576.815 249.757 574.751 258.06 570.528 259.572L574.895 248.64Z" fill="#995FE3"/>
</g>
<g id="Group_61">
<path id="Vector_47" d="M570.528 259.572C570.528 259.572 566.492 252.289 566.508 251.305C566.508 251.305 564.974 252.664 565.075 253.674C565.075 253.674 568.474 259.118 570.528 259.572Z" fill="#995FE3"/>
</g>
<g id="Group_62">
<path id="Vector_48" d="M581.348 256.617C581.234 257.011 572.997 276.695 565.611 283.951C562.377 287.127 572.681 286.209 572.779 285.619C572.877 285.03 581.348 256.617 581.348 256.617Z" fill="#9E6CDF"/>
</g>
<g id="Group_63">
<path id="Vector_49" d="M563.55 289.213L564.255 300.318C586.782 295.085 584.893 259.204 584.893 259.204L573.58 282.564L563.651 289.054C563.651 289.054 563.615 289.109 563.55 289.213Z" fill="#995FE3"/>
</g>
<g id="Group_64">
<path id="Vector_50" d="M545.287 281.461C545.293 281.484 545.302 281.496 545.316 281.496C545.308 281.479 545.302 281.465 545.299 281.455C545.281 281.419 545.277 281.419 545.287 281.461Z" fill="#AEC3FF"/>
</g>
<g id="Group_65">
<g id="Group_66">
<path id="Vector_51" d="M556.43 266.17L560.916 286.164C561.63 289.348 559.22 291.928 555.53 291.928H447.818C444.129 291.928 440.56 289.348 439.846 286.164L435.36 266.17C435.332 266.047 435.309 265.928 435.295 265.805C434.831 262.79 437.198 260.405 440.745 260.405H548.457C552.005 260.405 555.441 262.79 556.331 265.805C556.372 265.928 556.402 266.047 556.43 266.17Z" fill="#377DFF"/>
</g>
<g id="Group_67">
<g id="Group_68">
<g id="Group_69">
<g id="Group_70">
<path id="Vector_52" d="M448.058 282.914H447.002L444.21 270.475H445.267L448.058 282.914Z" fill="#EBF3FA"/>
</g>
</g>
<g id="Group_71">
<g id="Group_72">
<path id="Vector_53" d="M455.337 275.609H447.768L446.978 272.088H454.547L455.337 275.609Z" fill="#EBF3FA"/>
</g>
</g>
<g id="Group_73">
<g id="Group_74">
<path id="Vector_54" d="M458.866 280.655H448.9L448.11 277.135H458.075L458.866 280.655Z" fill="#EBF3FA"/>
</g>
</g>
</g>
<g id="Group_75">
<g id="Group_76">
<g id="Group_77">
<path id="Vector_55" d="M472.271 282.914H471.215L468.424 270.475H469.48L472.271 282.914Z" fill="#EBF3FA"/>
</g>
</g>
<g id="Group_78">
<g id="Group_79">
<path id="Vector_56" d="M473.888 275.609H466.319L465.529 272.088H473.098L473.888 275.609Z" fill="#EBF3FA"/>
</g>
</g>
<g id="Group_80">
<g id="Group_81">
<path id="Vector_57" d="M476.218 280.655H466.253L465.463 277.135H475.428L476.218 280.655Z" fill="#EBF3FA"/>
</g>
</g>
</g>
<g id="Group_82">
<g id="Group_83">
<g id="Group_84">
<path id="Vector_58" d="M496.485 282.914H495.429L492.638 270.475H493.694L496.485 282.914Z" fill="#EBF3FA"/>
</g>
</g>
<g id="Group_85">
<g id="Group_86">
<path id="Vector_59" d="M492.436 275.609H484.866L484.076 272.088H491.646L492.436 275.609Z" fill="#EBF3FA"/>
</g>
</g>
<g id="Group_87">
<g id="Group_88">
<path id="Vector_60" d="M493.568 280.655H483.602L482.812 277.135H492.778L493.568 280.655Z" fill="#EBF3FA"/>
</g>
</g>
</g>
<g id="Group_89">
<g id="Group_90">
<g id="Group_91">
<path id="Vector_61" d="M511.979 271.481H499.539L499.302 270.425H511.742L511.979 271.481Z" fill="#EBF3FA"/>
</g>
</g>
<g id="Group_92">
<g id="Group_93">
<path id="Vector_62" d="M504.895 272.472L506.594 280.041H503.073L501.375 272.472H504.895Z" fill="#EBF3FA"/>
</g>
</g>
<g id="Group_94">
<g id="Group_95">
<path id="Vector_63" d="M509.942 272.472L512.178 282.437H508.657L506.421 272.472H509.942Z" fill="#EBF3FA"/>
</g>
</g>
</g>
<g id="Group_96">
<g id="Group_97">
<g id="Group_98">
<path id="Vector_64" d="M531.559 277.223H519.119L518.882 276.167H531.322L531.559 277.223Z" fill="#EBF3FA"/>
</g>
</g>
<g id="Group_99">
<g id="Group_100">
<path id="Vector_65" d="M523.286 272.91L524.984 280.48H521.463L519.765 272.91H523.286Z" fill="#EBF3FA"/>
</g>
</g>
<g id="Group_101">
<g id="Group_102">
<path id="Vector_66" d="M528.063 271.712L530.299 281.677H526.778L524.542 271.712H528.063Z" fill="#EBF3FA"/>
</g>
</g>
</g>
<g id="Group_103">
<g id="Group_104">
<g id="Group_105">
<path id="Vector_67" d="M551.148 283.01H538.708L538.471 281.954H550.911L551.148 283.01Z" fill="#EBF3FA"/>
</g>
</g>
<g id="Group_106">
<g id="Group_107">
<path id="Vector_68" d="M541.753 273.304L543.451 280.873H539.93L538.232 273.304H541.753Z" fill="#EBF3FA"/>
</g>
</g>
<g id="Group_108">
<g id="Group_109">
<path id="Vector_69" d="M546.262 270.908L548.497 280.873H544.977L542.741 270.908H546.262Z" fill="#EBF3FA"/>
</g>
</g>
</g>
</g>
</g>
<g id="Group_110">
<g id="Group_111">
<path id="Vector_70" d="M545.611 290.139C546.839 290.133 548.776 290.049 549.896 289.619C549.896 289.619 546.318 289.568 547.079 288.438C547.218 288.232 548.996 288.388 550.982 288.388C551.796 288.388 553.809 289.504 553.705 289.555C555.143 289.365 556.451 289.087 556.874 288.995C556.986 288.973 557.03 288.95 557.03 288.95L558.301 292.651C558.301 292.651 558.034 292.718 557.566 292.807C556.384 293.097 553.954 293.721 551.658 294.613C548.448 295.884 546.086 294.304 545.014 293.186C544.335 292.478 543.8 291.538 543.837 290.856C543.877 290.108 544.863 290.142 545.611 290.139Z" fill="#FFB27D"/>
</g>
<g id="Group_112">
<path id="Vector_71" d="M554.243 290.423L555.023 293.276C555.023 293.276 556.005 293.097 557.566 292.808C558.034 292.717 558.301 292.65 558.301 292.65C559.55 292.407 561.042 292.072 562.67 291.715H562.694C565.48 291.046 568.601 290.244 571.232 289.351C571.467 289.268 571.7 289.186 571.925 289.103C573.481 288.529 570.475 280.635 569.114 281.616C568.754 281.877 568.367 282.147 567.962 282.424C565.707 283.956 562.836 285.662 560.285 287.1C559.037 287.813 557.855 288.46 556.874 288.995C555.291 289.864 554.243 290.423 554.243 290.423Z" fill="#FFB27D"/>
</g>
<g id="Group_113">
<path id="Vector_72" d="M567.962 282.424C567.962 282.424 567.798 287.815 572.845 290.437C578.678 288.331 581.799 279.632 584.207 273.657C584.542 272.833 584.854 272.007 585.165 271.205C586.28 268.218 587.172 265.275 587.707 262.732C588.041 261.216 581.555 253.57 580.729 255.377C579.458 258.251 578.122 261.975 576.873 265.676C576.181 267.705 575.512 269.734 574.844 271.606C574.464 272.743 574.085 273.812 573.729 274.793C573.037 276.667 572.413 278.183 571.857 279.141C571.499 279.766 570.475 280.635 569.114 281.616C568.754 281.878 568.367 282.147 567.962 282.424Z" fill="#B27AFA"/>
</g>
</g>
</g>
<g id="Group_114">
<path id="Vector_73" d="M469.247 164.297H194.335L191.18 151.728H465.782L469.247 164.297Z" fill="#3D4CA5"/>
</g>
<g id="Group_115">
<g id="Group_116">
<path id="Vector_74" d="M208.265 158.126C208.623 159.252 207.91 160.172 206.673 160.181C205.435 160.189 204.142 159.283 203.784 158.157C203.427 157.03 204.14 156.11 205.377 156.102C206.614 156.093 207.907 156.999 208.265 158.126Z" fill="#EBF3FA"/>
</g>
<g id="Group_117">
<path id="Vector_75" d="M217.536 158.061C217.893 159.188 217.181 160.108 215.943 160.116C214.706 160.125 213.413 159.219 213.055 158.092C212.697 156.965 213.41 156.046 214.647 156.037C215.885 156.029 217.178 156.935 217.536 158.061Z" fill="#EBF3FA"/>
</g>
<g id="Group_118">
<path id="Vector_76" d="M226.807 157.997C227.165 159.123 226.451 160.043 225.214 160.052C223.977 160.06 222.684 159.154 222.326 158.028C221.968 156.901 222.681 155.981 223.918 155.972C225.155 155.964 226.449 156.87 226.807 157.997Z" fill="#EBF3FA"/>
</g>
</g>
<g id="Group_119">
<path id="Vector_77" d="M230.018 193.088C230.018 193.088 262.377 193.211 285.843 211.2C309.308 229.189 305.926 245.331 325.396 249.376C357.303 256.005 337.496 221.953 378.928 225.495L400.247 307.377H256.892L245.969 256.631L230.018 193.088Z" fill="#242F46"/>
</g>
<g id="Group_120">
<path id="Vector_78" d="M332.783 250.535C330.588 250.535 328.122 250.244 325.336 249.665C314.59 247.432 310.627 241.403 305.611 233.771C301.454 227.446 296.281 219.575 285.663 211.434C278.997 206.324 267.237 199.444 249.071 195.687C238.203 193.44 230.097 193.384 230.017 193.384L230.019 192.793C230.1 192.793 238.265 192.85 249.191 195.109C259.278 197.195 273.856 201.639 286.022 210.966C296.72 219.167 301.923 227.085 306.104 233.446C311.239 241.259 314.949 246.904 325.456 249.087C340.419 252.197 343.802 246.316 347.721 239.508C352.086 231.924 357.037 223.326 378.953 225.201L378.903 225.789C357.356 223.947 352.51 232.371 348.233 239.803C346.25 243.247 344.377 246.501 341.055 248.511C338.818 249.864 336.114 250.535 332.783 250.535Z" fill="white"/>
</g>
<g id="Group_121">
<path id="Vector_79" d="M237.575 223.008L245.801 255.788L256.892 307.377H400.247L393.018 280.59C393.018 280.59 371.798 268.762 343.02 279.071C314.242 289.38 282.384 279.866 280.333 256.679C278.02 230.534 253.999 217.94 237.575 223.008Z" fill="#586582"/>
</g>
<g id="Group_122">
<path id="Vector_80" d="M273.794 238.516C265.554 225.776 250.359 219.373 237.662 223.289L237.488 222.725C250.432 218.732 265.909 225.238 274.289 238.196L273.794 238.516Z" fill="white"/>
</g>
<g id="Group_123">
<g id="Group_124">
<path id="Vector_81" d="M327.652 247.313L322.994 246.832L322.513 251.489L327.17 251.971L327.652 247.313Z" fill="white"/>
</g>
<g id="Group_125">
<path id="Vector_82" d="M367.208 257.659L288.728 241.363L288.57 242.123L367.05 258.419L367.208 257.659Z" fill="white"/>
</g>
<g id="Group_126">
<path id="Vector_83" d="M288.637 243.105C289.38 243.105 289.982 242.503 289.982 241.761C289.982 241.018 289.38 240.416 288.637 240.416C287.894 240.416 287.292 241.018 287.292 241.761C287.292 242.503 287.894 243.105 288.637 243.105Z" fill="white"/>
</g>
<g id="Group_127">
<path id="Vector_84" d="M367.118 259.405C367.861 259.405 368.463 258.803 368.463 258.06C368.463 257.317 367.861 256.715 367.118 256.715C366.376 256.715 365.774 257.317 365.774 258.06C365.774 258.803 366.376 259.405 367.118 259.405Z" fill="white"/>
</g>
</g>
<g id="Group_128">
<g id="Group_129">
<path id="Vector_85" d="M273.266 201.416L269.859 198.204L266.647 201.61L270.054 204.822L273.266 201.416Z" fill="white"/>
</g>
<g id="Group_130">
<path id="Vector_86" d="M283.05 213.868L256.434 187.358L255.886 187.908L282.502 214.418L283.05 213.868Z" fill="white"/>
</g>
<g id="Group_131">
<path id="Vector_87" d="M256.147 188.982C256.889 188.982 257.491 188.38 257.491 187.637C257.491 186.894 256.889 186.292 256.147 186.292C255.404 186.292 254.802 186.894 254.802 187.637C254.802 188.38 255.404 188.982 256.147 188.982Z" fill="white"/>
</g>
<g id="Group_132">
<path id="Vector_88" d="M282.761 215.493C283.504 215.493 284.106 214.891 284.106 214.149C284.106 213.406 283.504 212.804 282.761 212.804C282.019 212.804 281.417 213.406 281.417 214.149C281.417 214.891 282.019 215.493 282.761 215.493Z" fill="white"/>
</g>
</g>
<g id="Group_133">
<g id="Group_134">
<path id="Vector_89" d="M358.481 224.558L356.652 228.868L360.962 230.698L362.791 226.388L358.481 224.558Z" fill="white"/>
</g>
<g id="Group_135">
<path id="Vector_90" d="M365.152 216.85L364.446 216.527L354.474 238.314L355.18 238.637L365.152 216.85Z" fill="white"/>
</g>
<g id="Group_136">
<path id="Vector_91" d="M354.812 239.818C355.554 239.818 356.156 239.216 356.156 238.473C356.156 237.731 355.554 237.128 354.812 237.128C354.069 237.128 353.467 237.731 353.467 238.473C353.467 239.216 354.069 239.818 354.812 239.818Z" fill="white"/>
</g>
<g id="Group_137">
<path id="Vector_92" d="M364.778 218.03C365.521 218.03 366.123 217.428 366.123 216.685C366.123 215.942 365.521 215.34 364.778 215.34C364.035 215.34 363.433 215.942 363.433 216.685C363.433 217.428 364.035 218.03 364.778 218.03Z" fill="white"/>
</g>
</g>
<g id="Group_138">
<g id="Group_139">
<path id="Vector_93" d="M383.803 178.89L391.089 209.003C391.401 210.291 390.185 211.336 388.373 211.336H313.427C311.615 211.336 309.893 210.291 309.581 209.003L302.295 178.89C301.984 177.601 303.2 176.557 305.011 176.557H379.958C381.77 176.557 383.491 177.601 383.803 178.89Z" fill="#D2E0FF"/>
</g>
<g id="Group_140">
<g id="Group_141">
<g id="Group_142">
<path id="Vector_94" d="M321.293 196.504H313.316L311.386 188.528H319.363L321.293 196.504Z" fill="#2B478B"/>
</g>
<g id="Group_143">
<path id="Vector_95" d="M326.246 200.493H318.27L316.34 192.516H324.316L326.246 200.493Z" fill="#2B478B"/>
</g>
</g>
<g id="Group_144">
<g id="Group_145">
<path id="Vector_96" d="M339.914 196.504H331.938L330.008 188.528H337.984L339.914 196.504Z" fill="#2B478B"/>
</g>
<g id="Group_146">
<g id="Group_147">
<path id="Vector_97" d="M344.868 200.493H336.891L334.961 192.516H342.938L344.868 200.493Z" fill="#739AF0"/>
</g>
<g id="Group_148">
<path id="Vector_98" d="M345.291 200.833H336.633L334.538 192.176H343.196L345.291 200.833ZM337.149 200.152H344.445L342.68 192.857H335.384L337.149 200.152Z" fill="#1F3B72"/>
</g>
</g>
</g>
<g id="Group_149">
<g id="Group_150">
<path id="Vector_99" d="M358.537 196.504H350.56L348.63 188.528H356.607L358.537 196.504Z" fill="#739AF0"/>
</g>
<g id="Group_151">
<path id="Vector_100" d="M358.959 196.845H350.302L348.207 188.188H356.864L358.959 196.845ZM350.818 196.164H358.114L356.348 188.869H349.053L350.818 196.164Z" fill="#2B478B"/>
</g>
<g id="Group_152">
<path id="Vector_101" d="M363.49 200.493H355.513L353.583 192.516H361.56L363.49 200.493Z" fill="#739AF0"/>
</g>
<g id="Group_153">
<path id="Vector_102" d="M363.913 200.833H355.255L353.16 192.176H361.818L363.913 200.833ZM355.771 200.152H363.067L361.302 192.857H354.006L355.771 200.152Z" fill="#2B478B"/>
</g>
<g id="Group_154">
<g id="Group_155">
<path id="Vector_103" d="M358.958 196.829H354.26L353.134 192.174H357.831L358.958 196.829Z" fill="#2B478B"/>
</g>
</g>
</g>
<g id="Group_156">
<g id="Group_157">
<g id="Group_158">
<path id="Vector_104" d="M377.158 196.504H369.181L367.252 188.528H375.228L377.158 196.504Z" fill="#2B478B"/>
</g>
</g>
<g id="Group_159">
<g id="Group_160">
<path id="Vector_105" d="M382.111 200.493H374.135L372.205 192.516H380.181L382.111 200.493Z" fill="#2B478B"/>
</g>
</g>
<g id="Group_161">
<g id="Group_162">
<path id="Vector_106" d="M376.933 196.312H373.278L372.402 192.69H376.056L376.933 196.312Z" fill="#739AF0"/>
</g>
</g>
</g>
</g>
</g>
<g id="Group_163">
<g id="Group_164">
<path id="Vector_107" d="M176.454 273.979H148.835C145.151 273.979 141.504 270.994 140.689 267.31L119.908 173.488C119.093 169.805 121.417 166.819 125.1 166.819H152.719C156.402 166.819 160.049 169.805 160.865 173.488L181.645 267.311C182.461 270.994 180.137 273.979 176.454 273.979Z" fill="#377DFF"/>
</g>
<g id="Group_165">
<g id="Group_166">
<path id="Vector_108" d="M164.08 187.916H123.123V188.093H164.08V187.916Z" fill="#AEC3FF"/>
</g>
</g>
<g id="Group_167">
<g id="Group_168">
<path id="Vector_109" d="M168.977 210.023H128.02V210.2H168.977V210.023Z" fill="#AEC3FF"/>
</g>
</g>
<g id="Group_169">
<g id="Group_170">
<path id="Vector_110" d="M173.874 232.131H132.917V232.308H173.874V232.131Z" fill="#AEC3FF"/>
</g>
</g>
<g id="Group_171">
<path id="Vector_111" d="M148.178 181.397C148.231 180.923 146.114 172.789 146.114 172.789L153.621 178.87L149.932 178.739L148.178 181.397Z" fill="white"/>
</g>
<g id="Group_172">
<g id="Group_173">
<g id="Group_174">
<path id="Vector_112" d="M170.804 264.367H156.258L153.04 249.84H167.586L170.804 264.367ZM156.907 263.558H169.796L166.937 250.649H154.048L156.907 263.558Z" fill="#D2E0FF"/>
</g>
</g>
</g>
<g id="Group_175">
<path id="Vector_113" d="M160.352 256.107H146.635L143.597 242.389H157.314L160.352 256.107Z" fill="#F77D48"/>
</g>
<g id="Group_176">
<g id="Group_177">
<path id="Vector_114" d="M167.738 250.613L166.813 249.893L156.134 263.611L157.059 264.331L167.738 250.613Z" fill="#F77D48"/>
</g>
</g>
<g id="Group_178">
<g id="Group_179">
<path id="Vector_115" d="M129.711 181.397C129.764 180.923 127.646 172.789 127.646 172.789L135.153 178.87L131.465 178.739L129.711 181.397Z" fill="#D2E0FF"/>
</g>
<g id="Group_180">
<g id="Group_181">
<g id="Group_182">
<path id="Vector_116" d="M132.619 197.513H131.513L131.076 195.539H138.578L138.998 197.434H137.893L137.718 196.644H132.426L132.619 197.513Z" fill="#D2E0FF"/>
</g>
</g>
<g id="Group_183">
<g id="Group_184">
<path id="Vector_117" d="M136.884 202.331H135.779L134.397 196.091H135.502L136.884 202.331Z" fill="#D2E0FF"/>
</g>
</g>
<g id="Group_185">
<g id="Group_186">
<path id="Vector_118" d="M137.88 202.726H134.958L134.713 201.62H137.635L137.88 202.726Z" fill="#D2E0FF"/>
</g>
</g>
</g>
<g id="Group_187">
<g id="Group_188">
<path id="Vector_119" d="M152.842 203.415L151.844 202.695L157.115 194.403L158.114 195.123L152.842 203.415Z" fill="#D2E0FF"/>
</g>
</g>
<g id="Group_189">
<g id="Group_190">
<g id="Group_191">
<path id="Vector_120" d="M140.177 222.74C138.067 222.74 135.97 221.024 135.503 218.914C135.036 216.803 136.372 215.087 138.482 215.087C140.592 215.087 142.69 216.803 143.157 218.914C143.624 221.024 142.288 222.74 140.177 222.74ZM138.706 216.098C137.153 216.098 136.17 217.361 136.513 218.914C136.858 220.466 138.4 221.73 139.953 221.73C141.506 221.73 142.49 220.467 142.146 218.914C141.802 217.361 140.259 216.098 138.706 216.098Z" fill="#D2E0FF"/>
</g>
</g>
<g id="Group_192">
<g id="Group_193">
<path id="Vector_121" d="M147.46 226.062C147.327 226.062 147.184 226.01 147.062 225.908L141.974 221.624C141.735 221.423 141.67 221.103 141.827 220.909C141.985 220.715 142.307 220.72 142.545 220.921L147.633 225.205C147.872 225.406 147.937 225.726 147.78 225.92C147.702 226.015 147.586 226.062 147.46 226.062Z" fill="#D2E0FF"/>
</g>
</g>
</g>
<g id="Group_194">
<path id="Vector_122" d="M158.484 214.734L160.378 218.201H164.024L161.549 220.344L163.443 223.811L160.02 221.668L157.545 223.811L157.904 220.344L154.48 218.201H158.125L158.484 214.734Z" fill="#D2E0FF"/>
</g>
</g>
</g>
<g id="Group_195">
<g id="Group_196">
<path id="Vector_123" d="M510.583 184.384C510.583 184.384 510.683 189.847 509.863 189.746C509.043 189.645 507.931 185.166 507.922 185.233C507.913 185.3 508.292 189.943 507.262 190.175C506.232 190.407 505.186 185.259 505.186 185.259C505.186 185.259 505.877 189.677 505.152 189.794C504.426 189.912 503.285 185.628 502.987 185.616C502.689 185.604 503.948 189.289 503.065 189.476C502.183 189.663 500.211 184.48 500.879 183.819C501.547 183.159 502.587 183.865 502.587 183.865C502.587 183.865 503.87 182.913 504.857 183.453C504.857 183.453 507.17 182.991 507.864 184.016C507.865 184.016 509.306 182.775 510.583 184.384Z" fill="#ED917E"/>
</g>
<g id="Group_197">
<g id="Group_198">
<path id="Vector_124" d="M525.494 163.457L544.236 231.036C545.038 233.927 543.209 236.272 540.151 236.272H413.644C410.586 236.272 407.456 233.928 406.654 231.036L387.912 163.457C387.111 160.566 388.94 158.221 391.998 158.221H518.505C521.563 158.221 524.692 160.566 525.494 163.457Z" fill="#D2E0FF"/>
</g>
<g id="Group_199">
<g id="Group_200">
<path id="Vector_125" d="M427.11 193.946H410.772L406.241 177.608H422.579L427.11 193.946Z" fill="#B3C2FF"/>
</g>
<g id="Group_201">
<path id="Vector_126" d="M421.998 189.945H413.663L411.352 181.61H419.686L421.998 189.945Z" fill="#505ABA"/>
</g>
<g id="Group_202">
<path id="Vector_127" d="M423.117 177.973L422.077 177.221L410.273 193.561L411.313 194.312L423.117 177.973Z" fill="#F77D48"/>
</g>
<g id="Group_203">
<path id="Vector_128" d="M415.481 185.089H399.143L394.612 168.751H410.95L415.481 185.089Z" fill="#F77D48"/>
</g>
</g>
<g id="Group_204">
<g id="Group_205">
<path id="Vector_129" d="M424.762 213.225H411.628L407.985 200.09H421.119L424.762 213.225Z" fill="#F77D48"/>
</g>
<g id="Group_206">
<path id="Vector_130" d="M437.775 213.225H424.641L420.998 200.09H434.133L437.775 213.225Z" fill="#ED7D2B"/>
</g>
<g id="Group_207">
<path id="Vector_131" d="M450.91 213.225H437.775L434.133 200.09H447.267L450.91 213.225Z" fill="#FF8939"/>
</g>
<g id="Group_208">
<path id="Vector_132" d="M464.045 213.225H450.91L447.267 200.09H460.402L464.045 213.225Z" fill="#739AF0"/>
</g>
<g id="Group_209">
<path id="Vector_133" d="M477.18 213.225H464.045L460.403 200.09H473.537L477.18 213.225Z" fill="#8C9DF4"/>
</g>
<g id="Group_210">
<path id="Vector_134" d="M490.315 213.225H477.18L473.537 200.09H486.672L490.315 213.225Z" fill="#6B80DD"/>
</g>
<g id="Group_211">
<path id="Vector_135" d="M503.449 213.225H490.314L486.672 200.09H499.806L503.449 213.225Z" fill="#505ABA"/>
</g>
<g id="Group_212">
<path id="Vector_136" d="M516.584 213.225H503.449L499.806 200.09H512.941L516.584 213.225Z" fill="#2B478B"/>
</g>
<g id="Group_213">
<path id="Vector_137" d="M428.405 226.359H415.27L411.628 213.225H424.762L428.405 226.359Z" fill="#A4B5FF"/>
</g>
<g id="Group_214">
<path id="Vector_138" d="M441.418 226.359H428.284L424.641 213.225H437.775L441.418 226.359Z" fill="#8C9DF4"/>
</g>
<g id="Group_215">
<path id="Vector_139" d="M454.553 226.359H441.418L437.775 213.225H450.91L454.553 226.359Z" fill="#505ABA"/>
</g>
<g id="Group_216">
<path id="Vector_140" d="M467.688 226.359H454.553L450.91 213.225H464.045L467.688 226.359Z" fill="#2B478B"/>
</g>
</g>
<g id="Group_217">
<path id="Vector_141" d="M517.229 174.387H448.426C447.481 174.387 446.492 173.613 446.23 172.668C445.968 171.722 446.527 170.948 447.472 170.948H516.276C517.221 170.948 518.209 171.722 518.471 172.668C518.734 173.613 518.175 174.387 517.229 174.387Z" fill="#FF8939"/>
</g>
<g id="Group_218">
<path id="Vector_142" d="M519.636 183.068H450.833C449.888 183.068 448.9 182.294 448.637 181.349C448.375 180.403 448.934 179.63 449.879 179.63H518.683C519.628 179.63 520.616 180.403 520.879 181.349C521.141 182.294 520.582 183.068 519.636 183.068Z" fill="#739AF0"/>
</g>
<g id="Group_219">
<path id="Vector_143" d="M522.044 191.749H453.241C452.295 191.749 451.307 190.976 451.045 190.03C450.782 189.085 451.342 188.311 452.287 188.311H521.09C522.036 188.311 523.024 189.085 523.286 190.03C523.548 190.976 522.989 191.749 522.044 191.749Z" fill="#505ABA"/>
</g>
<g id="Group_220">
<g id="Group_221">
<path id="Vector_144" d="M436.728 170.14H438.799C439.888 170.14 440.688 170.724 440.936 171.62C441.148 172.384 440.817 172.842 440.218 173.028L441.961 174.787H440.998L439.393 173.167H438.384L438.834 174.787H438.017L436.728 170.14ZM439.378 172.443C439.963 172.443 440.25 172.138 440.115 171.653C439.977 171.155 439.543 170.883 438.939 170.883H437.751L438.183 172.443H439.378Z" fill="#505ABA"/>
</g>
<g id="Group_222">
<path id="Vector_145" d="M439.117 181.238C438.756 179.937 439.447 178.834 440.847 178.834C441.657 178.834 442.218 179.06 442.809 179.465L442.462 180.083C442.019 179.777 441.613 179.585 441.023 179.585C440.166 179.585 439.724 180.335 439.974 181.238C440.239 182.194 441.065 182.898 442.014 182.898C442.453 182.898 442.812 182.758 443.039 182.546L442.798 181.676H441.609L441.412 180.965H443.39L443.932 182.917C443.583 183.309 443.017 183.641 442.194 183.641C440.74 183.641 439.497 182.605 439.117 181.238Z" fill="#505ABA"/>
</g>
<g id="Group_223">
<path id="Vector_146" d="M441.714 188.119H443.799C444.33 188.119 444.789 188.265 445.128 188.531C445.391 188.737 445.567 188.989 445.658 189.314C445.812 189.872 445.577 190.171 445.281 190.35C445.877 190.536 446.342 190.848 446.521 191.492C446.751 192.322 446.19 192.767 445.155 192.767H443.004L441.714 188.119ZM444.176 190.078C444.701 190.078 444.995 189.872 444.874 189.434C444.773 189.069 444.418 188.843 443.893 188.843H442.718L443.061 190.078H444.176V190.078ZM444.96 192.043C445.518 192.043 445.796 191.824 445.676 191.393C445.568 191.001 445.191 190.769 444.547 190.769H443.253L443.606 192.043H444.96Z" fill="#505ABA"/>
</g>
</g>
</g>
</g>
<g id="Group_224">
<g id="Group_225">
<g id="Group_226">
<path id="Vector_147" d="M263.292 171.664C262.928 172.082 262.881 172.548 263.062 173.047C263.062 173.049 263.063 173.052 263.065 173.054C263.399 173.975 264.5 175.004 265.78 176.032C265.944 176.164 266.089 176.284 266.216 176.395C266.249 176.424 266.283 176.454 266.314 176.483C266.34 176.505 266.365 176.529 266.389 176.551C267.583 177.651 267.134 177.903 269.278 180.135C271.723 182.679 273.406 182.725 273.885 182.493C274.29 182.296 273.467 180.947 272.555 179.43C272.511 179.357 272.467 179.283 272.422 179.209C272.3 179.008 272.18 178.803 272.059 178.6C270.99 176.775 271.265 175.919 271.518 173.203C271.724 170.996 274.952 160.873 274.952 160.873L270.267 160.065C270.267 160.065 268.856 168.126 267.301 169.368C266.47 170.029 265.539 170.038 264.74 170.528C264.684 170.562 264.628 170.598 264.574 170.633C264.12 170.935 263.658 171.245 263.292 171.664Z" fill="#FFB27D"/>
</g>
<g id="Group_227">
<path id="Vector_148" d="M263.292 171.664C262.928 172.081 262.881 172.548 263.062 173.047C263.062 173.049 263.063 173.052 263.065 173.054C263.473 173.974 264.548 174.998 265.785 176.023C265.946 176.157 266.089 176.28 266.216 176.395C266.249 176.424 266.283 176.453 266.314 176.483C266.339 176.505 266.364 176.529 266.389 176.551C267.583 177.651 267.133 177.903 269.278 180.135C271.722 182.679 273.406 182.725 273.884 182.493C274.29 182.296 273.467 180.947 272.555 179.43C272.079 179.256 269.868 178.358 268.196 176.219C266.778 174.409 265.815 172.101 264.849 170.685C264.743 170.665 264.68 170.653 264.574 170.634C264.12 170.935 263.658 171.245 263.292 171.664Z" fill="#233862"/>
</g>
<g id="Group_228">
<path id="Vector_149" d="M301.071 168.738C301.36 170.184 303.422 169.943 305.725 169.38C308.028 168.817 307.48 169.486 310.758 169.123C314.036 168.76 315.029 167.538 315.129 167.051C315.218 166.618 313.599 166.466 311.861 166.266C311.643 166.241 311.424 166.214 311.204 166.187C309.243 165.941 307.806 164.675 306.025 163.636C304.337 162.651 301.819 158.64 301.819 158.64L297.323 158.996C297.323 158.996 299.682 162.579 300.595 164.136C301.131 165.053 301.103 166.264 301.036 167.2C301.001 167.709 300.968 168.228 301.071 168.738Z" fill="#FFB27D"/>
</g>
<g id="Group_229">
<path id="Vector_150" d="M305.725 169.38C308.028 168.817 307.48 169.486 310.758 169.123C314.036 168.761 315.029 167.538 315.129 167.051C315.218 166.619 313.599 166.466 311.861 166.266L311.845 166.299C311.845 166.299 309.88 167.693 307.151 167.758C304.927 167.812 302.572 167.175 301.036 167.2C301.001 167.709 300.968 168.229 301.071 168.738C301.36 170.184 303.422 169.943 305.725 169.38Z" fill="#233862"/>
</g>
<g id="Group_230">
<path id="Vector_151" d="M283.844 139.994L279.641 151.302L274.155 166.066C274.155 166.066 272.666 166.21 271.241 165.8C269.928 165.421 268.422 164.428 268.422 164.428C268.422 164.428 269.945 148.575 272.787 139.475C273.515 137.139 274.332 135.249 275.232 134.186C279.638 128.979 283.844 139.994 283.844 139.994Z" fill="#E58638"/>
</g>
<g id="Group_231">
<path id="Vector_152" d="M279.571 122.036C277.179 121.264 270.938 122.024 264.168 123.249C262.298 123.588 260.412 122.734 259.427 121.108L242.389 119.778C242.389 119.778 236.768 132.245 239.845 140.189C240.298 141.356 241.291 142.085 242.823 142.11C242.824 142.11 242.822 142.109 242.823 142.11C242.823 142.11 253.118 142.124 256.411 142.124C264.883 142.124 274.342 136.3 275.565 136.055C277.568 135.655 278.369 139.66 280.372 143.866C282.375 148.072 299.198 162.492 299.198 162.492C299.198 162.492 301.784 162.517 302.852 162.117C304 161.686 304.421 161.126 304.421 161.126C304.421 161.126 285.78 124.039 279.571 122.036Z" fill="#F99746"/>
</g>
<g id="Group_232">
<path id="Vector_153" d="M257.617 71.0785C256.352 70.3253 255.119 70.2103 254.363 70.2318C253.837 70.2469 253.312 70.2128 252.791 70.1366C246.289 69.1831 242.373 78.628 242.144 81.4818C241.723 86.7213 238.951 87.52 235.049 90.8016C227.227 97.3809 229.521 105.026 233.798 107.867C236.365 109.571 240.888 107.867 240.888 107.867C240.952 107.911 253.26 100.986 259.327 97.6457C268.422 96.3528 261.271 73.2538 257.617 71.0785Z" fill="#152949"/>
</g>
<g id="Group_233">
<path id="Vector_154" d="M254.242 94.8022C254.269 94.8195 251.257 95.8477 249.243 94.956C247.348 94.1187 245.913 91.0018 245.941 91C246.803 90.9602 247.749 90.207 248.478 85.2629L248.845 85.3945L255.015 87.6147C255.015 87.6147 254.568 89.5946 254.279 91.4796C254.036 93.0623 253.905 94.5785 254.242 94.8022Z" fill="#FFB27D"/>
</g>
<g id="Group_234">
<path id="Vector_155" d="M255.015 87.6148C255.015 87.6148 254.769 88.683 254.41 90.6785C250.866 90.0404 249.344 87.3104 248.845 85.3943L255.015 87.6148Z" fill="#ED975D"/>
</g>
<g id="Group_235">
<path id="Vector_156" d="M255.934 89.5798C255.934 89.5798 247.492 88.4469 248.279 83.2002C249.065 77.9536 248.505 74.2743 253.929 74.7757C259.352 75.2773 260.097 77.4359 260.26 79.251C260.423 81.066 258.15 89.7393 255.934 89.5798Z" fill="#FFB27D"/>
</g>
<g id="Group_236">
<path id="Vector_157" d="M259.953 76.3751C259.953 76.3751 254.548 81.0324 250.873 81.4076C247.197 81.7832 245.805 80.6032 245.805 80.6032C245.805 80.6032 247.972 78.8042 249.275 75.9012C249.66 75.0458 250.472 74.4579 251.406 74.3771C254.031 74.1509 259.007 74.0476 259.953 76.3751Z" fill="#152949"/>
</g>
<g id="Group_237">
<path id="Vector_158" d="M256.574 75.9581C256.574 75.9581 258.382 77.7061 258.951 79.0028C259.501 80.2539 259.666 83.2465 259.228 84.4348C259.228 84.4348 262.045 78.9578 260.45 76.2965C258.759 73.4748 256.574 75.9581 256.574 75.9581Z" fill="#152949"/>
</g>
<g id="Group_238">
<path id="Vector_159" d="M261.35 107.238C261.095 124.327 261.28 120.756 259.411 122.377C258.961 122.768 257.694 123.001 256.028 123.111C250.788 123.459 241.576 122.595 241.226 121.627C240.017 118.276 240.87 117.235 239.862 112.105C239.757 111.56 239.627 110.969 239.474 110.326C238.633 106.803 237.815 105.604 240.798 99.9435C243.503 94.816 246.313 90.6547 246.566 90.8047C253.703 95.0412 254.278 91.4803 254.278 91.4803C254.278 91.4803 261.476 98.9027 261.35 107.238Z" fill="#00B5F5"/>
</g>
<g id="Group_239">
<path id="Vector_160" d="M279.641 151.302L274.155 166.066C274.155 166.066 272.666 166.21 271.241 165.8C269.928 165.421 268.422 164.428 268.422 164.428C268.422 164.428 269.945 148.575 272.787 139.475L279.641 151.302Z" fill="#F99746"/>
</g>
<g id="Group_240">
<path id="Vector_161" d="M254.279 91.4797C254.279 91.4797 261.623 92.7247 262.485 95.8866C263.347 99.0485 266.186 118.24 266.186 118.24C266.186 118.24 264.115 120.262 262.39 118.537C260.666 116.813 256.963 100.581 256.963 100.581L254.279 91.4797Z" fill="#00B5F5"/>
</g>
<g id="Group_241">
<path id="Vector_162" d="M256.028 123.111C250.788 123.459 241.576 122.596 241.226 121.627C240.018 118.277 240.871 117.236 239.862 112.106L242.39 104.989C242.39 104.989 241.972 112.914 244.309 114.998C246.644 117.083 253.878 119.022 255.014 120.764C255.562 121.6 255.923 122.438 256.028 123.111Z" fill="#11C1FF"/>
</g>
<g id="Group_242">
<path id="Vector_163" d="M250.024 119.778C250.024 119.778 255.194 118.627 256.028 119.085C256.862 119.544 258.901 121.215 259.156 121.796C259.411 122.378 257.299 121.355 256.611 121.171C256.166 121.051 254.995 121.459 254.415 121.652C251.976 122.465 250.481 122.046 250.481 122.046L250.024 119.778Z" fill="#FFB27D"/>
</g>
<g id="Group_243">
<path id="Vector_164" d="M246.562 90.8013C246.562 90.8013 239.621 91.2287 237.218 94.5804C233.835 99.298 227.125 119.405 230.971 122.086C235.301 125.106 250.681 122.876 250.681 122.876C250.681 122.876 251.193 120.484 250.481 119.327C249.769 118.17 238.197 116.3 237.663 115.766C237.128 115.232 244.339 105.352 244.339 103.749C244.339 102.147 246.562 90.8013 246.562 90.8013Z" fill="#11C1FF"/>
</g>
<g id="Group_244">
<path id="Vector_165" d="M256.278 120.524C256.278 120.524 257.361 121.921 257.716 122.088C258.071 122.255 258.301 122.213 258.301 122.213L257.571 120.9L256.278 120.524Z" fill="#FFB27D"/>
</g>
<g id="Group_245">
<path id="Vector_166" d="M256.028 119.085L259.177 120.615C259.177 120.615 259.043 120.834 258.655 120.816C258.268 120.799 257.289 120.441 257.289 120.441L256.028 119.085Z" fill="#FFB27D"/>
</g>
</g>
<g id="Group_246">
<g id="Group_247">
<path id="Vector_167" d="M282.92 122.681H250.024V123.406H282.628L282.92 122.681Z" fill="#152949"/>
</g>
<g id="Group_248">
<path id="Vector_168" d="M257.716 123.407H282.628L290.122 104.771H265.248L257.716 123.407Z" fill="#152949"/>
</g>
<g id="Group_249">
<path id="Vector_169" d="M276.34 114.089C276.527 113.434 276.149 112.903 275.494 112.903C274.838 112.903 274.155 113.434 273.967 114.089C273.78 114.744 274.158 115.275 274.813 115.275C275.469 115.275 276.152 114.744 276.34 114.089Z" fill="#EBF3FA"/>
</g>
</g>
</g>
<g id="Group_250">
<path id="Vector_170" d="M271.642 239.733L274.197 241.957L276.42 239.401L273.865 237.178L271.642 239.733Z" fill="white"/>
</g>
<g id="Group_251">
<g id="Group_252">
<path id="Vector_171" d="M241.199 282.339C240.689 280.646 240.436 280.493 240.436 280.493C240.436 280.493 224.597 282.467 221.909 282.294C220.314 282.19 201.291 275.847 201.291 275.847L189.742 286.923C189.742 286.923 218.386 291.643 222.423 291.333C229.095 290.822 239.278 284.933 239.278 284.933C239.278 284.933 241.599 283.668 241.199 282.339Z" fill="#E58638"/>
</g>
<g id="Group_253">
<path id="Vector_172" d="M197.907 408.775C197.907 408.775 198.129 414.142 199.159 415.447L213.497 415.53C213.397 414.977 213.337 413.697 211.354 413.35C208.849 412.914 205.907 411.167 204.391 407.855C202.794 404.372 197.907 408.775 197.907 408.775Z" fill="#214C7F"/>
</g>
<g id="Group_254">
<path id="Vector_173" d="M169.77 408.001C169.77 408.001 168.77 415.132 170.127 415.257C170.308 415.273 175.905 415.363 178.329 415.404C181.18 415.451 185.863 415.351 185.863 415.351C186.453 415.376 186.838 414.738 186.538 414.23C186.209 413.673 185.581 413.078 184.384 412.848C181.887 412.367 177.726 410.533 176.268 407.196C174.733 403.686 169.77 408.001 169.77 408.001Z" fill="#214C7F"/>
</g>
<g id="Group_255">
<path id="Vector_174" d="M205.362 334.93C205.362 334.93 201.375 348.88 189.949 373.106C178.523 397.332 178.029 409.007 178.029 409.007C178.029 409.007 176.299 409.619 174.005 409.374C171.522 409.109 169.77 408.001 169.77 408.001C169.77 408.001 170.51 379.166 175.907 366.941C181.305 354.716 182.404 321.261 182.404 321.261L205.362 334.93Z" fill="#707FE5"/>
</g>
<g id="Group_256">
<path id="Vector_175" d="M211.763 322.927C211.763 322.927 212.08 344.528 208.343 371.051C204.605 397.575 206.353 409.909 206.353 409.909C206.353 409.909 205.362 410.631 202.315 410.619C198.748 410.604 196.921 409.131 196.921 409.131C196.921 409.131 191.572 382.598 193.105 369.322C194.639 356.047 185.78 323.768 185.78 323.768L211.763 322.927Z" fill="#8C9DF4"/>
</g>
<g id="Group_257">
<path id="Vector_176" d="M203.082 269.08C203.045 270.774 202.819 272.62 202.141 273.524L198.336 275.52L194.118 272.394C194.118 272.394 195.662 268.967 195.286 263.957C195.248 263.655 195.097 261.735 195.097 261.697L197.206 262.752L202.931 265.614C202.931 265.614 202.931 265.727 202.969 265.878C203.007 266.443 203.082 267.686 203.082 269.08Z" fill="#FFB27D"/>
</g>
<g id="Group_258">
<path id="Vector_177" d="M182.007 325.595C183.387 331.908 212.933 329.137 212.547 325.283C212.533 325.154 212.455 323.37 212.349 320.966C212.125 315.765 211.783 307.637 211.739 307.003C211.739 306.991 211.736 306.981 211.736 306.969C211.204 301.603 210.693 296.354 210.66 292.925C210.631 289.952 210.22 286.913 209.676 284.152C209.174 281.605 208.557 279.292 208.021 277.49C207.643 276.22 206.938 275.104 206.006 274.227C205.341 273.603 204.563 273.1 203.704 272.759C203.469 272.66 203.231 272.579 202.988 272.509C199.512 271.499 196.005 270.215 194.702 270.597C191.171 271.636 187.241 277.89 185.384 285.816C181.908 300.648 181.104 321.48 182.007 325.595Z" fill="#F99746"/>
</g>
<g id="Group_259">
<path id="Vector_178" d="M203.083 269.08C200.936 268.213 196.83 266.254 195.7 264.032C195.211 263.053 195.964 262.751 197.207 262.751L202.932 265.614C202.932 265.614 202.932 265.727 202.97 265.877C203.007 266.443 203.083 267.686 203.083 269.08Z" fill="#FCA56B"/>
</g>
<g id="Group_260">
<path id="Vector_179" d="M205.688 265.262C205.688 265.262 195.407 268.47 193.508 262.036C191.609 255.602 189.003 251.683 195.488 249.363C201.972 247.043 203.978 249.121 205.134 251.114C206.29 253.107 208.314 264.262 205.688 265.262Z" fill="#FFB27D"/>
</g>
<g id="Group_261">
<path id="Vector_180" d="M204.73 250.494C204.73 250.494 204.074 257.98 202.526 257.655C200.978 257.33 199.574 257.089 199.8 259.346C200.027 261.603 200.1 264.316 195.329 264.715C190.557 265.114 185.772 252.702 187.082 250.372C190.864 243.65 210.197 242.293 204.73 250.494Z" fill="#163560"/>
</g>
<g id="Group_262">
<path id="Vector_181" d="M212.349 320.966C212.125 315.765 211.784 307.637 211.74 307.003C211.74 306.991 211.736 306.981 211.736 306.969L194.282 296.534C194.282 296.534 193.606 320.896 212.349 320.966Z" fill="#E58638"/>
</g>
<g id="Group_263">
<g id="Group_264">
<g id="Group_265">
<path id="Vector_182" d="M272.565 238.252L275.71 240.988C275.71 240.988 270.319 246.761 270.82 252.834L262.771 259.63L256.107 253.828L261.68 244.584C261.68 244.584 267.654 244.368 272.565 238.252Z" fill="#163560"/>
</g>
<g id="Group_266">
<path id="Vector_183" d="M265.736 251.091C266.725 251.091 267.526 250.289 267.526 249.301C267.526 248.312 266.725 247.51 265.736 247.51C264.747 247.51 263.945 248.312 263.945 249.301C263.945 250.289 264.747 251.091 265.736 251.091Z" fill="white"/>
</g>
<g id="Group_267">
<path id="Vector_184" d="M274.424 239.841L273.909 239.393L264.403 250.315L264.918 250.763L274.424 239.841Z" fill="white"/>
</g>
</g>
<g id="Group_268">
<path id="Vector_185" d="M262.775 259.626L256.107 253.824L254.649 255.5L261.317 261.302L262.775 259.626Z" fill="#6C7AFF"/>
</g>
<g id="Group_269">
<path id="Vector_186" d="M188.384 338.72L188.061 338.438C186.309 336.914 186.125 334.257 187.649 332.505L254.649 255.504L261.317 261.306L194.317 338.307C192.793 340.06 190.136 340.244 188.384 338.72Z" fill="#163560"/>
</g>
</g>
<g id="Group_270">
<path id="Vector_187" d="M226.085 298.906C226.085 298.906 227.373 297.762 227.674 296.974C227.779 296.699 228.654 295.457 230.153 295.568C231.52 295.669 233.953 292.755 233.953 292.755C234.306 293.525 235.528 296.416 233.781 297.88C232.356 299.074 228.926 301.142 226.845 302.504C224.611 303.966 226.085 298.906 226.085 298.906Z" fill="#FFB27D"/>
</g>
<g id="Group_271">
<path id="Vector_188" d="M226.256 298.479C226.256 298.479 208.943 301.422 207.409 300.675C204.96 299.483 208.359 281.918 208.359 281.918C208.359 281.918 208.505 277.936 203.855 276.997C199.814 276.182 195.916 279.209 195.916 279.209C195.916 279.209 192.37 282.381 192.823 285.9C193.827 293.701 195.389 309.566 200.606 311.997C207.336 315.134 226.808 303.299 226.808 303.299C226.808 303.299 227.456 302.505 227.364 301.031C227.283 299.731 226.256 298.479 226.256 298.479Z" fill="#F99746"/>
</g>
<g id="Group_272">
<path id="Vector_189" d="M241.921 283.597C241.921 283.597 246.291 282.005 245.906 279.77C245.52 277.535 244.159 277.818 243.337 278.589C242.515 279.359 242.972 283.315 241.921 283.597Z" fill="#FFB27D"/>
</g>
<g id="Group_273">
<path id="Vector_190" d="M227.373 297.762C227.373 297.762 227.969 296.011 228.604 295.26C229.24 294.509 229.51 293.237 229.799 293.661C230.088 294.085 229.568 295.606 229.799 296.184C230.03 296.762 227.373 297.762 227.373 297.762Z" fill="#FFB27D"/>
</g>
</g>
<g id="Group_274">
<path id="Vector_191" d="M614.534 388.134H536.25V415.324H614.534V388.134Z" fill="#FFD7D7"/>
</g>
<g id="Group_275">
<path id="Vector_192" d="M665.213 417.062H0.786635C0.354009 417.062 0 416.708 0 416.276V415.929C0 415.497 0.354009 415.143 0.786635 415.143H665.213C665.646 415.143 666 415.497 666 415.929V416.276C666 416.708 665.646 417.062 665.213 417.062Z" fill="#233862"/>
</g>
</g>
</svg>
