<svg width="535" height="523" viewBox="0 0 535 523" fill="none" xmlns="http://www.w3.org/2000/svg">
<g id="Illustration">
<g id="Group">
<path id="Vector" d="M459.578 448.802C448.903 460.039 438.803 467.286 430.823 473.012C337.022 540.315 226.031 520.697 202.442 515.906C167.609 508.831 100.277 495.155 51.5969 437.909C-22.0515 351.3 -10.5835 214.849 46.5433 124.777C56.9927 108.301 112.189 16.8562 224.376 2.1914C292.271 -6.68373 371.414 11.2161 428.727 59.2333C549.032 160.025 540.468 363.643 459.578 448.802Z" fill="url(#paint0_linear_151_10763)"/>
<g id="Group_2">
<g id="Group_3">
<path id="Vector_2" d="M495.716 56.8946C494.692 54.1026 490.596 54.5401 490.198 57.4874C486.349 85.9804 473.917 160.378 444.717 203.026C397.173 272.466 373.804 377.679 417.044 424.415C417.044 424.415 607.298 361.108 495.716 56.8946Z" fill="#FFBFBF"/>
<path id="Vector_3" opacity="0.43" d="M495.789 96.7708C495.845 97.6766 495.819 98.4284 495.827 99.2383L495.798 101.626L495.688 106.397C495.593 109.575 495.449 112.751 495.305 115.927C494.994 122.278 494.604 128.624 494.156 134.968C493.236 147.651 491.973 160.309 490.52 172.945C489.084 185.583 487.295 198.182 485.24 210.738C483.174 223.291 480.929 235.82 478.274 248.268C473.012 273.171 466.392 297.811 458.056 321.884C453.763 333.874 449.154 345.758 443.865 357.35C438.496 368.899 432.631 380.226 425.968 391.074C425.823 391.31 425.515 391.384 425.279 391.239C425.049 391.098 424.973 390.8 425.104 390.567L425.107 390.561C431.322 379.502 436.931 368.13 441.97 356.507C447.042 344.896 451.434 333.001 455.511 321.009C459.582 309.011 463.169 296.852 466.479 284.62C469.785 272.384 472.583 260.018 475.311 247.639C480.662 222.85 484.687 197.786 488.02 172.637C489.66 160.057 491.047 147.442 492.209 134.807C492.8 128.489 493.334 122.166 493.788 115.838L494.396 106.34L494.651 101.591L494.752 99.2174C494.773 98.4394 494.808 97.6034 494.798 96.9219L494.796 96.8094C494.792 96.5349 495.011 96.309 495.286 96.3051C495.552 96.3008 495.772 96.508 495.789 96.7708Z" fill="white"/>
</g>
<g id="Group_4">
<path id="Vector_4" d="M371.523 3.92997C369.822 1.64898 366.186 3.16746 366.625 5.97873C370.868 33.1583 379.763 104.776 364.62 151.852C339.963 228.502 347.235 331.363 399.638 362.426C399.638 362.426 556.84 252.469 371.523 3.92997Z" fill="#FEA1A1"/>
<path id="Vector_5" opacity="0.43" d="M382.477 40.4748C382.776 41.2918 382.958 41.9875 383.186 42.7282L383.812 44.926L385.013 49.3304C385.794 52.2713 386.529 55.223 387.264 58.1747C388.713 64.0834 390.087 70.0096 391.408 75.9485C394.027 87.8313 396.323 99.7831 398.439 111.767C400.572 123.749 402.369 135.791 403.91 147.866C405.441 159.942 406.801 172.044 407.762 184.185C409.731 208.458 410.379 232.861 409.301 257.213C408.633 269.38 407.647 281.536 405.957 293.61C404.18 305.666 401.89 317.653 398.735 329.419C398.665 329.679 398.397 329.834 398.136 329.764C397.882 329.696 397.729 329.44 397.786 329.185L397.788 329.179C400.465 317.341 402.504 305.383 403.952 293.349C405.434 281.318 406.215 269.211 406.68 257.103C407.139 244.99 407.111 232.862 406.809 220.742C406.503 208.62 405.694 196.516 404.819 184.421C402.966 160.229 399.818 136.147 396.018 112.174C394.092 100.191 391.923 88.2441 389.544 76.3391C388.365 70.3847 387.13 64.4404 385.822 58.5122L383.79 49.6368L382.73 45.2114L382.176 43.0071C381.982 42.2882 381.787 41.5112 381.592 40.891L381.559 40.7861C381.479 40.531 381.622 40.2594 381.877 40.1796C382.125 40.1018 382.388 40.2342 382.477 40.4748Z" fill="white"/>
</g>
</g>
<g id="Group_5">
<path id="Vector_6" d="M214.015 465.527C328.864 465.527 421.969 372.423 421.969 257.573C421.969 142.724 328.864 49.6194 214.015 49.6194C99.1647 49.6194 6.06055 142.724 6.06055 257.573C6.06055 372.423 99.1647 465.527 214.015 465.527Z" fill="url(#paint1_linear_151_10763)"/>
<path id="Vector_7" d="M227.944 465.527C342.793 465.527 435.898 372.422 435.898 257.573C435.898 142.723 342.793 49.6186 227.944 49.6186C113.094 49.6186 19.9895 142.723 19.9895 257.573C19.9895 372.422 113.094 465.527 227.944 465.527Z" fill="white"/>
<g id="Group_6">
<path id="Vector_8" d="M227.944 435.053C325.964 435.053 405.425 355.593 405.425 257.573C405.425 159.553 325.964 80.0918 227.944 80.0918C129.924 80.0918 50.4629 159.553 50.4629 257.573C50.4629 355.593 129.924 435.053 227.944 435.053Z" fill="url(#paint2_linear_151_10763)"/>
<path id="Vector_9" d="M227.943 443.943C125.179 443.943 41.5735 360.338 41.5735 257.572C41.5735 154.807 125.179 71.2019 227.943 71.2019C330.707 71.2019 414.313 154.807 414.313 257.572C414.313 360.338 330.708 443.943 227.943 443.943ZM227.943 80.0918C130.08 80.0918 50.4634 159.709 50.4634 257.572C50.4634 355.437 130.08 435.053 227.943 435.053C325.806 435.053 405.423 355.436 405.423 257.572C405.423 159.709 325.806 80.0918 227.943 80.0918Z" fill="white"/>
</g>
<g id="Group_7">
<path id="Vector_10" d="M227.944 365.773C287.701 365.773 336.145 317.33 336.145 257.573C336.145 197.815 287.701 149.372 227.944 149.372C168.186 149.372 119.743 197.815 119.743 257.573C119.743 317.33 168.186 365.773 227.944 365.773Z" fill="url(#paint3_linear_151_10763)"/>
<path id="Vector_11" d="M227.943 374.663C163.38 374.663 110.854 322.136 110.854 257.572C110.854 193.009 163.38 140.483 227.943 140.483C292.507 140.483 345.033 193.009 345.033 257.572C345.033 322.136 292.507 374.663 227.943 374.663ZM227.943 158.262C173.183 158.262 128.632 202.812 128.632 257.572C128.632 312.333 173.183 356.885 227.943 356.885C282.704 356.885 327.255 312.333 327.255 257.572C327.255 202.812 282.704 158.262 227.943 158.262Z" fill="white"/>
</g>
<g id="Group_8">
<path id="Vector_12" d="M227.943 299.493C251.095 299.493 269.864 280.725 269.864 257.573C269.864 234.421 251.095 215.652 227.943 215.652C204.792 215.652 186.023 234.421 186.023 257.573C186.023 280.725 204.792 299.493 227.943 299.493Z" fill="url(#paint4_linear_151_10763)"/>
<path id="Vector_13" d="M227.943 308.382C199.927 308.382 177.134 285.59 177.134 257.572C177.134 229.555 199.927 206.762 227.943 206.762C255.96 206.762 278.753 229.555 278.753 257.572C278.753 285.59 255.96 308.382 227.943 308.382ZM227.943 224.541C209.73 224.541 194.912 239.358 194.912 257.572C194.912 275.786 209.73 290.604 227.943 290.604C246.156 290.604 260.975 275.787 260.975 257.572C260.975 239.358 246.157 224.541 227.943 224.541Z" fill="white"/>
</g>
</g>
<g id="Group_9">
<g id="Group_10">
<path id="Vector_14" d="M517.559 320.079L526.44 338L488.784 329.331C476.446 326.49 466.033 318.266 460.413 306.921L517.559 320.079Z" fill="url(#paint5_linear_151_10763)"/>
<path id="Vector_15" d="M518.799 314.694L534.622 302.46L496.967 293.79C484.629 290.95 471.668 293.793 461.652 301.537L518.799 314.694Z" fill="url(#paint6_linear_151_10763)"/>
<path id="Vector_16" d="M519.651 313.951L518.165 320.406L273.759 264.135L275.245 257.681L519.651 313.951Z" fill="url(#paint7_linear_151_10763)"/>
<path id="Vector_17" d="M286.584 254.499C290.287 255.352 286.268 272.808 282.565 271.955L226.337 251.72C224.26 250.973 224.973 247.873 227.169 248.109L286.584 254.499Z" fill="url(#paint8_linear_151_10763)"/>
</g>
<g id="Group_11">
<g id="Group_12">
<path id="Vector_18" d="M346.242 506.318C346.242 506.318 349.243 510.644 349.394 516.721C349.43 518.153 348.271 519.334 346.84 519.384L323.737 520.19C322.655 520.227 322.168 518.852 323.031 518.2C327.296 514.977 335.689 508.943 341.825 506.472L346.242 506.318Z" fill="url(#paint9_linear_151_10763)"/>
<path id="Vector_19" d="M346.817 498.942L346.225 507.824C346.159 508.817 345.303 509.596 344.311 509.514C343.708 509.464 342.983 509.308 342.182 508.949C341.42 508.607 340.95 507.821 340.982 506.987L341.384 496.271L346.817 498.942Z" fill="url(#paint10_linear_151_10763)"/>
</g>
<g id="Group_13">
<path id="Vector_20" d="M474.954 467.569C474.954 467.569 479.771 465.443 485.766 466.447C487.178 466.684 488.119 468.045 487.896 469.46L484.304 492.296C484.135 493.366 482.693 493.584 482.217 492.612C479.862 487.813 475.529 478.428 474.267 471.934L474.954 467.569Z" fill="url(#paint11_linear_151_10763)"/>
<path id="Vector_21" d="M467.821 465.604L476.429 467.87C477.392 468.124 477.995 469.112 477.725 470.07C477.561 470.653 477.271 471.335 476.766 472.054C476.286 472.736 475.426 473.049 474.613 472.86L464.167 470.432L467.821 465.604Z" fill="url(#paint12_linear_151_10763)"/>
</g>
<path id="Vector_22" d="M349.935 285.918C349.935 285.918 349.162 284.128 349.286 283.07C349.41 282.012 349.44 278.707 347.458 277.313C347.458 277.313 346.384 277.365 346.363 278.57C345.1 277.215 345.037 276.045 343.732 276.875C342.428 277.706 337.519 280.684 339.971 282.648C342.422 284.612 346.275 288.349 346.275 288.349L349.935 285.918Z" fill="url(#paint13_linear_151_10763)"/>
<path id="Vector_23" d="M392.474 428.801C392.474 428.801 396.846 463.698 409.367 465.03C421.887 466.362 469.837 473.288 469.837 473.288L471.169 466.095C471.169 466.095 443.465 449.312 426.948 449.579C418.69 437.325 420.705 403.466 420.705 403.466L392.474 428.801Z" fill="url(#paint14_linear_151_10763)"/>
<path id="Vector_24" d="M443.98 306.966C442.506 345.872 422.097 349.31 422.097 349.31V399.071H393.32C393.32 399.071 379.366 365.091 379.729 353.732C358.975 344.956 348.47 294.775 346.275 288.35C347.298 287.572 347.847 287.602 349.935 285.918C378.224 330.939 385.126 337.86 385.126 337.86H401.109C431.822 335.102 439.377 305.907 439.377 305.907L443.98 306.966Z" fill="url(#paint15_linear_151_10763)"/>
<path id="Vector_25" d="M421.198 398.965C421.198 398.965 423.486 423.347 375.458 442.35C363.736 464.194 348.364 504.914 348.364 504.914H338.241C338.241 504.914 345.167 443.415 357.421 431.161C369.675 418.908 383.043 405.118 393.319 399.08C417.092 396.594 421.198 398.965 421.198 398.965Z" fill="url(#paint16_linear_151_10763)"/>
<g id="Group_14">
<path id="Vector_26" d="M400.722 319.723L406.018 338.379C406.018 338.379 396.967 343.244 390.274 341.93L388.435 325.484L400.722 319.723Z" fill="url(#paint17_linear_151_10763)"/>
<g id="Group_15">
<path id="Vector_27" d="M389.748 306.175C389.554 306.393 382.349 324.31 382.349 324.31L392.667 328.206L402.018 312.239C402.018 312.239 392.997 302.521 389.748 306.175Z" fill="url(#paint18_linear_151_10763)"/>
<path id="Vector_28" d="M397.73 314.342L393.466 323.132C393.411 323.245 393.343 323.347 393.26 323.441C392.751 324.015 390.856 325.861 389.086 323.806C387.48 321.942 385.986 320.264 384.482 319.821C383.807 319.622 383.092 319.967 382.83 320.62C382.176 322.248 380.769 325.944 380.038 329.341C379.889 330.031 380.299 330.715 380.973 330.923C383.003 331.551 387.322 332.756 391.024 332.911C391.525 332.932 391.997 332.683 392.255 332.253C393.517 330.156 397.374 323.795 398.723 322.19C399.989 320.682 402.637 321.027 403.739 321.251C404.1 321.325 404.472 321.248 404.775 321.037C405.844 320.294 407.943 318.324 405.631 315.422C405.147 314.815 405.261 313.936 405.883 313.47C407.121 312.544 408.528 310.812 406.924 308.287C405.294 305.721 402.75 305.813 401.154 306.2C400.509 306.356 399.862 306.018 399.589 305.412C399.433 305.068 399.126 304.785 398.541 304.77C397.751 304.75 397.167 304.023 397.27 303.24C397.467 301.735 397.142 299.77 394.619 298.661C390.141 296.694 386.742 300.85 386.079 304.163C385.415 307.476 390.39 309.333 393.426 309.447C395.735 309.533 397.178 311.993 397.738 313.168C397.915 313.54 397.91 313.971 397.73 314.342Z" fill="url(#paint19_linear_151_10763)"/>
<path id="Vector_29" d="M397.138 325.375C397.138 325.375 398.542 319.652 400.99 319.64C403.438 319.628 405.565 321.879 402.796 324.867C399.352 328.585 397.138 325.375 397.138 325.375Z" fill="url(#paint20_linear_151_10763)"/>
</g>
</g>
<path id="Vector_30" d="M444.944 296.702C444.944 296.702 438.728 293.949 439.527 298.566C440.327 303.184 438.657 306.558 442.2 306.913C445.743 307.269 446.147 299.893 444.944 296.702Z" fill="url(#paint21_linear_151_10763)"/>
</g>
</g>
<g id="Group_16">
<g id="Group_17">
<g id="Group_18" opacity="0.3">
<path id="Vector_31" opacity="0.3" d="M76.9434 93.0243C75.9431 93.0752 75.0452 92.3631 74.8872 91.3518C74.5408 89.1402 74.2857 86.8806 74.1283 84.6362C74.0518 83.5441 74.8745 82.5967 75.9663 82.5203C75.9795 82.5197 75.9922 82.519 76.0051 82.5184C77.0804 82.4636 78.0064 83.2798 78.082 84.3588C78.2312 86.4913 78.4741 88.6375 78.8027 90.7385C78.9723 91.8196 78.2329 92.8339 77.1512 93.003C77.0817 93.0142 77.0123 93.0208 76.9434 93.0243ZM76.1925 75.7762C76.1151 75.7801 76.0364 75.7795 75.9571 75.7743C74.8652 75.7014 74.0387 74.7566 74.1117 73.6647C74.2622 71.4216 74.5099 69.1628 74.848 66.9512C75.0135 65.8692 76.0202 65.1289 77.1067 65.2913C78.1885 65.4572 78.931 66.4689 78.7658 67.5499C78.4442 69.6522 78.2092 71.7978 78.0665 73.9298C77.999 74.9424 77.1816 75.7258 76.1925 75.7762ZM79.2578 58.7918C79.0375 58.8029 78.8115 58.7772 78.588 58.7104C77.54 58.3956 76.9446 57.2912 77.2589 56.2429C77.9029 54.094 78.6486 51.9462 79.4755 49.8594C79.8795 48.8419 81.0311 48.3454 82.048 48.7469C83.0653 49.1502 83.5635 50.3022 83.1603 51.3195C82.375 53.3013 81.667 55.3402 81.0552 57.3813C80.808 58.2059 80.0713 58.7503 79.2578 58.7918ZM86.0458 42.9159C85.6815 42.9345 85.3081 42.8526 84.9677 42.6592C84.016 42.1187 83.6833 40.9087 84.2238 39.9572C85.3336 38.0056 86.5406 36.0785 87.8118 34.2293C88.4321 33.3288 89.6652 33.1001 90.5676 33.7192C91.4693 34.3392 91.6978 35.573 91.0778 36.475C89.8704 38.231 88.7235 40.0613 87.6698 41.9163C87.3221 42.527 86.6993 42.8827 86.0458 42.9159ZM96.2031 28.9526C95.6924 28.9787 95.1722 28.8082 94.7653 28.4359C93.9571 27.6975 93.9012 26.4438 94.6396 25.6364C96.1507 23.9836 97.754 22.3719 99.4047 20.8476C100.208 20.1045 101.462 20.1537 102.205 20.9584C102.947 21.7625 102.898 23.0159 102.094 23.7592C100.524 25.2079 99.0007 26.7397 97.5647 28.3104C97.1984 28.7112 96.7056 28.927 96.2031 28.9526ZM109.195 17.5847C108.534 17.6185 107.871 17.3204 107.465 16.7366C106.841 15.8376 107.063 14.6032 107.962 13.9783C109.804 12.6986 111.724 11.4815 113.669 10.3624C114.618 9.81644 115.829 10.143 116.375 11.0919C116.921 12.04 116.594 13.2518 115.646 13.7978C113.798 14.8615 111.974 16.0172 110.224 17.2333C109.908 17.4523 109.552 17.5666 109.195 17.5847ZM181.479 9.17722C181.205 9.19121 180.924 9.14812 180.652 9.04106C178.671 8.2599 176.63 7.55485 174.584 6.94585C173.536 6.63343 172.938 5.52996 173.251 4.4817C173.563 3.43251 174.666 2.83526 175.716 3.14768C177.87 3.78895 180.02 4.53131 182.106 5.35369C183.124 5.75527 183.624 6.9063 183.223 7.92435C182.928 8.67081 182.231 9.1388 181.479 9.17722ZM124.374 9.38445C123.553 9.42623 122.76 8.95041 122.435 8.14538C122.026 7.12976 122.518 5.97556 123.533 5.56651C125.613 4.72809 127.756 3.97007 129.901 3.3135C130.949 2.99809 132.056 3.58116 132.376 4.62811C132.697 5.67451 132.108 6.78264 131.061 7.10346C129.024 7.72664 126.99 8.44643 125.014 9.24251C124.804 9.32663 124.588 9.37344 124.374 9.38445ZM164.807 4.69545C164.677 4.70217 164.543 4.69657 164.409 4.67624C162.302 4.35803 160.154 4.1273 158.024 3.98853C156.932 3.91709 156.104 2.97422 156.175 1.88231C156.246 0.790408 157.188 -0.0426076 158.281 0.0333072C160.522 0.179541 162.783 0.422398 165 0.756647C166.082 0.920041 166.827 1.93006 166.664 3.0119C166.521 3.95943 165.729 4.64845 164.807 4.69545ZM141.004 4.77995C140.005 4.83087 139.108 4.12077 138.949 3.11131C138.777 2.03022 139.515 1.01535 140.596 0.843004C142.809 0.492341 145.067 0.23233 147.307 0.0715476C147.321 0.0700554 147.336 0.069311 147.35 0.0685649C148.423 0.0139137 149.348 0.827897 149.426 1.90525C149.505 2.99716 148.684 3.94582 147.592 4.02416C145.464 4.17748 143.319 4.42462 141.216 4.75831C141.145 4.76894 141.074 4.7764 141.004 4.77995Z" fill="#B27AFA"/>
<path id="Vector_32" opacity="0.3" d="M193.909 15.4321C193.52 15.4519 193.12 15.3577 192.763 15.1355C191.896 14.5953 191.003 14.0649 190.109 13.557C189.157 13.0172 188.823 11.8072 189.363 10.8557C189.903 9.90355 191.113 9.56837 192.065 10.1104C193.005 10.6437 193.944 11.2021 194.857 11.7701C195.786 12.3483 196.071 13.5708 195.493 14.4995C195.137 15.0727 194.536 15.4 193.909 15.4321Z" fill="#B27AFA"/>
</g>
<g id="Group_19" opacity="0.3">
<path id="Vector_33" opacity="0.3" d="M228.663 64.8536C227.708 64.9023 226.832 64.2524 226.626 63.287C226.414 62.288 226.177 61.2761 225.921 60.2806C225.649 59.2202 226.289 58.1405 227.349 57.8685C228.413 57.5956 229.489 58.2361 229.761 59.2958C230.029 60.344 230.279 61.4094 230.503 62.4614C230.731 63.5319 230.048 64.5843 228.977 64.8124C228.872 64.8353 228.767 64.8484 228.663 64.8536Z" fill="#B27AFA"/>
<path id="Vector_34" opacity="0.3" d="M157.191 158.063C156.28 158.109 155.365 158.14 154.446 158.156C153.352 158.175 152.449 157.303 152.431 156.209C152.412 155.114 153.289 154.208 154.378 154.192C156.498 154.156 158.613 154.033 160.686 153.825C161.776 153.718 162.746 154.51 162.856 155.599C162.965 156.689 162.17 157.66 161.081 157.769C159.799 157.898 158.49 157.997 157.191 158.063ZM143.997 157.621C143.887 157.627 143.774 157.623 143.66 157.61C141.464 157.349 139.255 156.992 137.095 156.548C136.023 156.329 135.332 155.281 135.552 154.209C135.772 153.137 136.821 152.443 137.891 152.666C139.944 153.087 142.042 153.426 144.128 153.675C145.215 153.804 145.991 154.79 145.862 155.876C145.746 156.849 144.944 157.573 143.997 157.621ZM171.361 156.011C170.428 156.059 169.563 155.439 169.336 154.498C169.079 153.433 169.733 152.363 170.797 152.106C172.832 151.615 174.874 151.029 176.866 150.365C177.905 150.021 179.027 150.58 179.373 151.619C179.719 152.657 179.158 153.78 178.119 154.126C176.021 154.825 173.871 155.441 171.728 155.959C171.605 155.988 171.482 156.005 171.361 156.011ZM127.447 153.768C127.195 153.781 126.938 153.745 126.686 153.657C124.603 152.92 122.527 152.086 120.515 151.177C119.518 150.726 119.075 149.553 119.525 148.556C119.976 147.557 121.149 147.114 122.147 147.565C124.058 148.428 126.029 149.221 128.007 149.92C129.039 150.284 129.58 151.417 129.215 152.449C128.939 153.229 128.225 153.729 127.447 153.768ZM187.322 150.222C186.557 150.261 185.805 149.851 185.444 149.12C184.959 148.139 185.362 146.95 186.343 146.465C188.219 145.539 190.082 144.518 191.881 143.433C192.818 142.868 194.036 143.168 194.601 144.106C195.167 145.043 194.866 146.261 193.929 146.826C192.036 147.969 190.074 149.043 188.099 150.019C187.848 150.142 187.584 150.208 187.322 150.222ZM201.627 141.07C201.015 141.101 200.397 140.849 199.983 140.336C199.295 139.484 199.428 138.236 200.28 137.549C201.913 136.23 203.509 134.827 205.025 133.38C205.815 132.622 207.069 132.651 207.827 133.443C208.583 134.235 208.554 135.489 207.763 136.245C206.168 137.769 204.488 139.245 202.769 140.633C202.431 140.906 202.031 141.049 201.627 141.07ZM213.596 129.017C213.131 129.041 212.656 128.901 212.262 128.588C211.406 127.907 211.264 126.66 211.946 125.804C213.254 124.16 214.507 122.443 215.67 120.701C216.277 119.791 217.507 119.544 218.418 120.153C219.328 120.761 219.574 121.991 218.966 122.902C217.742 124.735 216.423 126.542 215.047 128.272C214.678 128.735 214.144 128.989 213.596 129.017ZM222.651 114.642C222.329 114.658 221.998 114.596 221.687 114.445C220.703 113.967 220.292 112.782 220.77 111.798C221.686 109.909 222.532 107.959 223.285 106.004C223.677 104.982 224.825 104.473 225.845 104.865C226.867 105.257 227.376 106.404 226.984 107.426C226.191 109.486 225.3 111.539 224.336 113.527C224.008 114.201 223.35 114.606 222.651 114.642ZM228.332 98.6232C228.151 98.6323 227.965 98.6163 227.78 98.573C226.714 98.3244 226.052 97.2582 226.301 96.1928C226.777 94.1531 227.173 92.0667 227.476 89.9896C227.634 88.9062 228.644 88.1581 229.723 88.3153C230.806 88.4733 231.556 89.48 231.398 90.5631C231.078 92.7497 230.662 94.9466 230.16 97.0937C229.955 97.9739 229.192 98.5793 228.332 98.6232ZM230.353 81.7592C230.313 81.7613 230.272 81.7619 230.231 81.7615C229.136 81.7507 228.258 80.8544 228.269 79.7603C228.284 78.2155 228.253 76.6523 228.174 75.1121C228.146 74.5548 228.111 73.9984 228.071 73.4448C227.991 72.3529 228.812 71.4035 229.903 71.3246C231.007 71.2226 231.944 72.0655 232.024 73.1566C232.066 73.7397 232.102 74.3237 232.132 74.9105C232.215 76.5303 232.248 78.1756 232.232 79.8002C232.222 80.8533 231.391 81.7065 230.353 81.7592Z" fill="#B27AFA"/>
<path id="Vector_35" opacity="0.3" d="M112.112 146.339C111.718 146.359 111.315 146.263 110.957 146.037C110.049 145.466 109.136 144.864 108.243 144.25C107.341 143.629 107.113 142.395 107.734 141.494C108.355 140.593 109.588 140.364 110.49 140.985C111.338 141.569 112.206 142.14 113.068 142.683C113.994 143.265 114.272 144.489 113.689 145.415C113.332 145.983 112.734 146.307 112.112 146.339Z" fill="#B27AFA"/>
</g>
<g id="Group_20">
<path id="Vector_36" d="M113.612 123.247C113.877 123.54 114.299 123.633 114.663 123.478L125.031 119.054C129.36 122.049 134.198 124.377 139.404 125.874L142.54 136.695C142.649 137.075 142.988 137.343 143.383 137.362L156.888 138.039C157.282 138.058 157.646 137.825 157.793 137.459L161.994 127.006C167.324 126.035 172.37 124.203 176.977 121.655L186.852 127.093C187.198 127.284 187.627 127.234 187.92 126.969L197.947 117.898C198.24 117.632 198.333 117.21 198.178 116.847L193.754 106.479C196.749 102.15 199.076 97.3119 200.574 92.1053L211.395 88.9699C211.775 88.86 212.043 88.5215 212.062 88.1266L212.739 74.6216C212.759 74.2269 212.526 73.8632 212.159 73.716L201.706 69.5153C200.735 64.1851 198.904 59.1391 196.355 54.5325L201.793 44.6578C201.984 44.3118 201.934 43.8828 201.669 43.5898L192.598 33.5623C192.333 33.2691 191.911 33.1766 191.547 33.3316L181.179 37.7559C176.85 34.76 172.012 32.4329 166.806 30.9351L163.67 20.1142C163.56 19.7348 163.222 19.4668 162.827 19.4468L149.322 18.7707C148.927 18.7507 148.564 18.9837 148.416 19.3502L144.216 29.8035C138.886 30.7736 133.839 32.6056 129.233 35.1543L119.358 29.7164C119.012 29.5256 118.583 29.5757 118.29 29.8408L108.263 38.912C107.97 39.177 107.877 39.5989 108.032 39.9623L112.456 50.3307C109.46 54.6595 107.133 59.4976 105.635 64.7042L94.8145 67.8394C94.4351 67.9493 94.167 68.288 94.1475 68.6827L93.4711 82.1873C93.4515 82.582 93.6841 82.9457 94.0507 83.0931L104.504 87.2938C105.474 92.6238 107.306 97.6699 109.855 102.277L104.417 112.151C104.226 112.497 104.276 112.926 104.541 113.22L113.612 123.247Z" fill="#B27AFA"/>
<g id="Group_21">
<path id="Vector_37" d="M153.788 91.9804C147.171 92.3176 141.113 87.7547 139.777 81.0686C138.308 73.7188 143.092 66.5455 150.442 65.0767C154.002 64.3643 157.626 65.0826 160.646 67.0967C163.667 69.1106 165.722 72.1808 166.433 75.7411C167.902 83.091 163.117 90.2642 155.768 91.733C155.106 91.8653 154.444 91.947 153.788 91.9804ZM152.596 67.9943C152.085 68.0204 151.574 68.0836 151.063 68.1856C145.428 69.3115 141.76 74.8124 142.886 80.4467C144.012 86.0816 149.511 89.7522 155.147 88.6239C160.782 87.4982 164.45 81.9971 163.324 76.363C162.778 73.6328 161.203 71.2793 158.887 69.7347C157.005 68.4796 154.816 67.881 152.596 67.9943Z" fill="white"/>
</g>
<path id="Vector_38" d="M155.064 111.572C153.928 111.63 152.782 111.631 151.63 111.573C151.267 111.555 150.905 111.531 150.543 111.501C148.758 111.354 146.989 111.066 145.26 110.64C145.237 110.634 145.213 110.628 145.19 110.622C145.123 110.606 145.056 110.589 144.99 110.571C144.86 110.538 144.73 110.504 144.601 110.469C144.26 110.378 144.032 110.079 144.014 109.745C144.01 109.664 144.019 109.581 144.041 109.498C144.154 109.075 144.589 108.826 145.012 108.938C147.188 109.523 149.441 109.876 151.709 109.989C162.975 110.555 173.186 105.161 179.278 96.582C182.668 91.8106 184.783 86.0532 185.096 79.7868C185.151 78.688 185.151 77.5944 185.095 76.5105C184.723 69.2156 181.876 62.328 176.91 56.8385C171.205 50.5321 163.386 46.8248 154.894 46.3997C137.354 45.5231 122.384 59.0714 121.506 76.6025C121.452 77.6834 121.453 78.7629 121.508 79.8368C121.746 84.4901 122.999 89.0396 125.194 93.1543C125.251 93.2606 125.281 93.3738 125.287 93.4869C125.302 93.7836 125.148 94.0776 124.868 94.2266C124.481 94.4316 124.001 94.2878 123.795 93.9C121.491 89.58 120.174 84.8033 119.925 79.9183C119.867 78.7911 119.866 77.658 119.923 76.5234C120.844 58.1173 136.573 43.8947 154.973 44.816C163.889 45.2623 172.097 49.1545 178.085 55.7747C183.299 61.5377 186.287 68.7685 186.679 76.4268C186.737 77.5647 186.737 78.7126 186.68 79.8659C186.233 88.7822 182.341 96.9905 175.721 102.979C169.957 108.194 162.724 111.182 155.064 111.572Z" fill="white"/>
</g>
</g>
<g id="Group_22">
<g id="Group_23" opacity="0.3">
<path id="Vector_39" opacity="0.3" d="M12.0623 148.622C11.5335 148.649 11.0288 148.329 10.8452 147.804C10.5022 146.823 10.184 145.818 9.90032 144.818C9.71585 144.168 10.093 143.491 10.7436 143.306C11.3942 143.119 12.0705 143.499 12.2552 144.149C12.5258 145.103 12.8289 146.06 13.1561 146.996C13.3793 147.634 13.0427 148.332 12.4048 148.556C12.2914 148.595 12.1763 148.616 12.0623 148.622Z" fill="#B27AFA"/>
<path id="Vector_40" opacity="0.3" d="M9.7828 139.487C9.16335 139.518 8.60807 139.076 8.5122 138.45C8.24006 136.682 8.05615 134.879 7.96513 133.094C7.94592 132.718 7.93099 132.34 7.91943 131.961C7.90003 131.285 8.46837 130.745 9.10646 130.7C9.78223 130.68 10.3461 131.212 10.3666 131.887C10.3774 132.249 10.3914 132.61 10.4097 132.969C10.4964 134.673 10.6721 136.392 10.9308 138.078C11.0338 138.747 10.5755 139.371 9.90758 139.474C9.8658 139.48 9.8242 139.485 9.7828 139.487ZM9.40471 126.784C9.34689 126.787 9.28758 126.786 9.22863 126.781C8.55529 126.718 8.05988 126.122 8.12181 125.449C8.32064 123.289 8.65545 121.122 9.11672 119.01C9.2609 118.349 9.91653 117.933 10.5737 118.076C11.2345 118.22 11.6523 118.872 11.5083 119.532C11.0681 121.548 10.7494 123.614 10.5591 125.674C10.5028 126.287 10.0029 126.753 9.40471 126.784ZM12.1186 114.368C11.9634 114.376 11.8043 114.354 11.649 114.3C11.0116 114.075 10.6777 113.375 10.9029 112.738C11.6245 110.696 12.4814 108.677 13.4515 106.738C13.7541 106.132 14.4873 105.888 15.0938 106.191C15.6982 106.493 15.9433 107.228 15.6413 107.832C14.7165 109.682 13.899 111.606 13.2113 113.554C13.0404 114.035 12.5991 114.344 12.1186 114.368ZM17.8018 102.999C17.5487 103.012 17.2898 102.947 17.0626 102.796C16.5 102.422 16.3471 101.661 16.7216 101.099C17.924 99.2924 19.2485 97.5458 20.6597 95.9061C21.101 95.3941 21.8743 95.3379 22.3856 95.7776C22.8982 96.2181 22.956 96.9907 22.5149 97.5038C21.1696 99.0662 19.9058 100.733 18.7596 102.455C18.5361 102.791 18.176 102.98 17.8018 102.999ZM26.089 93.364C25.7355 93.3819 25.3769 93.247 25.1202 92.9644C24.6656 92.4646 24.7029 91.6907 25.2026 91.2356C26.8064 89.7786 28.5149 88.4062 30.2813 87.1576C30.8334 86.7655 31.5972 86.8978 31.9874 87.4501C32.3774 88.0024 32.2465 88.7666 31.6949 89.156C30.0095 90.3479 28.3797 91.6565 26.8498 93.0474C26.6316 93.2453 26.3617 93.35 26.089 93.364ZM36.4623 86.0325C36.0046 86.0558 35.5521 85.8191 35.3206 85.3881C35.0012 84.7929 35.2256 84.0513 35.8208 83.7314C37.7303 82.7077 39.722 81.7934 41.7398 81.0156C42.373 80.7739 43.079 81.0874 43.3224 81.7177C43.5656 82.3479 43.2512 83.0569 42.6207 83.2998C40.6964 84.0417 38.7983 84.9126 36.978 85.8887C36.8131 85.9775 36.6372 86.0236 36.4623 86.0325ZM48.3102 81.4612C47.7372 81.4905 47.2051 81.1118 47.0615 80.5351C46.8982 79.8791 47.2976 79.2149 47.9534 79.0511C50.0488 78.5291 52.2044 78.1319 54.361 77.8701C55.0349 77.7997 55.6428 78.2679 55.7236 78.9387C55.8051 79.6096 55.327 80.2193 54.6561 80.3012C52.5988 80.5497 50.5429 80.9287 48.5449 81.4265C48.4663 81.4461 48.3878 81.4573 48.3102 81.4612ZM67.2809 80.3389C67.2106 80.3424 67.1378 80.3402 67.0651 80.3309C65.2944 80.1087 63.4807 79.9796 61.6735 79.9474C61.3998 79.941 61.1309 79.9379 60.8628 79.9384C60.1865 79.9369 59.6391 79.3893 59.64 78.713C59.6396 78.0355 60.1923 77.4689 60.8647 77.4896C61.1508 77.4905 61.4364 77.4929 61.7235 77.4996C63.6116 77.534 65.513 77.6692 67.3697 77.9025C68.0408 77.9868 68.5159 78.5983 68.4316 79.2692C68.357 79.8664 67.863 80.3094 67.2809 80.3389Z" fill="#B27AFA"/>
</g>
<g id="Group_24" opacity="0.3">
<path id="Vector_41" opacity="0.3" d="M64.1682 183.108C63.5008 183.142 62.928 182.633 62.8849 181.964C62.8416 181.29 63.3534 180.707 64.0281 180.665C66.0591 180.535 68.0993 180.28 70.0921 179.907C70.7534 179.789 71.3965 180.219 71.5207 180.885C71.6451 181.55 71.2066 182.188 70.5428 182.313C68.4526 182.703 66.3137 182.971 64.185 183.108C64.1795 183.108 64.1734 183.108 64.1682 183.108ZM57.9062 183.132C57.862 183.134 57.8184 183.134 57.7734 183.132C55.6459 183.013 53.5041 182.763 51.4074 182.39C50.7419 182.27 50.2985 181.636 50.4171 180.97C50.5352 180.304 51.1744 179.863 51.8362 179.979C53.837 180.335 55.8808 180.574 57.9109 180.688C58.5855 180.725 59.102 181.304 59.0642 181.978C59.0285 182.609 58.5221 183.101 57.9062 183.132ZM76.4518 180.807C75.9098 180.835 75.3959 180.497 75.2236 179.955C75.019 179.312 75.3746 178.624 76.0189 178.419C77.9591 177.8 79.8777 177.06 81.722 176.215C82.339 175.936 83.0631 176.204 83.344 176.82C83.6255 177.434 83.355 178.161 82.7404 178.442C80.8071 179.327 78.7953 180.103 76.7615 180.75C76.6583 180.783 76.5546 180.802 76.4518 180.807ZM45.5966 180.932C45.4577 180.939 45.315 180.923 45.174 180.88C43.1362 180.252 41.1165 179.492 39.172 178.621C38.5548 178.345 38.279 177.62 38.5552 177.003C38.8315 176.388 39.5557 176.112 40.1724 176.387C42.0268 177.217 43.9517 177.941 45.8947 178.54C46.5405 178.739 46.9032 179.425 46.704 180.07C46.5485 180.575 46.0954 180.907 45.5966 180.932ZM87.814 175.604C87.3813 175.627 86.9501 175.418 86.708 175.023C86.3536 174.446 86.5341 173.693 87.1097 173.339C88.8407 172.276 90.5244 171.097 92.1145 169.831C92.6441 169.409 93.414 169.498 93.8348 170.027C94.2556 170.556 94.168 171.326 93.639 171.747C91.9711 173.073 90.206 174.311 88.3915 175.425C88.2104 175.537 88.0116 175.594 87.814 175.604ZM97.597 167.828C97.2657 167.845 96.9292 167.728 96.6748 167.478C96.1934 167.003 96.1874 166.228 96.662 165.747C98.0913 164.296 99.4449 162.747 100.685 161.142C101.099 160.606 101.868 160.508 102.402 160.922C102.937 161.335 103.036 162.103 102.622 162.637C101.322 164.32 99.9035 165.945 98.4059 167.465C98.1825 167.692 97.8919 167.813 97.597 167.828ZM105.236 157.931C105.003 157.943 104.765 157.889 104.549 157.76C103.968 157.415 103.777 156.664 104.122 156.082C105.164 154.333 106.106 152.504 106.923 150.647C107.195 150.03 107.917 149.748 108.536 150.02C109.154 150.293 109.435 151.015 109.163 151.634C108.306 153.581 107.318 155.499 106.227 157.335C106.009 157.7 105.631 157.911 105.236 157.931Z" fill="#B27AFA"/>
<path id="Vector_42" opacity="0.3" d="M34.1348 175.794C33.8988 175.806 33.6573 175.75 33.44 175.619C32.5434 175.077 31.6592 174.506 30.8108 173.922C30.2545 173.538 30.1132 172.776 30.4965 172.219C30.8807 171.665 31.6417 171.523 32.199 171.905C33.0078 172.462 33.8518 173.007 34.707 173.525C35.2856 173.874 35.4705 174.627 35.1206 175.205C34.9023 175.566 34.5268 175.774 34.1348 175.794Z" fill="#B27AFA"/>
</g>
<g id="Group_25">
<path id="Vector_43" d="M34.3463 159.951C34.5237 160.147 34.8059 160.209 35.0491 160.105L41.9872 157.145C44.8839 159.149 48.1212 160.707 51.605 161.709L53.7031 168.95C53.7765 169.204 54.0032 169.383 54.2673 169.396L63.3041 169.849C63.5683 169.862 63.8115 169.706 63.9103 169.461L66.721 162.466C70.2879 161.817 73.6646 160.591 76.747 158.886L83.3546 162.525C83.5863 162.652 83.8733 162.619 84.0695 162.441L90.7795 156.371C90.9757 156.194 91.0377 155.911 90.9338 155.668L87.9733 148.73C89.978 145.834 91.5353 142.596 92.5375 139.112L99.7781 137.014C100.032 136.941 100.211 136.714 100.225 136.45L100.677 127.413C100.69 127.149 100.534 126.906 100.289 126.807L93.2944 123.996C92.6453 120.429 91.4193 117.053 89.7139 113.971L93.3528 107.363C93.4802 107.131 93.4468 106.844 93.2696 106.648L87.1996 99.938C87.0222 99.7419 86.74 99.68 86.4968 99.7837L79.5587 102.744C76.6622 100.739 73.4247 99.1826 69.9408 98.1802L67.8428 90.9394C67.7691 90.6855 67.5429 90.5061 67.2786 90.4928L58.2415 90.0403C57.9774 90.0271 57.7342 90.1828 57.6355 90.4283L54.8248 97.4231C51.2581 98.0722 47.8813 99.2982 44.7988 101.004L38.1912 97.3647C37.9596 97.2369 37.6725 97.2705 37.4765 97.4479L30.7665 103.518C30.5705 103.695 30.5084 103.978 30.6123 104.221L33.5726 111.159C31.5678 114.056 30.0107 117.293 29.0085 120.777L21.7677 122.875C21.5139 122.948 21.3344 123.175 21.3214 123.439L20.8687 132.476C20.8556 132.74 21.0112 132.983 21.2567 133.082L28.2514 135.893C28.9007 139.459 30.1266 142.836 31.8318 145.918L28.1931 152.526C28.0655 152.758 28.0991 153.045 28.2763 153.241L34.3463 159.951Z" fill="#B27AFA"/>
<g id="Group_26">
<path id="Vector_44" d="M61.2247 139.193C59.2527 139.294 57.3082 138.762 55.6357 137.647C53.5785 136.275 52.1787 134.183 51.6943 131.758C50.6937 126.754 53.9519 121.867 58.958 120.866C63.9725 119.873 68.8516 123.125 69.8515 128.131C70.3367 130.556 69.8478 133.025 68.4757 135.081C67.1039 137.139 65.0124 138.539 62.5864 139.024C62.1334 139.114 61.6779 139.17 61.2247 139.193ZM60.4301 123.142C60.1012 123.159 59.77 123.2 59.4376 123.266C55.7554 124.003 53.3588 127.597 54.0944 131.279C54.4511 133.063 55.4805 134.602 56.9936 135.61C58.5076 136.62 60.3228 136.978 62.1073 136.623C63.891 136.267 65.4298 135.237 66.4387 133.724C67.4484 132.21 67.8076 130.394 67.451 128.61C66.7821 125.26 63.7457 122.973 60.4301 123.142Z" fill="white"/>
</g>
<path id="Vector_45" d="M62.0957 152.831C61.3222 152.871 60.5407 152.871 59.7513 152.832C58.1836 152.754 56.6222 152.517 55.1069 152.125C55.039 152.107 54.9709 152.089 54.903 152.07C54.3776 151.93 54.0243 151.468 53.9974 150.952C53.9911 150.826 54.0043 150.698 54.0385 150.57C54.2134 149.918 54.8857 149.534 55.5379 149.706C56.9492 150.086 58.4078 150.314 59.8727 150.387H59.8733C59.9537 150.391 60.0346 150.394 60.1143 150.397C63.5834 150.538 66.9559 149.808 69.9897 148.313C71.6365 147.501 73.1837 146.463 74.5916 145.212C74.6032 145.202 74.6146 145.192 74.6261 145.182C74.661 145.15 74.6959 145.119 74.7302 145.088C78.8123 141.395 81.2124 136.333 81.4877 130.835C81.5239 130.123 81.5232 129.416 81.4874 128.714C81.2462 123.992 79.4032 119.533 76.1881 115.978C72.4947 111.896 67.4331 109.497 61.9359 109.222C56.4416 108.949 51.1619 110.829 47.0791 114.521C42.9971 118.214 40.5967 123.276 40.3216 128.774C40.2861 129.473 40.2869 130.172 40.3223 130.867C40.4764 133.88 41.2878 136.825 42.7089 139.488C42.7962 139.652 42.8428 139.827 42.8512 140.001C42.8745 140.46 42.6374 140.914 42.2051 141.144C41.6078 141.46 40.8675 141.237 40.5486 140.639C38.9588 137.659 38.0507 134.364 37.8778 130.994C37.838 130.216 37.8371 129.434 37.8763 128.652C38.1844 122.5 40.8696 116.837 45.4373 112.705C50.0045 108.574 55.9039 106.464 62.0578 106.776C68.2092 107.084 73.8716 109.768 78.0033 114.337C81.6008 118.312 83.662 123.301 83.9319 128.585C83.9719 129.369 83.9728 130.161 83.9331 130.957C83.3356 142.866 73.7573 152.237 62.0957 152.831Z" fill="white"/>
</g>
</g>
</g>
</g>
</g>
<defs>
<linearGradient id="paint0_linear_151_10763" x1="587.424" y1="676.409" x2="122.707" y2="99.2593" gradientUnits="userSpaceOnUse">
<stop stop-color="#DAE3FE"/>
<stop offset="1" stop-color="#E9EFFD"/>
</linearGradient>
<linearGradient id="paint1_linear_151_10763" x1="666.852" y1="293.8" x2="-329.302" y2="214.108" gradientUnits="userSpaceOnUse">
<stop stop-color="#B27AFA"/>
<stop offset="1" stop-color="#4042E2"/>
</linearGradient>
<linearGradient id="paint2_linear_151_10763" x1="643.741" y1="50.2767" x2="-962.714" y2="851.176" gradientUnits="userSpaceOnUse">
<stop stop-color="#B27AFA"/>
<stop offset="1" stop-color="#4042E2"/>
</linearGradient>
<linearGradient id="paint3_linear_151_10763" x1="809.328" y1="-144.397" x2="-571.292" y2="810.164" gradientUnits="userSpaceOnUse">
<stop stop-color="#4042E2"/>
<stop offset="0.859375" stop-color="#B27AFA"/>
</linearGradient>
<linearGradient id="paint4_linear_151_10763" x1="515.485" y1="-356.115" x2="138.335" y2="448.821" gradientUnits="userSpaceOnUse">
<stop stop-color="#FF928E"/>
<stop offset="1" stop-color="#FE7062"/>
</linearGradient>
<linearGradient id="paint5_linear_151_10763" x1="484.304" y1="318.563" x2="672.676" y2="380.837" gradientUnits="userSpaceOnUse">
<stop stop-color="#F15959"/>
<stop offset="1" stop-color="#4042E2"/>
</linearGradient>
<linearGradient id="paint6_linear_151_10763" x1="488.229" y1="301.513" x2="684.864" y2="327.896" gradientUnits="userSpaceOnUse">
<stop stop-color="#FF786D"/>
<stop offset="1" stop-color="#4042E2"/>
</linearGradient>
<linearGradient id="paint7_linear_151_10763" x1="214.956" y1="197.25" x2="412.825" y2="297.185" gradientUnits="userSpaceOnUse">
<stop stop-color="#09005D"/>
<stop offset="1" stop-color="#1A0F91"/>
</linearGradient>
<linearGradient id="paint8_linear_151_10763" x1="248.906" y1="251.433" x2="414.524" y2="306.184" gradientUnits="userSpaceOnUse">
<stop stop-color="#09005D"/>
<stop offset="1" stop-color="#1A0F91"/>
</linearGradient>
<linearGradient id="paint9_linear_151_10763" x1="349.256" y1="512.756" x2="322.4" y2="513.694" gradientUnits="userSpaceOnUse">
<stop stop-color="#09005D"/>
<stop offset="1" stop-color="#1A0F91"/>
</linearGradient>
<linearGradient id="paint10_linear_151_10763" x1="347.279" y1="502.304" x2="340.435" y2="503.245" gradientUnits="userSpaceOnUse">
<stop stop-color="#FEBBBA"/>
<stop offset="1" stop-color="#FF928E"/>
</linearGradient>
<linearGradient id="paint11_linear_151_10763" x1="481.847" y1="465.83" x2="477.674" y2="492.377" gradientUnits="userSpaceOnUse">
<stop stop-color="#09005D"/>
<stop offset="1" stop-color="#1A0F91"/>
</linearGradient>
<linearGradient id="paint12_linear_151_10763" x1="471.21" y1="465.788" x2="470.835" y2="472.686" gradientUnits="userSpaceOnUse">
<stop stop-color="#FEBBBA"/>
<stop offset="1" stop-color="#FF928E"/>
</linearGradient>
<linearGradient id="paint13_linear_151_10763" x1="339.536" y1="280.418" x2="350.552" y2="284.044" gradientUnits="userSpaceOnUse">
<stop stop-color="#FEBBBA"/>
<stop offset="1" stop-color="#FF928E"/>
</linearGradient>
<linearGradient id="paint14_linear_151_10763" x1="420.361" y1="431.776" x2="471.507" y2="530.517" gradientUnits="userSpaceOnUse">
<stop stop-color="#09005D"/>
<stop offset="1" stop-color="#1A0F91"/>
</linearGradient>
<linearGradient id="paint15_linear_151_10763" x1="282.46" y1="469.508" x2="366.651" y2="365.394" gradientUnits="userSpaceOnUse">
<stop stop-color="#FF928E"/>
<stop offset="1" stop-color="#FE7062"/>
</linearGradient>
<linearGradient id="paint16_linear_151_10763" x1="348.74" y1="445.554" x2="409.607" y2="457.969" gradientUnits="userSpaceOnUse">
<stop stop-color="#09005D"/>
<stop offset="1" stop-color="#1A0F91"/>
</linearGradient>
<linearGradient id="paint17_linear_151_10763" x1="379.113" y1="290.53" x2="418.608" y2="387.665" gradientUnits="userSpaceOnUse">
<stop stop-color="#FEBBBA"/>
<stop offset="1" stop-color="#FF928E"/>
</linearGradient>
<linearGradient id="paint18_linear_151_10763" x1="392.911" y1="309.16" x2="389.987" y2="345.782" gradientUnits="userSpaceOnUse">
<stop stop-color="#FEBBBA"/>
<stop offset="1" stop-color="#FF928E"/>
</linearGradient>
<linearGradient id="paint19_linear_151_10763" x1="400.854" y1="325.686" x2="381.081" y2="308.099" gradientUnits="userSpaceOnUse">
<stop stop-color="#09005D"/>
<stop offset="1" stop-color="#1A0F91"/>
</linearGradient>
<linearGradient id="paint20_linear_151_10763" x1="401.731" y1="348.066" x2="400.57" y2="322.634" gradientUnits="userSpaceOnUse">
<stop stop-color="#FEBBBA"/>
<stop offset="1" stop-color="#FF928E"/>
</linearGradient>
<linearGradient id="paint21_linear_151_10763" x1="438.801" y1="300.728" x2="445.565" y2="302.108" gradientUnits="userSpaceOnUse">
<stop stop-color="#FEBBBA"/>
<stop offset="1" stop-color="#FF928E"/>
</linearGradient>
</defs>
</svg>
