<svg width="140" height="320" viewBox="0 0 140 320" fill="none" xmlns="http://www.w3.org/2000/svg">
<circle cx="6" cy="5" r="5" fill="#586582" fill-opacity="0.3"/>
<circle cx="6" cy="31" r="5" fill="#586582" fill-opacity="0.3"/>
<circle cx="6" cy="57" r="5" fill="#586582" fill-opacity="0.3"/>
<circle cx="6" cy="83" r="5" fill="#586582" fill-opacity="0.3"/>
<circle cx="6" cy="109" r="5" fill="#586582" fill-opacity="0.3"/>
<circle cx="6" cy="135" r="5" fill="#586582" fill-opacity="0.3"/>
<circle cx="6" cy="161" r="5" fill="#586582" fill-opacity="0.3"/>
<circle cx="6" cy="187" r="5" fill="#586582" fill-opacity="0.3"/>
<circle cx="6" cy="211" r="5" fill="#586582" fill-opacity="0.3"/>
<circle cx="6" cy="237" r="5" fill="#586582" fill-opacity="0.3"/>
<circle cx="10" cy="263" r="5" fill="#586582" fill-opacity="0.3"/>
<circle cx="6" cy="289" r="5" fill="#586582" fill-opacity="0.3"/>
<circle cx="5" cy="315" r="5" fill="#586582" fill-opacity="0.3"/>
<circle cx="81" cy="5" r="5" fill="#586582" fill-opacity="0.3"/>
<circle cx="81" cy="31" r="5" fill="#586582" fill-opacity="0.3"/>
<circle cx="81" cy="57" r="5" fill="#586582" fill-opacity="0.3"/>
<circle cx="81" cy="83" r="5" fill="#586582" fill-opacity="0.3"/>
<circle cx="81" cy="109" r="5" fill="#586582" fill-opacity="0.3"/>
<circle cx="81" cy="135" r="5" fill="#586582" fill-opacity="0.3"/>
<circle cx="81" cy="161" r="5" fill="#586582" fill-opacity="0.3"/>
<circle cx="81" cy="187" r="5" fill="#586582" fill-opacity="0.3"/>
<circle cx="81" cy="211" r="5" fill="#586582" fill-opacity="0.3"/>
<circle cx="81" cy="237" r="5" fill="#586582" fill-opacity="0.3"/>
<circle cx="85" cy="263" r="5" fill="#586582" fill-opacity="0.3"/>
<circle cx="81" cy="289" r="5" fill="#586582" fill-opacity="0.3"/>
<circle cx="80" cy="315" r="5" fill="#586582" fill-opacity="0.3"/>
<circle cx="31" cy="5" r="5" fill="#586582" fill-opacity="0.3"/>
<circle cx="31" cy="31" r="5" fill="#586582" fill-opacity="0.3"/>
<circle cx="31" cy="57" r="5" fill="#586582" fill-opacity="0.3"/>
<circle cx="31" cy="83" r="5" fill="#586582" fill-opacity="0.3"/>
<circle cx="31" cy="109" r="5" fill="#586582" fill-opacity="0.3"/>
<circle cx="31" cy="135" r="5" fill="#586582" fill-opacity="0.3"/>
<circle cx="31" cy="161" r="5" fill="#586582" fill-opacity="0.3"/>
<circle cx="31" cy="187" r="5" fill="#586582" fill-opacity="0.3"/>
<circle cx="31" cy="211" r="5" fill="#586582" fill-opacity="0.3"/>
<circle cx="31" cy="237" r="5" fill="#586582" fill-opacity="0.3"/>
<circle cx="35" cy="263" r="5" fill="#586582" fill-opacity="0.3"/>
<circle cx="31" cy="289" r="5" fill="#586582" fill-opacity="0.3"/>
<circle cx="30" cy="315" r="5" fill="#586582" fill-opacity="0.3"/>
<circle cx="106" cy="5" r="5" fill="#586582" fill-opacity="0.3"/>
<circle cx="106" cy="31" r="5" fill="#586582" fill-opacity="0.3"/>
<circle cx="106" cy="57" r="5" fill="#586582" fill-opacity="0.3"/>
<circle cx="106" cy="83" r="5" fill="#586582" fill-opacity="0.3"/>
<circle cx="106" cy="109" r="5" fill="#586582" fill-opacity="0.3"/>
<circle cx="106" cy="135" r="5" fill="#586582" fill-opacity="0.3"/>
<circle cx="106" cy="161" r="5" fill="#586582" fill-opacity="0.3"/>
<circle cx="106" cy="187" r="5" fill="#586582" fill-opacity="0.3"/>
<circle cx="106" cy="211" r="5" fill="#586582" fill-opacity="0.3"/>
<circle cx="106" cy="237" r="5" fill="#586582" fill-opacity="0.3"/>
<circle cx="110" cy="263" r="5" fill="#586582" fill-opacity="0.3"/>
<circle cx="106" cy="289" r="5" fill="#586582" fill-opacity="0.3"/>
<circle cx="105" cy="315" r="5" fill="#586582" fill-opacity="0.3"/>
<circle cx="56" cy="5" r="5" fill="#586582" fill-opacity="0.3"/>
<circle cx="56" cy="31" r="5" fill="#586582" fill-opacity="0.3"/>
<circle cx="56" cy="57" r="5" fill="#586582" fill-opacity="0.3"/>
<circle cx="56" cy="83" r="5" fill="#586582" fill-opacity="0.3"/>
<circle cx="56" cy="109" r="5" fill="#586582" fill-opacity="0.3"/>
<circle cx="56" cy="135" r="5" fill="#586582" fill-opacity="0.3"/>
<circle cx="56" cy="161" r="5" fill="#586582" fill-opacity="0.3"/>
<circle cx="56" cy="187" r="5" fill="#586582" fill-opacity="0.3"/>
<circle cx="56" cy="211" r="5" fill="#586582" fill-opacity="0.3"/>
<circle cx="56" cy="237" r="5" fill="#586582" fill-opacity="0.3"/>
<circle cx="60" cy="263" r="5" fill="#586582" fill-opacity="0.3"/>
<circle cx="56" cy="289" r="5" fill="#586582" fill-opacity="0.3"/>
<circle cx="55" cy="315" r="5" fill="#586582" fill-opacity="0.3"/>
<circle cx="131" cy="5" r="5" fill="#586582" fill-opacity="0.3"/>
<circle cx="131" cy="31" r="5" fill="#586582" fill-opacity="0.3"/>
<circle cx="131" cy="57" r="5" fill="#586582" fill-opacity="0.3"/>
<circle cx="131" cy="83" r="5" fill="#586582" fill-opacity="0.3"/>
<circle cx="131" cy="109" r="5" fill="#586582" fill-opacity="0.3"/>
<circle cx="131" cy="135" r="5" fill="#586582" fill-opacity="0.3"/>
<circle cx="131" cy="161" r="5" fill="#586582" fill-opacity="0.3"/>
<circle cx="131" cy="187" r="5" fill="#586582" fill-opacity="0.3"/>
<circle cx="131" cy="211" r="5" fill="#586582" fill-opacity="0.3"/>
<circle cx="131" cy="237" r="5" fill="#586582" fill-opacity="0.3"/>
<circle cx="135" cy="263" r="5" fill="#586582" fill-opacity="0.3"/>
<circle cx="131" cy="289" r="5" fill="#586582" fill-opacity="0.3"/>
<circle cx="130" cy="315" r="5" fill="#586582" fill-opacity="0.3"/>
</svg>
